<svg width="40" height="40" viewBox="0 0 40 40" fill="none" xmlns="http://www.w3.org/2000/svg">
<path d="M20 0C23.9556 0 27.8224 1.17298 31.1114 3.37061C34.4004 5.56824 36.9638 8.69181 38.4776 12.3463C39.9913 16.0009 40.3874 20.0222 39.6157 23.9018C38.844 27.7814 36.9392 31.3451 34.1421 34.1421C31.3451 36.9392 27.7814 38.844 23.9018 39.6157C20.0222 40.3874 16.0009 39.9913 12.3463 38.4776C8.69181 36.9638 5.56824 34.4004 3.37061 31.1114C1.17298 27.8224 0 23.9556 0 20C0 14.6957 2.10714 9.60859 5.85786 5.85786C9.60859 2.10714 14.6957 0 20 0Z" fill="#4E9C0B"/>
<path fill-rule="evenodd" clip-rule="evenodd" d="M19.9998 13.297C20.24 13.297 20.4705 13.3924 20.6404 13.5624C20.8103 13.7323 20.9058 13.9627 20.9058 14.203V25.797C20.9058 25.916 20.8823 26.0338 20.8368 26.1437C20.7913 26.2536 20.7245 26.3535 20.6404 26.4376C20.5563 26.5218 20.4564 26.5885 20.3465 26.634C20.2365 26.6796 20.1187 26.703 19.9998 26.703C19.8808 26.703 19.763 26.6796 19.653 26.634C19.5431 26.5885 19.4432 26.5218 19.3591 26.4376C19.275 26.3535 19.2082 26.2536 19.1627 26.1437C19.1172 26.0338 19.0937 25.916 19.0938 25.797V14.197C19.0953 13.9578 19.1915 13.7288 19.3612 13.5602C19.531 13.3916 19.7605 13.297 19.9998 13.297Z" fill="white"/>
<path fill-rule="evenodd" clip-rule="evenodd" d="M26.7011 20.001C26.7011 20.2413 26.6056 20.4717 26.4357 20.6416C26.2658 20.8115 26.0353 20.907 25.7951 20.907H14.1951C13.9548 20.907 13.7243 20.8115 13.5544 20.6416C13.3845 20.4717 13.2891 20.2413 13.2891 20.001C13.2891 19.7607 13.3845 19.5302 13.5544 19.3603C13.7243 19.1904 13.9548 19.095 14.1951 19.095H25.7941C25.9131 19.0948 26.031 19.1182 26.1411 19.1636C26.2511 19.2091 26.3511 19.2758 26.4353 19.36C26.5196 19.4441 26.5864 19.544 26.632 19.654C26.6776 19.764 26.7011 19.8819 26.7011 20.001Z" fill="white"/>
</svg>
