<svg width="20" height="21" viewBox="0 0 20 21" fill="none" xmlns="http://www.w3.org/2000/svg">
<path opacity="0.4" d="M20 10.5645C20 12.5423 19.4135 14.4757 18.3147 16.1202C17.2159 17.7646 15.6541 19.0464 13.8268 19.8032C11.9996 20.5601 9.98891 20.7582 8.0491 20.3723C6.10929 19.9865 4.32746 19.034 2.92894 17.6355C1.53041 16.237 0.578004 14.4552 0.192152 12.5154C-0.193701 10.5755 0.00433284 8.56488 0.761209 6.73762C1.51809 4.91036 2.79981 3.34857 4.4443 2.24976C6.08879 1.15094 8.02219 0.564453 10 0.564453C12.6513 0.567365 15.1931 1.62187 17.0679 3.4966C18.9426 5.37133 19.9971 7.91318 20 10.5645Z" fill="#76777A"/>
<path fill-rule="evenodd" clip-rule="evenodd" d="M9.99985 7.64746C10.12 7.64746 10.2352 7.69519 10.3202 7.78013C10.4051 7.86508 10.4528 7.9803 10.4528 8.10044V13.8972C10.4528 13.9566 10.4411 14.0155 10.4183 14.0705C10.3956 14.1255 10.3622 14.1754 10.3202 14.2175C10.2781 14.2595 10.2282 14.2929 10.1732 14.3157C10.1182 14.3384 10.0593 14.3501 9.99985 14.3501C9.94037 14.3501 9.88146 14.3384 9.82651 14.3157C9.77155 14.2929 9.72161 14.2595 9.67955 14.2175C9.63749 14.1754 9.60412 14.1255 9.58136 14.0705C9.55859 14.0155 9.54687 13.9566 9.54688 13.8972V8.09744C9.54767 7.97782 9.59574 7.86337 9.68061 7.77907C9.76547 7.69477 9.88023 7.64746 9.99985 7.64746Z" fill="#36373C"/>
<path fill-rule="evenodd" clip-rule="evenodd" d="M13.3502 10.9991C13.3502 11.1193 13.3025 11.2345 13.2175 11.3194C13.1326 11.4044 13.0174 11.4521 12.8972 11.4521H7.09751C6.97737 11.4521 6.86216 11.4044 6.77721 11.3194C6.69226 11.2345 6.64453 11.1193 6.64453 10.9991C6.64453 10.879 6.69226 10.7638 6.77721 10.6788C6.86216 10.5939 6.97737 10.5461 7.09751 10.5461H12.8967C12.9563 10.5461 13.0152 10.5577 13.0702 10.5805C13.1252 10.6032 13.1752 10.6366 13.2174 10.6786C13.2595 10.7207 13.2929 10.7707 13.3157 10.8257C13.3385 10.8806 13.3502 10.9396 13.3502 10.9991Z" fill="#36373C"/>
</svg>
