<?xml version="1.0" standalone="no"?>
<!DOCTYPE svg PUBLIC "-//W3C//DTD SVG 20010904//EN"
 "http://www.w3.org/TR/2001/REC-SVG-20010904/DTD/svg10.dtd">
<svg version="1.0" xmlns="http://www.w3.org/2000/svg"
 width="428.000000pt" height="761.000000pt" viewBox="0 0 428.000000 761.000000"
 preserveAspectRatio="xMidYMid meet">

<g transform="translate(0.000000,761.000000) scale(0.100000,-0.100000)"
fill="#000000" stroke="none">
<path d="M1855 4879 c-232 -6 -497 -26 -675 -49 -66 -9 -79 -15 -113 -48 -73
-70 -177 -240 -304 -496 -99 -199 -128 -244 -169 -261 -35 -15 -43 -32 -22
-53 7 -7 8 -12 2 -12 -26 0 -32 25 -27 114 7 117 1 126 -97 126 -76 0 -181
-28 -247 -66 -39 -23 -42 -27 -36 -57 3 -17 10 -40 15 -50 13 -25 103 -65 164
-73 49 -6 144 -56 144 -76 0 -5 -9 -12 -20 -15 -27 -7 -35 -40 -16 -62 15 -17
12 -24 -58 -103 -41 -47 -99 -106 -128 -131 -29 -25 -65 -56 -80 -69 -29 -25
-39 -73 -68 -333 -13 -112 -23 -145 -44 -145 -8 0 -20 -8 -25 -17 -10 -17 -10
-17 -11 -1 0 10 -9 22 -20 28 -20 11 -20 8 -20 -1510 l0 -1520 2140 0 2140 0
0 1556 0 1556 -30 11 c-17 6 -30 19 -30 28 0 18 -26 33 -41 23 -5 -3 -9 0 -9
5 0 6 -7 11 -15 11 -9 0 -16 14 -20 38 -8 53 -56 255 -64 269 -3 6 -35 32 -71
59 -100 72 -280 253 -280 281 0 12 -9 28 -20 35 -11 7 -20 16 -20 19 0 13 119
79 142 79 40 0 117 27 159 54 35 24 39 30 39 70 l0 44 -72 30 c-120 49 -271
69 -296 40 -18 -23 -22 -72 -12 -133 9 -57 9 -61 -16 -85 l-25 -25 -20 25
c-11 14 -53 93 -93 175 -196 403 -378 651 -493 669 -124 21 -347 38 -538 42
-121 2 -249 5 -285 7 -36 1 -177 -1 -315 -4z m-115 -30 c-64 -11 -102 -11 -95
1 3 6 36 9 73 9 66 -1 66 -2 22 -10z m295 -19 c-3 -5 21 -10 57 -12 l63 -3
-85 -10 -85 -9 117 -11 c115 -11 168 -25 95 -25 -20 0 -39 -4 -42 -10 -3 -6
13 -9 42 -7 26 1 86 0 133 -2 l85 -3 -60 -9 c-51 -8 -144 -7 -302 3 -18 1 -30
5 -27 10 7 11 -3 10 -25 -4 -14 -8 -43 -9 -112 -1 -52 5 -114 9 -139 8 -25 -2
-93 -4 -152 -6 -60 -1 -108 -6 -108 -11 0 -4 -21 -6 -47 -3 -32 3 -54 0 -70
-10 -28 -19 -33 -19 -33 -1 0 13 9 16 110 32 40 6 42 8 22 15 -13 5 -27 7 -31
5 -4 -3 -63 -12 -132 -21 -68 -8 -153 -21 -189 -29 -67 -14 -81 -13 -64 4 17
17 203 59 292 66 48 4 89 13 97 20 9 10 40 14 102 13 57 0 81 -3 68 -9 -20 -8
73 -6 285 7 70 4 97 9 80 14 -21 6 -17 7 18 8 25 1 41 -3 37 -9z m158 -17 c-7
-2 -19 -2 -25 0 -7 3 -2 5 12 5 14 0 19 -2 13 -5z m-884 -107 c10 -12 -2 -15
-71 -21 -46 -3 -92 -9 -103 -11 -16 -4 -17 -3 -5 4 8 5 40 13 70 16 30 4 62
11 70 16 20 13 26 12 39 -4z m496 4 c44 0 56 -3 45 -10 -8 -6 -43 -9 -77 -8
-34 2 -65 -1 -69 -5 -11 -11 -64 -9 -64 3 0 5 -15 7 -32 5 -30 -4 -30 -4 7 9
22 8 60 13 85 11 25 -2 72 -4 105 -5z m153 -17 c-10 -2 -28 -2 -40 0 -13 2 -5
4 17 4 22 1 32 -1 23 -4z m195 0 c-7 -2 -19 -2 -25 0 -7 3 -2 5 12 5 14 0 19
-2 13 -5z m-605 -10 c-10 -2 -26 -2 -35 0 -10 3 -2 5 17 5 19 0 27 -2 18 -5z
m607 -13 c4 -6 -5 -10 -20 -10 -19 0 -26 -4 -22 -14 3 -7 0 -19 -6 -25 -8 -8
-5 -11 12 -11 12 0 20 -4 16 -9 -3 -5 2 -16 11 -25 31 -32 -9 -44 -98 -30 -25
5 -35 11 -31 20 4 10 -3 14 -25 14 -16 0 -35 7 -42 15 -16 20 -165 14 -206 -9
l-29 -16 60 2 c90 2 133 -11 204 -59 80 -55 129 -58 185 -14 20 16 36 33 34
38 -4 10 68 17 89 8 14 -5 14 -7 -1 -23 -9 -10 -16 -23 -16 -27 0 -5 -11 -18
-25 -30 -14 -11 -27 -31 -29 -45 -1 -14 -5 -31 -9 -37 -11 -17 28 -35 58 -27
31 8 35 -15 5 -34 -20 -12 -20 -12 0 -32 12 -12 31 -20 43 -19 12 1 30 1 41 1
17 -2 16 -4 -4 -20 -28 -23 -18 -46 16 -38 20 5 24 1 33 -31 12 -41 8 -51 -12
-34 -34 27 -63 -75 -32 -109 18 -20 17 -20 -68 -20 -47 0 -88 4 -92 9 -5 9 3
13 58 25 22 5 27 11 22 24 -8 19 -18 48 -35 107 -7 22 -25 59 -41 82 -16 23
-29 46 -29 53 0 6 -4 8 -10 5 -5 -3 -10 -2 -10 4 0 20 -30 38 -112 70 -86 33
-89 35 -130 63 -15 11 -53 20 -101 24 -51 5 -78 11 -81 21 -3 7 1 16 9 19 31
12 4 21 -51 17 -38 -3 -54 -1 -49 6 3 6 14 11 24 11 17 0 61 42 61 58 0 4 -6
7 -13 8 -39 1 -107 17 -112 25 -4 5 9 10 27 10 18 1 101 5 183 9 241 11 343
11 350 0z m50 0 c-3 -5 -14 -10 -23 -10 -15 0 -15 2 -2 10 20 13 33 13 25 0z
m75 0 c-20 -13 -53 -13 -45 0 3 6 18 10 33 10 21 0 24 -2 12 -10z m73 3 c-7
-2 -21 -2 -30 0 -10 3 -4 5 12 5 17 0 24 -2 18 -5z m-198 -33 c3 -5 1 -10 -4
-10 -6 0 -11 5 -11 10 0 6 2 10 4 10 3 0 8 -4 11 -10z m-734 -9 c-12 -8 -51
-4 -51 5 0 2 15 4 33 4 22 0 28 -3 18 -9z m1236 -7 c0 -5 -4 -8 -9 -6 -6 2
-18 0 -27 -4 -27 -11 -62 -10 -79 2 -14 10 -13 11 10 7 14 -3 29 0 33 6 8 13
69 9 72 -5z m-1402 -13 c-10 -9 -85 -23 -85 -16 0 5 59 23 80 24 8 1 10 -2 5
-8z m1302 -27 c-3 -3 -12 -4 -19 -1 -8 3 -5 6 6 6 11 1 17 -2 13 -5z m76 -1
c-7 -2 -19 -2 -25 0 -7 3 -2 5 12 5 14 0 19 -2 13 -5z m-158 -23 c3 -5 1 -10
-4 -10 -6 0 -11 5 -11 10 0 6 2 10 4 10 3 0 8 -4 11 -10z m224 1 c11 -7 5 -11
-22 -16 -31 -6 -36 -10 -25 -22 6 -8 20 -12 30 -9 11 2 18 0 15 -7 -5 -15 -53
-20 -78 -6 -17 9 -23 8 -30 -2 -7 -11 -9 -10 -9 3 0 9 -10 24 -21 32 l-22 15
24 5 c13 3 42 7 64 9 22 2 45 4 50 5 6 1 16 -2 24 -7z m382 -33 c11 -21 11
-22 -4 -9 -10 7 -17 17 -17 22 0 15 9 10 21 -13z m-743 -16 c2 -14 -2 -22 -12
-22 -19 0 -28 14 -20 35 9 21 28 14 32 -13z m-928 5 c0 -2 -10 -12 -22 -23
l-23 -19 19 23 c18 21 26 27 26 19z m94 -61 c-6 -16 -24 -23 -24 -8 0 10 22
33 27 28 2 -2 1 -11 -3 -20z m1196 -10 c0 -8 6 -16 13 -19 6 -2 9 -7 5 -11 -8
-10 -49 25 -42 36 8 13 24 9 24 -6z m77 -13 c14 -29 3 -46 -24 -36 -16 6 -18
23 -2 23 6 0 8 9 4 20 -9 30 8 24 22 -7z m23 17 c0 -5 -5 -10 -11 -10 -5 0 -7
5 -4 10 3 6 8 10 11 10 2 0 4 -4 4 -10z m184 -47 c12 -7 15 -13 7 -17 -6 -4
-11 -3 -11 3 0 5 -8 8 -17 6 -10 -1 -17 -10 -17 -19 2 -20 -43 -69 -51 -55 -4
5 -13 9 -22 9 -15 0 -14 -2 0 -18 24 -26 21 -34 -5 -20 -58 32 -70 58 -27 58
16 0 18 5 13 28 -5 22 -4 25 7 15 16 -15 69 -17 69 -3 0 6 -9 10 -20 10 -24 0
-25 4 -3 30 17 19 18 19 38 1 11 -10 28 -23 39 -28z m-694 27 c0 -5 -4 -10
-10 -10 -5 0 -10 5 -10 10 0 6 5 10 10 10 6 0 10 -4 10 -10z m380 -37 c0 -26
-1 -26 -14 -8 -14 20 -12 35 5 35 5 0 9 -12 9 -27z m421 -29 c11 -14 5 -34
-11 -34 -5 0 -21 11 -35 24 -18 16 -22 25 -13 28 18 7 45 -2 59 -18z m-496 6
c8 -13 -5 -13 -25 0 -13 8 -13 10 2 10 9 0 20 -4 23 -10z m-220 -20 c-3 -5
-13 -10 -21 -10 -8 0 -12 5 -9 10 3 6 13 10 21 10 8 0 12 -4 9 -10z m35 -10
c0 -5 -5 -10 -11 -10 -5 0 -7 5 -4 10 3 6 8 10 11 10 2 0 4 -4 4 -10z m120
-10 c0 -5 -5 -10 -11 -10 -5 0 -7 5 -4 10 3 6 8 10 11 10 2 0 4 -4 4 -10z
m139 -28 c-14 -5 -39 6 -39 17 0 5 11 4 25 -2 13 -7 20 -14 14 -15z m131 18
c0 -5 -4 -10 -9 -10 -5 0 -17 -3 -25 -6 -12 -5 -15 -2 -10 10 7 17 44 22 44 6z
m155 1 c3 -5 1 -12 -5 -16 -5 -3 -10 1 -10 9 0 18 6 21 15 7z m-135 -31 c0 -5
-4 -10 -10 -10 -5 0 -10 5 -10 10 0 6 5 10 10 10 6 0 10 -4 10 -10z m-320 -47
c0 -5 -11 -13 -25 -20 -20 -9 -25 -8 -25 2 0 8 10 16 23 18 12 2 23 5 25 6 1
0 2 -2 2 -6z m560 -27 c0 -3 -4 -8 -10 -11 -5 -3 -10 -1 -10 4 0 6 5 11 10 11
6 0 10 -2 10 -4z m-325 -56 c9 -16 21 -30 28 -30 17 0 57 -46 57 -64 0 -9 -7
-12 -20 -9 -11 3 -20 0 -20 -6 0 -19 -15 -12 -25 12 -12 27 -28 26 -35 -5 -5
-20 -7 -21 -13 -5 -3 9 -15 17 -24 17 -22 0 -53 34 -53 58 1 15 2 15 13 1 7
-9 25 -19 41 -23 28 -7 28 -7 22 29 -6 32 -2 55 9 55 3 0 11 -13 20 -30z m115
12 c0 -10 3 -22 8 -27 4 -6 6 -9 3 -8 -2 1 -11 -2 -20 -7 -14 -7 -16 -4 -13
26 4 35 22 48 22 16z m230 14 c0 -3 -4 -8 -10 -11 -5 -3 -10 -1 -10 4 0 6 5
11 10 11 6 0 10 -2 10 -4z m-70 -26 c0 -5 -4 -10 -10 -10 -5 0 -10 5 -10 10 0
6 5 10 10 10 6 0 10 -4 10 -10z m36 -16 c-3 -7 -1 -16 4 -19 6 -4 10 -20 10
-38 0 -29 -1 -30 -14 -12 -17 25 -28 73 -21 86 9 14 27 -1 21 -17z m-417 -77
c8 -11 6 -18 -8 -31 -27 -24 -42 -13 -28 19 14 28 20 30 36 12z m199 -50 c15
0 16 -17 2 -17 -6 0 -10 -8 -8 -17 4 -21 -30 -25 -49 -7 -7 7 -21 10 -31 7
-12 -3 -22 4 -30 21 l-11 26 57 -6 c31 -4 63 -6 70 -7z m-389 -86 c12 -8 12
-12 2 -25 -17 -20 -42 -21 -35 -1 4 10 0 15 -15 15 -16 0 -21 -6 -21 -25 0
-20 5 -25 28 -26 23 0 24 -1 7 -8 -11 -5 -29 -7 -40 -5 -11 2 -28 1 -39 -2
-15 -5 -16 -8 -5 -15 12 -8 11 -12 -4 -23 -17 -13 -15 -17 34 -63 29 -26 70
-65 91 -86 l38 -39 116 -5 c107 -6 117 -5 145 16 16 12 29 18 29 13 0 -7 -41
-129 -70 -210 -9 -25 -17 -32 -29 -27 -9 4 -45 13 -80 21 -35 7 -71 20 -80 28
-26 23 -105 12 -180 -26 l-65 -33 -243 1 c-203 1 -246 4 -261 16 -9 9 -27 19
-39 22 -11 4 -27 13 -33 21 -22 26 -37 16 -43 -25 -6 -50 -24 -75 -42 -60 -7
6 -38 66 -68 133 -31 67 -81 176 -111 242 -64 138 -67 149 -30 135 32 -12 114
-13 133 -1 8 5 11 16 8 24 -5 12 3 17 31 20 80 8 858 6 871 -2z m125 2 c4 -5
35 -6 68 -4 40 2 58 -1 54 -7 -9 -14 17 -19 96 -18 73 1 77 -3 56 -48 -8 -19
-14 -23 -24 -16 -8 7 -51 8 -130 2 -112 -9 -178 -8 -231 4 -29 6 -30 24 -3 24
35 0 80 29 80 50 0 20 20 27 34 13z m459 -6 c18 -8 38 -21 45 -30 12 -14 9
-18 -17 -31 -16 -9 -48 -16 -71 -16 -38 0 -42 3 -56 35 -8 20 -12 40 -9 45 9
14 71 12 108 -3z m-2303 -36 c3 -3 23 -15 45 -26 27 -14 39 -26 37 -38 -4 -23
4 -22 92 13 75 30 76 30 252 28 l177 -3 23 -70 c12 -38 27 -97 34 -130 7 -33
24 -88 37 -121 19 -49 21 -67 13 -88 -7 -20 -6 -36 4 -61 8 -19 12 -36 8 -38
-6 -3 -104 -2 -124 2 -5 0 -8 6 -8 12 0 5 4 8 9 4 6 -3 16 1 23 8 7 8 22 12
33 10 20 -4 17 -2 -60 33 -16 8 -46 20 -65 27 -19 8 -59 33 -89 55 -73 55
-156 89 -176 72 -8 -7 -15 -23 -15 -35 0 -24 48 -105 62 -105 4 0 8 -5 8 -11
0 -6 10 -25 23 -42 12 -18 30 -48 41 -67 26 -49 74 -108 99 -121 27 -15 228
-19 331 -7 113 13 118 13 149 -22 l27 -30 0 39 c0 29 5 43 18 50 20 10 276 7
352 -4 25 -4 55 -13 67 -21 12 -8 36 -14 52 -14 28 0 49 -15 38 -26 -3 -3 -70
-10 -148 -15 -79 -5 -157 -12 -174 -15 -16 -3 -177 -8 -356 -11 l-327 -5 -51
63 c-93 115 -114 142 -206 259 -162 205 -280 382 -300 448 -6 22 -5 23 17 17
12 -4 25 -10 28 -14z m-42 -294 c7 -6 21 -27 31 -48 17 -35 18 -39 2 -53 -15
-14 -23 -12 -78 15 -80 39 -91 52 -64 76 37 31 77 35 109 10z m2480 -6 c44
-23 24 -51 -62 -86 -28 -12 -50 -26 -49 -32 2 -7 -6 -15 -18 -18 -11 -4 -31
-18 -46 -33 -25 -25 -105 -53 -139 -48 -30 4 -40 31 -26 69 7 18 12 49 12 68
0 48 10 59 71 80 42 16 73 19 144 16 50 -2 101 -9 113 -16z m202 -24 c0 -21
-109 -172 -110 -151 0 6 9 19 20 29 12 11 20 31 20 50 0 18 9 44 21 59 21 27
49 35 49 13z m-2800 -57 c0 -11 -30 -21 -42 -14 -7 5 -4 12 7 20 18 13 35 10
35 -6z m3358 -205 c2 -9 1 -37 -3 -61 -5 -39 -10 -44 -43 -55 -20 -6 -41 -15
-47 -19 -10 -6 -51 -19 -130 -40 -49 -13 -287 -59 -334 -65 -20 -2 -48 4 -72
17 -21 11 -43 17 -49 13 -5 -3 -10 -1 -10 5 0 6 -7 19 -16 27 -15 15 -14 17 8
29 12 7 36 13 52 14 27 0 28 -2 23 -37 l-5 -38 13 30 c7 16 11 34 9 40 -4 11
69 35 105 35 15 0 18 -5 14 -22 -4 -20 -3 -21 7 -5 14 21 39 22 47 1 4 -11 8
-12 13 -4 5 9 13 9 27 2 19 -10 60 -4 193 31 87 23 110 34 110 56 0 11 -8 24
-17 30 -20 11 -18 12 47 30 44 11 54 9 58 -14z m-3505 -10 c21 -5 28 -13 26
-29 -3 -44 1 -56 21 -56 11 0 28 -4 38 -10 9 -5 63 -18 119 -29 102 -19 103
-19 169 1 69 22 80 21 248 -20 50 -12 40 -36 -30 -72 -51 -26 -71 -31 -101
-26 -21 3 -45 6 -53 7 -16 1 -110 16 -145 23 -239 50 -349 87 -358 123 -27 99
-18 111 66 88z m-112 -75 l-9 -55 -1 61 c0 33 2 64 7 68 12 13 13 -15 3 -74z
m2307 -27 c-13 -50 -19 -58 -29 -42 -12 20 -11 23 12 53 27 34 29 33 17 -11z
m-2289 -98 c1 -16 -1 -17 -9 -5 -5 8 -9 29 -9 45 1 29 1 29 9 5 4 -14 8 -34 9
-45z m1348 -38 l398 -2 -410 -3 -410 -2 -14 22 c-14 22 -14 22 12 5 23 -15 70
-17 424 -20z m-569 -197 c-15 -23 -28 -26 -28 -7 0 17 10 27 27 27 11 0 11 -4
1 -20z"/>
<path d="M1513 4803 c15 -2 39 -2 55 0 15 2 2 4 -28 4 -30 0 -43 -2 -27 -4z"/>
<path d="M1518 4753 c6 -2 18 -2 25 0 6 3 1 5 -13 5 -14 0 -19 -2 -12 -5z"/>
<path d="M3360 3148 c0 -36 4 -35 14 5 4 16 2 27 -4 27 -5 0 -10 -14 -10 -32z"/>
<path d="M3351 3094 c0 -11 3 -14 6 -6 3 7 2 16 -1 19 -3 4 -6 -2 -5 -13z"/>
</g>
</svg>
