<svg xmlns="http://www.w3.org/2000/svg" width="54" height="54" viewBox="0 0 54 54">
  <g id="Group_17101" data-name="Group 17101" transform="translate(-218.411 -772.024)">
    <g id="Path_21330" data-name="Path 21330" transform="translate(218.411 772.024)" fill="none">
      <path d="M27,0A27,27,0,1,1,0,27,27,27,0,0,1,27,0Z" stroke="none"/>
      <path d="M 27 1 C 23.48958015441895 1 20.08470153808594 1.687301635742188 16.87992858886719 3.042800903320312 C 13.78398895263672 4.352268218994141 11.00334167480469 6.22711181640625 8.615219116210938 8.615219116210938 C 6.22711181640625 11.00334167480469 4.352268218994141 13.78398895263672 3.042800903320312 16.87992858886719 C 1.687301635742188 20.08470153808594 1 23.48958015441895 1 27 C 1 30.51041984558105 1.687301635742188 33.91529846191406 3.042800903320312 37.12007141113281 C 4.352268218994141 40.21601104736328 6.22711181640625 42.99665832519531 8.615219116210938 45.38478088378906 C 11.00334167480469 47.77288818359375 13.78398895263672 49.64772796630859 16.87992858886719 50.95719909667969 C 20.08470153808594 52.31269836425781 23.48958015441895 53 27 53 C 30.51041984558105 53 33.91529846191406 52.31269836425781 37.12007141113281 50.95719909667969 C 40.21601104736328 49.64772796630859 42.99665832519531 47.77288818359375 45.38478088378906 45.38478088378906 C 47.77288818359375 42.99665832519531 49.64772796630859 40.21601104736328 50.95719909667969 37.12007141113281 C 52.31269836425781 33.91529846191406 53 30.51041984558105 53 27 C 53 23.48958015441895 52.31269836425781 20.08470153808594 50.95719909667969 16.87992858886719 C 49.64772796630859 13.78398895263672 47.77288818359375 11.00334167480469 45.38478088378906 8.615219116210938 C 42.99665832519531 6.22711181640625 40.21601104736328 4.352268218994141 37.12007141113281 3.042800903320312 C 33.91529846191406 1.687301635742188 30.51041984558105 1 27 1 M 27 0 C 41.91168975830078 0 54 12.08831024169922 54 27 C 54 41.91168975830078 41.91168975830078 54 27 54 C 12.08831024169922 54 0 41.91168975830078 0 27 C 0 12.08831024169922 12.08831024169922 0 27 0 Z" stroke="none" fill="#dfdfdf"/>
    </g>
    <g id="Group_5452" data-name="Group 5452" transform="translate(-786.589 790.415)">
      <path id="Path_1903" data-name="Path 1903" d="M16.249-28.247a3.9,3.9,0,0,0,.91-2.408A1.994,1.994,0,0,0,17.132-31,3.82,3.82,0,0,0,14.6-29.69a3.7,3.7,0,0,0-.947,2.326,1.093,1.093,0,0,0,.037.313,1.447,1.447,0,0,0,.23.018A3.346,3.346,0,0,0,16.249-28.247Zm.616,1.406c-1.3,0-2.353.791-3.033.791-.717,0-1.664-.745-2.794-.745-2.142,0-4.32,1.774-4.32,5.111a10.518,10.518,0,0,0,1.8,5.708c.855,1.2,1.6,2.188,2.675,2.188s1.535-.708,2.85-.708c1.342,0,1.645.689,2.822.689s1.94-1.066,2.675-2.123a9.276,9.276,0,0,0,1.177-2.445,3.8,3.8,0,0,1-2.3-3.484,3.876,3.876,0,0,1,1.857-3.272A4.056,4.056,0,0,0,16.865-26.841Z" transform="translate(1018.283 31.005)" fill="#4e9c0b"/>
    </g>
  </g>
</svg>
