<svg width="10" height="16" viewBox="0 0 10 16" fill="none" xmlns="http://www.w3.org/2000/svg">
<path d="M8.66468 0.398015C8.89594 0.629301 9.03639 0.935985 9.06044 1.26217C9.08448 1.58835 8.99052 1.91232 8.79568 2.17501L8.66468 2.32801L3.29768 7.67001L8.66468 13.016C8.89613 13.2469 9.03697 13.5532 9.06156 13.8791C9.08616 14.2051 8.99287 14.529 8.79868 14.792L8.66468 14.945C8.43414 15.1765 8.12817 15.3175 7.80243 15.3425C7.47668 15.3675 7.1528 15.2747 6.88968 15.081L6.73668 14.949L0.40168 8.63802C0.168999 8.40737 0.0271082 8.10068 0.00195217 7.77402C-0.0232038 7.44737 0.070056 7.12257 0.26468 6.85901L0.39768 6.70602L6.73868 0.398015C6.99436 0.143128 7.34066 0 7.70168 0C8.0627 0 8.409 0.143128 8.66468 0.398015Z" fill="#707070"/>
</svg>
