<svg id="Iconly_Light-outline_Arrow_-_Right" data-name="Iconly/Light-outline/Arrow - Right" xmlns="http://www.w3.org/2000/svg" width="18" height="15" viewBox="0 0 18 15">
  <g id="Arrow_-_Right" data-name="Arrow - Right" transform="translate(0 0)">
    <path id="Arrow_-_Right-2" data-name="Arrow - Right" d="M10,14.756a.839.839,0,0,1-.071-1.09L10,13.581,15.2,8.33H.818a.831.831,0,0,1-.1-1.654l.1-.006H17.182a.818.818,0,0,1,.756.513A.841.841,0,0,1,17.832,8l-.073.083-6.6,6.671a.81.81,0,0,1-1.156,0Zm3.726-9.584L13.645,5.1,10,1.418A.839.839,0,0,1,10,.244.81.81,0,0,1,11.075.167l.085.075L14.8,3.92a.841.841,0,0,1,0,1.175.808.808,0,0,1-1.073.077Z" transform="translate(0 0)" fill="#fff"/>
  </g>
</svg>
