<svg width="428" height="137" viewBox="0 0 428 137" fill="none" xmlns="http://www.w3.org/2000/svg">
<g clip-path="url(#clip0_609_1273)">
<path opacity="0.1" d="M20.116 32.7461C20.116 32.7461 62.939 17.8351 105.762 58.7461C148.585 99.6571 226.201 88.9463 265.962 66.0103C305.723 43.0743 371.872 46.5103 418.9 103.863C465.928 161.216 418.9 178.038 418.9 178.038H-12V43.8384L20.116 32.7461Z" fill="#F1AD3D"/>
<path opacity="0.1" d="M447.328 18.1918C447.328 18.1918 395.767 0.238098 344.206 49.4921C292.645 98.7461 199.191 85.8602 151.313 58.2392C103.435 30.6182 23.7917 34.7598 -32.8333 103.816C-89.4583 172.872 -32.8333 193.127 -32.8333 193.127H485.999V31.5419L447.328 18.1918Z" fill="#F1AD3D"/>
</g>
<defs>
<clipPath id="clip0_609_1273">
<rect width="428" height="137" fill="white"/>
</clipPath>
</defs>
</svg>
