<svg xmlns="http://www.w3.org/2000/svg" width="146.646" height="95.59" viewBox="0 0 146.646 95.59">
  <g id="Group_17102" data-name="Group 17102" transform="translate(-236.436 -198.883)">
    <g id="_06_20man11_Converted_" data-name="06_20man11 [Converted]" transform="translate(-52.195 -265.996)">
      <g id="Layer_2" transform="translate(288.631 464.878)">
        <path id="Path_22980" data-name="Path 22980" d="M451.391,515.939a14.211,14.211,0,0,0-1.917,9.42c1.823,12.61-3.371,25.176-13.047,32.247a30.137,30.137,0,0,1-3.151,2.016H401.813a18.581,18.581,0,0,0-2.1,0h-72.99a32.72,32.72,0,0,1-2.955-2.016c-11.824-9.055-17.307-25.954-11.834-41.6a35.755,35.755,0,0,1,7.729-12.784,26,26,0,0,0,6.171-11.144l.019-.069c5.1-18.891,23.489-29.766,41.078-24.292a31.984,31.984,0,0,1,5.407,2.244,14.69,14.69,0,0,0,13.617.08,29.467,29.467,0,0,1,5.771-2.22,28.441,28.441,0,0,1,13.308-.365,19.449,19.449,0,0,0,10.778-.787l.239-.087c16.067-5.765,33.444,3.551,38.812,20.806A34.964,34.964,0,0,1,451.391,515.939Z" transform="translate(-309.804 -464.878)" fill="#dedfe0" opacity="0.62"/>
      </g>
      <g id="Layer_5" transform="translate(364.242 469.399)">
        <g id="Group_14382" data-name="Group 14382">
          <g id="Group_14230" data-name="Group 14230" transform="translate(0 32.567)">
            <g id="Group_14229" data-name="Group 14229">
              <path id="Path_22981" data-name="Path 22981" d="M2758.552,1552.485c-.551-.032-1.02-.084-1.363-.118-.382-.038-.608-.054-.616,0l.752,11.009.1,1.41h-41.31l.066-1.41.512-10.936a.044.044,0,0,0-.016-.031,5.17,5.17,0,0,0-1.175-.313c-2.5-.58-8.063-2.287-7.8-10.252a93.406,93.406,0,0,1,1.425-15.532q.1-.48.211-.948c.023-.1.046-.194.07-.29q.086-.354.18-.7.08-.3.164-.588t.174-.578l0-.008c.037-.116.074-.233.112-.348s.073-.221.11-.33l0,0a17.53,17.53,0,0,1,8.825-10.589q.505-.264,1.041-.508a36.549,36.549,0,0,1,12.139-2.791c2.1-.174,4.389-.257,6.877-.247q1.951.007,3.715.106h.006a37.05,37.05,0,0,1,11.47,2.445,19.217,19.217,0,0,1,4.327,2.3,17.148,17.148,0,0,1,6.6,9.588q.141.464.27.941.211.777.392,1.589.105.471.2.953c.875,4.324,1.267,9.305,1.814,14.8C2768.923,1552.107,2762.064,1552.691,2758.552,1552.485Z" transform="translate(-2707.692 -1508.386)" fill="#4e9c0b"/>
            </g>
          </g>
          <g id="Group_14231" data-name="Group 14231" transform="translate(5.985 53.416)">
            <path id="Path_22982" data-name="Path 22982" d="M2888.876,2101.721s-1.49-3.286-2.807-3.944-5.312-3.122-6.342-2.739c-.884.329-.312,1.205-.312,1.205s-2.807-1.205-3.257-.329c-.426.829.97,1.589.97,1.589s-.639-.237-.944.566,2.122,2.118,2.122,2.118-.789.009-.97.329c-.468.822,2.357,2.009,2.357,2.009Z" transform="translate(-2876.077 -2094.998)" fill="#d8a77d"/>
          </g>
          <g id="Group_14232" data-name="Group 14232" transform="translate(18.784 70.343)">
            <path id="Path_22983" data-name="Path 22983" d="M3244.653,2571.27l-.419,4.914-8.034-1.937Z" transform="translate(-3236.2 -2571.27)" fill="#d8a77d"/>
          </g>
          <g id="Group_14233" data-name="Group 14233" transform="translate(9.119 58.935)">
            <path id="Path_22984" data-name="Path 22984" d="M2964.3,2252.307l-.016-.279,27.7-1.748.016.279Z" transform="translate(-2964.28 -2250.28)" fill="#fff"/>
          </g>
          <g id="Group_14234" data-name="Group 14234" transform="translate(11.577 66.211)">
            <path id="Path_22985" data-name="Path 22985" d="M3033.525,2464.854l-.085-.265,26.834-9.58.085.265Z" transform="translate(-3033.44 -2455.01)" fill="#fff"/>
          </g>
          <g id="Group_14235" data-name="Group 14235" transform="translate(26.8 75.338)">
            <rect id="Rectangle_2779" data-name="Rectangle 2779" width="0.275" height="22.169" transform="translate(0 0.275) rotate(-87.312)" fill="#fff"/>
          </g>
          <g id="Group_14236" data-name="Group 14236" transform="translate(36.715 59.075)">
            <path id="Path_22986" data-name="Path 22986" d="M3740.72,2254.21s4.741.217,6.795.37c2.507.187,4.637.65,4.961.552.21,1.03.4,4.385.4,4.385s-.9.71-7.94,1.627c-1.493.195-2.508.334-2.508.334Z" transform="translate(-3740.72 -2254.21)" fill="#d8a77d"/>
          </g>
          <g id="Group_14237" data-name="Group 14237" transform="translate(9.456 54.543)">
            <path id="Path_22987" data-name="Path 22987" d="M2979.719,2130.475c-.006-.006-.615-.6-1.452-1.274a36.278,36.278,0,0,0-4.517-2.25l.089-.23a35.342,35.342,0,0,1,4.571,2.283c.847.68,1.464,1.284,1.47,1.29Z" transform="translate(-2973.75 -2126.72)" fill="#a1542e"/>
          </g>
          <g id="Group_14238" data-name="Group 14238" transform="translate(7.004 55.801)">
            <path id="Path_22988" data-name="Path 22988" d="M2911.63,2165.676a15.572,15.572,0,0,0-1.967-1.651,46.009,46.009,0,0,0-4.913-1.675l.063-.24a44.4,44.4,0,0,1,4.968,1.7,15.362,15.362,0,0,1,2.01,1.684Z" transform="translate(-2904.75 -2162.11)" fill="#a1542e"/>
          </g>
          <g id="Group_14239" data-name="Group 14239" transform="translate(8.384 58.427)">
            <path id="Path_22989" data-name="Path 22989" d="M2947.2,2237.922c-.008-.006-.818-.646-1.22-.986a9.327,9.327,0,0,0-2.382-.7l.042-.245a9.421,9.421,0,0,1,2.488.752c.4.337,1.207.975,1.214.981Z" transform="translate(-2943.6 -2235.99)" fill="#a1542e"/>
          </g>
          <g id="Group_14240" data-name="Group 14240" transform="translate(47.894 54.344)">
            <path id="Path_22990" data-name="Path 22990" d="M4056.115,2131.24l-.865-10.095.264-.025.865,10.095Z" transform="translate(-4055.25 -2121.12)" fill="#fff"/>
          </g>
          <g id="Group_14380" data-name="Group 14380" transform="translate(17.25)">
            <g id="Group_14243" data-name="Group 14243" transform="translate(16.635 29.06)">
              <g id="Group_14242" data-name="Group 14242">
                <g id="Group_14241" data-name="Group 14241">
                  <path id="Path_22991" data-name="Path 22991" d="M3661.1,1409.7" transform="translate(-3661.1 -1409.7)" fill="#d8a87d"/>
                </g>
              </g>
            </g>
            <g id="Group_14244" data-name="Group 14244" transform="translate(7.484 23.603)">
              <path id="Path_22992" data-name="Path 22992" d="M3414.014,1264.766h0v-8.606h-10.375v8.472a.4.4,0,0,0-.009.066C3403.63,1271.617,3414.152,1271.069,3414.014,1264.766Z" transform="translate(-3403.63 -1256.16)" fill="#d8a77d"/>
            </g>
            <g id="Group_14250" data-name="Group 14250" transform="translate(2.362 1.978)">
              <g id="Group_14249" data-name="Group 14249">
                <g id="Group_14248" data-name="Group 14248">
                  <g id="Group_14247" data-name="Group 14247">
                    <g id="Group_14246" data-name="Group 14246">
                      <g id="Group_14245" data-name="Group 14245">
                        <path id="Path_22993" data-name="Path 22993" d="M3280.391,660.646c0,7.144-3.876,15.823-10.445,15.817-6.968-.006-10.445-8.673-10.445-15.817s4.677-12.936,10.445-12.936S3280.391,653.5,3280.391,660.646Z" transform="translate(-3259.5 -647.71)" fill="#d8a77d"/>
                      </g>
                    </g>
                  </g>
                </g>
              </g>
            </g>
            <g id="Group_14256" data-name="Group 14256" transform="translate(7.399 28.266)">
              <g id="Group_14255" data-name="Group 14255">
                <g id="Group_14254" data-name="Group 14254">
                  <g id="Group_14253" data-name="Group 14253">
                    <g id="Group_14252" data-name="Group 14252">
                      <g id="Group_14251" data-name="Group 14251">
                        <path id="Path_22994" data-name="Path 22994" d="M3406.645,1389.691a8.063,8.063,0,0,1-3.831-1.066,9.144,9.144,0,0,1-1.574-1.077l.16-.177a9.059,9.059,0,0,0,1.535,1.049,7.818,7.818,0,0,0,3.709,1.033Z" transform="translate(-3401.24 -1387.37)" fill="#a1542e"/>
                      </g>
                    </g>
                  </g>
                </g>
              </g>
            </g>
            <g id="Group_14270" data-name="Group 14270" transform="translate(0 13.513)">
              <g id="Group_14269" data-name="Group 14269" transform="translate(0 0)">
                <g id="Group_14268" data-name="Group 14268">
                  <g id="Group_14267" data-name="Group 14267">
                    <g id="Group_14266" data-name="Group 14266">
                      <g id="Group_14265" data-name="Group 14265">
                        <g id="Group_14264" data-name="Group 14264">
                          <g id="Group_14263" data-name="Group 14263">
                            <g id="Group_14262" data-name="Group 14262">
                              <g id="Group_14261" data-name="Group 14261">
                                <g id="Group_14260" data-name="Group 14260">
                                  <g id="Group_14259" data-name="Group 14259">
                                    <g id="Group_14258" data-name="Group 14258">
                                      <g id="Group_14257" data-name="Group 14257">
                                        <ellipse id="Ellipse_877" data-name="Ellipse 877" cx="2.184" cy="3.482" rx="2.184" ry="3.482" transform="translate(0 1.361) rotate(-18.156)" fill="#d8a77d"/>
                                      </g>
                                    </g>
                                  </g>
                                </g>
                              </g>
                            </g>
                          </g>
                        </g>
                      </g>
                    </g>
                  </g>
                </g>
              </g>
            </g>
            <g id="Group_14284" data-name="Group 14284" transform="translate(19.652 13.468)">
              <g id="Group_14283" data-name="Group 14283" transform="translate(0 0)">
                <g id="Group_14282" data-name="Group 14282" transform="translate(0)">
                  <g id="Group_14281" data-name="Group 14281">
                    <g id="Group_14280" data-name="Group 14280">
                      <g id="Group_14279" data-name="Group 14279">
                        <g id="Group_14278" data-name="Group 14278">
                          <g id="Group_14277" data-name="Group 14277">
                            <g id="Group_14276" data-name="Group 14276">
                              <g id="Group_14275" data-name="Group 14275">
                                <g id="Group_14274" data-name="Group 14274">
                                  <g id="Group_14273" data-name="Group 14273">
                                    <g id="Group_14272" data-name="Group 14272">
                                      <g id="Group_14271" data-name="Group 14271">
                                        <ellipse id="Ellipse_878" data-name="Ellipse 878" cx="3.482" cy="2.184" rx="3.482" ry="2.184" transform="translate(0 6.617) rotate(-71.844)" fill="#d8a77d"/>
                                      </g>
                                    </g>
                                  </g>
                                </g>
                              </g>
                            </g>
                          </g>
                        </g>
                      </g>
                    </g>
                  </g>
                </g>
              </g>
            </g>
            <g id="Group_14290" data-name="Group 14290" transform="translate(12.902 16.059)">
              <g id="Group_14289" data-name="Group 14289">
                <g id="Group_14288" data-name="Group 14288">
                  <g id="Group_14287" data-name="Group 14287">
                    <g id="Group_14286" data-name="Group 14286">
                      <g id="Group_14285" data-name="Group 14285">
                        <path id="Path_22995" data-name="Path 22995" d="M3557.006,1051.051c-.492,0-.929-.034-.957-.036l.02-.35a10.852,10.852,0,0,0,1.646,0c.041-.1.118-.639-.64-3.475-.427-1.6-.912-3.144-.917-3.16l.279-.122c0,.015.485,1.545.912,3.142.883,3.3.685,3.673.611,3.813a.26.26,0,0,1-.2.149A6.807,6.807,0,0,1,3557.006,1051.051Z" transform="translate(-3556.05 -1043.91)" fill="#160707"/>
                      </g>
                    </g>
                  </g>
                </g>
              </g>
            </g>
            <g id="Group_14295" data-name="Group 14295" transform="translate(7.176 16.573)">
              <g id="Group_14294" data-name="Group 14294">
                <g id="Group_14293" data-name="Group 14293">
                  <g id="Group_14292" data-name="Group 14292">
                    <g id="Group_14291" data-name="Group 14291">
                      <ellipse id="Ellipse_879" data-name="Ellipse 879" cx="0.919" cy="1.396" rx="0.919" ry="1.396" fill="#160707"/>
                    </g>
                  </g>
                </g>
              </g>
            </g>
            <g id="Group_14300" data-name="Group 14300" transform="translate(17.143 16.68)">
              <g id="Group_14299" data-name="Group 14299">
                <g id="Group_14298" data-name="Group 14298">
                  <g id="Group_14297" data-name="Group 14297">
                    <g id="Group_14296" data-name="Group 14296">
                      <ellipse id="Ellipse_880" data-name="Ellipse 880" cx="0.919" cy="1.396" rx="0.919" ry="1.396" fill="#160707"/>
                    </g>
                  </g>
                </g>
              </g>
            </g>
            <g id="Group_14302" data-name="Group 14302" transform="translate(11.18 11.741)">
              <g id="Group_14301" data-name="Group 14301">
                <path id="Path_22996" data-name="Path 22996" d="M3508.063,922.61c-.122-.022-.24-.046-.352-.071l-.091.233c.125.028.255.055.392.08a8.332,8.332,0,0,0,4.1-.208l-.079-.234A8.083,8.083,0,0,1,3508.063,922.61Z" transform="translate(-3507.62 -922.41)" fill="#a1542e"/>
              </g>
            </g>
            <g id="Group_14304" data-name="Group 14304" transform="translate(10.506 13.404)">
              <g id="Group_14303" data-name="Group 14303">
                <path id="Path_22997" data-name="Path 22997" d="M3489.255,969.3q-.228-.045-.437-.092l-.179.234q.231.053.485.1a13.66,13.66,0,0,0,5.357.016l-.041-.244A13.251,13.251,0,0,1,3489.255,969.3Z" transform="translate(-3488.64 -969.21)" fill="#a1542e"/>
              </g>
            </g>
            <g id="Group_14309" data-name="Group 14309" transform="translate(2.117 2.421)">
              <g id="Group_14308" data-name="Group 14308">
                <g id="Group_14307" data-name="Group 14307">
                  <g id="Group_14306" data-name="Group 14306">
                    <g id="Group_14305" data-name="Group 14305">
                      <path id="Path_22998" data-name="Path 22998" d="M3258.875,665.3l-4.866,9.185-1.113-2.619a35.093,35.093,0,0,1-.164-6.566c.516-2.624,1.785-4.627,4.324-5.079S3258.875,665.3,3258.875,665.3Z" transform="translate(-3252.61 -660.193)" fill="#160707"/>
                    </g>
                  </g>
                </g>
              </g>
            </g>
            <g id="Group_14330" data-name="Group 14330" transform="translate(7.57)">
              <g id="Group_14314" data-name="Group 14314" transform="translate(11.816 13.148)">
                <g id="Group_14313" data-name="Group 14313">
                  <g id="Group_14312" data-name="Group 14312">
                    <g id="Group_14311" data-name="Group 14311">
                      <g id="Group_14310" data-name="Group 14310">
                        <path id="Path_22999" data-name="Path 22999" d="M3738.49,962.01c0,.012.005.011,0,0Z" transform="translate(-3738.49 -962.01)" fill="#160707"/>
                      </g>
                    </g>
                  </g>
                </g>
              </g>
              <g id="Group_14319" data-name="Group 14319" transform="translate(16.521 8.228)">
                <g id="Group_14318" data-name="Group 14318">
                  <g id="Group_14317" data-name="Group 14317">
                    <g id="Group_14316" data-name="Group 14316">
                      <g id="Group_14315" data-name="Group 14315">
                        <path id="Path_23000" data-name="Path 23000" d="M3870.87,823.56c0,.013,0,.013,0,0Z" transform="translate(-3870.87 -823.56)" fill="#160707"/>
                      </g>
                    </g>
                  </g>
                </g>
              </g>
              <g id="Group_14324" data-name="Group 14324" transform="translate(16.576 9.95)">
                <g id="Group_14323" data-name="Group 14323">
                  <g id="Group_14322" data-name="Group 14322">
                    <g id="Group_14321" data-name="Group 14321">
                      <g id="Group_14320" data-name="Group 14320">
                        <path id="Path_23001" data-name="Path 23001" d="M3872.44,872.03c0,.013,0,.013,0,0Z" transform="translate(-3872.44 -872.03)" fill="#160707"/>
                      </g>
                    </g>
                  </g>
                </g>
              </g>
              <g id="Group_14329" data-name="Group 14329">
                <g id="Group_14328" data-name="Group 14328">
                  <g id="Group_14327" data-name="Group 14327">
                    <g id="Group_14326" data-name="Group 14326">
                      <g id="Group_14325" data-name="Group 14325">
                        <path id="Path_23002" data-name="Path 23002" d="M3422.633,601.851a4.027,4.027,0,0,0-.6-2.5c-.005-.04-.011-.079-.016-.119a2.27,2.27,0,0,1,.544,1.063,1.052,1.052,0,0,1,.014-.167,5.033,5.033,0,0,0-1.337-3.584,4.127,4.127,0,0,0-.826-1.127,11.708,11.708,0,0,0-6.732-3.273c-4.471-.32-5.882.363-6.9,1.8-1.4,1.978-.427,3.486-.159,4.822a2.648,2.648,0,0,0,.75,1.38,7.692,7.692,0,0,0,2.919,1.793c.838.275,1.542.525,2.592.775.809.327,1.782.7,2.951,1.137,1.608.594,1.985,1.277,2.025,1.361a.981.981,0,0,1-.044-.161,3.548,3.548,0,0,0-.885-1.632c2.53.454,4.9,3.005,4.915,2.794a36.365,36.365,0,0,0,.323-5.139,2.1,2.1,0,0,1,.451.941A1.123,1.123,0,0,1,3422.633,601.851Z" transform="translate(-3406.042 -592.068)" fill="#160707"/>
                      </g>
                    </g>
                  </g>
                </g>
              </g>
            </g>
            <g id="Group_14331" data-name="Group 14331" transform="translate(4.523 16.816)">
              <path id="Path_23003" data-name="Path 23003" d="M3320.32,1065.22v.25a4.508,4.508,0,0,1,1.134.485l.054-.233A4.581,4.581,0,0,0,3320.32,1065.22Z" transform="translate(-3320.32 -1065.22)" fill="#a1542e"/>
            </g>
            <g id="Group_14332" data-name="Group 14332" transform="translate(4.481 17.901)">
              <path id="Path_23004" data-name="Path 23004" d="M3319.14,1096.2l.083.216a4.379,4.379,0,0,1,1.142-.441l-.031-.242A4.478,4.478,0,0,0,3319.14,1096.2Z" transform="translate(-3319.14 -1095.73)" fill="#a1542e"/>
            </g>
            <g id="Group_14333" data-name="Group 14333" transform="translate(20.28 17.122)">
              <path id="Path_23005" data-name="Path 23005" d="M3764.849,1073.81v.25a4.5,4.5,0,0,0-1.134.485l-.054-.233A4.614,4.614,0,0,1,3764.849,1073.81Z" transform="translate(-3763.66 -1073.81)" fill="#a1542e"/>
            </g>
            <g id="Group_14334" data-name="Group 14334" transform="translate(20.285 18.206)">
              <path id="Path_23006" data-name="Path 23006" d="M3765.016,1104.787l-.084.216a4.36,4.36,0,0,0-1.142-.441l.031-.242A4.5,4.5,0,0,1,3765.016,1104.787Z" transform="translate(-3763.79 -1104.32)" fill="#a1542e"/>
            </g>
            <g id="Group_14339" data-name="Group 14339" transform="translate(10.588 24.537)">
              <g id="Group_14338" data-name="Group 14338">
                <g id="Group_14337" data-name="Group 14337">
                  <g id="Group_14336" data-name="Group 14336">
                    <g id="Group_14335" data-name="Group 14335">
                      <path id="Path_23007" data-name="Path 23007" d="M3492.61,1284.159a2.151,2.151,0,0,1-.434-.167,2.712,2.712,0,0,1-1.216-1.484l.274-.058-.109.03.194-.028a1.885,1.885,0,0,0,.967,1.171,2.67,2.67,0,0,0,2.19,0l.074.353A3.226,3.226,0,0,1,3492.61,1284.159Z" transform="translate(-3490.96 -1282.45)" fill="#160707"/>
                    </g>
                  </g>
                </g>
              </g>
            </g>
            <g id="Group_14344" data-name="Group 14344" transform="translate(16.527 15.159)">
              <g id="Group_14343" data-name="Group 14343">
                <g id="Group_14342" data-name="Group 14342">
                  <g id="Group_14341" data-name="Group 14341">
                    <g id="Group_14340" data-name="Group 14340">
                      <path id="Path_23008" data-name="Path 23008" d="M3662.025,1019.9a10.618,10.618,0,0,0-3.9-.721l-.076-.562a7.026,7.026,0,0,1,2.381.215,7.127,7.127,0,0,1,1.7.559Z" transform="translate(-3658.05 -1018.592)" fill="#160707"/>
                    </g>
                  </g>
                </g>
              </g>
            </g>
            <g id="Group_14349" data-name="Group 14349" transform="translate(5.901 15.14)">
              <g id="Group_14348" data-name="Group 14348">
                <g id="Group_14347" data-name="Group 14347">
                  <g id="Group_14346" data-name="Group 14346">
                    <g id="Group_14345" data-name="Group 14345">
                      <path id="Path_23009" data-name="Path 23009" d="M3359.094,1018.864a10.617,10.617,0,0,1,3.965-.081l.167-.542a7.014,7.014,0,0,0-2.384-.173,7.108,7.108,0,0,0-1.772.276Z" transform="translate(-3359.07 -1018.052)" fill="#160707"/>
                    </g>
                  </g>
                </g>
              </g>
            </g>
            <g id="Group_14364" data-name="Group 14364" transform="translate(1.937 15.566)">
              <g id="Group_14363" data-name="Group 14363">
                <g id="Group_14362" data-name="Group 14362">
                  <g id="Group_14361" data-name="Group 14361">
                    <g id="Group_14360" data-name="Group 14360">
                      <g id="Group_14359" data-name="Group 14359">
                        <g id="Group_14358" data-name="Group 14358">
                          <g id="Group_14357" data-name="Group 14357">
                            <g id="Group_14356" data-name="Group 14356">
                              <g id="Group_14355" data-name="Group 14355">
                                <g id="Group_14354" data-name="Group 14354">
                                  <g id="Group_14353" data-name="Group 14353">
                                    <g id="Group_14352" data-name="Group 14352">
                                      <g id="Group_14351" data-name="Group 14351">
                                        <g id="Group_14350" data-name="Group 14350">
                                          <path id="Path_23010" data-name="Path 23010" d="M3248.806,1033.676a2.923,2.923,0,0,1-1.263-1.937,2.079,2.079,0,0,1,.912-1.688l.161.2a1.843,1.843,0,0,0-.819,1.48,2.716,2.716,0,0,0,1.152,1.74Z" transform="translate(-3247.541 -1030.05)" fill="#a1542e"/>
                                        </g>
                                      </g>
                                    </g>
                                  </g>
                                </g>
                              </g>
                            </g>
                          </g>
                        </g>
                      </g>
                    </g>
                  </g>
                </g>
              </g>
            </g>
            <g id="Group_14379" data-name="Group 14379" transform="translate(22.539 15.924)">
              <g id="Group_14378" data-name="Group 14378">
                <g id="Group_14377" data-name="Group 14377">
                  <g id="Group_14376" data-name="Group 14376">
                    <g id="Group_14375" data-name="Group 14375">
                      <g id="Group_14374" data-name="Group 14374">
                        <g id="Group_14373" data-name="Group 14373">
                          <g id="Group_14372" data-name="Group 14372">
                            <g id="Group_14371" data-name="Group 14371">
                              <g id="Group_14370" data-name="Group 14370">
                                <g id="Group_14369" data-name="Group 14369">
                                  <g id="Group_14368" data-name="Group 14368">
                                    <g id="Group_14367" data-name="Group 14367">
                                      <g id="Group_14366" data-name="Group 14366">
                                        <g id="Group_14365" data-name="Group 14365">
                                          <path id="Path_23011" data-name="Path 23011" d="M3827.362,1043.736a2.921,2.921,0,0,0,1.263-1.937,2.077,2.077,0,0,0-.911-1.688l-.161.2a1.846,1.846,0,0,1,.819,1.479,2.718,2.718,0,0,1-1.152,1.74Z" transform="translate(-3827.22 -1040.11)" fill="#a1542e"/>
                                        </g>
                                      </g>
                                    </g>
                                  </g>
                                </g>
                              </g>
                            </g>
                          </g>
                        </g>
                      </g>
                    </g>
                  </g>
                </g>
              </g>
            </g>
          </g>
          <g id="Group_14381" data-name="Group 14381" transform="translate(20.464 13.693)">
            <path id="Path_23012" data-name="Path 23012" d="M3283.47,981.429q0,.159.012.315c0,.064.011.128.019.191,0,.036.009.072.015.108a4.089,4.089,0,0,0,8.126-.411h2.986a4.089,4.089,0,1,0,0-.405h-2.986a4.089,4.089,0,0,0-7.989-1.013h0a4.106,4.106,0,0,0-.138.6c-.006.036-.011.072-.015.108-.008.063-.014.127-.019.191Q3283.47,981.27,3283.47,981.429Zm11.592,0a3.64,3.64,0,0,1,1.346-2.83c.079-.065.159-.126.244-.183a3.616,3.616,0,0,1,1.757-.624c.1-.009.2-.013.3-.013a3.63,3.63,0,0,1,2.563,1.053c.087.085.169.175.247.268a3.537,3.537,0,0,1,.348.5,3.652,3.652,0,0,1-1.144,4.874l-.091.059a3.651,3.651,0,0,1-5.573-3.1Zm-11.117-.514a3.638,3.638,0,0,1,1.255-2.27c.078-.067.158-.13.242-.189a3.629,3.629,0,0,1,2.117-.677l.132,0a3.6,3.6,0,0,1,1.13.222,3.649,3.649,0,0,1,2.385,3.342.213.213,0,0,0-.018.083.209.209,0,0,0,.018.083,3.658,3.658,0,0,1-.165,1.008l-.027.084a3.661,3.661,0,0,1-1.5,1.907,3.637,3.637,0,0,1-1.956.568,3.647,3.647,0,0,1-3.649-3.65A3.537,3.537,0,0,1,3283.945,980.915Z" transform="translate(-3283.47 -977.34)"/>
          </g>
          <path id="Path_23013" data-name="Path 23013" d="M3376.074,1467.35l4.772,6.152-2.932,2.655-2.864-7.265v-1.542Z" transform="translate(-3351.331 -1436.241)" fill="#408802"/>
          <path id="Path_23014" data-name="Path 23014" d="M3566.1,1467.52l-4.771,6.152,2.931,2.655,2.864-7.291v-1.516Z" transform="translate(-3530.991 -1436.405)" fill="#408802"/>
        </g>
      </g>
      <g id="Layer_4" transform="translate(289.13 505.784)">
        <path id="Path_23015" data-name="Path 23015" d="M435.277,3077.2a1.041,1.041,0,0,1-.275.713.9.9,0,0,1-.663.3H290.068a.975.975,0,0,1-.938-1.008,1.043,1.043,0,0,1,.275-.713.9.9,0,0,1,.663-.3h144.27A.975.975,0,0,1,435.277,3077.2Z" transform="translate(-289.13 -3024.287)" fill="#babbc0"/>
        <g id="Group_14388" data-name="Group 14388" transform="translate(6.713)">
          <g id="Group_14383" data-name="Group 14383" transform="translate(4.624)">
            <path id="Path_23016" data-name="Path 23016" d="M688.791,1666.037H611.553a3.263,3.263,0,0,1-3.443-3.046v-44.125a3.263,3.263,0,0,1,3.443-3.046h77.238a3.263,3.263,0,0,1,3.443,3.046v44.125A3.263,3.263,0,0,1,688.791,1666.037Z" transform="translate(-608.11 -1615.82)" fill="#3a3c3d"/>
          </g>
          <path id="Path_23017" data-name="Path 23017" d="M569.59,3086.271H478.778a.768.768,0,0,1-.768-.768v-.974a.768.768,0,0,1,.768-.769h90.811a.768.768,0,0,1,.768.769v.974A.768.768,0,0,1,569.59,3086.271Z" transform="translate(-478.01 -3031.587)" fill="#3a3c3d"/>
          <g id="Group_14384" data-name="Group 14384" transform="translate(6.761 2.704)">
            <path id="Path_23018" data-name="Path 23018" d="M744.822,1734.467H671.508c-1.8,0-3.268-1.157-3.268-2.583v-37.411c0-1.427,1.463-2.583,3.268-2.583h73.314c1.8,0,3.268,1.157,3.268,2.583v37.411C748.089,1733.31,746.627,1734.467,744.822,1734.467Z" transform="translate(-668.24 -1691.89)" fill="#fff"/>
          </g>
          <path id="Path_23019" data-name="Path 23019" d="M568.814,2929.883H479.553c-.852,0-1.543-.319-1.543-.713l4.566-6.26h84.152l3.63,6.26C570.358,2929.564,569.667,2929.883,568.814,2929.883Z" transform="translate(-478.01 -2876.454)" fill="#eae9e8"/>
          <rect id="Rectangle_2780" data-name="Rectangle 2780" width="4.791" height="1.166" transform="translate(6.067 49.384)" fill="#babbc0"/>
          <rect id="Rectangle_2781" data-name="Rectangle 2781" width="4.791" height="1.166" transform="translate(11.856 49.384)" fill="#babbc0"/>
          <rect id="Rectangle_2782" data-name="Rectangle 2782" width="4.791" height="1.166" transform="translate(17.596 49.384)" fill="#babbc0"/>
          <rect id="Rectangle_2783" data-name="Rectangle 2783" width="4.791" height="1.166" transform="translate(23.336 49.384)" fill="#babbc0"/>
          <rect id="Rectangle_2784" data-name="Rectangle 2784" width="4.791" height="0.864" transform="translate(7.775 48.064)" fill="#babbc0"/>
          <rect id="Rectangle_2785" data-name="Rectangle 2785" width="4.791" height="0.864" transform="translate(13.564 48.064)" fill="#babbc0"/>
          <rect id="Rectangle_2786" data-name="Rectangle 2786" width="4.791" height="0.864" transform="translate(19.304 48.064)" fill="#babbc0"/>
          <rect id="Rectangle_2787" data-name="Rectangle 2787" width="4.791" height="0.864" transform="translate(25.044 48.064)" fill="#babbc0"/>
          <rect id="Rectangle_2788" data-name="Rectangle 2788" width="4.791" height="0.864" transform="translate(30.578 48.064)" fill="#babbc0"/>
          <rect id="Rectangle_2789" data-name="Rectangle 2789" width="4.791" height="0.864" transform="translate(36.367 48.064)" fill="#babbc0"/>
          <rect id="Rectangle_2790" data-name="Rectangle 2790" width="4.791" height="0.864" transform="translate(42.107 48.064)" fill="#babbc0"/>
          <rect id="Rectangle_2791" data-name="Rectangle 2791" width="4.791" height="0.864" transform="translate(47.847 48.064)" fill="#babbc0"/>
          <rect id="Rectangle_2792" data-name="Rectangle 2792" width="4.791" height="0.864" transform="translate(53.38 48.064)" fill="#babbc0"/>
          <rect id="Rectangle_2793" data-name="Rectangle 2793" width="4.791" height="0.864" transform="translate(59.17 48.064)" fill="#babbc0"/>
          <rect id="Rectangle_2794" data-name="Rectangle 2794" width="4.791" height="0.864" transform="translate(64.91 48.064)" fill="#babbc0"/>
          <rect id="Rectangle_2795" data-name="Rectangle 2795" width="4.791" height="0.864" transform="translate(70.65 48.064)" fill="#babbc0"/>
          <rect id="Rectangle_2796" data-name="Rectangle 2796" width="4.791" height="0.864" transform="translate(76.183 48.064)" fill="#babbc0"/>
          <rect id="Rectangle_2797" data-name="Rectangle 2797" width="4.791" height="0.864" transform="translate(81.973 48.064)" fill="#babbc0"/>
          <rect id="Rectangle_2798" data-name="Rectangle 2798" width="4.791" height="0.864" transform="translate(10.4 46.9)" fill="#babbc0"/>
          <rect id="Rectangle_2799" data-name="Rectangle 2799" width="4.791" height="0.864" transform="translate(16.189 46.9)" fill="#babbc0"/>
          <rect id="Rectangle_2800" data-name="Rectangle 2800" width="4.791" height="0.864" transform="translate(21.929 46.9)" fill="#babbc0"/>
          <rect id="Rectangle_2801" data-name="Rectangle 2801" width="4.791" height="0.864" transform="translate(27.669 46.9)" fill="#babbc0"/>
          <rect id="Rectangle_2802" data-name="Rectangle 2802" width="4.791" height="0.864" transform="translate(33.203 46.9)" fill="#babbc0"/>
          <rect id="Rectangle_2803" data-name="Rectangle 2803" width="4.791" height="0.864" transform="translate(38.992 46.9)" fill="#babbc0"/>
          <rect id="Rectangle_2804" data-name="Rectangle 2804" width="4.791" height="0.864" transform="translate(44.732 46.9)" fill="#babbc0"/>
          <rect id="Rectangle_2805" data-name="Rectangle 2805" width="4.791" height="0.864" transform="translate(50.472 46.9)" fill="#babbc0"/>
          <rect id="Rectangle_2806" data-name="Rectangle 2806" width="4.791" height="0.864" transform="translate(56.006 46.9)" fill="#babbc0"/>
          <rect id="Rectangle_2807" data-name="Rectangle 2807" width="4.791" height="0.864" transform="translate(61.795 46.9)" fill="#babbc0"/>
          <rect id="Rectangle_2808" data-name="Rectangle 2808" width="4.791" height="0.864" transform="translate(67.535 46.9)" fill="#babbc0"/>
          <rect id="Rectangle_2809" data-name="Rectangle 2809" width="4.791" height="0.864" transform="translate(73.275 46.9)" fill="#babbc0"/>
          <rect id="Rectangle_2810" data-name="Rectangle 2810" width="4.791" height="0.864" transform="translate(78.808 46.9)" fill="#babbc0"/>
          <rect id="Rectangle_2811" data-name="Rectangle 2811" width="4.791" height="1.166" transform="translate(59.172 49.384)" fill="#babbc0"/>
          <rect id="Rectangle_2812" data-name="Rectangle 2812" width="4.791" height="1.166" transform="translate(64.962 49.384)" fill="#babbc0"/>
          <rect id="Rectangle_2813" data-name="Rectangle 2813" width="4.791" height="0.737" transform="translate(71.958 49.814)" fill="#babbc0"/>
          <rect id="Rectangle_2814" data-name="Rectangle 2814" width="4.791" height="1.166" transform="translate(77.697 49.384)" fill="#babbc0"/>
          <rect id="Rectangle_2815" data-name="Rectangle 2815" width="4.791" height="0.737" transform="translate(83.521 49.814)" fill="#babbc0"/>
          <rect id="Rectangle_2816" data-name="Rectangle 2816" width="28.699" height="1.166" transform="translate(29.076 49.384)" fill="#babbc0"/>
          <path id="Path_23020" data-name="Path 23020" d="M1422.811,3060.817H1396.59a.211.211,0,0,1-.21-.21v-1.336a.21.21,0,0,1,.21-.21h26.221a.21.21,0,0,1,.21.21v1.336A.211.211,0,0,1,1422.811,3060.817Z" transform="translate(-1363.74 -3007.766)" fill="#babbc0"/>
          <path id="Path_23021" data-name="Path 23021" d="M758.773,1787.176H715.908a1.967,1.967,0,0,1-1.968-1.967v-33.651a1.967,1.967,0,0,1,1.968-1.968h42.866a1.968,1.968,0,0,1,1.968,1.968v33.651A1.967,1.967,0,0,1,758.773,1787.176Z" transform="translate(-705.555 -1744.836)" fill="#cecece"/>
          <g id="Group_14387" data-name="Group 14387" transform="translate(12.407 13.381)">
            <path id="Path_23022" data-name="Path 23022" d="M985.336,1999.81H973.867c-5.146,0-9.313,4.219-9.313,8.1l0,3.063h30.1l0-3.062C994.658,2004.029,990.482,1999.81,985.336,1999.81Z" transform="translate(-959.665 -1999.544)" fill="#fff"/>
            <path id="Path_23023" data-name="Path 23023" d="M1057.686,2125.014h-11.6v-2.4a3.887,3.887,0,0,1,3.887-3.887h3.822a3.887,3.887,0,0,1,3.887,3.887Z" transform="translate(-1038.307 -2114.237)" fill="#565654"/>
            <path id="Path_23024" data-name="Path 23024" d="M1414.376,2125.014h-11.6v-1.983a4.3,4.3,0,0,1,4.3-4.3h2.994a4.3,4.3,0,0,1,4.3,4.3v1.983Z" transform="translate(-1382.32 -2114.237)" fill="#565654"/>
            <path id="Path_23025" data-name="Path 23025" d="M989.482,2246.174h-1.809a.96.96,0,0,0-.91-.654h-6.788a.96.96,0,0,0-.91.654H965.193a4.825,4.825,0,0,0-2.973,1.029h30.235A4.825,4.825,0,0,0,989.482,2246.174Z" transform="translate(-957.418 -2236.521)" fill="#070604"/>
            <g id="Group_14386" data-name="Group 14386" transform="translate(4.558)">
              <g id="Group_14385" data-name="Group 14385">
                <path id="Path_23026" data-name="Path 23026" d="M986.1,2003.985H955.34v-2.443a8.474,8.474,0,0,1,.8-3.594,9.209,9.209,0,0,1,2.172-2.934,10.218,10.218,0,0,1,3.222-1.979,10.936,10.936,0,0,1,3.946-.726h10.484a10.936,10.936,0,0,1,3.946.726,10.2,10.2,0,0,1,3.222,1.979,9.2,9.2,0,0,1,2.172,2.934,8.474,8.474,0,0,1,.8,3.594Zm-30.1-.6h29.448v-1.846c0-4.762-4.254-8.636-9.482-8.636H965.477c-5.229,0-9.482,3.874-9.482,8.636Z" transform="translate(-955.34 -1992.31)" fill="#f3b755"/>
              </g>
            </g>
            <path id="Path_23027" data-name="Path 23027" d="M832.072,2254.263l-1.1-.3v-.392a1.237,1.237,0,0,0-1.237-1.237H828.37a1.27,1.27,0,0,0-1.27,1.27h0a1.27,1.27,0,0,0,1.27,1.27h2.393l1.919.532.011-.041A.892.892,0,0,0,832.072,2254.263Z" transform="translate(-827.1 -2243.088)" fill="#070604"/>
            <path id="Path_23028" data-name="Path 23028" d="M1780.846,2254.263l1.1-.3v-.392a1.237,1.237,0,0,1,1.237-1.237h1.368a1.27,1.27,0,0,1,1.27,1.27h0a1.27,1.27,0,0,1-1.27,1.27h-2.393l-1.919.532-.011-.041A.891.891,0,0,1,1780.846,2254.263Z" transform="translate(-1746.318 -2243.088)" fill="#070604"/>
            <path id="Path_23029" data-name="Path 23029" d="M1468.5,2185.526a2.83,2.83,0,1,1,2.83-2.83A2.83,2.83,0,0,1,1468.5,2185.526Zm.061-6.356a3.526,3.526,0,1,0,3.526,3.526A3.526,3.526,0,0,0,1468.566,2179.17Z" transform="translate(-1442.367 -2172.529)" fill="#070604"/>
            <path id="Path_23030" data-name="Path 23030" d="M906.956,2591.143h-3.283a1.093,1.093,0,0,1-1.093-1.093v-4.277a1.093,1.093,0,0,1,1.093-1.093h3.283a1.093,1.093,0,0,1,1.093,1.093v4.277A1.093,1.093,0,0,1,906.956,2591.143Z" transform="translate(-899.897 -2563.626)" fill="#080705"/>
            <path id="Path_23031" data-name="Path 23031" d="M1709.846,2591.143h-3.283a1.093,1.093,0,0,1-1.093-1.093v-4.277a1.093,1.093,0,0,1,1.093-1.093h3.283a1.093,1.093,0,0,1,1.093,1.093v4.277A1.093,1.093,0,0,1,1709.846,2591.143Z" transform="translate(-1674.252 -2563.626)" fill="#080705"/>
            <path id="Path_23032" data-name="Path 23032" d="M911.137,2292.226h-30.77a2.757,2.757,0,0,1-2.757-2.757v-5.78a5.309,5.309,0,0,1,5.309-5.309h25.666a5.309,5.309,0,0,1,5.309,5.309v5.78A2.757,2.757,0,0,1,911.137,2292.226Z" transform="translate(-875.815 -2268.213)" fill="#f3b755"/>
            <path id="Path_23033" data-name="Path 23033" d="M877.73,2569.73v.722a2.757,2.757,0,0,0,2.757,2.757h30.77a2.757,2.757,0,0,0,2.757-2.757v-.722Z" transform="translate(-875.93 -2549.208)" fill="#2d2c2c"/>
            <path id="Path_23034" data-name="Path 23034" d="M1118.622,2423.419s0,.01,0,.014a1.31,1.31,0,0,1-.176.645,1.323,1.323,0,0,1-.132.189q-.037.045-.079.086a1.317,1.317,0,0,1-.933.387h-18.141a1.317,1.317,0,0,1-1.012-.473,1.285,1.285,0,0,1-.132-.189,1.319,1.319,0,0,1-.176-.645s0-.009,0-.014c0-.058,0-.117,0-.175a3.148,3.148,0,0,1,.1-.645q.026-.1.057-.189a3.138,3.138,0,0,1,.3-.645q.06-.1.126-.189a3.171,3.171,0,0,1,.622-.645,3.135,3.135,0,0,1,1.931-.662h14.484a3.132,3.132,0,0,1,1.66.473,3.017,3.017,0,0,1,.271.189,3.162,3.162,0,0,1,.622.645c.044.062.086.125.126.189a3.121,3.121,0,0,1,.3.645c.021.062.04.125.057.189a3.156,3.156,0,0,1,.1.645C1118.62,2423.3,1118.622,2423.36,1118.622,2423.419Z" transform="translate(-1088.218 -2405.06)" fill="#2d2c2c"/>
            <path id="Path_23035" data-name="Path 23035" d="M1150.447,2433.759H1132.1a3.158,3.158,0,0,1,.271-.189h17.8A3.2,3.2,0,0,1,1150.447,2433.759Z" transform="translate(-1121.26 -2417.887)" fill="#595554"/>
            <path id="Path_23036" data-name="Path 23036" d="M1130.884,2457.219H1111.04q.06-.1.126-.189h19.591Q1130.824,2457.122,1130.884,2457.219Z" transform="translate(-1100.948 -2440.513)" fill="#595554"/>
            <path id="Path_23037" data-name="Path 23037" d="M1121.446,2480.669H1100.88c.017-.064.036-.127.057-.189h20.451C1121.409,2480.542,1121.429,2480.605,1121.446,2480.669Z" transform="translate(-1091.149 -2463.13)" fill="#595554"/>
            <path id="Path_23038" data-name="Path 23038" d="M1118.622,2504.125s0,.009,0,.014H1097.84s0-.009,0-.014c0-.059,0-.117,0-.175h20.772C1118.62,2504.008,1118.622,2504.066,1118.622,2504.125Z" transform="translate(-1088.218 -2485.766)" fill="#595554"/>
            <path id="Path_23039" data-name="Path 23039" d="M1123.22,2527.4a1.29,1.29,0,0,1-.132.189h-20.166a1.287,1.287,0,0,1-.132-.189Z" transform="translate(-1092.992 -2508.382)" fill="#595554"/>
            <circle id="Ellipse_881" data-name="Ellipse 881" cx="1.686" cy="1.686" r="1.686" transform="translate(17.853 16.654) rotate(-22.5)" fill="#595554"/>
            <circle id="Ellipse_882" data-name="Ellipse 882" cx="0.79" cy="0.79" r="0.79" transform="translate(4.012 21.455)" fill="#fff"/>
            <circle id="Ellipse_883" data-name="Ellipse 883" cx="0.79" cy="0.79" r="0.79" transform="translate(34.246 21.455)" fill="#fff"/>
            <path id="Path_23040" data-name="Path 23040" d="M938.861,2350.6h-2.994a1.1,1.1,0,0,1-1.1-1.1v-.128a1.1,1.1,0,0,1,1.1-1.1h2.994a1.1,1.1,0,0,1,1.1,1.1v.128A1.1,1.1,0,0,1,938.861,2350.6Z" transform="translate(-930.943 -2335.628)" fill="#fff"/>
            <path id="Path_23041" data-name="Path 23041" d="M1698.571,2350.6h-2.994a1.1,1.1,0,0,1-1.1-1.1v-.128a1.1,1.1,0,0,1,1.1-1.1h2.994a1.1,1.1,0,0,1,1.1,1.1v.128A1.1,1.1,0,0,1,1698.571,2350.6Z" transform="translate(-1663.652 -2335.628)" fill="#fff"/>
          </g>
          <path id="Path_23042" data-name="Path 23042" d="M2140.8,1753.617h-25.177a.876.876,0,0,1-.876-.876v-2.285a.876.876,0,0,1,.876-.876H2140.8a.876.876,0,0,1,.876.876v2.285A.876.876,0,0,1,2140.8,1753.617Z" transform="translate(-2056.578 -1744.826)" fill="#cecece"/>
          <path id="Path_23043" data-name="Path 23043" d="M2141.285,1936.457h-26.141a.394.394,0,0,1-.394-.394v-.138a.4.4,0,0,1,.394-.394h26.141a.394.394,0,0,1,.394.394v.138A.394.394,0,0,1,2141.285,1936.457Z" transform="translate(-2056.578 -1924.167)" fill="#cecece"/>
          <path id="Path_23044" data-name="Path 23044" d="M2141.285,1980.207h-26.141a.394.394,0,0,1-.394-.394v-.138a.4.4,0,0,1,.394-.394h26.141a.394.394,0,0,1,.394.394v.138A.394.394,0,0,1,2141.285,1980.207Z" transform="translate(-2056.578 -1966.362)" fill="#cecece"/>
          <path id="Path_23045" data-name="Path 23045" d="M2141.285,2023.947h-26.141a.394.394,0,0,1-.394-.394v-.139a.394.394,0,0,1,.394-.394h26.141a.394.394,0,0,1,.394.394v.139A.394.394,0,0,1,2141.285,2023.947Z" transform="translate(-2056.578 -2008.548)" fill="#cecece"/>
          <path id="Path_23046" data-name="Path 23046" d="M2141.285,2067.687h-26.141a.394.394,0,0,1-.394-.394v-.138a.4.4,0,0,1,.394-.394h26.141a.394.394,0,0,1,.394.394v.138A.394.394,0,0,1,2141.285,2067.687Z" transform="translate(-2056.578 -2050.733)" fill="#cecece"/>
          <path id="Path_23047" data-name="Path 23047" d="M2141.285,2111.427h-26.141a.394.394,0,0,1-.394-.394v-.139a.394.394,0,0,1,.394-.394h26.141a.394.394,0,0,1,.394.394v.139A.393.393,0,0,1,2141.285,2111.427Z" transform="translate(-2056.578 -2092.918)" fill="#cecece"/>
          <path id="Path_23048" data-name="Path 23048" d="M2141.285,2155.177h-26.141a.394.394,0,0,1-.394-.394v-.138a.394.394,0,0,1,.394-.394h26.141a.394.394,0,0,1,.394.394v.138A.394.394,0,0,1,2141.285,2155.177Z" transform="translate(-2056.578 -2135.114)" fill="#cecece"/>
          <path id="Path_23049" data-name="Path 23049" d="M2141.285,2198.917h-26.141a.394.394,0,0,1-.394-.395v-.138a.394.394,0,0,1,.394-.394h26.141a.394.394,0,0,1,.394.394v.138A.394.394,0,0,1,2141.285,2198.917Z" transform="translate(-2056.578 -2177.299)" fill="#cecece"/>
          <path id="Path_23050" data-name="Path 23050" d="M2140.984,2315.352h-25.538a.7.7,0,0,1-.7-.7v-.081a.7.7,0,0,1,.7-.7h25.538a.7.7,0,0,1,.7.7v.081A.7.7,0,0,1,2140.984,2315.352Z" transform="translate(-2056.578 -2289.07)" fill="#cecece"/>
          <path id="Path_23051" data-name="Path 23051" d="M2141.285,2373.887h-26.141a.394.394,0,0,1-.394-.394v-.139a.4.4,0,0,1,.394-.394h26.141a.394.394,0,0,1,.394.394v.139A.394.394,0,0,1,2141.285,2373.887Z" transform="translate(-2056.578 -2346.05)" fill="#cecece"/>
          <path id="Path_23052" data-name="Path 23052" d="M2141.285,2417.627h-26.141a.394.394,0,0,1-.394-.394v-.138a.394.394,0,0,1,.394-.394h26.141a.394.394,0,0,1,.394.394v.138A.394.394,0,0,1,2141.285,2417.627Z" transform="translate(-2056.578 -2388.236)" fill="#cecece"/>
          <path id="Path_23053" data-name="Path 23053" d="M2141.285,2461.367h-26.141a.394.394,0,0,1-.394-.394v-.139a.4.4,0,0,1,.394-.394h26.141a.394.394,0,0,1,.394.394v.139A.394.394,0,0,1,2141.285,2461.367Z" transform="translate(-2056.578 -2430.421)" fill="#cecece"/>
          <path id="Path_23054" data-name="Path 23054" d="M2141.285,2505.117h-26.141a.394.394,0,0,1-.394-.394v-.139a.4.4,0,0,1,.394-.394h26.141a.394.394,0,0,1,.394.394v.139A.393.393,0,0,1,2141.285,2505.117Z" transform="translate(-2056.578 -2472.616)" fill="#cecece"/>
          <path id="Path_23055" data-name="Path 23055" d="M2141.285,2548.857h-26.141a.394.394,0,0,1-.394-.395v-.138a.394.394,0,0,1,.394-.394h26.141a.394.394,0,0,1,.394.394v.138A.394.394,0,0,1,2141.285,2548.857Z" transform="translate(-2056.578 -2514.802)" fill="#cecece"/>
          <path id="Path_23056" data-name="Path 23056" d="M2141.285,2592.6h-26.141a.394.394,0,0,1-.394-.394v-.139a.394.394,0,0,1,.394-.394h26.141a.394.394,0,0,1,.394.394v.139A.394.394,0,0,1,2141.285,2592.6Z" transform="translate(-2056.578 -2556.987)" fill="#cecece"/>
          <path id="Path_23057" data-name="Path 23057" d="M2141.285,2636.337h-26.141a.394.394,0,0,1-.394-.394v-.138a.394.394,0,0,1,.394-.394h26.141a.394.394,0,0,1,.394.394v.138A.394.394,0,0,1,2141.285,2636.337Z" transform="translate(-2056.578 -2599.173)" fill="#cecece"/>
          <path id="Path_23058" data-name="Path 23058" d="M2141.285,2680.087h-26.141a.394.394,0,0,1-.394-.394v-.139a.394.394,0,0,1,.394-.394h26.141a.394.394,0,0,1,.394.394v.139A.394.394,0,0,1,2141.285,2680.087Z" transform="translate(-2056.578 -2641.367)" fill="#cecece"/>
          <path id="Path_23059" data-name="Path 23059" d="M2141.285,2723.827h-26.141a.394.394,0,0,1-.394-.394v-.139a.394.394,0,0,1,.394-.394h26.141a.394.394,0,0,1,.394.394v.139A.394.394,0,0,1,2141.285,2723.827Z" transform="translate(-2056.578 -2683.553)" fill="#cecece"/>
          <path id="Path_23060" data-name="Path 23060" d="M2141.285,2767.567h-26.141a.394.394,0,0,1-.394-.394v-.138a.394.394,0,0,1,.394-.394h26.141a.394.394,0,0,1,.394.394v.138A.394.394,0,0,1,2141.285,2767.567Z" transform="translate(-2056.578 -2725.738)" fill="#cecece"/>
        </g>
      </g>
    </g>
  </g>
</svg>
