<svg width="340" height="266" viewBox="0 0 340 266" fill="none" xmlns="http://www.w3.org/2000/svg">
<path opacity="0.5" d="M71.4048 234.089C71.4048 234.089 34.047 207.431 23.2952 162.064C12.5434 116.69 28.9584 61.68 60.0853 33.8908C91.219 6.10165 147.256 24.8174 172.159 48.0698L197.061 71.3223C197.061 71.3223 220.836 84.3637 251.97 83.2329C283.103 82.0953 310.838 124.632 318.197 158.096C325.557 191.559 308.006 235.796 308.006 235.796L71.4048 234.096V234.089Z" fill="#F5F5F5"/>
<g style="mix-blend-mode:multiply" opacity="0.5">
<path d="M54.4303 240.894C54.4303 240.894 28.3921 226.715 21.6004 193.821C14.8087 160.926 44.2394 130.869 47.0709 114.421C49.9025 97.9738 43.6717 77.5585 69.7099 61.6731C95.7482 45.7946 142.162 51.4621 159.712 47.4941C177.262 43.5262 197.637 16.299 232.731 22.5421C267.825 28.7784 301.79 47.4941 303.487 88.3316C305.183 129.169 292.167 130.3 305.183 152.421C318.199 174.543 323.294 189.853 317.07 212.536C310.846 235.22 297.823 241.463 297.823 241.463L54.4303 240.894Z" fill="#EBEBEB"/>
</g>
<g style="mix-blend-mode:multiply" opacity="0.5">
<path d="M108.79 233.521C107.169 231.821 83.4148 184.178 109.87 140.511C136.326 96.843 202.731 101.942 229.187 118.958C255.642 135.974 268.596 158.089 271.298 181.341C274 204.594 256.182 240.894 256.182 240.894L108.79 233.521Z" fill="#E0E0E0"/>
</g>
<path d="M295.063 131.198H264.545C262.656 131.198 261.125 132.732 261.125 134.624V149.893C261.125 151.785 262.656 153.319 264.545 153.319H295.063C296.952 153.319 298.483 151.785 298.483 149.893V134.624C298.483 132.732 296.952 131.198 295.063 131.198Z" fill="#CACACA"/>
<path d="M279.804 161.968L284.64 150.482H274.969L279.804 161.968Z" fill="#CACACA"/>
<path d="M279.684 138.462H288.425V139.743L292.706 137.269L288.425 134.796V136.077H279.684V138.462Z" fill="#4E4E4E"/>
<path d="M292.706 143.492H283.972V142.218L279.684 144.692L283.972 147.166V145.884H292.706V143.492Z" fill="white"/>
<path d="M274.327 145.747L273.91 145.897C273.91 145.897 272.611 144.417 271.94 142.8C271.27 141.182 271.243 139.216 271.243 139.216L271.544 139.085L269.697 134.658C269.369 134.919 269.054 135.248 268.801 135.679C267.755 137.447 267.857 140.168 268.911 142.82C269.964 145.472 271.086 147.844 273.137 149.331C274.348 150.208 275.388 150.365 276.188 150.235L274.321 145.753L274.327 145.747Z" fill="#4E4E4E"/>
<path d="M275.653 145.226L275.078 145.438L276.966 149.975C277.178 149.906 277.369 149.817 277.54 149.728C278.026 149.461 278.245 148.872 278.04 148.351L277.055 145.856C276.836 145.301 276.213 145.027 275.659 145.226H275.653Z" fill="#4E4E4E"/>
<path d="M271.145 133.877C270.912 133.959 270.659 134.076 270.406 134.227L272.294 138.75L272.93 138.483C273.484 138.25 273.744 137.626 273.532 137.064L272.54 134.515C272.328 133.959 271.706 133.672 271.152 133.877H271.145Z" fill="#4E4E4E"/>
<path d="M99.9636 225.866V174.824C99.9636 174.824 99.3959 161.07 106.612 157.102C113.827 153.134 144.25 155.259 144.25 155.259V225.866H99.9568H99.9636Z" fill="#734801"/>
<path d="M153.765 107.472C153.765 107.472 151.925 122.926 151.221 124.2L150.517 125.475L146.98 127.887C146.98 127.887 153.772 137.53 162.123 139.085C170.474 140.648 169.763 135.679 169.763 135.679L168.491 132.986L170.187 118.238C170.187 118.238 155.044 111.289 153.772 107.465L153.765 107.472Z" fill="#FF9D8C"/>
<path d="M142.582 129.169L148.102 126.757C148.102 126.757 151.638 132.568 159.845 135.974C168.053 139.38 168.196 137.393 168.62 135.974C169.044 134.556 168.477 133 168.477 133L169.085 128.038L172.368 129.135L183.763 221.48L154.469 222.898L142.582 129.176V129.169Z" fill="white"/>
<path d="M169.612 128.127C169.612 128.127 171.596 132.712 173.436 143.485C175.275 154.258 176.972 172.412 177.396 184.884C177.82 197.357 178.1 225.859 178.1 225.859H215.034C215.458 225.859 218.002 211.824 218.002 211.824C218.002 211.824 201.868 197.974 201.02 195.705C200.452 194.191 200.739 166.169 198.332 153.264C195.924 140.36 192.812 137.763 186.301 134.549C179.571 131.225 169.605 128.12 169.605 128.12L169.612 128.127Z" fill="#4E9C0B"/>
<path d="M188.858 209.624C188.666 209.624 188.516 209.473 188.516 209.281C188.516 208.267 188.338 193.862 188.16 179.936C187.989 166.004 187.805 151.599 187.805 150.585C187.805 150.393 187.955 150.242 188.147 150.242C188.338 150.242 188.489 150.393 188.489 150.585C188.489 151.599 188.666 166.004 188.844 179.929C189.015 193.862 189.2 208.267 189.2 209.281C189.2 209.473 189.049 209.624 188.858 209.624Z" fill="#297727"/>
<path d="M115.273 206.156L114.992 225.866H158.013C158.013 225.866 159.853 209.137 159.148 207.575C158.444 206.012 115.279 206.156 115.279 206.156H115.273Z" fill="#263238"/>
<g style="mix-blend-mode:multiply">
<path d="M163.15 123.782C164.901 125.201 167.301 126.332 169.169 127.024L170.181 118.252C170.181 118.252 158.807 113.03 154.949 109.151C155.756 113.564 157.74 119.41 163.15 123.782Z" fill="#9C9C9C"/>
</g>
<path d="M183.482 78.6892C183.482 78.6892 186.451 83.7947 187.018 90.031C187.586 96.2673 187.018 112.29 181.923 119.095C176.827 125.9 166.212 123.913 161.404 119.801C156.986 116.025 152.629 111.858 151.5 103.634C150.365 95.4107 153.908 79.8131 163.955 76.551C174.003 73.289 183.482 78.6755 183.482 78.6755V78.6892Z" fill="#FF9D8C"/>
<path d="M196.249 216.957C196.249 216.957 195.75 216.957 194.99 216.936C194.813 216.929 194.614 216.936 194.409 216.929C193.677 216.909 192.788 216.888 191.892 216.861C191.694 216.854 191.489 216.847 191.29 216.84C190.401 216.82 189.642 216.929 188.931 216.888H188.91C188.76 216.881 188.541 216.902 188.363 216.909C188.274 216.916 188.192 216.923 188.137 216.916C187.727 216.84 187.645 216.744 187.2 216.546C186.626 216.285 178.849 214.545 172.522 214.586C166.203 214.613 160.533 215.045 159.609 214.27C158.679 213.482 158.118 205.526 163.515 205.005L170.149 207.527C170.149 207.527 185.299 205.725 190.852 209.83C196.42 213.935 196.249 216.957 196.249 216.957Z" fill="#FF9D8C"/>
<path d="M188.908 216.888C188.758 216.881 188.539 216.902 188.361 216.909C188.224 216.69 187.937 216.292 187.78 216.128C186.07 214.38 181.939 213.249 180.441 212.886C180.304 212.852 180.215 212.715 180.25 212.578C180.277 212.441 180.421 212.358 180.564 212.386C182.746 212.913 187.376 214.264 188.69 216.477C188.731 216.539 188.84 216.751 188.908 216.888Z" fill="#263238"/>
<path d="M191.891 216.854C191.693 216.854 191.488 216.847 191.289 216.833C189.422 213.421 186.365 212.441 182.596 211.228L182.371 211.152C182.241 211.111 182.166 210.96 182.207 210.823C182.248 210.693 182.391 210.618 182.535 210.659L182.754 210.734C186.748 212.016 189.956 213.051 191.898 216.854H191.891Z" fill="#263238"/>
<path d="M194.991 216.93C194.813 216.93 194.615 216.93 194.41 216.923C193.274 214.538 189.526 210.542 184.574 209.617C184.431 209.59 184.342 209.46 184.362 209.316C184.39 209.179 184.526 209.09 184.663 209.11C189.772 210.07 193.89 214.25 194.998 216.93H194.991Z" fill="#263238"/>
<path d="M154.891 96.6305C154.891 96.6305 158.003 95.1434 160.199 90.9562C162.394 86.7758 162.107 83.0135 162.107 83.0135C162.107 83.0135 166.067 82.3761 172.011 84.1511C177.954 85.926 185.026 88.3314 190.97 84.9323C196.914 81.5263 196.914 76.0713 194.014 73.8029C190.765 71.2604 184.322 72.8092 184.322 72.8092C184.322 72.8092 186.798 70.397 185.457 68.9784C184.11 67.5598 179.233 69.4033 179.233 69.4033C179.233 69.4033 173.29 64.6541 162.039 65.2229C150.787 65.7917 145.412 73.659 144.776 82.4515C144.139 91.244 147.32 100.036 147.32 100.036L154.891 96.6305Z" fill="#263238"/>
<g style="mix-blend-mode:multiply">
<path d="M177.717 98.7619C177.081 100.338 177.095 102.168 176.937 103.833C176.814 105.135 176.575 106.65 177.765 107.527C178.333 107.945 181.02 109.076 179.639 109.994C179.112 110.344 178.23 110.248 177.628 110.22C177.218 110.2 176.8 110.186 176.383 110.152C175.939 110.117 175.508 109.987 175.063 109.98C174.803 109.98 174.721 110.323 174.933 110.46C175.645 110.906 176.698 111.049 177.525 111.077C178.36 111.111 178.921 111.077 179.673 110.7C180.131 110.474 180.583 110.145 180.651 109.597C180.733 108.98 180.268 108.425 179.803 108.075C179.27 107.678 178.613 107.493 178.073 107.102C177.32 106.568 177.382 105.656 177.437 104.82C177.567 102.805 178.025 100.825 178.203 98.8168C178.23 98.5084 177.806 98.5084 177.71 98.7482L177.717 98.7619Z" fill="#9C9C9C"/>
</g>
<path d="M183.504 103.47C183.292 104.663 182.424 105.512 181.569 105.362C180.707 105.211 180.187 104.114 180.392 102.922C180.604 101.729 181.473 100.88 182.328 101.03C183.19 101.181 183.71 102.278 183.504 103.47Z" fill="#263238"/>
<path d="M172.679 102.524C172.487 103.812 171.578 104.745 170.654 104.607C169.731 104.47 169.129 103.312 169.321 102.024C169.512 100.735 170.422 99.8034 171.345 99.9405C172.269 100.078 172.87 101.236 172.679 102.524Z" fill="#263238"/>
<path d="M180.984 98.5493C181.647 98.659 182.311 98.5494 182.981 98.5973C183.138 98.611 183.303 98.6316 183.46 98.6453C183.576 98.659 183.248 98.611 183.405 98.6384C183.439 98.6384 183.474 98.6522 183.508 98.6522C183.59 98.6659 183.672 98.6864 183.754 98.707C183.898 98.7412 184.034 98.7961 184.178 98.8235C184.308 98.8509 184.452 98.8852 184.582 98.8783C184.657 98.8715 184.725 98.8577 184.8 98.8509C184.753 98.8577 184.712 98.8646 184.664 98.8783C184.664 98.892 184.91 98.8577 184.937 98.8509C185.313 98.7618 185.553 98.3232 185.443 97.9531C185.416 97.8435 185.368 97.7544 185.3 97.6653C185.272 97.631 185.245 97.5899 185.211 97.5557C185.238 97.5831 185.266 97.6173 185.293 97.6448C185.266 97.6036 185.238 97.5694 185.204 97.5282C185.17 97.4666 185.115 97.4117 185.054 97.3775C184.999 97.3364 184.951 97.2952 184.896 97.2541C184.718 97.1308 184.493 97.0622 184.281 97.0074C183.884 96.9046 183.474 96.8566 183.063 96.8498C182.66 96.8498 182.256 96.8909 181.859 96.9457C181.504 96.9937 181.114 97.1171 180.827 97.3295C180.608 97.494 180.471 97.7064 180.505 97.9943C180.539 98.2341 180.724 98.5082 180.984 98.5493Z" fill="#263238"/>
<path d="M173.437 96.651C173.348 96.5962 173.252 96.5482 173.164 96.5071C173.081 96.4728 172.863 96.3563 173.027 96.4454C172.965 96.4112 172.904 96.3769 172.842 96.3495C172.568 96.2124 172.281 96.1165 171.987 96.0411C171.344 95.8766 170.66 95.8355 169.997 95.904C169.292 95.9794 168.643 96.1507 168.034 96.5208C167.945 96.5756 167.856 96.6236 167.788 96.699C167.74 96.7607 167.692 96.8223 167.644 96.884C167.658 96.8635 167.671 96.8429 167.685 96.8223C167.494 96.9526 167.384 97.1719 167.391 97.398C167.391 97.6173 167.507 97.8023 167.699 97.9051C167.931 98.0353 168.15 97.9737 168.383 97.9051H168.027C168.225 97.9394 168.362 97.9462 168.56 97.9051C168.567 97.9051 168.752 97.8572 168.629 97.8846C168.513 97.912 168.82 97.864 168.855 97.8572C168.896 97.8572 169.108 97.8297 168.882 97.8572C168.923 97.8572 168.964 97.8503 169.005 97.8434C169.115 97.8297 169.217 97.816 169.327 97.8092C169.792 97.7749 170.257 97.7544 170.729 97.7338C171.16 97.7201 171.604 97.7132 172.042 97.7338C172.227 97.7406 172.411 97.7475 172.596 97.7544C172.698 97.7544 172.657 97.7749 172.582 97.7544C172.623 97.7681 172.657 97.7749 172.698 97.7818C172.774 97.8023 172.849 97.8297 172.924 97.8572C173.225 97.9737 173.588 97.7544 173.697 97.4734C173.82 97.1719 173.718 96.8223 173.43 96.651H173.437Z" fill="#263238"/>
<path d="M176.796 116.36C177.446 115.051 178.629 114.092 179.99 113.475C178.807 113.352 173.205 112.838 171.796 113.64C170.216 114.537 172.09 118.156 175.36 118.334C175.702 118.355 176.016 118.327 176.317 118.279C176.344 117.621 176.495 116.963 176.796 116.36Z" fill="#263238"/>
<path d="M150.934 108.753C150.934 108.753 151.501 110.953 154.757 113.503C158.013 116.052 162.732 117.923 162.732 117.923L163.108 116.271C163.108 116.271 158.225 114.147 155.961 111.803C153.697 109.466 153.416 108.185 153.416 108.185L150.94 108.753H150.934Z" fill="#DEE1EB"/>
<path d="M163.668 115.045C166.288 114.922 167.752 116.998 167.93 118.341C168.114 119.684 166.856 121.192 163.908 119.869C160.249 118.225 161.042 115.168 163.662 115.045H163.668Z" fill="#263238"/>
<path d="M152.985 92.5188C152.985 92.5188 154.113 84.3705 159.564 78.8332C169.967 68.2726 178.811 68.91 178.811 68.91C178.811 68.91 178.742 67.4229 175.412 66.2852C172.286 65.223 170.884 65.7918 170.884 65.7918C170.884 65.7918 162.321 66.4977 155.105 74.5089C147.889 82.5202 147.109 92.7312 147.109 92.7312L152.985 92.5188Z" fill="#E9E9E9"/>
<path d="M152.207 91.5251C145.394 90.3669 141.591 95.7055 141.311 101.099C141.031 106.485 144.936 110.583 150.155 110.172C161.898 109.254 160.558 92.9437 152.207 91.5251Z" fill="white"/>
<path d="M148.814 104.93C147.016 104.93 145.497 104.025 144.629 102.428C143.698 100.722 143.774 98.6181 144.827 97.0694C144.909 96.9528 145.066 96.9254 145.183 97.0008C145.299 97.0831 145.333 97.2407 145.251 97.3572C144.307 98.7483 144.239 100.64 145.08 102.182C145.873 103.641 147.282 104.471 148.951 104.416C150.511 104.375 151.831 103.662 152.665 102.408C153.623 100.976 153.842 99.0019 153.226 97.3709C152.61 95.7536 150.935 94.6571 149.409 94.8558C149.273 94.8764 149.143 94.7736 149.122 94.6365C149.102 94.4994 149.204 94.3692 149.341 94.3487C151.126 94.1088 153 95.3355 153.705 97.1927C154.382 98.9745 154.136 101.133 153.089 102.696C152.152 104.094 150.688 104.889 148.965 104.93C148.917 104.93 148.869 104.93 148.821 104.93H148.814Z" fill="#676767"/>
<path d="M143.855 127.181C143.855 127.181 123.193 132.287 115.977 140.511C108.761 148.734 105.362 189.284 105.225 196.802C105.088 204.32 110.321 207.438 113.433 209.562C116.545 211.687 130.272 215.517 141.311 216.086C152.35 216.655 162.821 216.086 162.821 216.086C162.821 216.086 162.787 213.674 164.483 210.131C166.056 206.841 168.054 206.163 168.054 206.163L158.574 202.757C158.574 202.757 156.912 172.953 154.327 158.521C151.358 141.929 143.855 127.188 143.855 127.188V127.181Z" fill="#4E9C0B"/>
<path d="M178.098 197.994C178.05 197.994 178.003 197.987 177.962 197.967C177.791 197.891 177.708 197.686 177.791 197.515C179.726 193.135 181.73 184.549 182.859 178.518L182.954 178.031C183.296 176.256 183.72 174.056 182.872 172.528C182.441 171.754 181.463 170.068 180.52 168.451C179.541 166.772 178.625 165.182 178.365 164.709C177.866 163.784 179.439 161.31 181.71 157.917C182.325 156.999 182.852 156.211 183.16 155.677C183.967 154.272 183.433 152.99 182.804 151.496L182.592 150.982C182.024 149.591 181.381 148.2 180.759 146.85C180.506 146.302 180.253 145.746 180 145.191C179.665 144.458 179.336 143.711 178.994 142.957C176.997 138.489 174.925 133.87 172.278 129.409C172.182 129.244 172.237 129.039 172.394 128.936C172.558 128.84 172.763 128.895 172.866 129.052C175.533 133.548 177.613 138.188 179.617 142.669C179.952 143.423 180.287 144.17 180.615 144.897C180.868 145.452 181.121 146 181.374 146.548C181.997 147.905 182.647 149.303 183.214 150.708L183.426 151.215C184.062 152.73 184.719 154.306 183.741 155.999C183.42 156.554 182.886 157.356 182.264 158.281C181.08 160.049 178.618 163.729 178.953 164.366C179.206 164.832 180.123 166.415 181.094 168.087C182.038 169.712 183.016 171.397 183.454 172.179C184.425 173.919 183.974 176.263 183.611 178.141L183.515 178.627C183.105 180.82 180.923 192.059 178.399 197.775C178.345 197.905 178.215 197.981 178.085 197.981L178.098 197.994Z" fill="#297727"/>
<path d="M157.935 199.2C157.847 199.2 157.758 199.166 157.696 199.098C156.089 197.473 148.333 184.021 147.758 181.492C147.444 180.108 148.237 176.592 149.003 173.193C149.598 170.561 150.214 167.841 150.036 167.101C149.776 165.997 147.792 164.373 145.877 162.804C143.559 160.905 141.165 158.945 140.7 157.177C140.173 155.169 140.624 142.601 140.919 134.288C141.028 131.3 141.11 128.936 141.11 128.093C141.11 127.901 141.261 127.75 141.452 127.75C141.644 127.75 141.794 127.901 141.794 128.093C141.794 128.95 141.712 131.314 141.603 134.309C141.322 142.08 140.857 155.087 141.356 156.999C141.767 158.548 144.174 160.522 146.301 162.262C148.401 163.982 150.378 165.6 150.692 166.929C150.904 167.82 150.33 170.376 149.66 173.33C148.941 176.496 148.134 180.087 148.415 181.321C148.982 183.801 156.595 197 158.175 198.597C158.305 198.734 158.305 198.947 158.175 199.084C158.106 199.152 158.024 199.187 157.935 199.187V199.2Z" fill="#297727"/>
<path d="M130.133 193.314C130.133 193.314 130.099 193.314 130.085 193.314C129.901 193.286 129.771 193.115 129.791 192.923C130.044 191.141 133.97 155.642 134.148 152.922C134.162 152.73 134.326 152.586 134.51 152.6C134.702 152.613 134.839 152.778 134.832 152.963C134.654 155.683 130.721 191.23 130.468 193.012C130.441 193.183 130.297 193.307 130.133 193.307V193.314Z" fill="#297727"/>
<path d="M158.294 202.956C158.253 202.956 158.205 202.949 158.164 202.929C157.295 202.572 153.451 201.277 148.589 199.632C138.767 196.315 125.32 191.772 122.762 190.435C122.591 190.346 122.53 190.141 122.619 189.976C122.708 189.805 122.913 189.743 123.077 189.832C125.587 191.141 139.56 195.863 148.807 198.988C153.684 200.64 157.535 201.935 158.424 202.298C158.602 202.367 158.684 202.572 158.615 202.744C158.561 202.874 158.431 202.956 158.301 202.956H158.294Z" fill="#297727"/>
<path d="M153.57 217.094C144.925 217.094 128.175 215.531 115.446 211.022C115.268 210.96 115.173 210.761 115.241 210.583C115.302 210.405 115.501 210.309 115.679 210.378C131.759 216.079 154.254 217.053 158.44 216.107C158.624 216.066 158.809 216.182 158.85 216.367C158.891 216.552 158.775 216.737 158.59 216.778C157.687 216.984 155.93 217.094 153.584 217.094H153.57Z" fill="#297727"/>
<path d="M54.6438 131.965C57.3249 134.329 60.7242 135.844 63.077 138.578C64.0004 139.654 64.8348 140.799 65.6966 141.929C66.319 142.752 67.9947 144.116 68.2614 145.144C68.3777 145.596 68.3572 144.979 68.2341 144.527C68.2341 144.506 68.2204 144.492 68.2135 144.472C67.981 142.382 67.81 140.285 67.7348 138.181C67.6595 136.084 67.7895 133.98 67.6595 131.89C67.4749 128.936 66.5515 126.078 64.144 124.228C62.9676 123.323 61.456 122.775 60.3685 121.768C59.3426 120.815 59.753 119.725 60.3549 118.663C60.9225 117.67 61.6065 116.69 61.8254 115.545C62.0784 114.243 61.586 112.9 60.9294 111.796C59.5273 109.439 56.4221 106.807 53.4742 107.164C51.0188 107.459 50.7384 110.296 50.7795 112.269C50.8136 114.188 51.0052 116.107 51.0188 118.026C51.0394 120 50.7042 121.939 50.6769 123.906C50.629 127.25 52.1747 129.799 54.6233 131.958L54.6438 131.965Z" fill="#F3B755"/>
<path d="M79.5736 162.653C80.3191 160.865 81.1809 159.199 82.2342 157.575C83.6774 155.348 85.2847 153.176 86.2559 150.681C87.2476 148.132 87.104 145.411 87.1998 142.731C87.2682 140.758 87.8564 138.798 87.699 136.817C87.6238 135.872 87.0766 134.336 85.8524 134.494C84.9017 134.617 84.334 135.796 83.9715 136.557C83.3354 137.873 82.8908 139.278 82.4189 140.662C82.2342 141.203 82.0564 141.751 81.8239 142.272C81.6871 142.574 81.2562 143.314 80.8458 143.218C80.1482 143.047 80.7842 140.203 80.8868 139.696C81.4066 137.167 82.1864 134.816 82.2958 132.212C82.4531 128.436 82.159 123.947 78.4725 121.878C77.5081 121.336 76.2906 121.014 75.3741 121.823C74.4713 122.618 74.2182 123.995 74.0815 125.133C73.6711 128.621 74.4918 131.917 75.6067 135.2C76.53 137.907 77.6244 140.703 77.7064 143.602C77.7817 146.391 76.3385 148.858 75.6546 151.497C74.5739 155.691 74.7928 157.918 74.7928 159.275C74.7928 160.974 74.8475 162.66 74.9706 164.36C75.0869 165.922 75.2168 167.478 75.4083 169.034C75.4494 169.349 75.4836 169.678 75.5246 170.007C74.9227 168.561 74.7175 166.909 74.2182 165.456C73.3359 162.879 72.3168 160.351 71.4687 157.76C70.7711 155.622 70.1077 153.463 69.1912 151.401C68.3294 149.468 67.2829 147.426 65.6688 146.007C64.6907 145.151 63.5143 144.65 62.2079 144.657C61.3735 144.657 60.6212 144.952 59.8278 145.164C58.8497 145.425 58.0768 145.336 57.2698 144.712C54.6297 142.677 53.8226 139.031 51.8734 136.454C50.4165 134.535 46.9557 131.259 44.4114 133.356C43.064 134.467 42.6878 136.612 42.763 138.263C42.8519 140.326 43.7548 142.218 44.8217 143.944C45.964 145.781 47.4345 147.426 48.4809 149.31C49.1033 150.427 49.1991 151.497 49.0965 152.751C49.0007 153.936 48.8981 155.081 49.3017 156.225C50.5123 159.659 54.2946 159.179 57.2356 159.268C59.2943 159.33 61.4966 159.638 63.4527 160.296C65.7098 161.057 67.1803 162.53 67.9874 164.764C68.5688 166.381 68.8834 168.225 69.9845 169.595C70.5044 170.24 71.1883 170.719 71.9407 171.055C73.0897 171.562 76.5847 171.782 76.6053 171.466C76.6942 170.397 77.2003 169.267 77.5149 168.252C78.11 166.347 78.8076 164.49 79.5805 162.646L79.5736 162.653Z" fill="#F3B755"/>
<path d="M95.8044 162.009C95.5035 160.049 95.5582 157.884 94.6349 156.081C94.5665 155.951 94.3955 155.917 94.2724 155.985C93.6089 156.355 93.5816 157.431 93.5269 158.089C93.4379 159.186 93.5063 160.282 93.3696 161.372C93.137 163.291 92.6924 165.264 92.0016 167.067C91.2219 169.109 89.8061 170.267 87.7474 170.904C86.4274 171.316 85.1279 171.672 84.0199 172.549C83.0281 173.337 82.3442 174.42 81.838 175.565C80.4633 178.655 79.8067 182.102 79.1706 185.406C78.7397 187.626 78.3909 189.86 77.8506 192.06C77.3102 194.26 76.7357 196.446 76.4279 198.694C76.3732 198.81 76.3185 198.92 76.2706 199.036C76.127 199.372 76.6536 199.55 76.8315 199.276C78.9586 196 81.5439 193.054 85.08 191.251C86.6736 190.436 88.7939 190.264 90.1276 188.983C91.1399 188.01 91.2766 186.523 91.1262 185.193C90.9278 183.452 90.0934 182.02 89.2248 180.533C88.746 179.717 88.1852 178.847 88.3767 177.853C88.5613 176.921 89.3342 176.229 90.1002 175.75C91.5707 174.838 93.2875 174.427 94.4844 173.111C95.5993 171.891 96.2217 170.363 96.3448 168.718C96.5089 166.525 96.1327 164.168 95.7976 162.002L95.8044 162.009Z" fill="#F3B755"/>
<path d="M66.8235 173.323C64.9495 170.904 62.6856 168.814 60.1413 167.121C58.7802 166.217 55.5793 164.435 54.9295 167.101C54.5533 168.663 56.0786 170.198 57.084 171.178C58.5955 172.652 60.3396 173.92 61.6118 175.619C60.0318 176.126 58.3835 176.222 57.0156 177.312C55.3946 178.607 54.6628 181.102 56.2769 182.692C57.0635 183.466 58.1031 183.939 59.0743 184.412C60.3465 185.028 61.6391 185.584 62.9387 186.132C65.7497 187.31 68.595 188.503 70.9888 190.429C73.4306 192.389 75.7287 195.712 75.9202 198.913C75.9407 199.221 75.8244 198.94 76.0022 198.803C76.1048 198.892 76.4331 198.735 76.4331 198.556C76.3853 193.807 75.5303 189.277 73.5947 184.926C71.7959 180.889 69.532 176.825 66.8235 173.33V173.323Z" fill="#F3B755"/>
<path d="M60.3484 129.087C61.3812 131.239 62.4619 133.343 63.6109 135.44C64.7189 137.461 65.8201 139.462 66.6477 141.621C67.6668 144.273 68.7337 146.884 69.8076 149.516C70.9292 152.25 71.9278 155.033 72.7281 157.877C74.2943 163.428 75.4571 169.136 76.0316 174.879C76.3257 177.798 76.4556 180.732 76.3736 183.665C76.312 185.954 76.0521 188.222 75.8401 190.504C75.6144 192.875 75.457 195.281 75.6554 197.659C75.8195 199.646 76.1342 202.017 77.6799 203.436C77.9809 203.717 78.4117 203.367 78.2339 203.011C76.4009 199.249 76.5035 195.144 76.8523 191.066C77.0438 188.811 77.3106 186.57 77.3926 184.309C77.4884 181.431 77.379 178.545 77.1054 175.681C76.5719 170.048 75.4502 164.483 74.0002 159.021C73.2547 156.218 72.3314 153.47 71.2712 150.777C70.2043 148.077 68.9731 145.445 67.9404 142.731C66.0731 137.818 63.2279 133.466 60.7041 128.888C60.5741 128.648 60.2322 128.861 60.3416 129.101L60.3484 129.087Z" fill="#8D8D8D"/>
<path d="M76.1251 169.246C76.4192 165.668 76.7407 162.221 77.9376 158.815C78.4985 157.225 79.1756 155.677 79.7228 154.08C80.1673 152.757 80.8376 150.948 80.4956 149.543C80.4546 149.386 80.2289 149.392 80.1878 149.543C79.9553 150.345 79.9827 151.222 79.8185 152.045C79.6544 152.846 79.4423 153.628 79.1961 154.409C78.6695 156.06 77.9787 157.643 77.3836 159.274C76.2277 162.42 75.6327 165.901 75.8858 169.246C75.8994 169.403 76.1183 169.403 76.132 169.246H76.1251Z" fill="#8D8D8D"/>
<path d="M55.4389 148.693C56.8547 152.12 61.1158 152.319 64.2209 153.086C66.437 153.635 68.0716 155.115 69.248 157.041C70.5339 159.144 71.4025 161.612 72.1206 163.962C72.1275 163.99 72.1685 163.976 72.1617 163.948C71.2931 159.837 70.0483 154.889 65.8214 152.977C62.429 151.442 57.9627 152.216 55.8014 148.543C55.692 148.365 55.3637 148.481 55.4526 148.693H55.4389Z" fill="#8D8D8D"/>
<path d="M73.8808 168.705C74.0518 168.931 74.2022 169.171 74.3801 169.397C74.469 169.506 74.5511 169.609 74.6605 169.698C74.7699 169.787 74.8999 169.904 75.0572 169.897C75.1187 169.897 75.1666 169.822 75.1324 169.767C75.064 169.65 74.9341 169.582 74.8383 169.5C74.7357 169.41 74.6331 169.321 74.5374 169.225C74.339 169.04 74.1612 168.835 73.9629 168.643C73.9287 168.609 73.8534 168.657 73.8876 168.705H73.8808Z" fill="#8D8D8D"/>
<path d="M65.0279 179.587C67.4696 181.595 69.7266 183.973 71.5186 186.584C72.3736 187.831 73.167 189.147 73.8851 190.477C74.6648 191.929 75.1846 193.465 75.7933 194.993C75.8412 195.109 76.0533 195.109 76.0327 194.959C75.6908 191.731 73.6526 188.969 72.0247 186.283C71.1766 184.891 70.1233 183.767 68.988 182.602C67.8184 181.403 66.6215 180.266 65.2536 179.299C65.0894 179.183 64.8705 179.457 65.0347 179.587H65.0279Z" fill="#8D8D8D"/>
<path d="M84.4839 175.784C83.3075 176.455 83.2664 178.312 83.2459 179.505C83.2049 181.794 83.7657 183.939 82.7672 186.118C81.8643 188.085 80.4212 189.73 79.2858 191.552C78.2257 193.266 77.1724 195.452 77.1997 197.508C77.1997 197.624 77.3844 197.693 77.4391 197.569C77.87 196.637 78.0205 195.575 78.3283 194.595C78.6702 193.492 79.1559 192.491 79.7783 191.525C80.8726 189.825 82.2131 188.284 83.1023 186.461C84.0393 184.535 83.9025 182.63 83.841 180.546C83.7999 179.217 83.67 177.079 84.737 176.092C84.9011 175.934 84.6891 175.674 84.4976 175.784H84.4839Z" fill="#8D8D8D"/>
<path d="M76.6147 197.72C71.8749 197.652 62.8398 197.604 62.8398 197.604L65.0764 214.229C65.5825 217.971 68.7629 220.76 72.5315 220.76H80.698C84.4666 220.76 87.6538 217.971 88.1531 214.229L90.3897 197.604C90.3897 197.604 81.3546 197.659 76.6147 197.72Z" fill="white"/>
<path d="M305.816 167.169L278.766 220.856L199.898 221.425L224.234 166.409L305.816 167.169Z" fill="#F6F7FA"/>
<path d="M147.559 221.089L147.572 216.792H198.63L222.117 165.182H303.768L305.82 167.169H226.056L201.646 221.048C201.646 221.048 147.559 220.952 147.559 221.089Z" fill="#D9DEE8"/>
<path d="M264.862 196.795C263.973 199.475 259.138 201.544 254.063 201.414C248.988 201.284 245.595 199.016 246.491 196.336C247.38 193.656 252.216 191.587 257.291 191.717C262.366 191.847 265.758 194.116 264.862 196.795Z" fill="#D9DEE8"/>
<path d="M201.648 221.391C201.601 221.391 201.553 221.384 201.505 221.363C201.334 221.288 201.259 221.082 201.334 220.911L225.833 166.834H305.815C306.007 166.834 306.157 166.984 306.157 167.176C306.157 167.368 306.007 167.519 305.815 167.519H226.271L201.949 221.199C201.895 221.322 201.765 221.398 201.635 221.398L201.648 221.391Z" fill="white"/>
<path d="M143.994 225.16H50.1758V246H143.994V225.16Z" fill="#CC963E"/>
<path d="M312.262 225.16H143.461V246H312.262V225.16Z" fill="#F3B755"/>
<g style="mix-blend-mode:multiply">
<path d="M143.998 225.16H143.465H50.1797V228.984H143.465H143.998H312.265V225.16H143.998Z" fill="#BDC4D7"/>
</g>
<path d="M148.102 221.048H45.6523V226.153H148.102V221.048Z" fill="#CC963E"/>
<path d="M316.371 221.048H147.57V226.153H316.371V221.048Z" fill="#F3B755"/>
<path d="M120.315 87.6874H87.1983C85.1471 87.6874 83.4844 89.3535 83.4844 91.4086V107.973C83.4844 110.028 85.1471 111.694 87.1983 111.694H120.315C122.367 111.694 124.029 110.028 124.029 107.973V91.4086C124.029 89.3535 122.367 87.6874 120.315 87.6874Z" fill="white"/>
<path d="M133.469 99.6871L121.027 94.4308V104.95L133.469 99.6871Z" fill="white"/>
<path d="M95.8967 101.983C97.1622 101.983 98.188 100.955 98.188 99.6873C98.188 98.4194 97.1622 97.3915 95.8967 97.3915C94.6313 97.3915 93.6055 98.4194 93.6055 99.6873C93.6055 100.955 94.6313 101.983 95.8967 101.983Z" fill="#223A7A"/>
<path d="M103.756 101.983C105.022 101.983 106.047 100.955 106.047 99.6873C106.047 98.4194 105.022 97.3915 103.756 97.3915C102.491 97.3915 101.465 98.4194 101.465 99.6873C101.465 100.955 102.491 101.983 103.756 101.983Z" fill="#223A7A"/>
<path d="M111.608 101.983C112.873 101.983 113.899 100.955 113.899 99.6873C113.899 98.4194 112.873 97.3915 111.608 97.3915C110.342 97.3915 109.316 98.4194 109.316 99.6873C109.316 100.955 110.342 101.983 111.608 101.983Z" fill="#223A7A"/>
<path d="M288.929 36.7209H212.47C207.559 36.7209 203.578 40.7094 203.578 45.6299V81.9717C203.578 86.8922 207.559 90.8807 212.47 90.8807H219.323C219.514 94.177 219.042 99.0769 216.3 105.341C225.136 101.256 230.218 95.1296 232.879 90.8807H288.936C293.847 90.8807 297.827 86.8922 297.827 81.9717V45.6299C297.827 40.7094 293.847 36.7209 288.936 36.7209H288.929Z" fill="#FFD591"/>
<path d="M256.309 54.0453H218.384C217.344 54.0453 216.496 53.1955 216.496 52.1538C216.496 51.1122 217.344 50.2624 218.384 50.2624H256.309C257.349 50.2624 258.197 51.1053 258.197 52.1538C258.197 53.1955 257.356 54.0453 256.309 54.0453Z" fill="white"/>
<path d="M283.503 65.0583H217.652C217.016 65.0583 216.496 64.5375 216.496 63.9002C216.496 63.2628 217.016 62.742 217.652 62.742H283.503C284.139 62.742 284.659 63.2628 284.659 63.9002C284.659 64.5375 284.139 65.0583 283.503 65.0583Z" fill="#FFEFD6"/>
<path d="M283.503 71.4866H217.652C217.016 71.4866 216.496 70.9657 216.496 70.3284C216.496 69.6911 217.016 69.1702 217.652 69.1702H283.503C284.139 69.1702 284.659 69.6911 284.659 70.3284C284.659 70.9657 284.139 71.4866 283.503 71.4866Z" fill="#FFEFD6"/>
<path d="M269.141 78.3397H217.66C217.024 78.3397 216.504 77.8188 216.504 77.1815C216.504 76.5441 217.024 76.0233 217.66 76.0233H269.141C269.777 76.0233 270.297 76.5441 270.297 77.1815C270.297 77.8188 269.777 78.3397 269.141 78.3397Z" fill="#FFEFD6"/>
<path d="M282.986 54.0453H264.896C263.856 54.0453 263.008 53.1955 263.008 52.1538C263.008 51.1122 263.856 50.2624 264.896 50.2624H282.986C284.026 50.2624 284.874 51.1053 284.874 52.1538C284.874 53.1955 284.026 54.0453 282.986 54.0453Z" fill="white"/>
<path d="M237.384 120.829H216.844C216.089 120.829 215.477 121.443 215.477 122.2V136.262C215.477 137.019 216.089 137.633 216.844 137.633H237.384C238.139 137.633 238.752 137.019 238.752 136.262V122.2C238.752 121.443 238.139 120.829 237.384 120.829Z" fill="white"/>
<path d="M227.255 131.739C227.138 131.739 227.022 131.698 226.926 131.622L215.744 122.371C215.525 122.193 215.497 121.864 215.675 121.644C215.86 121.425 216.181 121.398 216.4 121.576L227.248 130.553L237.815 121.343C238.027 121.158 238.355 121.178 238.54 121.391C238.725 121.603 238.704 121.932 238.492 122.117L227.597 131.616C227.501 131.698 227.378 131.739 227.262 131.739H227.255Z" fill="#6F7FA9"/>
<path d="M216.077 137.242C215.947 137.242 215.824 137.194 215.722 137.098C215.517 136.899 215.51 136.577 215.701 136.372L223.519 128.134C223.71 127.929 224.039 127.922 224.244 128.114C224.449 128.312 224.456 128.635 224.264 128.84L216.447 137.078C216.344 137.18 216.214 137.235 216.077 137.235V137.242Z" fill="#6F7FA9"/>
<path d="M238.157 136.941C238.027 136.941 237.897 136.893 237.794 136.79L230.004 128.964C229.806 128.765 229.806 128.436 230.004 128.237C230.203 128.038 230.531 128.038 230.729 128.237L238.519 136.063C238.718 136.262 238.718 136.591 238.519 136.79C238.417 136.893 238.287 136.941 238.157 136.941Z" fill="#6F7FA9"/>
<path d="M239.817 127.182C243.606 127.182 246.677 124.104 246.677 120.308C246.677 116.512 243.606 113.434 239.817 113.434C236.028 113.434 232.957 116.512 232.957 120.308C232.957 124.104 236.028 127.182 239.817 127.182Z" fill="#FF5F42"/>
<path d="M238.164 120.287L238.148 120.098C238.356 120.191 238.536 120.312 238.689 120.46C238.842 120.608 238.96 120.77 239.042 120.945C239.124 121.121 239.165 121.302 239.165 121.488C239.165 121.801 239.078 122.088 238.903 122.352C238.733 122.609 238.503 122.818 238.213 122.977C237.923 123.13 237.6 123.207 237.245 123.207C236.889 123.207 236.566 123.13 236.276 122.977C235.986 122.818 235.754 122.609 235.579 122.352C235.409 122.088 235.324 121.801 235.324 121.488C235.324 121.236 235.376 121.019 235.48 120.838C235.59 120.652 235.724 120.496 235.882 120.37C236.046 120.244 236.208 120.139 236.367 120.057L236.301 120.287C236.164 120.233 236.03 120.156 235.899 120.057C235.773 119.953 235.669 119.821 235.587 119.662C235.505 119.503 235.464 119.317 235.464 119.103C235.464 118.796 235.543 118.519 235.702 118.273C235.86 118.02 236.074 117.82 236.342 117.672C236.616 117.524 236.916 117.45 237.245 117.45C237.579 117.45 237.877 117.524 238.139 117.672C238.407 117.82 238.621 118.02 238.78 118.273C238.938 118.519 239.018 118.796 239.018 119.103C239.018 119.339 238.971 119.536 238.878 119.695C238.785 119.854 238.673 119.98 238.542 120.074C238.41 120.167 238.284 120.238 238.164 120.287ZM236.449 119.12C236.449 119.268 236.481 119.399 236.547 119.514C236.618 119.629 236.714 119.723 236.834 119.794C236.955 119.86 237.092 119.893 237.245 119.893C237.398 119.893 237.532 119.86 237.647 119.794C237.767 119.723 237.86 119.629 237.926 119.514C237.997 119.399 238.033 119.268 238.033 119.12C238.033 118.9 237.956 118.719 237.803 118.577C237.655 118.429 237.469 118.355 237.245 118.355C237.015 118.355 236.823 118.429 236.67 118.577C236.523 118.719 236.449 118.9 236.449 119.12ZM237.245 122.302C237.507 122.302 237.729 122.223 237.91 122.064C238.09 121.899 238.18 121.702 238.18 121.472C238.18 121.313 238.139 121.17 238.057 121.044C237.975 120.918 237.863 120.819 237.721 120.748C237.579 120.671 237.42 120.633 237.245 120.633C237.07 120.633 236.911 120.671 236.769 120.748C236.626 120.819 236.514 120.918 236.432 121.044C236.35 121.17 236.309 121.313 236.309 121.472C236.309 121.702 236.399 121.899 236.58 122.064C236.761 122.223 236.982 122.302 237.245 122.302Z" fill="white"/>
<path d="M241.47 123.289C241.268 123.289 241.052 123.259 240.822 123.199C240.592 123.133 240.403 123.04 240.256 122.919C240.185 122.859 240.127 122.782 240.083 122.689C240.045 122.59 240.026 122.497 240.026 122.409C240.026 122.316 240.064 122.228 240.141 122.146C240.223 122.064 240.338 122.023 240.486 122.023C240.584 122.023 240.707 122.075 240.855 122.179C240.942 122.234 241.038 122.283 241.142 122.327C241.246 122.371 241.353 122.393 241.462 122.393C241.725 122.393 241.952 122.346 242.143 122.253C242.335 122.154 242.483 122.02 242.587 121.85C242.691 121.68 242.743 121.48 242.743 121.25C242.743 121.041 242.693 120.863 242.595 120.715C242.502 120.567 242.376 120.452 242.217 120.37C242.064 120.287 241.897 120.246 241.717 120.246C241.547 120.246 241.399 120.274 241.273 120.328C241.148 120.383 241.033 120.441 240.929 120.501C240.825 120.556 240.721 120.583 240.617 120.583C240.436 120.583 240.302 120.545 240.215 120.468C240.127 120.386 240.072 120.29 240.051 120.18C240.029 120.071 240.023 119.972 240.034 119.884L240.289 117.886C240.31 117.771 240.365 117.678 240.453 117.606C240.546 117.53 240.655 117.491 240.781 117.491H243.153C243.284 117.491 243.394 117.535 243.481 117.623C243.569 117.711 243.613 117.82 243.613 117.952C243.613 118.078 243.569 118.185 243.481 118.273C243.394 118.355 243.284 118.396 243.153 118.396H241.035L241.126 118.322L240.904 119.991L240.797 119.679C240.83 119.624 240.901 119.572 241.011 119.523C241.12 119.473 241.246 119.432 241.388 119.399C241.531 119.361 241.67 119.342 241.807 119.342C242.174 119.342 242.502 119.427 242.792 119.597C243.082 119.761 243.309 119.989 243.473 120.279C243.643 120.564 243.727 120.888 243.727 121.25C243.727 121.661 243.634 122.02 243.448 122.327C243.262 122.634 243 122.872 242.66 123.042C242.327 123.207 241.93 123.289 241.47 123.289Z" fill="white"/>
<path d="M308.763 106.006H268.669C267.158 106.006 265.934 107.233 265.934 108.747V115.031C265.934 116.545 267.158 117.772 268.669 117.772H308.763C310.274 117.772 311.499 116.545 311.499 115.031V108.747C311.499 107.233 310.274 106.006 308.763 106.006Z" fill="#FFD590"/>
<path d="M271.562 114.976C271.384 114.976 271.241 114.915 271.131 114.785C271.022 114.654 270.974 114.497 270.987 114.305L271.158 112.783C271.172 112.742 271.158 112.722 271.138 112.708C271.111 112.694 271.083 112.708 271.042 112.729L269.791 113.633C269.633 113.75 269.476 113.791 269.312 113.757C269.148 113.722 269.011 113.626 268.908 113.455C268.792 113.249 268.771 113.071 268.84 112.914C268.908 112.756 269.031 112.653 269.196 112.585L270.598 111.947C270.639 111.934 270.652 111.913 270.652 111.893C270.652 111.872 270.632 111.845 270.598 111.838L269.196 111.2C269.018 111.125 268.901 111.002 268.847 110.837C268.799 110.673 268.812 110.501 268.901 110.337C269.004 110.172 269.141 110.07 269.305 110.035C269.469 110.001 269.633 110.035 269.784 110.138L271.035 111.063C271.076 111.091 271.104 111.098 271.131 111.084C271.158 111.07 271.165 111.043 271.152 111.009L270.981 109.487C270.967 109.295 271.022 109.131 271.138 109.007C271.254 108.877 271.405 108.816 271.603 108.816C271.781 108.816 271.931 108.877 272.048 109.007C272.164 109.138 272.205 109.295 272.184 109.487L272.013 111.009C272 111.05 272.013 111.07 272.034 111.084C272.061 111.098 272.089 111.084 272.13 111.063L273.381 110.159C273.532 110.042 273.696 110.001 273.874 110.035C274.045 110.07 274.175 110.166 274.27 110.337C274.387 110.543 274.407 110.721 274.339 110.878C274.27 111.029 274.147 111.139 273.983 111.207L272.581 111.845C272.54 111.858 272.526 111.879 272.526 111.899C272.526 111.92 272.547 111.947 272.581 111.954L273.983 112.592C274.161 112.667 274.284 112.79 274.339 112.955C274.394 113.119 274.373 113.291 274.27 113.455C274.182 113.62 274.052 113.722 273.874 113.757C273.703 113.791 273.539 113.757 273.381 113.654L272.13 112.729C272.089 112.701 272.061 112.694 272.034 112.708C272.007 112.722 272 112.749 272.013 112.783L272.184 114.305C272.212 114.497 272.164 114.661 272.041 114.785C271.918 114.915 271.76 114.976 271.569 114.976H271.562Z" fill="white"/>
<path d="M279.855 114.976C279.677 114.976 279.534 114.915 279.424 114.785C279.315 114.654 279.267 114.497 279.28 114.305L279.451 112.783C279.465 112.742 279.451 112.722 279.431 112.708C279.404 112.694 279.376 112.708 279.335 112.729L278.084 113.633C277.926 113.75 277.769 113.791 277.605 113.757C277.441 113.722 277.304 113.626 277.201 113.455C277.085 113.249 277.064 113.071 277.133 112.914C277.201 112.756 277.324 112.653 277.488 112.585L278.891 111.947C278.932 111.934 278.945 111.913 278.945 111.893C278.945 111.872 278.925 111.845 278.891 111.838L277.488 111.2C277.311 111.125 277.194 111.002 277.14 110.837C277.092 110.673 277.105 110.501 277.194 110.337C277.297 110.172 277.434 110.07 277.598 110.035C277.762 110.001 277.926 110.035 278.077 110.138L279.328 111.063C279.369 111.091 279.397 111.098 279.424 111.084C279.451 111.07 279.458 111.043 279.445 111.009L279.274 109.487C279.26 109.295 279.315 109.131 279.431 109.007C279.547 108.877 279.698 108.816 279.896 108.816C280.074 108.816 280.224 108.877 280.341 109.007C280.457 109.138 280.498 109.295 280.477 109.487L280.306 111.009C280.293 111.05 280.3 111.07 280.327 111.084C280.354 111.098 280.382 111.084 280.423 111.063L281.674 110.159C281.825 110.042 281.989 110.001 282.167 110.035C282.338 110.07 282.468 110.166 282.563 110.337C282.68 110.543 282.7 110.721 282.632 110.878C282.563 111.029 282.44 111.139 282.276 111.207L280.874 111.845C280.833 111.858 280.819 111.879 280.819 111.899C280.819 111.92 280.84 111.947 280.874 111.954L282.276 112.592C282.454 112.667 282.577 112.79 282.632 112.955C282.687 113.119 282.666 113.291 282.563 113.455C282.475 113.62 282.345 113.722 282.167 113.757C281.996 113.791 281.832 113.757 281.674 113.654L280.423 112.729C280.382 112.701 280.354 112.694 280.327 112.708C280.3 112.722 280.293 112.749 280.306 112.783L280.477 114.305C280.505 114.497 280.457 114.661 280.334 114.785C280.211 114.915 280.053 114.976 279.862 114.976H279.855Z" fill="white"/>
<path d="M288.148 114.976C287.97 114.976 287.826 114.915 287.717 114.785C287.608 114.654 287.56 114.497 287.573 114.305L287.744 112.783C287.758 112.742 287.744 112.722 287.724 112.708C287.697 112.694 287.669 112.708 287.628 112.729L286.377 113.633C286.219 113.75 286.062 113.791 285.898 113.757C285.734 113.722 285.597 113.626 285.494 113.455C285.378 113.249 285.357 113.071 285.426 112.914C285.494 112.756 285.617 112.653 285.781 112.585L287.184 111.947C287.225 111.934 287.238 111.913 287.238 111.893C287.238 111.872 287.218 111.845 287.184 111.838L285.781 111.2C285.604 111.125 285.487 111.002 285.433 110.837C285.385 110.673 285.398 110.501 285.487 110.337C285.59 110.172 285.727 110.07 285.891 110.035C286.055 110.001 286.219 110.035 286.37 110.138L287.621 111.063C287.662 111.091 287.69 111.098 287.717 111.084C287.744 111.07 287.751 111.043 287.738 111.009L287.567 109.487C287.553 109.295 287.608 109.131 287.724 109.007C287.84 108.877 287.991 108.816 288.189 108.816C288.367 108.816 288.517 108.877 288.634 109.007C288.75 109.138 288.791 109.295 288.77 109.487L288.599 111.009C288.586 111.05 288.593 111.07 288.62 111.084C288.647 111.098 288.675 111.084 288.716 111.063L289.967 110.159C290.118 110.042 290.282 110.001 290.46 110.035C290.631 110.07 290.761 110.166 290.856 110.337C290.973 110.543 290.993 110.721 290.925 110.878C290.856 111.029 290.733 111.139 290.569 111.207L289.167 111.845C289.126 111.858 289.112 111.879 289.112 111.899C289.112 111.92 289.133 111.947 289.167 111.954L290.569 112.592C290.747 112.667 290.87 112.79 290.925 112.955C290.98 113.119 290.959 113.291 290.856 113.455C290.768 113.62 290.638 113.722 290.46 113.757C290.289 113.791 290.125 113.757 289.967 113.654L288.716 112.729C288.675 112.701 288.647 112.694 288.62 112.708C288.593 112.722 288.586 112.749 288.599 112.783L288.77 114.305C288.798 114.497 288.75 114.661 288.627 114.785C288.504 114.915 288.346 114.976 288.155 114.976H288.148Z" fill="white"/>
<path d="M296.437 114.976C296.259 114.976 296.116 114.915 296.006 114.785C295.897 114.654 295.849 114.497 295.862 114.305L296.033 112.783C296.047 112.742 296.033 112.722 296.013 112.708C295.986 112.694 295.958 112.708 295.917 112.729L294.666 113.633C294.508 113.75 294.351 113.791 294.187 113.757C294.023 113.722 293.886 113.626 293.783 113.455C293.667 113.249 293.646 113.071 293.715 112.914C293.783 112.756 293.906 112.653 294.071 112.585L295.473 111.947C295.514 111.934 295.527 111.913 295.527 111.893C295.527 111.872 295.507 111.845 295.473 111.838L294.071 111.2C293.893 111.125 293.776 111.002 293.722 110.837C293.674 110.673 293.687 110.501 293.776 110.337C293.879 110.172 294.016 110.07 294.18 110.035C294.344 110.001 294.508 110.035 294.659 110.138L295.91 111.063C295.951 111.091 295.979 111.098 296.006 111.084C296.033 111.07 296.04 111.043 296.027 111.009L295.856 109.487C295.842 109.295 295.897 109.131 296.013 109.007C296.129 108.877 296.28 108.816 296.478 108.816C296.656 108.816 296.806 108.877 296.923 109.007C297.039 109.138 297.08 109.295 297.059 109.487L296.888 111.009C296.875 111.05 296.882 111.07 296.909 111.084C296.936 111.098 296.964 111.084 297.005 111.063L298.256 110.159C298.407 110.042 298.571 110.001 298.749 110.035C298.92 110.07 299.05 110.166 299.145 110.337C299.262 110.543 299.282 110.721 299.214 110.878C299.145 111.029 299.022 111.139 298.858 111.207L297.456 111.845C297.415 111.858 297.401 111.879 297.401 111.899C297.401 111.92 297.422 111.947 297.456 111.954L298.858 112.592C299.036 112.667 299.159 112.79 299.214 112.955C299.269 113.119 299.248 113.291 299.145 113.455C299.057 113.62 298.927 113.722 298.749 113.757C298.578 113.791 298.414 113.757 298.256 113.654L297.005 112.729C296.964 112.701 296.936 112.694 296.909 112.708C296.882 112.722 296.875 112.749 296.888 112.783L297.059 114.305C297.087 114.497 297.039 114.661 296.916 114.785C296.793 114.915 296.635 114.976 296.444 114.976H296.437Z" fill="white"/>
<path d="M304.734 114.976C304.556 114.976 304.412 114.915 304.303 114.785C304.194 114.654 304.146 114.497 304.159 114.305L304.33 112.783C304.344 112.742 304.33 112.722 304.31 112.708C304.282 112.694 304.255 112.708 304.214 112.729L302.962 113.633C302.805 113.75 302.648 113.791 302.484 113.757C302.32 113.722 302.183 113.626 302.08 113.455C301.964 113.249 301.943 113.071 302.012 112.914C302.08 112.756 302.203 112.653 302.367 112.585L303.77 111.947C303.811 111.934 303.824 111.913 303.824 111.893C303.824 111.872 303.804 111.845 303.77 111.838L302.367 111.2C302.19 111.125 302.073 111.002 302.019 110.837C301.971 110.673 301.984 110.501 302.073 110.337C302.176 110.172 302.313 110.07 302.477 110.035C302.641 110.001 302.805 110.035 302.956 110.138L304.207 111.063C304.248 111.091 304.276 111.098 304.303 111.084C304.33 111.07 304.337 111.043 304.324 111.009L304.153 109.487C304.139 109.295 304.194 109.131 304.31 109.007C304.426 108.877 304.577 108.816 304.775 108.816C304.953 108.816 305.103 108.877 305.219 109.007C305.336 109.138 305.377 109.295 305.356 109.487L305.185 111.009C305.172 111.05 305.178 111.07 305.206 111.084C305.233 111.098 305.261 111.084 305.302 111.063L306.553 110.159C306.704 110.042 306.868 110.001 307.046 110.035C307.217 110.07 307.347 110.166 307.442 110.337C307.559 110.543 307.579 110.721 307.511 110.878C307.442 111.029 307.319 111.139 307.155 111.207L305.753 111.845C305.712 111.858 305.698 111.879 305.698 111.899C305.698 111.92 305.719 111.947 305.753 111.954L307.155 112.592C307.333 112.667 307.456 112.79 307.511 112.955C307.565 113.119 307.545 113.291 307.442 113.455C307.353 113.62 307.224 113.722 307.046 113.757C306.875 113.791 306.711 113.757 306.553 113.654L305.302 112.729C305.261 112.701 305.233 112.694 305.206 112.708C305.178 112.722 305.172 112.749 305.185 112.783L305.356 114.305C305.384 114.497 305.336 114.661 305.213 114.785C305.09 114.915 304.932 114.976 304.741 114.976H304.734Z" fill="#6AA636"/>
</svg>
