<svg width="40" height="40" viewBox="0 0 40 40" fill="none" xmlns="http://www.w3.org/2000/svg">
<path d="M40 20C40 23.9556 38.827 27.8224 36.6294 31.1114C34.4318 34.4004 31.3082 36.9638 27.6537 38.4776C23.9991 39.9913 19.9778 40.3874 16.0982 39.6157C12.2186 38.844 8.65492 36.9392 5.85787 34.1421C3.06082 31.3451 1.15601 27.7814 0.384303 23.9018C-0.387401 20.0222 0.00866568 16.0008 1.52242 12.3463C3.03617 8.69181 5.59962 5.56823 8.8886 3.37061C12.1776 1.17298 16.0444 0 20 0C25.3025 0.00582319 30.3862 2.11483 34.1357 5.86429C37.8852 9.61376 39.9942 14.6975 40 20Z" fill="#4E9C0B"/>
<mask id="mask0_98_1360" style="mask-type:luminance" maskUnits="userSpaceOnUse" x="15" y="18" width="9" height="3">
<path d="M23.6416 18.5264H15.5156V20.1524H23.6416V18.5264Z" fill="white"/>
</mask>
<g mask="url(#mask0_98_1360)">
<path d="M16.3296 20.1517C16.435 20.1532 16.5396 20.1342 16.6376 20.0957C16.7373 20.0537 16.8283 19.9933 16.9056 19.9177C16.9785 19.8427 17.0362 19.7545 17.0756 19.6577C17.1168 19.5573 17.1392 19.4502 17.1416 19.3417C17.1405 19.1287 17.0557 18.9247 16.9056 18.7737C16.8305 18.6954 16.739 18.6346 16.6376 18.5957C16.5145 18.5448 16.3807 18.525 16.2481 18.5381C16.1154 18.5511 15.9881 18.5966 15.8772 18.6706C15.7663 18.7445 15.6753 18.8445 15.6123 18.9619C15.5492 19.0793 15.516 19.2104 15.5156 19.3437C15.5181 19.4522 15.5405 19.5593 15.5816 19.6597C15.6424 19.8077 15.7462 19.934 15.8795 20.0225C16.0129 20.1109 16.1696 20.1573 16.3296 20.1557V20.1517Z" fill="white"/>
<path d="M19.5796 20.1517C19.685 20.1532 19.7896 20.1342 19.8876 20.0957C19.9873 20.0537 20.0783 19.9933 20.1556 19.9177C20.2285 19.8427 20.2862 19.7545 20.3256 19.6577C20.3668 19.5573 20.3892 19.4502 20.3916 19.3417C20.3905 19.1287 20.3057 18.9247 20.1556 18.7737C20.0805 18.6954 19.989 18.6346 19.8876 18.5957C19.7645 18.5448 19.6307 18.525 19.4981 18.5381C19.3654 18.5511 19.2381 18.5966 19.1272 18.6706C19.0163 18.7445 18.9253 18.8445 18.8623 18.9619C18.7992 19.0793 18.766 19.2104 18.7656 19.3437C18.7681 19.4522 18.7905 19.5593 18.8316 19.6597C18.8924 19.8077 18.9962 19.934 19.1295 20.0225C19.2629 20.1109 19.4196 20.1573 19.5796 20.1557V20.1517Z" fill="white"/>
<path d="M22.8315 20.1509C22.9369 20.1524 23.0415 20.1333 23.1395 20.0949C23.2392 20.0529 23.3302 19.9925 23.4075 19.9169C23.4804 19.8419 23.5381 19.7537 23.5775 19.6569C23.6187 19.5565 23.6411 19.4494 23.6435 19.3409C23.6424 19.1279 23.5576 18.9239 23.4075 18.7729C23.3324 18.6946 23.2409 18.6338 23.1395 18.5949C23.0169 18.5446 22.8839 18.5251 22.752 18.5381C22.6202 18.551 22.4935 18.5961 22.383 18.6693C22.2726 18.7424 22.1817 18.8415 22.1183 18.9579C22.055 19.0743 22.021 19.2044 22.0195 19.3369C22.022 19.4454 22.0444 19.5525 22.0855 19.6529C22.1463 19.8009 22.2501 19.9272 22.3834 20.0157C22.5168 20.1041 22.6735 20.1505 22.8335 20.1489L22.8315 20.1509Z" fill="white"/>
</g>
<path d="M25.2636 23.8505V26.5725C25.2626 26.9044 25.1647 27.2289 24.9821 27.5061C24.7994 27.7833 24.5398 28.0011 24.2351 28.133C23.9305 28.2648 23.594 28.3049 23.2669 28.2483C22.9398 28.1918 22.6363 28.041 22.3936 27.8145L20.2716 25.8145H19.5596C15.0736 25.8165 11.4336 22.7285 11.4336 18.9085C11.4336 15.0885 15.0736 12.0005 19.5596 12.0005C24.0456 12.0005 27.6856 15.0965 27.6856 18.9085C27.6672 19.8582 27.4392 20.7921 27.0177 21.6434C26.5962 22.4946 25.9918 23.2422 25.2476 23.8325L25.2636 23.8505Z" stroke="white" stroke-linecap="round" stroke-linejoin="round"/>
</svg>
