<svg xmlns="http://www.w3.org/2000/svg" xmlns:xlink="http://www.w3.org/1999/xlink" width="59" height="61" viewBox="0 0 59 61">
  <defs>
    <filter id="Rectangle_2321" x="0" y="0" width="59" height="61" filterUnits="userSpaceOnUse">
      <feOffset dy="3" input="SourceAlpha"/>
      <feGaussianBlur stdDeviation="3" result="blur"/>
      <feFlood flood-color="#f3b755" flood-opacity="0.4"/>
      <feComposite operator="in" in2="blur"/>
      <feComposite in="SourceGraphic"/>
    </filter>
  </defs>
  <g id="Component_15_1" data-name="Component 15 – 1" transform="translate(9 6)">
    <g transform="matrix(1, 0, 0, 1, -9, -6)" filter="url(#Rectangle_2321)">
      <rect id="Rectangle_2321-2" data-name="Rectangle 2321" width="41" height="43" rx="9" transform="translate(9 6)" fill="#4e9c0b" opacity="0.18"/>
    </g>
    <g id="Group_5641" data-name="Group 5641" transform="translate(11.109 11.237)">
      <path id="Path_21612" data-name="Path 21612" d="M470.491,221.1h-2.027a.581.581,0,0,0-.592.584v.4l.811.4a.245.245,0,0,1,.11.292.223.223,0,0,1-.223.11.134.134,0,0,1-.11-.037l-.592-.256v.767H462.78a2.1,2.1,0,0,0-1.844-1.826v-9.569h.924V209.7h-2.323v2.265h.924v9.606a2.1,2.1,0,0,0-1.844,1.826h-5.055v-.8l-.592.292c-.036,0-.073.037-.11.037a.272.272,0,0,1-.223-.11.2.2,0,0,1,.11-.292l.811-.4v-.4a.581.581,0,0,0-.592-.584h-2.027a.581.581,0,0,0-.592.584v.4l.811.4a.245.245,0,0,1,.11.292.223.223,0,0,1-.223.11.134.134,0,0,1-.11-.037l-.592-.292v1.315l.811.4a.245.245,0,0,1,.11.292.223.223,0,0,1-.223.11.134.134,0,0,1-.11-.037l-.592-.256v1.1a.581.581,0,0,0,.592.584h2.027a.581.581,0,0,0,.592-.584v-1.1l-.592.292c-.037,0-.073.037-.11.037a.272.272,0,0,1-.223-.11.2.2,0,0,1,.11-.292l.811-.4v-.073h5.092a2.083,2.083,0,0,0,4.135,0h5.091v.073l.811.4a.245.245,0,0,1,.11.292.223.223,0,0,1-.223.11.134.134,0,0,1-.11-.037l-.592-.292v1.1a.581.581,0,0,0,.592.584h2.027a.581.581,0,0,0,.592-.584v-1.1l-.592.292c-.037,0-.073.037-.11.037a.272.272,0,0,1-.223-.11.2.2,0,0,1,.11-.292l.811-.4v-1.351l-.592.292c-.037,0-.073.037-.11.037a.272.272,0,0,1-.223-.11.2.2,0,0,1,.11-.292l.811-.4v-.4A.566.566,0,0,0,470.491,221.1Z" transform="translate(-450.333 -205.573)" fill="#333"/>
      <path id="Path_21613" data-name="Path 21613" d="M470.292,199.788l.811-.4v-.4a.581.581,0,0,0-.592-.584h-2.027a.581.581,0,0,0-.592.584v.4l.811.4a.245.245,0,0,1,.11.292.223.223,0,0,1-.223.11.134.134,0,0,1-.11-.037l-.592-.292v.767h-4.646v-.913h-5.091v.913h-4.609v-.767l-.592.292c-.037,0-.073.037-.11.037a.272.272,0,0,1-.223-.11.2.2,0,0,1,.11-.292l.811-.4v-.4a.581.581,0,0,0-.592-.584h-2.027a.581.581,0,0,0-.592.584v.4l.811.4a.245.245,0,0,1,.11.292.223.223,0,0,1-.223.11.134.134,0,0,1-.11-.037l-.592-.292v1.315l.811.4a.245.245,0,0,1,.11.292.223.223,0,0,1-.223.11.134.134,0,0,1-.11-.037l-.592-.292v1.1a.581.581,0,0,0,.592.584h2.027a.581.581,0,0,0,.592-.584v-1.1l-.592.292c-.036,0-.073.037-.11.037a.272.272,0,0,1-.223-.11.2.2,0,0,1,.11-.292l.811-.4V201.1h3.247v2.3H459.1v-.913h-1.18a.239.239,0,0,1-.223-.219v-1.132h.442v.913h5.051v-.913h.478v1.132a.236.236,0,0,1-.223.219H462.3v.913h2.323v-2.3h3.247v.073l.811.4a.245.245,0,0,1,.11.292.223.223,0,0,1-.223.11.134.134,0,0,1-.11-.037l-.592-.292v1.1a.581.581,0,0,0,.592.584h1.991a.581.581,0,0,0,.592-.584v-1.1l-.592.365c-.037,0-.073.037-.11.037a.272.272,0,0,1-.223-.11.2.2,0,0,1,.11-.292l.811-.4v-1.315l-.592.256c-.036,0-.073.037-.11.037a.272.272,0,0,1-.223-.11A.334.334,0,0,1,470.292,199.788Z" transform="translate(-450.32 -198.4)" fill="#333"/>
    </g>
  </g>
</svg>
