<svg xmlns="http://www.w3.org/2000/svg" xmlns:xlink="http://www.w3.org/1999/xlink" width="123.5" height="79.915" viewBox="0 0 123.5 79.915">
  <defs>
    <clipPath id="clip-path">
      <path id="Path_23583" data-name="Path 23583" d="M159.993,155.679c-.424-1.954-4.528-2.25-4.528-2.25-10.315-1.477-29.809-1.43-31.376-1.423s-21.058-.057-31.376,1.423c0,0-4.1.3-4.528,2.25s1.2,7.761,4.245,8.352c2.419.471,23.248.418,31.659.377,8.408.041,29.237.094,31.659-.377C158.79,163.44,160.417,157.634,159.993,155.679Z" transform="translate(-88.118 -152.005)"/>
    </clipPath>
  </defs>
  <g id="k6k9_yzmq_220226_Converted_" data-name="k6k9_yzmq_220226 [Converted]" transform="translate(-6.072 -3.93)">
    <g id="Group_14923" data-name="Group 14923" transform="translate(37.326 22.741)">
      <g id="Group_14921" data-name="Group 14921">
        <path id="Path_23517" data-name="Path 23517" d="M118.763,82.014l11.035-.39c.123-.364-3.277-15.035-3.277-15.035s-.971-2.668-2.668-2.79H112.092c-1.7.123-2.668,2.79-2.668,2.79s-4,15.641-3.88,16.006l11.638-.581v.217l.789-.11.789.11v-.217Z" transform="translate(-105.542 -63.8)" fill="#a7675b"/>
        <path id="Path_23518" data-name="Path 23518" d="M120.822,85.374l10.143-.358c.11-.333-3.013-13.822-3.013-13.822s-.892-2.451-2.451-2.564H114.691c-1.562.11-2.451,2.564-2.451,2.564s-3.679,14.378-3.566,14.714l10.7-.534v.2l.726-.1.726.1v-.2Z" transform="translate(-107.688 -67.112)" fill="#955c51"/>
      </g>
      <g id="Group_14922" data-name="Group 14922" transform="translate(36.372)">
        <path id="Path_23519" data-name="Path 23519" d="M234.523,82.014l11.035-.39c.123-.364-3.277-15.035-3.277-15.035s-.971-2.668-2.668-2.79H227.852c-1.7.123-2.668,2.79-2.668,2.79s-4,15.641-3.88,16.006l11.638-.581v.217l.789-.11.789.11v-.217Z" transform="translate(-221.302 -63.8)" fill="#a7675b"/>
        <path id="Path_23520" data-name="Path 23520" d="M236.582,85.374l10.143-.358c.11-.333-3.013-13.822-3.013-13.822s-.892-2.451-2.451-2.564H230.451c-1.562.11-2.451,2.564-2.451,2.564s-3.679,14.378-3.566,14.714l10.7-.534v.2l.726-.1.726.1v-.2Z" transform="translate(-223.448 -67.112)" fill="#955c51"/>
      </g>
    </g>
    <g id="Group_14965" data-name="Group 14965" transform="translate(6.072 3.93)">
      <g id="Group_14924" data-name="Group 14924" transform="translate(69.508 22.846)">
        <path id="Path_23521" data-name="Path 23521" d="M240.174,79.08a10.274,10.274,0,1,0,10.274,10.274A10.274,10.274,0,0,0,240.174,79.08Zm0,18.987a8.8,8.8,0,1,1,8.8-8.8A8.8,8.8,0,0,1,240.174,98.067Z" transform="translate(-229.08 -78.313)" fill="#1c1e1f"/>
        <path id="Path_23522" data-name="Path 23522" d="M238.385,76.64a11.095,11.095,0,1,0,11.095,11.095A11.1,11.1,0,0,0,238.385,76.64Zm0,20.5a9.5,9.5,0,1,1,9.5-9.5A9.505,9.505,0,0,1,238.385,97.139Z" transform="translate(-227.29 -76.64)" fill="#4d4f51"/>
      </g>
      <g id="Group_14964" data-name="Group 14964" transform="translate(0 0)">
        <path id="Path_23523" data-name="Path 23523" d="M386.039,173.98s1.637.364,1.514,1.514a50.583,50.583,0,0,1-1.4,5.153s-.242,1.09-1.09,1.153-1.577-.182-1.273-1.273S386.039,173.98,386.039,173.98Z" transform="translate(-265.065 -120.55)" fill="#f6931d"/>
        <path id="Path_23524" data-name="Path 23524" d="M384.95,181.8a73.025,73.025,0,0,1,1.54-7.673,3.339,3.339,0,0,0-.449-.151s-1.939,5.455-2.243,6.548C383.508,181.565,384.155,181.832,384.95,181.8Z" transform="translate(-265.066 -120.55)" fill="#f6931d"/>
        <path id="Path_23525" data-name="Path 23525" d="M390.415,178.6c.122-.682.251-1.373.33-2.061a3.085,3.085,0,0,0-.066-1.141,1.112,1.112,0,0,1,.767,1.071,41.657,41.657,0,0,1-1.144,4.223,1.432,1.432,0,0,1-.572.839C390.006,180.569,390.236,179.588,390.415,178.6Z" transform="translate(-269.183 -121.523)" fill="#fbc086"/>
        <path id="Path_23526" data-name="Path 23526" d="M11.36,173.98s-1.637.364-1.514,1.514a50.587,50.587,0,0,0,1.4,5.153s.242,1.09,1.09,1.153,1.577-.182,1.273-1.273S11.36,173.98,11.36,173.98Z" transform="translate(-8.655 -120.55)" fill="#f6931d"/>
        <path id="Path_23527" data-name="Path 23527" d="M11.6,178.6c-.123-.682-.251-1.373-.33-2.061a3.085,3.085,0,0,1,.066-1.141,1.112,1.112,0,0,0-.767,1.071,41.646,41.646,0,0,0,1.144,4.223,1.432,1.432,0,0,0,.572.839C12.007,180.569,11.781,179.588,11.6,178.6Z" transform="translate(-9.152 -121.523)" fill="#fbc086"/>
        <g id="Group_14933" data-name="Group 14933" transform="translate(13.454 53.528)">
          <g id="Group_14928" data-name="Group 14928">
            <g id="Group_14926" data-name="Group 14926">
              <path id="Path_23528" data-name="Path 23528" d="M59.975,200.711H52.051a3.162,3.162,0,0,1-3.161-3.164V177.5a3.161,3.161,0,0,1,3.161-3.161h7.924a3.161,3.161,0,0,1,3.161,3.161v20.046A3.162,3.162,0,0,1,59.975,200.711Z" transform="translate(-48.89 -174.324)" fill="#4d4f51"/>
              <g id="Group_14925" data-name="Group 14925" transform="translate(1.035)">
                <path id="Path_23529" data-name="Path 23529" d="M52.972,200.671l-.65-.939.65-.939a.086.086,0,0,0,0-.094l-.65-.939.65-.939a.086.086,0,0,0,0-.094l-.65-.939.65-.939a.086.086,0,0,0,0-.094l-.65-.939.65-.939a.086.086,0,0,0,0-.094l-.65-.939.65-.939a.086.086,0,0,0,0-.094l-.65-.939.65-.939a.086.086,0,0,0,0-.094l-.65-.936.65-.936a.086.086,0,0,0,0-.094l-.65-.936.65-.936a.086.086,0,0,0,0-.094l-.65-.939.65-.939a.086.086,0,0,0,0-.094l-.65-.939.65-.936a.086.086,0,0,0,0-.094l-.65-.936.65-.933a.086.086,0,0,0,0-.094l-.65-.933.65-.933a.086.086,0,0,0,0-.094l-.562-.811-.094.085.534.773-.65.933a.086.086,0,0,0,0,.094l.65.933-.65.933a.086.086,0,0,0,0,.094l.65.936-.65.936a.086.086,0,0,0,0,.094l.65.939-.65.939a.086.086,0,0,0,0,.094l.65.939-.65.936a.086.086,0,0,0,0,.094l.65.936-.65.936a.086.086,0,0,0,0,.094l.65.936-.65.939a.086.086,0,0,0,0,.094l.65.939-.65.939a.086.086,0,0,0,0,.094l.65.939-.65.939a.086.086,0,0,0,0,.094l.65.939-.65.939a.086.086,0,0,0,0,.094l.65.939-.65.939a.086.086,0,0,0,0,.094l.65.939-.65.939a.086.086,0,0,0,0,.094l.65.939-.462.666a1.231,1.231,0,0,0,.1.079l.484-.7A.086.086,0,0,0,52.972,200.671Z" transform="translate(-52.185 -175.613)" fill="#222425"/>
                <path id="Path_23530" data-name="Path 23530" d="M67.682,199.439a.086.086,0,0,0,0-.094l-.65-.939.65-.939a.086.086,0,0,0,0-.094l-.65-.939.65-.939a.086.086,0,0,0,0-.094l-.65-.939.65-.939a.086.086,0,0,0,0-.094l-.65-.939.65-.939a.086.086,0,0,0,0-.094l-.65-.939.65-.939a.086.086,0,0,0,0-.094l-.65-.939.65-.939a.086.086,0,0,0,0-.094l-.65-.936.65-.936a.086.086,0,0,0,0-.094l-.65-.936.65-.936a.086.086,0,0,0,0-.094l-.65-.939.65-.939a.086.086,0,0,0,0-.094l-.65-.939.65-.936a.086.086,0,0,0,0-.094l-.65-.936.65-.933a.086.086,0,0,0,0-.094l-.65-.933.65-.933a.086.086,0,0,0,0-.094l-.65-.939.327-.474H67.2l-.3.427a.086.086,0,0,0,0,.094l.65.939-.65.933a.086.086,0,0,0,0,.094l.65.933-.65.933a.086.086,0,0,0,0,.094l.65.936-.65.936a.086.086,0,0,0,0,.094l.65.939-.65.939a.086.086,0,0,0,0,.094l.65.939-.65.936a.086.086,0,0,0,0,.094l.65.936-.65.936a.086.086,0,0,0,0,.094l.65.936-.65.939a.086.086,0,0,0,0,.094l.65.939-.65.939a.086.086,0,0,0,0,.094l.65.939-.65.939a.086.086,0,0,0,0,.094l.65.939-.65.939a.086.086,0,0,0,0,.094l.65.939-.65.939a.086.086,0,0,0,0,.094l.65.939-.65.939a.086.086,0,0,0,0,.094l.65.939-.65.939a.086.086,0,0,0,0,.094l.173.248h.154l-.2-.3Z" transform="translate(-62.273 -174.29)" fill="#222425"/>
                <path id="Path_23531" data-name="Path 23531" d="M74.462,200.341l-.65-.939.65-.939a.086.086,0,0,0,0-.094l-.65-.939.65-.939a.086.086,0,0,0,0-.094l-.65-.939.65-.939a.086.086,0,0,0,0-.094l-.65-.939.65-.939a.086.086,0,0,0,0-.094l-.65-.939.65-.939a.086.086,0,0,0,0-.094l-.65-.939.65-.939a.086.086,0,0,0,0-.094l-.65-.939.65-.936a.086.086,0,0,0,0-.094l-.65-.936.65-.936a.086.086,0,0,0,0-.094l-.65-.936.65-.939a.086.086,0,0,0,0-.094l-.65-.939.65-.939a.086.086,0,0,0,0-.094l-.65-.936.65-.936a.086.086,0,0,0,0-.094l-.65-.933.65-.933a.086.086,0,0,0,0-.094l-.65-.933.65-.939a.086.086,0,0,0,0-.094l-.3-.427h-.154l.327.474-.65.939a.086.086,0,0,0,0,.094l.65.933-.65.933a.086.086,0,0,0,0,.094l.65.933-.65.936a.086.086,0,0,0,0,.094l.65.936-.65.939a.086.086,0,0,0,0,.094l.65.939-.65.939a.086.086,0,0,0,0,.094l.65.936-.65.936a.086.086,0,0,0,0,.094l.65.936-.65.936a.086.086,0,0,0,0,.094l.65.939-.65.939a.086.086,0,0,0,0,.094l.65.939-.65.939a.086.086,0,0,0,0,.094l.65.939-.65.939a.086.086,0,0,0,0,.094l.65.939-.65.939a.086.086,0,0,0,0,.094l.65.939-.65.939a.086.086,0,0,0,0,.094l.65.939-.65.939a.086.086,0,0,0,0,.094l.65.939-.2.3h.154l.173-.248A.086.086,0,0,0,74.462,200.341Z" transform="translate(-66.923 -174.297)" fill="#222425"/>
                <path id="Path_23532" data-name="Path 23532" d="M89.182,199.769a.086.086,0,0,0,0-.094l-.65-.939.65-.939a.086.086,0,0,0,0-.094l-.65-.939.65-.94a.086.086,0,0,0,0-.094l-.65-.939.65-.939a.086.086,0,0,0,0-.094l-.65-.939.65-.939a.086.086,0,0,0,0-.094l-.65-.939.65-.939a.086.086,0,0,0,0-.094l-.65-.939.65-.936a.086.086,0,0,0,0-.094l-.65-.936.65-.936a.086.086,0,0,0,0-.094l-.65-.936.65-.939a.086.086,0,0,0,0-.094l-.65-.939.65-.939a.086.086,0,0,0,0-.094l-.65-.936.65-.936a.086.086,0,0,0,0-.094l-.65-.933.65-.933a.086.086,0,0,0,0-.094l-.65-.933.534-.773c-.031-.028-.063-.06-.094-.085l-.562.811a.086.086,0,0,0,0,.094l.65.933-.65.933a.086.086,0,0,0,0,.094l.65.933-.65.936a.086.086,0,0,0,0,.094l.65.936-.65.939a.086.086,0,0,0,0,.094l.65.939-.65.939a.086.086,0,0,0,0,.094l.65.936-.65.936a.086.086,0,0,0,0,.094l.65.936-.65.936a.086.086,0,0,0,0,.094l.65.939-.65.939a.086.086,0,0,0,0,.094l.65.939-.65.939a.086.086,0,0,0,0,.094l.65.939-.65.939a.086.086,0,0,0,0,.094l.65.939-.65.939a.086.086,0,0,0,0,.094l.65.939-.65.939a.086.086,0,0,0,0,.094l.65.939-.65.939a.086.086,0,0,0,0,.094l.484.7a1.227,1.227,0,0,0,.1-.079l-.459-.666Z" transform="translate(-77.018 -175.607)" fill="#222425"/>
                <rect id="Rectangle_2884" data-name="Rectangle 2884" width="0.355" height="26.371" transform="translate(2.012 0.016)" fill="#222425"/>
                <rect id="Rectangle_2885" data-name="Rectangle 2885" width="0.355" height="26.371" transform="translate(3.056 0.016)" fill="#222425"/>
                <rect id="Rectangle_2886" data-name="Rectangle 2886" width="0.355" height="26.371" transform="translate(8.768 0.016)" fill="#222425"/>
                <rect id="Rectangle_2887" data-name="Rectangle 2887" width="0.355" height="26.371" transform="translate(9.811 0.016)" fill="#222425"/>
              </g>
            </g>
            <path id="Path_23533" data-name="Path 23533" d="M49.311,190.864a25.542,25.542,0,0,1,7.459-.7,31.407,31.407,0,0,1,6.369.559V177.5a3.162,3.162,0,0,0-3.164-3.161H52.051A3.161,3.161,0,0,0,48.89,177.5V191C49.028,190.952,49.17,190.908,49.311,190.864Z" transform="translate(-48.89 -174.324)" fill="#4d4f51"/>
            <g id="Group_14927" data-name="Group 14927" transform="translate(0.77 14.054)">
              <path id="Path_23534" data-name="Path 23534" d="M51.7,227.07l-.364-8.05v8.414a2.818,2.818,0,0,0,2.818,2.818h7.066a2.656,2.656,0,0,0,.276-.028l-6.978-.336A2.816,2.816,0,0,1,51.7,227.07Z" transform="translate(-51.34 -219.02)" fill="#4d4f51"/>
            </g>
          </g>
          <g id="Group_14932" data-name="Group 14932" transform="translate(82.344)">
            <g id="Group_14930" data-name="Group 14930">
              <path id="Path_23535" data-name="Path 23535" d="M322.048,200.711h-7.924a3.165,3.165,0,0,1-3.164-3.164V177.5a3.162,3.162,0,0,1,3.164-3.161h7.924a3.161,3.161,0,0,1,3.161,3.161v20.046A3.162,3.162,0,0,1,322.048,200.711Z" transform="translate(-310.96 -174.324)" fill="#4d4f51"/>
              <g id="Group_14929" data-name="Group 14929" transform="translate(1.038)">
                <path id="Path_23536" data-name="Path 23536" d="M315.052,200.671l-.65-.939.65-.939a.085.085,0,0,0,0-.094l-.65-.939.65-.939a.085.085,0,0,0,0-.094l-.65-.939.65-.939a.086.086,0,0,0,0-.094l-.65-.939.65-.939a.086.086,0,0,0,0-.094l-.65-.939.65-.939a.085.085,0,0,0,0-.094l-.65-.939.65-.939a.085.085,0,0,0,0-.094l-.65-.936.65-.936a.085.085,0,0,0,0-.094l-.65-.936.65-.936a.085.085,0,0,0,0-.094l-.65-.939.65-.939a.085.085,0,0,0,0-.094l-.65-.939.65-.936a.085.085,0,0,0,0-.094l-.65-.936.65-.933a.085.085,0,0,0,0-.094l-.65-.933.65-.933a.085.085,0,0,0,0-.094l-.562-.811-.094.085.534.773-.65.933a.086.086,0,0,0,0,.094l.65.933-.65.933a.086.086,0,0,0,0,.094l.65.936-.65.936a.086.086,0,0,0,0,.094l.65.939-.65.939a.086.086,0,0,0,0,.094l.65.939-.65.936a.086.086,0,0,0,0,.094l.65.936-.65.936a.086.086,0,0,0,0,.094l.65.936-.65.939a.086.086,0,0,0,0,.094l.65.939-.65.939a.086.086,0,0,0,0,.094l.65.939-.65.939a.086.086,0,0,0,0,.094l.65.939-.65.939a.086.086,0,0,0,0,.094l.65.939-.65.939a.086.086,0,0,0,0,.094l.65.939-.65.939a.086.086,0,0,0,0,.094l.65.939-.462.666a1.221,1.221,0,0,0,.1.079l.484-.7A.1.1,0,0,0,315.052,200.671Z" transform="translate(-314.265 -175.613)" fill="#222425"/>
                <path id="Path_23537" data-name="Path 23537" d="M329.762,199.439a.086.086,0,0,0,0-.094l-.65-.939.65-.939a.086.086,0,0,0,0-.094l-.65-.939.65-.939a.086.086,0,0,0,0-.094l-.65-.939.65-.939a.086.086,0,0,0,0-.094l-.65-.939.65-.939a.086.086,0,0,0,0-.094l-.65-.939.65-.939a.086.086,0,0,0,0-.094l-.65-.939.65-.939a.086.086,0,0,0,0-.094l-.65-.936.65-.936a.086.086,0,0,0,0-.094l-.65-.936.65-.936a.086.086,0,0,0,0-.094l-.65-.939.65-.939a.086.086,0,0,0,0-.094l-.65-.939.65-.936a.086.086,0,0,0,0-.094l-.65-.936.65-.933a.086.086,0,0,0,0-.094l-.65-.933.65-.933a.086.086,0,0,0,0-.094l-.65-.939.327-.474h-.154l-.3.427a.085.085,0,0,0,0,.094l.65.939-.65.933a.085.085,0,0,0,0,.094l.65.933-.65.933a.085.085,0,0,0,0,.094l.65.936-.65.936a.085.085,0,0,0,0,.094l.65.939-.65.939a.085.085,0,0,0,0,.094l.65.939-.65.936a.085.085,0,0,0,0,.094l.65.936-.65.936a.085.085,0,0,0,0,.094l.65.936-.65.939a.085.085,0,0,0,0,.094l.65.939-.65.939a.085.085,0,0,0,0,.094l.65.939-.65.939a.085.085,0,0,0,0,.094l.65.939-.65.939a.085.085,0,0,0,0,.094l.65.939-.65.939a.086.086,0,0,0,0,.094l.65.939-.65.939a.085.085,0,0,0,0,.094l.65.939-.65.939a.085.085,0,0,0,0,.094l.173.248h.154l-.2-.3Z" transform="translate(-324.353 -174.29)" fill="#222425"/>
                <path id="Path_23538" data-name="Path 23538" d="M336.542,200.341l-.65-.939.65-.939a.085.085,0,0,0,0-.094l-.65-.939.65-.939a.085.085,0,0,0,0-.094l-.65-.939.65-.939a.085.085,0,0,0,0-.094l-.65-.939.65-.939a.085.085,0,0,0,0-.094l-.65-.939.65-.939a.085.085,0,0,0,0-.094l-.65-.939.65-.939a.085.085,0,0,0,0-.094l-.65-.939.65-.936a.085.085,0,0,0,0-.094l-.65-.936.65-.936a.085.085,0,0,0,0-.094l-.65-.936.65-.939a.085.085,0,0,0,0-.094l-.65-.939.65-.939a.085.085,0,0,0,0-.094l-.65-.936.65-.936a.085.085,0,0,0,0-.094l-.65-.933.65-.933a.085.085,0,0,0,0-.094l-.65-.933.65-.939a.085.085,0,0,0,0-.094l-.3-.427h-.154l.327.474-.65.939a.086.086,0,0,0,0,.094l.65.933-.65.933a.086.086,0,0,0,0,.094l.65.933-.65.936a.086.086,0,0,0,0,.094l.65.936-.65.939a.086.086,0,0,0,0,.094l.65.939-.65.939a.086.086,0,0,0,0,.094l.65.936-.65.936a.086.086,0,0,0,0,.094l.65.936-.65.936a.086.086,0,0,0,0,.094l.65.939-.65.939a.086.086,0,0,0,0,.094l.65.939-.65.939a.086.086,0,0,0,0,.094l.65.939-.65.939a.086.086,0,0,0,0,.094l.65.939-.65.939a.086.086,0,0,0,0,.094l.65.939-.65.939a.086.086,0,0,0,0,.094l.65.939-.65.939a.086.086,0,0,0,0,.094l.65.939-.2.3h.154l.173-.248A.085.085,0,0,0,336.542,200.341Z" transform="translate(-329.003 -174.297)" fill="#222425"/>
                <path id="Path_23539" data-name="Path 23539" d="M351.252,199.769a.086.086,0,0,0,0-.094l-.65-.939.65-.939a.086.086,0,0,0,0-.094l-.65-.939.65-.94a.086.086,0,0,0,0-.094l-.65-.939.65-.939a.086.086,0,0,0,0-.094l-.65-.939.65-.939a.086.086,0,0,0,0-.094l-.65-.939.65-.939a.086.086,0,0,0,0-.094l-.65-.939.65-.936a.086.086,0,0,0,0-.094l-.65-.936.65-.936a.086.086,0,0,0,0-.094l-.65-.936.65-.939a.086.086,0,0,0,0-.094l-.65-.939.65-.939a.086.086,0,0,0,0-.094l-.65-.936.65-.936a.086.086,0,0,0,0-.094l-.65-.933.65-.933a.086.086,0,0,0,0-.094l-.65-.933.534-.773c-.031-.028-.063-.06-.094-.085l-.562.811a.085.085,0,0,0,0,.094l.65.933-.65.933a.085.085,0,0,0,0,.094l.65.933-.65.936a.085.085,0,0,0,0,.094l.65.936-.65.939a.085.085,0,0,0,0,.094l.65.939-.65.939a.085.085,0,0,0,0,.094l.65.936-.65.936a.085.085,0,0,0,0,.094l.65.936-.65.936a.085.085,0,0,0,0,.094l.65.939-.65.939a.085.085,0,0,0,0,.094l.65.939-.65.939a.085.085,0,0,0,0,.094l.65.939-.65.939a.085.085,0,0,0,0,.094l.65.939-.65.939a.085.085,0,0,0,0,.094l.65.939-.65.939a.085.085,0,0,0,0,.094l.65.939-.65.939a.085.085,0,0,0,0,.094l.484.7a1.219,1.219,0,0,0,.1-.079l-.459-.666Z" transform="translate(-339.091 -175.607)" fill="#222425"/>
                <rect id="Rectangle_2888" data-name="Rectangle 2888" width="0.355" height="26.371" transform="translate(2.012 0.016)" fill="#222425"/>
                <rect id="Rectangle_2889" data-name="Rectangle 2889" width="0.355" height="26.371" transform="translate(3.056 0.016)" fill="#222425"/>
                <rect id="Rectangle_2890" data-name="Rectangle 2890" width="0.355" height="26.371" transform="translate(8.765 0.016)" fill="#222425"/>
                <rect id="Rectangle_2891" data-name="Rectangle 2891" width="0.355" height="26.371" transform="translate(9.811 0.016)" fill="#222425"/>
              </g>
            </g>
            <path id="Path_23540" data-name="Path 23540" d="M311.391,190.864a25.542,25.542,0,0,1,7.459-.7,31.407,31.407,0,0,1,6.369.559V177.5a3.162,3.162,0,0,0-3.164-3.161h-7.924a3.161,3.161,0,0,0-3.161,3.161V191C311.108,190.952,311.25,190.908,311.391,190.864Z" transform="translate(-310.967 -174.324)" fill="#4d4f51"/>
            <g id="Group_14931" data-name="Group 14931" transform="translate(0.773 14.054)">
              <path id="Path_23541" data-name="Path 23541" d="M313.784,227.07l-.364-8.05v8.414a2.818,2.818,0,0,0,2.818,2.818H323.3a2.658,2.658,0,0,0,.277-.028l-6.978-.336A2.815,2.815,0,0,1,313.784,227.07Z" transform="translate(-313.42 -219.02)" fill="#4d4f51"/>
            </g>
          </g>
        </g>
        <g id="Group_14934" data-name="Group 14934" transform="translate(55.642 0.424)">
          <path id="Path_23542" data-name="Path 23542" d="M194.578,16.294H184.445a1.285,1.285,0,0,1-1.285-1.285v-1.2a1.285,1.285,0,0,1,1.285-1.285h10.133a1.285,1.285,0,0,1,1.285,1.285v1.2A1.285,1.285,0,0,1,194.578,16.294Z" transform="translate(-183.16 -10.245)" fill="#989b9c"/>
          <path id="Path_23543" data-name="Path 23543" d="M195.242,16.448h-8.477a1.074,1.074,0,0,1-1.075-1.075V14.365a1.074,1.074,0,0,1,1.075-1.075h8.477a1.074,1.074,0,0,1,1.075,1.075v1.009A1.074,1.074,0,0,1,195.242,16.448Z" transform="translate(-184.895 -10.773)" fill="#989b9c"/>
          <path id="Path_23544" data-name="Path 23544" d="M202.8,15.072c.035.063.013,0,.031.038,0,0,0,0,.016.006a.6.6,0,0,0,.236,0,.736.736,0,0,0,.236-.091,1.87,1.87,0,0,0,.525-.484,5.068,5.068,0,0,0,.688-1.254h-1.75c-.038.261-.066.522-.079.786a3.529,3.529,0,0,0,.022.757A.819.819,0,0,0,202.8,15.072Z" transform="translate(-196.553 -10.773)" fill="#989b9c"/>
          <path id="Path_23545" data-name="Path 23545" d="M200.913,9.735h0a.776.776,0,0,1-.773-.773V6.053a.776.776,0,0,1,.773-.773h0a.776.776,0,0,1,.773.773v2.91A.774.774,0,0,1,200.913,9.735Z" transform="translate(-194.805 -5.28)" fill="#989b9c"/>
        </g>
        <path id="Path_23546" data-name="Path 23546" d="M88.574,45s1.565-2.79,2.177-.27S89.6,66.146,89.6,66.146l-1.225.113s2.039-14.331,1.5-17.209-1.5-2.79-1.5-2.79Z" transform="translate(-62.512 -31.187)" fill="#989b9c"/>
        <path id="Path_23547" data-name="Path 23547" d="M309.586,45s-1.565-2.79-2.177-.27,1.156,21.416,1.156,21.416l1.225.113s-2.039-14.331-1.5-17.209,1.5-2.79,1.5-2.79Z" transform="translate(-212.639 -31.187)" fill="#989b9c"/>
        <g id="Group_14937" data-name="Group 14937" transform="translate(10.036 18.808)">
          <g id="Group_14935" data-name="Group 14935" transform="translate(0 0)">
            <circle id="Ellipse_906" data-name="Ellipse 906" cx="4.647" cy="4.647" r="4.647" transform="translate(0 6.572) rotate(-45)" fill="#6e7172"/>
            <circle id="Ellipse_907" data-name="Ellipse 907" cx="4.141" cy="4.141" r="4.141" transform="translate(1.16 4.317) rotate(-22.5)" fill="#989b9c"/>
            <path id="Path_23548" data-name="Path 23548" d="M56.75,84.175a15.8,15.8,0,0,0-2.086-.412.993.993,0,0,0-.82.179,3.05,3.05,0,0,0-.54.921c-.141.317-.251.654-.412.961-.226.43-.487.845-.72,1.273-.082.148-.16.3-.242.446a4.132,4.132,0,0,0,6.3-2.957C57.74,84.436,57.249,84.285,56.75,84.175Z" transform="translate(-47.557 -77.48)" fill="#989b9c" opacity="0.58"/>
            <path id="Path_23549" data-name="Path 23549" d="M58.99,83.88c1.049.968,2.071,1.97,3.082,2.982a4.192,4.192,0,0,0,.723-1.185C61.522,85.08,60.247,84.5,58.99,83.88Z" transform="translate(-52.399 -77.568)" fill="#989b9c"/>
            <path id="Path_23550" data-name="Path 23550" d="M53.783,75.918c-.277-1.373-.509-2.756-.729-4.138a4.16,4.16,0,0,0-1.4.591C52.326,73.577,53.014,74.774,53.783,75.918Z" transform="translate(-47.365 -69.269)" fill="#989b9c"/>
            <path id="Path_23551" data-name="Path 23551" d="M57.72,84.127s1.728,4.32,3.186,5.294a46.676,46.676,0,0,0,5.4,2.592l.324-.54a57.819,57.819,0,0,1-5.565-2.592A40.592,40.592,0,0,1,58.04,84.02Z" transform="translate(-51.528 -77.664)" fill="#535657"/>
          </g>
          <g id="Group_14936" data-name="Group 14936" transform="translate(88.479 1.24)">
            <circle id="Ellipse_908" data-name="Ellipse 908" cx="4.647" cy="4.647" r="4.647" transform="translate(3.204 1.489) rotate(-9.218)" fill="#6e7172"/>
            <circle id="Ellipse_909" data-name="Ellipse 909" cx="4.141" cy="4.141" r="4.141" transform="translate(3.548 2.232) rotate(-13.286)" fill="#989b9c"/>
            <path id="Path_23552" data-name="Path 23552" d="M335.2,84.175a15.8,15.8,0,0,1,2.086-.412.993.993,0,0,1,.82.179,3.049,3.049,0,0,1,.54.921c.141.317.251.654.412.961.226.43.487.845.72,1.273.082.148.16.3.242.446a4.132,4.132,0,0,1-6.3-2.957C334.207,84.436,334.7,84.285,335.2,84.175Z" transform="translate(-329.287 -78.719)" fill="#989b9c" opacity="0.58"/>
            <path id="Path_23553" data-name="Path 23553" d="M338.4,83.88c-1.049.968-2.071,1.97-3.082,2.982a4.192,4.192,0,0,1-.723-1.185C335.863,85.08,337.138,84.5,338.4,83.88Z" transform="translate(-329.883 -78.807)" fill="#989b9c"/>
            <path id="Path_23554" data-name="Path 23554" d="M347.25,75.918c.277-1.373.509-2.756.729-4.138a4.159,4.159,0,0,1,1.4.591C348.708,73.577,348.02,74.774,347.25,75.918Z" transform="translate(-338.565 -70.509)" fill="#989b9c"/>
            <path id="Path_23555" data-name="Path 23555" d="M328.521,84.127s-1.728,4.32-3.186,5.294a46.677,46.677,0,0,1-5.4,2.592l-.324-.54a57.824,57.824,0,0,0,5.565-2.592A41.008,41.008,0,0,0,328.2,84.02Z" transform="translate(-319.61 -78.903)" fill="#535657"/>
          </g>
        </g>
        <path id="Path_23556" data-name="Path 23556" d="M144.71,8.417c-3.84-3.953-27.757-4.424-32.25-4.481V3.93h-.729v.006c-4.493.053-28.41.528-32.25,4.481-4.245,4.364-8.851,28.008-8.851,28.008s3.274,2.545,10.79,2.79c6.212.2,24.5.069,30.676.019,6.171.05,24.464.182,30.676-.019,7.516-.242,10.79-2.79,10.79-2.79S148.955,12.781,144.71,8.417Zm-3.4,30.33c-5.916.192-23.339.066-29.215.019-5.879.05-23.3.173-29.215-.019C75.72,38.518,72.6,36.092,72.6,36.092s4.389-22.519,8.43-26.676C84.691,5.652,107.47,5.2,111.75,5.149V5.143h.694v.006c4.279.05,27.056.5,30.717,4.267,4.041,4.157,8.43,26.676,8.43,26.676S148.471,38.518,141.31,38.747Z" transform="translate(-50.346 -3.93)" fill="#989b9c"/>
        <path id="Path_23557" data-name="Path 23557" d="M144.71,8.417c-3.84-3.953-27.757-4.424-32.25-4.481V3.93h-.729v.006c-4.493.053-28.41.528-32.25,4.481-4.245,4.364-8.851,28.008-8.851,28.008s3.274,2.545,10.79,2.79c6.212.2,24.5.069,30.676.019,6.171.05,24.464.182,30.676-.019,7.516-.242,10.79-2.79,10.79-2.79S148.955,12.781,144.71,8.417Zm-3.4,30.33c-5.916.192-23.339.066-29.215.019-5.879.05-23.3.173-29.215-.019C75.72,38.518,72.6,36.092,72.6,36.092s4.389-22.519,8.43-26.676C84.691,5.652,107.47,5.2,111.75,5.149V5.143h.694v.006c4.279.05,27.056.5,30.717,4.267,4.041,4.157,8.43,26.676,8.43,26.676S148.471,38.518,141.31,38.747Z" transform="translate(-50.346 -3.93)" fill="#a2a5a7"/>
        <path id="Path_23558" data-name="Path 23558" d="M145.534,9.964c-3.786-3.9-27.361-4.364-31.791-4.418V5.54h-.716v.006c-4.427.053-28,.518-31.791,4.415-4.182,4.3-8.725,27.609-8.725,27.609s3.227,2.51,10.636,2.749c6.121.2,24.153.069,30.236.019,6.083.05,24.115.179,30.236-.019,7.409-.239,10.636-2.749,10.636-2.749S149.716,14.265,145.534,9.964Zm-3.349,29.9c-5.832.189-23.006.066-28.8.016-5.794.047-22.968.17-28.8-.016-7.057-.226-10.13-2.617-10.13-2.617s4.327-22.2,8.311-26.293c3.607-3.711,26.06-4.154,30.277-4.2V6.74h.682v.006c4.217.05,26.67.5,30.277,4.2,3.984,4.1,8.311,26.293,8.311,26.293S149.242,39.631,142.185,39.861Z" transform="translate(-51.635 -5.034)" fill="#a2a5a7"/>
        <g id="Group_14938" data-name="Group 14938" transform="translate(20.284)">
          <path id="Path_23559" data-name="Path 23559" d="M156.7,40.068s-4.314-22.133-8.286-26.217c-3.6-3.7-25.985-4.141-30.189-4.195V9.65h-.682v.006c-4.2.05-26.594.493-30.189,4.195-3.972,4.085-8.286,26.217-8.286,26.217s3.063,2.385,10.1,2.611c.352.013.748.022,1.178.031,7.019.129,22.139.022,27.537-.022,5.395.044,20.514.154,27.537.022.43-.009.826-.019,1.178-.031C153.637,42.453,156.7,40.068,156.7,40.068Z" transform="translate(-76.418 -7.853)" fill="none"/>
          <path id="Path_23560" data-name="Path 23560" d="M143.38,116.378c7.07,0,14.975-.057,18.607-.088,3.632.031,11.538.088,18.607.088-7.107,0-14.966-.06-18.607-.088C158.349,116.318,150.49,116.375,143.38,116.378Z" transform="translate(-120.522 -80.986)" fill="#4c5051"/>
          <path id="Path_23561" data-name="Path 23561" d="M155.888,38.739s-4.389-22.519-8.43-26.676C143.8,8.3,121.021,7.85,116.741,7.8V7.79h-.694V7.8c-4.279.05-27.056.5-30.717,4.267C81.289,16.22,76.9,38.739,76.9,38.739s3.117,2.426,10.278,2.655c.484.016,1.053.028,1.681.041-.43-.009-.826-.019-1.178-.031-7.038-.226-10.1-2.611-10.1-2.611s4.314-22.133,8.286-26.217c3.6-3.7,25.985-4.141,30.189-4.195V8.374h.682v.006c4.2.05,26.594.493,30.189,4.195,3.972,4.085,8.286,26.217,8.286,26.217s-3.064,2.385-10.1,2.611c-.352.013-.748.022-1.178.031.625-.013,1.194-.025,1.681-.041C152.771,41.165,155.888,38.739,155.888,38.739Z" transform="translate(-74.93 -6.577)" fill="#4c5051"/>
          <path id="Path_23562" data-name="Path 23562" d="M144.71,8.417c-3.84-3.953-27.757-4.424-32.25-4.481V3.93h-.729v.006c-4.493.053-28.41.528-32.25,4.481-4.245,4.364-8.851,28.008-8.851,28.008s3.274,2.545,10.79,2.79c2.548.082,7.126.11,12.069.107-4.735,0-9.093-.028-11.544-.107-7.387-.239-10.608-2.74-10.608-2.74s4.531-23.239,8.7-27.527c3.777-3.887,27.282-4.352,31.7-4.405V4.536h.716v.006c4.415.053,27.923.518,31.7,4.4,4.169,4.289,8.7,27.527,8.7,27.527s-3.217,2.5-10.608,2.74c-2.448.079-6.809.107-11.544.107,4.942,0,9.52-.025,12.069-.107,7.516-.242,10.79-2.79,10.79-2.79S148.955,12.781,144.71,8.417Z" transform="translate(-70.63 -3.93)" fill="#a2a5a7"/>
          <path id="Path_23563" data-name="Path 23563" d="M142.5,114.8c-5.395.044-20.514.154-27.537.022,6.671.141,22.111.031,27.537-.013,5.426.044,20.863.157,27.537.013C163.014,114.951,147.892,114.844,142.5,114.8Z" transform="translate(-101.031 -79.964)" fill="#a2a5a7"/>
          <path id="Path_23564" data-name="Path 23564" d="M154.4,37.8s-4.528-23.239-8.7-27.527C141.927,6.385,118.418,5.92,114,5.866V5.86h-.716v.006c-4.415.053-27.92.518-31.7,4.405C77.421,14.56,72.89,37.8,72.89,37.8s3.217,2.5,10.608,2.74c2.448.079,6.809.107,11.544.107,7.107,0,14.966-.06,18.607-.088,3.642.031,11.5.088,18.607.088,4.735,0,9.1-.028,11.544-.107C151.183,40.3,154.4,37.8,154.4,37.8Zm-40.755,2.3c-5.426.044-20.863.157-27.537.013-.625-.013-1.194-.025-1.681-.041-7.161-.229-10.278-2.655-10.278-2.655S78.539,14.9,82.58,10.74c3.66-3.764,26.44-4.213,30.72-4.267V6.466h.694v.006c4.279.05,27.056.5,30.717,4.267,4.041,4.157,8.43,26.676,8.43,26.676s-3.117,2.426-10.278,2.655c-.484.016-1.053.028-1.681.041C134.509,40.253,119.072,40.143,113.645,40.1Z" transform="translate(-72.18 -5.254)" fill="#a2a5a7"/>
        </g>
        <path id="Path_23565" data-name="Path 23565" d="M149.563,32.78a32.091,32.091,0,0,1,.569,3.28c.437,3.742.031,7.946-2.331,11.035-2.023,2.646-5.2,3.968-8.355,4.707-1.656.386-3.337.606-5.021.845q-3.379.481-6.777.8-7.032.674-14.1.7a139.059,139.059,0,0,1-14.2-.647q-3.417-.335-6.815-.867a22.688,22.688,0,0,1-5.5-1.4,8.8,8.8,0,0,1-5.181-5.429,17.174,17.174,0,0,1-.05-7.953c.173-1,.38-1.983.6-2.969-2.979,8.075-5.5,20.989-5.5,20.989s3.117,2.426,10.278,2.655c5.916.192,23.339.066,29.215.019,5.879.05,23.3.173,29.215-.019,7.161-.229,10.278-2.655,10.278-2.655S152.891,40.453,149.563,32.78Z" transform="translate(-54.652 -23.715)" fill="#a3a5a8" opacity="0.52"/>
        <path id="Path_23566" data-name="Path 23566" d="M125.805,130.217c1.213-4.606,4.729-16.367,3.516-19.883s-13.944-8-19.883-8.245a13.2,13.2,0,0,0-6.913.971s-2.3.484-4.245.729c-1.587.2-21.834.072-29.149.019l0-.019-1.307.009-1.307-.009,0,.019c-7.315.053-27.562.179-29.149-.019-1.939-.242-4.245-.729-4.245-.729a13.2,13.2,0,0,0-6.912-.971c-5.942.242-18.673,4.729-19.883,8.245s2.3,15.277,3.516,19.883-1.09,5.942-1.09,5.942H126.9S124.592,134.824,125.805,130.217Z" transform="translate(-6.072 -71.169)" fill="#f3b755"/>
        <g id="Group_14939" data-name="Group 14939" transform="translate(1.702 43.552)">
          <path id="Path_23567" data-name="Path 23567" d="M133.009,143.338c-.383,1.159-2.523,7.312-6.243,11.688-4.122,4.851-13.1,5.455-14.67,5.093s2.545-10.548,1.213-12.851-6.913-4.729-35.4-4.729-41.462,1.936-45.707,3.148-2.79,4.487-2.79,4.487,1.7,6.79,1.637,8.6-7.7.371-13.156-.355c-3.038-.405-5.134-4.569-6.4-8.179.76,3.079,1.59,5.989,2.064,7.8,1.213,4.606-1.09,5.942-1.09,5.942H130.611s-2.3-1.332-1.09-5.942A145.959,145.959,0,0,0,133.009,143.338Z" transform="translate(-11.49 -142.54)" fill="#363739"/>
        </g>
        <path id="Path_23568" data-name="Path 23568" d="M27.31,108.608s5.58-.584,8.763,2.778,1.681,8.509,3.94,8.245c3.638-.424,6.391-5.841,14.576-5.932s54.923,0,54.923,0,6.275.638,6.184-1.273l-6.184-6.092s3.365,4.455.364,5.367-52.469,0-52.469,0-6.092.456-4.091-1.637,3.183-4.273,1.455-3.183-5.455,3.274-5.728,1.181-4.455-4-9.275-3.274S27.31,108.608,27.31,108.608Z" transform="translate(-20.637 -72.989)" fill="#ce9840"/>
        <path id="Path_23569" data-name="Path 23569" d="M306.018,114.689s4.854,3.9,7.491-3.1c1.163-3.085,7.421-4.657,11.3-3.447s-11.151-5.467-16.122-5.1-6.432,3.161-9.1,2.677,3.758,2.545,5.093,4.971A9.255,9.255,0,0,1,306.018,114.689Z" transform="translate(-206.925 -71.888)" fill="#ce9840"/>
        <g id="Group_14940" data-name="Group 14940" transform="translate(26.798 33.475)">
          <path id="Path_23570" data-name="Path 23570" d="M92.6,135.935a.136.136,0,0,1-.135-.126c-.053-.547-1.273-13.4-1.09-15.484a8.087,8.087,0,0,1,1.76-3.987l6.193-5.832a.136.136,0,0,1,.195.006.132.132,0,0,1-.006.192l-6.184,5.819a7.99,7.99,0,0,0-1.684,3.824c-.179,2.055,1.078,15.3,1.09,15.434a.14.14,0,0,1-.123.151A.034.034,0,0,1,92.6,135.935Z" transform="translate(-91.361 -110.469)" fill="#222532"/>
          <path id="Path_23571" data-name="Path 23571" d="M299.741,135.945h-.013a.138.138,0,0,1-.123-.151c.013-.135,1.269-13.379,1.09-15.434a7.969,7.969,0,0,0-1.7-3.833l-6.174-5.81a.135.135,0,0,1-.006-.192.138.138,0,0,1,.195-.006l6.184,5.819a8.079,8.079,0,0,1,1.769,4c.179,2.08-1.04,14.937-1.09,15.484A.136.136,0,0,1,299.741,135.945Z" transform="translate(-229.495 -110.478)" fill="#222532"/>
        </g>
        <path id="Path_23572" data-name="Path 23572" d="M107.73,139.537c4.345-.145,56.865,0,56.865,0s4.71-.145,3.623-1.012-65.367.17-65.367.17S103.384,139.681,107.73,139.537Z" transform="translate(-72.442 -95.998)" fill="#fff" opacity="0.4"/>
        <path id="Path_23573" data-name="Path 23573" d="M101.112,106.678a17.744,17.744,0,0,0,2.916,1.782,10.669,10.669,0,0,0,3.522.889c2.608.239,13-.308,15.581-.2.163.006,25.526.613,28.646.456q2.333-.118,4.66-.327a26.348,26.348,0,0,0,4.553-.61,21.022,21.022,0,0,0,3.972-1.706c.358-.182.72-.358,1.078-.537-.782.141-1.741.3-2.627.415-1.587.2-21.834.072-29.149.019l0-.019-1.307.009-1.307-.009,0,.019c-7.315.053-27.562.179-29.149-.019-.478-.06-.974-.135-1.455-.211Z" transform="translate(-71.201 -74.217)" fill="#363739"/>
        <g id="Group_14951" data-name="Group 14951" transform="translate(20.84 44.75)">
          <path id="Path_23574" data-name="Path 23574" d="M154.142,151.344c-.484-2.655-5.15-3.057-5.15-3.057-11.732-2.008-33.9-1.942-35.684-1.932-1.782-.009-23.952-.075-35.684,1.932,0,0-4.666.4-5.15,3.057s1.367,10.538,4.826,11.343c2.752.641,26.443.569,36,.512,9.564.057,33.252.129,36-.512C152.772,161.886,154.623,154,154.142,151.344Z" transform="translate(-72.398 -146.352)" fill="#a2a5a7"/>
          <g id="Group_14941" data-name="Group 14941" transform="translate(4.939 1.776)">
            <path id="Path_23575" data-name="Path 23575" d="M159.993,155.679c-.424-1.954-4.528-2.25-4.528-2.25-10.315-1.477-29.809-1.43-31.376-1.423s-21.058-.057-31.376,1.423c0,0-4.1.3-4.528,2.25s1.2,7.761,4.245,8.352c2.419.471,23.248.418,31.659.377,8.408.041,29.237.094,31.659-.377C158.79,163.44,160.417,157.634,159.993,155.679Z" transform="translate(-88.118 -152.005)" fill="#101113"/>
          </g>
          <g id="Group_14943" data-name="Group 14943" transform="translate(0.69 4.846)">
            <path id="Path_23576" data-name="Path 23576" d="M75.371,161.962s-1.024,0-.723,1.508,1.266,6.275,2.9,6.275,2-.66,1.448-2.473c-.786-2.6-1.115-4.911-1.568-5.31C76.939,161.541,75.371,161.962,75.371,161.962Z" transform="translate(-74.593 -161.774)" fill="#828486"/>
            <g id="Group_14942" data-name="Group 14942" transform="translate(0 0.002)">
              <path id="Path_23577" data-name="Path 23577" d="M77.891,168.912c-1.442,0-2.3-4.223-2.564-5.558a1.333,1.333,0,0,1,.1-1.034l-.06.016s-1.024,0-.723,1.508,1.266,6.275,2.9,6.275c1.339,0,1.822-.449,1.65-1.612A1.591,1.591,0,0,1,77.891,168.912Z" transform="translate(-74.593 -162.15)" fill="#545758"/>
              <path id="Path_23578" data-name="Path 23578" d="M76.824,162.987c.267,1.335,1.122,5.558,2.564,5.558a1.58,1.58,0,0,0,1.3-.405,5.756,5.756,0,0,0-.2-.861c-.786-2.6-1.115-4.911-1.568-5.31-.427-.374-1.7-.088-1.992-.016A1.35,1.35,0,0,0,76.824,162.987Z" transform="translate(-76.09 -161.781)" fill="#232526"/>
            </g>
          </g>
          <g id="Group_14945" data-name="Group 14945" transform="translate(76.473 4.846)">
            <path id="Path_23579" data-name="Path 23579" d="M319.645,161.962s1.024,0,.723,1.508-1.266,6.275-2.9,6.275-2-.66-1.448-2.473c.786-2.6,1.115-4.911,1.568-5.31C318.074,161.541,319.645,161.962,319.645,161.962Z" transform="translate(-315.784 -161.774)" fill="#828486"/>
            <g id="Group_14944" data-name="Group 14944" transform="translate(0 0.002)">
              <path id="Path_23580" data-name="Path 23580" d="M317.12,168.912c1.442,0,2.3-4.223,2.564-5.558a1.333,1.333,0,0,0-.1-1.034l.06.016s1.024,0,.723,1.508-1.266,6.275-2.9,6.275c-1.339,0-1.822-.449-1.65-1.612A1.591,1.591,0,0,0,317.12,168.912Z" transform="translate(-315.783 -162.15)" fill="#545758"/>
              <path id="Path_23581" data-name="Path 23581" d="M319.765,162.987c-.267,1.335-1.122,5.558-2.564,5.558a1.58,1.58,0,0,1-1.3-.405,6.119,6.119,0,0,1,.2-.861c.785-2.6,1.115-4.911,1.568-5.31.427-.374,1.7-.088,1.992-.016A1.319,1.319,0,0,1,319.765,162.987Z" transform="translate(-315.863 -161.781)" fill="#232526"/>
            </g>
          </g>
          <g id="Group_14947" data-name="Group 14947" transform="translate(4.939 1.776)">
            <g id="Group_14946" data-name="Group 14946" clip-path="url(#clip-path)">
              <path id="Path_23582" data-name="Path 23582" d="M159.669,149.98v-.364h-4.98v-.946h-.364v.946h-1.756v-.864H152.2v.864h-1.756v-.864h-.364v.864h-1.756v-.946h-.364v.946H146.2v-.946h-.364v.946h-1.756v-.864h-.364v.864h-1.756v-.864H141.6v.864h-1.756v-.946h-.364v.946h-1.756v-.946h-.364v.946H135.6v-.864h-.364v.864H133.48v-.864h-.364v.864h-1.756v-.946h-.364v.946h-1.756v-.946h-.364v.946h-1.756v-.864h-.364v.864H125v-.864h-.364v.864h-1.756v-.946h-.364v.946h-1.756v-.946h-.364v.946h-1.756v-.864h-.364v.864h-1.756v-.864h-.364v.864h-1.756v-.946h-.364v.946h-1.756v-.946h-.364v.946H110.15v-.864h-.364v.864h-1.756v-.864h-.364v.864h-1.756v-.946h-.364v.946h-1.756v-.946h-.364v.946h-1.756v-.864H101.3v.864H99.546v-.864h-.364v.864H97.425v-.946H97.06v.946H95.3v-.946h-.364v.946H93.183v-.864h-.364v.864H91.062v-.864H90.7v.864H85.73v.364h4.98v.613H85.73v.364h4.98v.613H85.73v.364h4.98v.613H85.73v.364h4.98v.613H85.73v.364h4.98v.613H85.73v.364h4.98v.613H85.73v.364h4.98v.613H85.73v.365h4.98v.6H85.73v.364h4.98v.613H85.73v.364h4.98v.613H85.73v.364h4.98v.613H85.73v.358h4.98v.613H85.73v.364h4.98v2.668h.364v-2.668h1.756v2.668H93.2v-2.668h1.756v2.589h.364v-2.589h1.756v2.589h.364v-2.589h1.756v2.668h.364v-2.668h1.756v2.668h.364v-2.668h1.756v2.589h.364v-2.589h1.756v2.589h.364v-2.589h1.756v2.668h.364v-2.668H109.8v2.668h.364v-2.668h1.756v2.589h.364v-2.589h1.756v2.589h.364v-2.589h1.756v2.668h.364v-2.668h1.756v2.668h.364v-2.668H120.4v2.589h.364v-2.589h1.756v2.589h.364v-2.589h1.756v2.668h.364v-2.668h1.756v2.668h.364v-2.668h1.756v2.589h.364v-2.589h1.756v2.589h.364v-2.589h1.756v2.668h.364v-2.668h1.756v2.668h.364v-2.668h1.756v2.589h.364v-2.589h1.756v2.589h.364v-2.589h1.756v2.668h.364v-2.668h1.756v2.668h.364v-2.668h1.756v2.589h.364v-2.589h1.756v2.589h.364v-2.589h1.756v2.668h.364v-2.668h1.756v2.668h.364v-2.668h1.756v2.589h.364v-2.589h4.98v-.364h-4.993v-.613h4.98v-.364h-4.98v-.613h4.98v-.364h-4.98v-.613h4.98v-.364h-4.98v-.613h4.98v-.364h-4.98v-.6h4.98v-.364h-4.98v-.613h4.98v-.364h-4.98v-.613h4.98V154.5h-4.98v-.613h4.98v-.364h-4.98v-.613h4.98v-.364h-4.98v-.613h4.98v-.364h-4.98v-.613h4.98v-.364h-4.98v-.613h4.98Zm-7.465,0v.613h-1.756v-.613Zm-12.722,5.5h-1.756v-.613h1.756Zm.364-.616H141.6v.613h-1.756Zm-2.485.616H135.6v-.613h1.756Zm-2.121,0h-1.756v-.613h1.756Zm-2.121,0h-1.756v-.613h1.756Zm-2.118,0h-1.756v-.613H131Zm-2.121,0h-1.756v-.613h1.756Zm-2.121,0H125v-.613h1.756Zm-2.121,0h-1.756v-.613h1.756Zm-2.121,0h-1.756v-.613h1.756Zm-2.121,0H118.64v-.613H120.4Zm-2.118,0h-1.756v-.613h1.756Zm-2.121,0H114.4v-.613h1.756Zm-2.121,0H112.28v-.613h1.756Zm-2.121,0h-1.756v-.613h1.756Zm-2.121,0h-1.756v-.613h1.756Zm-2.118,0h-1.756v-.613h1.756Zm-2.121,0H103.8v-.613h1.756Zm-2.121,0h-1.756v-.613h1.756Zm0,.361v.613h-1.756v-.613Zm.364,0h1.756v.613H103.8Zm2.118,0h1.756v.613h-1.756Zm2.121,0h1.756v.613h-1.756Zm2.121,0h1.756v.613h-1.756Zm2.121,0h1.756v.613H112.28Zm2.121,0h1.756v.613H114.4Zm2.121,0h1.756v.613h-1.756Zm2.118,0H120.4v.613H118.64Zm2.121,0h1.756v.613h-1.756Zm2.121,0h1.756v.613h-1.756Zm2.121,0h1.756v.613H125Zm2.121,0h1.756v.613h-1.756Zm2.121,0H131v.613h-1.756Zm2.118,0h1.756v.613h-1.756Zm2.121,0h1.756v.613h-1.756Zm2.121,0h1.756v.613H135.6Zm2.121,0h1.756v.613h-1.756v-.613Zm2.121,0H141.6v.613h-1.756Zm2.121,0h1.756v.613h-1.756Zm0-.361v-.613h1.756v.613Zm0-.977v-.613h1.756v.613Zm-.364,0h-1.756v-.613H141.6Zm-2.121,0h-1.756v-.613h1.756Zm-2.121,0H135.6v-.613h1.756Zm-2.121,0h-1.756v-.613h1.756Zm-2.121,0h-1.756v-.613h1.756Zm-2.118,0h-1.756v-.613H131Zm-2.121,0h-1.756v-.613h1.756Zm-2.121,0H125v-.613h1.756Zm-2.121,0h-1.756v-.613h1.756Zm-2.121,0h-1.756v-.613h1.756Zm-2.121,0H118.64v-.613H120.4Zm-2.118,0h-1.756v-.613h1.756Zm-2.121,0H114.4v-.613h1.756Zm-2.121,0H112.28v-.613h1.756Zm-2.121,0h-1.756v-.613h1.756Zm-2.121,0h-1.756v-.613h1.756Zm-2.118,0h-1.756v-.613h1.756Zm-2.121,0H103.8v-.613h1.756Zm-2.121,0h-1.756v-.613h1.756Zm-2.121,0H99.558v-.613h1.756Zm0,.361v.613H99.558v-.613Zm0,.977v.613H99.558v-.613Zm0,.977v.6H99.558v-.6Zm.364,0h1.756v.6h-1.756Zm2.121,0h1.756v.6H103.8Zm2.118,0h1.756v.6h-1.756Zm2.121,0h1.756v.6h-1.756Zm2.121,0h1.756v.6h-1.756Zm2.121,0h1.756v.6H112.28Zm2.121,0h1.756v.6H114.4Zm2.121,0h1.756v.6h-1.756Zm2.118,0H120.4v.6H118.64Zm2.121,0h1.756v.6h-1.756Zm2.121,0h1.756v.6h-1.756Zm2.121,0h1.756v.6H125Zm2.121,0h1.756v.6h-1.756Zm2.121,0H131v.6h-1.756Zm2.118,0h1.756v.6h-1.756Zm2.121,0h1.756v.6h-1.756Zm2.121,0h1.756v.6H135.6Zm2.121,0h1.756v.6h-1.756v-.6Zm2.121,0H141.6v.6h-1.756Zm2.121,0h1.756v.6h-1.756Zm2.118,0h1.756v.6h-1.756Zm0-.364v-.613h1.756v.613Zm0-.974v-.613h1.756v.613Zm0-.977v-.613h1.756v.613Zm0-.977v-.613h1.756v.613Zm-.361,0h-1.756v-.613h1.756Zm-2.121,0h-1.756v-.613H141.6Zm-2.121,0h-1.756v-.613h1.756Zm-2.121,0H135.6v-.613h1.756Zm-2.121,0h-1.756v-.613h1.756Zm-2.121,0h-1.756v-.613h1.756Zm-2.118,0h-1.756v-.613H131Zm-2.121,0h-1.756v-.613h1.756Zm-2.121,0H125v-.613h1.756Zm-2.121,0h-1.756v-.613h1.756Zm-2.121,0h-1.756v-.613h1.756Zm-2.121,0H118.64v-.613H120.4Zm-2.118,0h-1.756v-.613h1.756Zm-2.121,0H114.4v-.613h1.756Zm-2.121,0H112.28v-.613h1.756Zm-2.121,0h-1.756v-.613h1.756Zm-2.121,0h-1.756v-.613h1.756Zm-2.118,0h-1.756v-.613h1.756Zm-2.121,0H103.8v-.613h1.756Zm-2.121,0h-1.756v-.613h1.756Zm-2.121,0H99.558v-.613h1.756Zm-2.121,0H97.437v-.613h1.756Zm0,.361v.613H97.437v-.613Zm0,.977v.613H97.437v-.613Zm0,.977v.613H97.437v-.613Zm0,.977v.6H97.437v-.6Zm0,.965v.613H97.437v-.613Zm.364,0h1.756v.613H99.558Zm2.121,0h1.756v.613h-1.756Zm2.121,0h1.756v.613H103.8Zm2.118,0h1.756v.613h-1.756Zm2.121,0h1.756v.613h-1.756Zm2.121,0h1.756v.613h-1.756Zm2.121,0h1.756v.613H112.28Zm2.121,0h1.756v.613H114.4Zm2.121,0h1.756v.613h-1.756Zm2.118,0H120.4v.613H118.64Zm2.121,0h1.756v.613h-1.756Zm2.121,0h1.756v.613h-1.756Zm2.121,0h1.756v.613H125Zm2.121,0h1.756v.613h-1.756Zm2.121,0H131v.613h-1.756Zm2.118,0h1.756v.613h-1.756Zm2.121,0h1.756v.613h-1.756Zm2.121,0h1.756v.613H135.6Zm2.121,0h1.756v.613h-1.756v-.613Zm2.121,0H141.6v.613h-1.756Zm2.121,0h1.756v.613h-1.756Zm2.118,0h1.756v.613h-1.756Zm2.121,0h1.756v.613H146.2Zm0-.361v-.6h1.756v.6Zm0-.968v-.613h1.756v.613Zm0-.974v-.613h1.756v.613Zm0-.977v-.613h1.756v.613Zm0-.977v-.613h1.756v.613Zm0-.977v-.613h1.756v.613Zm-.364,0h-1.756v-.613h1.756Zm-2.118,0h-1.756v-.613h1.756Zm-2.121,0h-1.756v-.613H141.6Zm-2.121,0h-1.756v-.613h1.756Zm-2.121,0H135.6v-.613h1.756Zm-2.121,0h-1.756v-.613h1.756Zm-2.121,0h-1.756v-.613h1.756Zm-2.118,0h-1.756v-.613H131Zm-2.121,0h-1.756v-.613h1.756Zm-2.121,0H125v-.613h1.756Zm-2.121,0h-1.756v-.613h1.756Zm-2.121,0h-1.756v-.613h1.756Zm-2.121,0H118.64v-.613H120.4Zm-2.118,0h-1.756v-.613h1.756Zm-2.121,0H114.4v-.613h1.756Zm-2.121,0H112.28v-.613h1.756Zm-2.121,0h-1.756v-.613h1.756Zm-2.121,0h-1.756v-.613h1.756Zm-2.118,0h-1.756v-.613h1.756Zm-2.121,0H103.8v-.613h1.756Zm-2.121,0h-1.756v-.613h1.756Zm-2.121,0H99.558v-.613h1.756Zm-2.121,0H97.437v-.613h1.756Zm-2.121,0H95.316v-.613h1.756Zm0,.361v.613H95.316v-.613Zm0,.977v.613H95.316v-.613Zm0,.977v.613H95.316v-.613Zm0,.977v.613H95.316v-.613Zm0,.977v.6H95.316v-.6Zm0,.965v.613H95.316v-.613Zm0,.977v.613H95.316v-.613Zm.364,0h1.756v.613H97.437v-.613Zm2.121,0h1.756v.613H99.558Zm2.121,0h1.756v.613h-1.756Zm2.121,0h1.756v.613H103.8Zm2.118,0h1.756v.613h-1.756Zm2.121,0h1.756v.613h-1.756Zm2.121,0h1.756v.613h-1.756Zm2.121,0h1.756v.613H112.28Zm2.121,0h1.756v.613H114.4Zm2.121,0h1.756v.613h-1.756Zm2.118,0H120.4v.613H118.64Zm2.121,0h1.756v.613h-1.756Zm2.121,0h1.756v.613h-1.756Zm2.121,0h1.756v.613H125Zm2.121,0h1.756v.613h-1.756Zm2.121,0H131v.613h-1.756Zm2.118,0h1.756v.613h-1.756Zm2.121,0h1.756v.613h-1.756Zm2.121,0h1.756v.613H135.6Zm2.121,0h1.756v.613h-1.756v-.613Zm2.121,0H141.6v.613h-1.756Zm2.121,0h1.756v.613h-1.756Zm2.118,0h1.756v.613h-1.756Zm2.121,0h1.756v.613H146.2Zm2.121,0h1.756v.613h-1.756Zm0-.361v-.613h1.756v.613Zm0-.977v-.6h1.756v.6Zm0-.968v-.613h1.756v.613Zm0-.974v-.613h1.756v.613Zm0-.977v-.613h1.756v.613Zm0-.977v-.613h1.756v.613Zm0-.977v-.613h1.756v.613Zm0-.977v-.613h1.756v.613Zm-.364,0H146.2v-.613h1.756Zm-2.121,0h-1.756v-.613h1.756Zm-2.118,0h-1.756v-.613h1.756Zm-2.121,0h-1.756v-.613H141.6Zm-2.121,0h-1.756v-.613h1.756Zm-2.121,0H135.6v-.613h1.756Zm-2.121,0h-1.756v-.613h1.756Zm-2.121,0h-1.756v-.613h1.756Zm-2.118,0h-1.756v-.613H131Zm-2.121,0h-1.756v-.613h1.756Zm-2.121,0H125v-.613h1.756Zm-2.121,0h-1.756v-.613h1.756Zm-2.121,0h-1.756v-.613h1.756Zm-2.121,0H118.64v-.613H120.4Zm-2.118,0h-1.756v-.613h1.756Zm-2.121,0H114.4v-.613h1.756Zm-2.121,0H112.28v-.613h1.756Zm-2.121,0h-1.756v-.613h1.756Zm-2.121,0h-1.756v-.613h1.756Zm-2.118,0h-1.756v-.613h1.756Zm-2.121,0H103.8v-.613h1.756Zm-2.121,0h-1.756v-.613h1.756Zm-2.121,0H99.558v-.613h1.756Zm-2.121,0H97.437v-.613h1.756Zm-2.121,0H95.316v-.613h1.756Zm-2.118,0H93.2v-.613h1.756Zm0,.364v.613H93.2v-.613Zm0,.974v.613H93.2v-.613Zm0,.977v.613H93.2v-.613Zm0,.977v.613H93.2v-.613Zm0,.977v.613H93.2v-.613Zm0,.977v.6H93.2v-.6Zm0,.965v.613H93.2v-.613Zm0,.977v.613H93.2v-.613Zm0,.977v.613H93.2v-.613Zm.361,0h1.756v.613H95.316Zm2.121,0h1.756v.613H97.437v-.613Zm2.121,0h1.756v.613H99.558Zm2.121,0h1.756v.613h-1.756Zm2.121,0h1.756v.613H103.8Zm2.118,0h1.756v.613h-1.756Zm2.121,0h1.756v.613h-1.756Zm2.121,0h1.756v.613h-1.756Zm2.121,0h1.756v.613H112.28Zm2.121,0h1.756v.613H114.4Zm2.121,0h1.756v.613h-1.756Zm2.118,0H120.4v.613H118.64Zm2.121,0h1.756v.613h-1.756Zm2.121,0h1.756v.613h-1.756Zm2.121,0h1.756v.613H125Zm2.121,0h1.756v.613h-1.756Zm2.121,0H131v.613h-1.756Zm2.118,0h1.756v.613h-1.756Zm2.121,0h1.756v.613h-1.756Zm2.121,0h1.756v.613H135.6Zm2.121,0h1.756v.613h-1.756v-.613Zm2.121,0H141.6v.613h-1.756Zm2.121,0h1.756v.613h-1.756Zm2.118,0h1.756v.613h-1.756Zm2.121,0h1.756v.613H146.2Zm2.121,0h1.756v.613h-1.756Zm2.121,0H152.2v.613h-1.756Zm0-.364v-.613H152.2v.613Zm0-.974v-.613H152.2v.613Zm0-.977v-.6H152.2v.6Zm0-.968v-.613H152.2v.613Zm0-.974v-.613H152.2v.613Zm0-.977v-.613H152.2v.613Zm0-.977v-.613H152.2v.613Zm0-.977v-.613H152.2v.613Zm0-.977v-.613H152.2v.613Zm-.364-1.59v.613h-1.756v-.613Zm-2.121,0v.613H146.2v-.613Zm-2.121,0v.613h-1.756v-.613Zm-2.118,0v.613h-1.756v-.613Zm-2.121,0v.613h-1.756v-.613Zm-2.121,0v.613h-1.756v-.613Zm-2.121,0v.613H135.6v-.613Zm-2.121,0v.613h-1.756v-.613Zm-2.121,0v.613h-1.756v-.613Zm-2.118,0v.613h-1.756v-.613Zm-2.121,0v.613h-1.756v-.613Zm-2.121,0v.613H125v-.613Zm-2.121,0v.613h-1.756v-.613Zm-2.121,0v.613h-1.756v-.613Zm-2.121,0v.613H118.64v-.613Zm-2.118,0v.613h-1.756v-.613Zm-2.121,0v.613H114.4v-.613Zm-2.121,0v.613H112.28v-.613Zm-2.121,0v.613h-1.756v-.613Zm-2.121,0v.613h-1.756v-.613Zm-2.118,0v.613h-1.756v-.613Zm-2.121,0v.613H103.8v-.613Zm-2.121,0v.613h-1.756v-.613Zm-2.121,0v.613H99.558v-.613Zm-2.121,0v.613H97.437v-.613Zm-2.121,0v.613H95.316v-.613Zm-2.118,0v.613H93.2v-.613Zm-3.877,0h1.756v.613H91.078Zm0,.977h1.756v.613H91.078Zm0,.977h1.756v.613H91.078Zm0,.974h1.756v.613H91.078Zm0,.977h1.756v.613H91.078Zm0,.977h1.756v.613H91.078Zm0,.977h1.756v.613H91.078Zm0,.977h1.756v.6H91.078Zm0,.965h1.756v.613H91.078Zm0,.977h1.756v.613H91.078Zm0,.977h1.756v.613H91.078Zm0,1.59v-.613h1.756v.613Zm2.118,0v-.613h1.756v.613Zm2.121,0v-.613h1.756v.613Zm2.121,0v-.613h1.756v.613Zm2.121,0v-.613h1.756v.613Zm2.121,0v-.613h1.756v.613Zm2.121,0v-.613h1.756v.613Zm2.118,0v-.613h1.756v.613Zm2.121,0v-.613h1.756v.613Zm2.121,0v-.613h1.756v.613Zm2.121,0v-.613h1.756v.613Zm2.121,0v-.613h1.756v.613Zm2.121,0v-.613h1.756v.613Zm2.118,0v-.613H120.4v.613Zm2.121,0v-.613h1.756v.613Zm2.121,0v-.613h1.756v.613Zm2.121,0v-.613h1.756v.613Zm2.121,0v-.613h1.756v.613Zm2.121,0v-.613H131v.613Zm2.118,0v-.613h1.756v.613Zm2.121,0v-.613h1.756v.613Zm2.121,0v-.613h1.756v.613Zm2.121,0v-.613h1.756v.613Zm2.121,0v-.613H141.6v.613Zm2.121,0v-.613h1.756v.613Zm2.118,0v-.613h1.756v.613Zm2.121,0v-.613h1.756v.613Zm2.121,0v-.613h1.756v.613Zm2.121,0v-.613H152.2v.613Zm3.877,0h-1.756v-.613h1.756Zm0-.977h-1.756v-.613h1.756Zm0-.977h-1.756v-.613h1.756Zm0-.974h-1.756v-.613h1.756Zm0-.977h-1.756v-.6h1.756Zm0-.968h-1.756v-.613h1.756Zm0-.974h-1.756v-.613h1.756Zm0-.977h-1.756v-.613h1.756Zm0-.977h-1.756v-.613h1.756Zm0-.977h-1.756v-.613h1.756Zm0-.977h-1.756v-.613h1.756Zm0-.977h-1.756v-.613h1.756Z" transform="translate(-86.48 -149.718)" fill="#cfd1d2"/>
            </g>
          </g>
          <g id="Group_14948" data-name="Group 14948" transform="translate(4.939 3.474)">
            <path id="Path_23584" data-name="Path 23584" d="M159.993,159.386c-.242-1.112-1.675-1.687-2.866-1.976a1.556,1.556,0,0,1,.424.76c.4,1.822-1.122,7.233-3.956,7.786-2.256.44-21.671.39-29.507.352-7.836.038-27.251.088-29.507-.352-2.834-.553-4.352-5.964-3.956-7.786a1.581,1.581,0,0,1,.424-.76c-1.191.289-2.624.864-2.866,1.976-.424,1.954,1.2,7.761,4.245,8.352,2.419.471,23.248.418,31.659.377,8.408.041,29.237.094,31.659-.377C158.79,167.147,160.417,161.341,159.993,159.386Z" transform="translate(-88.118 -157.41)" fill="#55585a"/>
          </g>
          <g id="Group_14949" data-name="Group 14949" transform="translate(7.387 3.474)">
            <path id="Path_23585" data-name="Path 23585" d="M308.228,157.539c-.16-.047-.324-.091-.478-.129a1.556,1.556,0,0,1,.424.76c.013.063.025.129.035.2A5.418,5.418,0,0,0,308.228,157.539Z" transform="translate(-241.189 -157.41)" fill="#616365"/>
            <path id="Path_23586" data-name="Path 23586" d="M95.937,158.371a1.779,1.779,0,0,1,.035-.2,1.581,1.581,0,0,1,.424-.76c-.157.038-.317.082-.478.129A5.044,5.044,0,0,0,95.937,158.371Z" transform="translate(-95.909 -157.41)" fill="#616365"/>
          </g>
          <g id="Group_14950" data-name="Group 14950" transform="translate(7.193 10.217)">
            <path id="Path_23587" data-name="Path 23587" d="M100.506,181.569a9.068,9.068,0,0,1-1.005-.107,3.61,3.61,0,0,1-2.074-1.442q-1.079.924-2.137,1.882a3.687,3.687,0,0,0,2.058,1.342,21.422,21.422,0,0,0,2.372.185C99.99,182.813,100.245,182.188,100.506,181.569Z" transform="translate(-95.29 -179.659)" fill="#555657"/>
            <path id="Path_23588" data-name="Path 23588" d="M100.341,185.141c.4-.676.811-1.342,1.232-2a3.222,3.222,0,0,1-.745-.44q-.886,1.032-1.788,2.049a2.936,2.936,0,0,0,.88.333C100.027,185.1,100.168,185.123,100.341,185.141Z" transform="translate(-97.862 -181.497)" fill="#555657"/>
            <path id="Path_23589" data-name="Path 23589" d="M293.516,178.87a3.884,3.884,0,0,1-2.335,1.8,22.445,22.445,0,0,1-2.441.182,18.831,18.831,0,0,0,.735,1.838,35,35,0,0,0,3.855-.239,4.15,4.15,0,0,0,2.482-1.9Q294.672,179.7,293.516,178.87Z" transform="translate(-227.957 -178.87)" fill="#555657"/>
            <path id="Path_23590" data-name="Path 23590" d="M299.6,182.582c-.2-.248-.415-.493-.632-.732a3.439,3.439,0,0,1-1.131.742c.4.647.763,1.313,1.122,1.986.261-.025.468-.05.61-.079a3.024,3.024,0,0,0,1.144-.5C300.35,183.522,299.986,183.047,299.6,182.582Z" transform="translate(-234.198 -180.914)" fill="#555657"/>
          </g>
          <path id="Path_23591" data-name="Path 23591" d="M155.873,172.079c-2.419.471-23.452.443-31.86.4-8.408.041-28.957.151-31.376-.32-2.523-.49-4.27-5.166-4.484-7.66-.255,2.155,1.364,7.531,4.283,8.1,2.419.471,23.248.418,31.659.377,8.408.041,29.237.094,31.659-.377,2.922-.569,4.537-5.945,4.283-8.1C159.823,166.992,158.393,171.585,155.873,172.079Z" transform="translate(-83.185 -158.798)" fill="#7d7f81"/>
          <path id="Path_23592" data-name="Path 23592" d="M81.1,184.847a3.952,3.952,0,0,0,3.016,2.774c2.413.421,28.36.361,30.412.421s.06-.484-4.223-.723-23.232.361-25.284-.544-.182-2.234-.663-3.378.361,1.266-1.448,1.508S81.1,184.847,81.1,184.847Z" transform="translate(-78.366 -171.548)" fill="#fff" opacity="0.91"/>
          <path id="Path_23593" data-name="Path 23593" d="M247.976,184.847a3.952,3.952,0,0,1-3.016,2.774c-2.413.421-28.36.361-30.412.421s-.06-.484,4.223-.723,23.232.361,25.284-.544.182-2.234.663-3.378-.361,1.266,1.448,1.508S247.976,184.847,247.976,184.847Z" transform="translate(-169.327 -171.548)" fill="#fff" opacity="0.91"/>
          <path id="Path_23594" data-name="Path 23594" d="M73.93,151.573s.041-1.568,2.573-2.171,11.626-1.489,15-1.769,22.648-.924,27.6-.644c0,0,1.005.283-.32.361s-19.55,0-30.773,1.166-9.954,2.58-10.538,2.335A3.192,3.192,0,0,0,73.93,151.573Z" transform="translate(-73.449 -146.742)" fill="#fff" opacity="0.91"/>
        </g>
        <path id="Path_23595" data-name="Path 23595" d="M17.856,120.817a7.675,7.675,0,0,0-5.637,4.364,8.564,8.564,0,0,0-.364,4.487c.484,2.426,4.245,14.67,4.245,14.67s.364,1.577,1.4,1.637,5.759,0,5.759,0,2.243-.182,2.545-1.4.789-16.489.789-16.489-.182-4.669-3.576-6.306S17.856,120.817,17.856,120.817Z" transform="translate(-9.935 -83.998)" fill="#989b9c"/>
        <path id="Path_23596" data-name="Path 23596" d="M18.475,122.306a7.391,7.391,0,0,0-5.436,4.21,8.277,8.277,0,0,0-.352,4.327c.468,2.338,4.091,14.145,4.091,14.145s.352,1.521,1.345,1.577,5.552,0,5.552,0,2.162-.176,2.454-1.345.76-15.9.76-15.9-.176-4.5-3.45-6.08S18.475,122.306,18.475,122.306Z" transform="translate(-10.511 -85.022)" fill="#989b9c"/>
        <g id="Group_14955" data-name="Group 14955" transform="translate(1.947 36.881)">
          <circle id="Ellipse_910" data-name="Ellipse 910" cx="6.96" cy="6.96" r="6.96" transform="translate(0.386 0.525)" fill="#3e4041"/>
          <circle id="Ellipse_911" data-name="Ellipse 911" cx="6.381" cy="6.381" r="6.381" transform="translate(0.965 1.015)" fill="#121314"/>
          <path id="Path_23597" data-name="Path 23597" d="M35.333,136.109h0a.284.284,0,0,1-.283-.283V121.593a.284.284,0,0,1,.283-.283h0a.284.284,0,0,1,.283.283v14.233A.284.284,0,0,1,35.333,136.109Z" transform="translate(-27.892 -121.31)" fill="#989b9c"/>
          <path id="Path_23598" data-name="Path 23598" d="M12.27,146.154v-.031a.294.294,0,0,1,.292-.292h13.91a.294.294,0,0,1,.292.292v.031a.294.294,0,0,1-.292.292H12.562A.292.292,0,0,1,12.27,146.154Z" transform="translate(-12.27 -138.126)" fill="#989b9c"/>
          <g id="Group_14954" data-name="Group 14954" transform="translate(0.616 0.755)">
            <g id="Group_14953" data-name="Group 14953" transform="translate(0)">
              <circle id="Ellipse_912" data-name="Ellipse 912" cx="5.866" cy="5.866" r="5.866" transform="translate(0 11.581) rotate(-80.782)" fill="#fffce1"/>
              <g id="Group_14952" data-name="Group 14952" transform="translate(0.864 0.866)">
                <path id="Path_23599" data-name="Path 23599" d="M22.846,126.47a5.866,5.866,0,1,0,5.866,5.866A5.867,5.867,0,0,0,22.846,126.47Zm-.669,9.627a4.481,4.481,0,1,1,4.481-4.481A4.481,4.481,0,0,1,22.177,136.1Z" transform="translate(-16.98 -126.47)" fill="#cdcfd0"/>
                <path id="Path_23600" data-name="Path 23600" d="M28,136.23a7.362,7.362,0,0,1,.286,1.251,5.726,5.726,0,0,1-1.194,4.44,6.332,6.332,0,0,1-5.081,2.243,4.663,4.663,0,0,1-2.655-.974,5.95,5.95,0,0,1-1.785-2.115,5.73,5.73,0,0,1-.537-2.822,5.738,5.738,0,0,0-.057.773A5.866,5.866,0,1,0,28,136.23Z" transform="translate(-16.98 -133.163)" fill="#cdcfd0"/>
              </g>
            </g>
            <path id="Path_23601" data-name="Path 23601" d="M21.409,133.447a4.719,4.719,0,0,1,3.84-3.613c-.223-.141-.443-.283-.657-.434a4.725,4.725,0,0,0-3.972,3.78C20.884,133.271,21.148,133.359,21.409,133.447Z" transform="translate(-18.612 -127.613)" fill="#fff" opacity="0.74"/>
            <path id="Path_23602" data-name="Path 23602" d="M21.171,142.9c-.258-.085-.518-.173-.773-.261a4.507,4.507,0,0,0-.028.506,4.567,4.567,0,0,0,.072.807c.267.248.537.493.817.726a4.654,4.654,0,0,1-.135-1.115A3.854,3.854,0,0,1,21.171,142.9Z" transform="translate(-18.441 -136.693)" fill="#fff" opacity="0.74"/>
          </g>
        </g>
        <path id="Path_23603" data-name="Path 23603" d="M31.515,170.526l-7.783.317s-1.229,0-1.065.713,1.31,6.265,1.31,6.265.273,1.191,1.147,1.348,5.734,0,5.734,0a1.619,1.619,0,0,0,1.694-1.533c.11-1.587-.22-6.5-.22-6.5S32.389,170.394,31.515,170.526Z" transform="translate(-17.443 -118.17)" fill="#f6931d"/>
        <g id="Group_14956" data-name="Group 14956" transform="translate(4.973 51.521)">
          <path id="Path_23604" data-name="Path 23604" d="M31.231,167.922l-8.194.355s-1.295,0-1.122.8,1.379,7.016,1.379,7.016.289,1.332,1.207,1.508,6.039,0,6.039,0a1.726,1.726,0,0,0,1.782-1.716c.116-1.775-.229-7.28-.229-7.28S32.152,167.774,31.231,167.922Z" transform="translate(-21.899 -167.904)" fill="#f6931d"/>
          <path id="Path_23605" data-name="Path 23605" d="M32.422,181.772c-.851,1.1-6.784,1.935-7.707.459A26.592,26.592,0,0,1,23.31,178c.408,2.083.952,4.88.952,4.88s.289,1.332,1.207,1.508,6.039,0,6.039,0a1.726,1.726,0,0,0,1.782-1.716c.063-.993-.016-3.155-.1-4.864C32.987,178.853,33.063,180.943,32.422,181.772Z" transform="translate(-22.867 -174.697)" fill="#f6931d"/>
          <path id="Path_23606" data-name="Path 23606" d="M25.788,169.9s-1.659.2-1.533,1.291,1.213,5.907,1.213,4.685-.446-3.667.575-3.667h5.043a1.646,1.646,0,0,1,1.659,1.087c.32,1.153.83.748.638-1.222s-.638-2.445-1.851-2.445S25.788,169.9,25.788,169.9Z" transform="translate(-23.51 -169.088)" fill="#fbc086"/>
        </g>
        <path id="Path_23607" data-name="Path 23607" d="M355.442,120.817a7.675,7.675,0,0,1,5.637,4.364,8.563,8.563,0,0,1,.364,4.487c-.484,2.426-4.245,14.67-4.245,14.67s-.364,1.577-1.4,1.637-5.759,0-5.759,0-2.243-.182-2.545-1.4-.789-16.489-.789-16.489.182-4.669,3.576-6.306S355.442,120.817,355.442,120.817Z" transform="translate(-239.68 -83.998)" fill="#989b9c"/>
        <path id="Path_23608" data-name="Path 23608" d="M355.984,122.306a7.391,7.391,0,0,1,5.436,4.21,8.277,8.277,0,0,1,.352,4.327c-.468,2.338-4.091,14.145-4.091,14.145s-.352,1.521-1.345,1.577-5.552,0-5.552,0-2.162-.176-2.454-1.345-.76-15.9-.76-15.9.176-4.5,3.45-6.08S355.984,122.306,355.984,122.306Z" transform="translate(-240.27 -85.022)" fill="#989b9c"/>
        <g id="Group_14960" data-name="Group 14960" transform="translate(107.241 36.881)">
          <circle id="Ellipse_913" data-name="Ellipse 913" cx="6.96" cy="6.96" r="6.96" transform="translate(0.185 0.525)" fill="#3e4041"/>
          <circle id="Ellipse_914" data-name="Ellipse 914" cx="6.381" cy="6.381" r="6.381" transform="translate(0.764 1.015)" fill="#121314"/>
          <path id="Path_23609" data-name="Path 23609" d="M369.213,136.109h0a.284.284,0,0,0,.283-.283V121.593a.284.284,0,0,0-.283-.283h0a.284.284,0,0,0-.283.283v14.233A.282.282,0,0,0,369.213,136.109Z" transform="translate(-362.159 -121.31)" fill="#989b9c"/>
          <path id="Path_23610" data-name="Path 23610" d="M361.874,146.154v-.031a.294.294,0,0,0-.292-.292h-13.91a.294.294,0,0,0-.292.292v.031a.294.294,0,0,0,.292.292h13.91A.294.294,0,0,0,361.874,146.154Z" transform="translate(-347.38 -138.126)" fill="#989b9c"/>
          <g id="Group_14959" data-name="Group 14959" transform="translate(0.417 0.753)">
            <g id="Group_14958" data-name="Group 14958" transform="translate(0 0)">
              <circle id="Ellipse_915" data-name="Ellipse 915" cx="5.866" cy="5.866" r="5.866" transform="translate(0 1.88) rotate(-9.218)" fill="#fffce1"/>
              <g id="Group_14957" data-name="Group 14957" transform="translate(0.862 0.865)">
                <path id="Path_23611" data-name="Path 23611" d="M351.46,132.326a5.866,5.866,0,1,0,5.866-5.866A5.867,5.867,0,0,0,351.46,132.326Zm2.055-.716A4.481,4.481,0,1,1,358,136.09,4.481,4.481,0,0,1,353.515,131.61Z" transform="translate(-351.457 -126.46)" fill="#cdcfd0"/>
                <path id="Path_23612" data-name="Path 23612" d="M352.16,136.23a7.359,7.359,0,0,0-.286,1.251,5.726,5.726,0,0,0,1.194,4.44,6.332,6.332,0,0,0,5.081,2.243,4.663,4.663,0,0,0,2.655-.974,5.95,5.95,0,0,0,1.785-2.115,5.73,5.73,0,0,0,.537-2.822,5.741,5.741,0,0,1,.057.773,5.866,5.866,0,1,1-11.022-2.8Z" transform="translate(-351.45 -133.16)" fill="#cdcfd0"/>
              </g>
            </g>
            <path id="Path_23613" data-name="Path 23613" d="M374.26,133.447a4.719,4.719,0,0,0-3.84-3.613c.223-.141.443-.283.657-.434a4.725,4.725,0,0,1,3.972,3.78C374.784,133.271,374.523,133.359,374.26,133.447Z" transform="translate(-363.598 -127.611)" fill="#fff" opacity="0.74"/>
            <path id="Path_23614" data-name="Path 23614" d="M382.668,142.9c.258-.085.518-.173.773-.261a4.5,4.5,0,0,1,.028.506,4.566,4.566,0,0,1-.072.807c-.267.248-.537.493-.817.726a4.655,4.655,0,0,0,.135-1.115A4.2,4.2,0,0,0,382.668,142.9Z" transform="translate(-371.937 -136.691)" fill="#fff" opacity="0.74"/>
          </g>
        </g>
        <path id="Path_23615" data-name="Path 23615" d="M352.6,170.526l7.783.317s1.229,0,1.065.713-1.31,6.265-1.31,6.265-.273,1.191-1.147,1.348-5.734,0-5.734,0a1.619,1.619,0,0,1-1.694-1.533c-.11-1.587.22-6.5.22-6.5S351.724,170.394,352.6,170.526Z" transform="translate(-242.991 -118.17)" fill="#f6931d"/>
        <g id="Group_14961" data-name="Group 14961" transform="translate(108.26 51.521)">
          <path id="Path_23616" data-name="Path 23616" d="M351.738,167.922l8.194.355s1.295,0,1.122.8-1.379,7.016-1.379,7.016-.289,1.332-1.207,1.508-6.039,0-6.039,0a1.726,1.726,0,0,1-1.782-1.716c-.116-1.775.229-7.28.229-7.28S350.821,167.774,351.738,167.922Z" transform="translate(-350.624 -167.904)" fill="#f6931d"/>
          <path id="Path_23617" data-name="Path 23617" d="M351.527,181.772c.852,1.1,6.784,1.935,7.707.459a26.592,26.592,0,0,0,1.4-4.229c-.408,2.083-.952,4.88-.952,4.88s-.289,1.332-1.207,1.508-6.039,0-6.039,0a1.726,1.726,0,0,1-1.782-1.716c-.063-.993.016-3.155.1-4.864C350.962,178.853,350.883,180.943,351.527,181.772Z" transform="translate(-350.633 -174.697)" fill="#f6931d"/>
          <path id="Path_23618" data-name="Path 23618" d="M359.963,169.9s1.659.2,1.533,1.291-1.213,5.907-1.213,4.685.446-3.667-.575-3.667h-5.043a1.646,1.646,0,0,0-1.659,1.087c-.32,1.153-.829.748-.638-1.222s.638-2.445,1.851-2.445S359.963,169.9,359.963,169.9Z" transform="translate(-351.792 -169.088)" fill="#fbc086"/>
        </g>
        <path id="Path_23619" data-name="Path 23619" d="M131.036,203.193a3.235,3.235,0,0,0-2.319-1.863c-1.939,1.137-5.7.924-5.7.924H19.242s-3.758.214-5.7-.924a3.235,3.235,0,0,0-2.319,1.863c-.817,1.681.591,3.547,2.545,3.73,0,0,28.31,1.584,62.486.943,33.805.638,52.233-.943,52.233-.943C130.445,206.741,131.853,204.874,131.036,203.193Z" transform="translate(-9.443 -139.306)" fill="#a2a5a7"/>
        <g id="Group_14962" data-name="Group 14962" transform="translate(1.907 62.024)">
          <path id="Path_23620" data-name="Path 23620" d="M16.539,203.316H127.3a17.769,17.769,0,0,0,4.4-.355,3.2,3.2,0,0,0-2.193-1.631c-1.939,1.137-5.7.924-5.7.924H20.033s-3.758.214-5.7-.924a3.2,3.2,0,0,0-2.193,1.631A17.767,17.767,0,0,0,16.539,203.316Z" transform="translate(-12.14 -201.33)" fill="#a2a5a7"/>
        </g>
        <g id="Group_14963" data-name="Group 14963" transform="translate(1.545 64.211)">
          <path id="Path_23621" data-name="Path 23621" d="M128.489,210.332s-18.428,1.58-52.233.943c-34.176.644-62.486-.943-62.486-.943A3.067,3.067,0,0,1,11.1,208.29,2.808,2.808,0,0,0,13.77,211.7s28.31,1.584,62.486.943c33.805.638,52.233-.943,52.233-.943a2.8,2.8,0,0,0,2.674-3.406A3.076,3.076,0,0,1,128.489,210.332Z" transform="translate(-10.989 -208.29)" fill="#a2a5a7"/>
        </g>
        <path id="Path_23622" data-name="Path 23622" d="M130.442,202.92c.729,2.093-4,1.91-4,1.91l-42.757-.242v-.123l-.456,0-10.447.06-10.9-.063-42.757.364s-4.729.182-4-1.91c0,0-2.209,1.382-1.15,2.467.792.808,39.4.408,58.81.154,19.412.255,58.018.654,58.81-.154C132.651,204.3,130.442,202.92,130.442,202.92Z" transform="translate(-11.293 -140.396)" fill="#fff"/>
        <path id="Path_23623" data-name="Path 23623" d="M40.958,109.421s3.88-.242,5.819,4.487c0,0,.729,1.7.848.789s-1.332-3.214.424-4.3,5.819-3.214,5.819-3.214.606-.424-1.031-.547-6.548,2.363-7.638,2.121S38.29,109.056,40.958,109.421Z" transform="translate(-29.521 -74.358)" fill="#fef5f9" opacity="0.4"/>
        <path id="Path_23624" data-name="Path 23624" d="M331.511,109.421s-3.88-.242-5.819,4.487c0,0-.729,1.7-.848.789s1.332-3.214-.424-4.3-5.819-3.214-5.819-3.214-.606-.424,1.031-.547,6.548,2.363,7.638,2.121S334.179,109.056,331.511,109.421Z" transform="translate(-220.327 -74.358)" fill="#fef5f9" opacity="0.4"/>
      </g>
    </g>
  </g>
</svg>
