<svg width="124" height="81" viewBox="0 0 124 81" fill="none" xmlns="http://www.w3.org/2000/svg">
<path d="M44.9746 37.316L56.0096 36.926C56.1326 36.562 52.7326 21.891 52.7326 21.891C52.7326 21.891 51.7616 19.223 50.0646 19.101H38.3036C36.6036 19.224 35.6356 21.891 35.6356 21.891C35.6356 21.891 31.6356 37.532 31.7556 37.897L43.3936 37.316V37.533L44.1826 37.423L44.9716 37.533V37.316H44.9746Z" fill="#A7675B"/>
<path d="M44.8879 37.364L55.0308 37.006C55.1408 36.673 52.0179 23.184 52.0179 23.184C52.0179 23.184 51.1259 20.733 49.5669 20.62H38.7569C37.1949 20.73 36.3058 23.184 36.3058 23.184C36.3058 23.184 32.6269 37.562 32.7399 37.898L43.4399 37.364V37.564L44.1659 37.464L44.8918 37.564V37.364H44.8879Z" fill="#955C51"/>
<path d="M81.3466 37.316L92.3816 36.926C92.5046 36.562 89.1047 21.891 89.1047 21.891C89.1047 21.891 88.1337 19.223 86.4367 19.101H74.6757C72.9757 19.224 72.0077 21.891 72.0077 21.891C72.0077 21.891 68.0076 37.532 68.1276 37.897L79.7656 37.316V37.533L80.5546 37.423L81.3437 37.533V37.316H81.3466Z" fill="#A7675B"/>
<path d="M81.2599 37.364L91.4029 37.006C91.5129 36.673 88.3899 23.184 88.3899 23.184C88.3899 23.184 87.4979 20.733 85.9389 20.62H75.1289C73.5669 20.73 72.6779 23.184 72.6779 23.184C72.6779 23.184 68.9989 37.562 69.1119 37.898L79.8119 37.364V37.564L80.5379 37.464L81.2639 37.564V37.364H81.2599Z" fill="#955C51"/>
<path d="M81.1021 23.904C79.0701 23.904 77.0837 24.5065 75.3942 25.6355C73.7046 26.7644 72.3878 28.369 71.6102 30.2463C70.8326 32.1236 70.6291 34.1894 71.0255 36.1824C71.422 38.1753 72.4005 40.006 73.8373 41.4428C75.2742 42.8796 77.1048 43.8582 79.0978 44.2546C81.0907 44.651 83.1565 44.4475 85.0338 43.6699C86.9111 42.8923 88.5157 41.5755 89.6446 39.8859C90.7736 38.1964 91.3761 36.21 91.3761 34.178C91.3761 31.4532 90.2937 28.8399 88.3669 26.9132C86.4402 24.9864 83.827 23.904 81.1021 23.904ZM81.1021 42.891C79.3616 42.891 77.6603 42.3749 76.2131 41.4079C74.766 40.441 73.638 39.0666 72.972 37.4586C72.3059 35.8506 72.1317 34.0812 72.4712 32.3742C72.8108 30.6672 73.6489 29.0992 74.8796 27.8685C76.1103 26.6378 77.6783 25.7996 79.3853 25.4601C81.0924 25.1205 82.8617 25.2948 84.4697 25.9609C86.0777 26.6269 87.4521 27.7548 88.4191 29.202C89.386 30.6491 89.9021 32.3505 89.9021 34.091C89.9021 36.4249 88.975 38.6632 87.3247 40.3135C85.6744 41.9639 83.436 42.891 81.1021 42.891Z" fill="#1C1E1F"/>
<path d="M81.1028 23.137C78.9084 23.137 76.7633 23.7877 74.9388 25.0068C73.1142 26.226 71.6921 27.9588 70.8524 29.9861C70.0126 32.0135 69.7929 34.2443 70.221 36.3965C70.6491 38.5487 71.7058 40.5257 73.2575 42.0773C74.8091 43.629 76.7861 44.6857 78.9383 45.1138C81.0905 45.5419 83.3213 45.3222 85.3487 44.4824C87.376 43.6427 89.1088 42.2206 90.328 40.396C91.5471 38.5715 92.1978 36.4264 92.1978 34.232C92.1965 31.2898 91.0271 28.4685 88.9467 26.3881C86.8663 24.3077 84.045 23.1383 81.1028 23.137ZM81.1028 43.637C79.2239 43.637 77.3872 43.0798 75.8249 42.036C74.2626 40.9921 73.045 39.5084 72.326 37.7725C71.6069 36.0366 71.4188 34.1265 71.7854 32.2836C72.1519 30.4408 73.0567 28.7481 74.3853 27.4195C75.7139 26.0909 77.4066 25.1861 79.2495 24.8195C81.0923 24.453 83.0024 24.6411 84.7383 25.3601C86.4742 26.0792 87.9579 27.2968 89.0018 28.8591C90.0457 30.4213 90.6028 32.2581 90.6028 34.137C90.6012 36.656 89.5998 39.0713 87.8185 40.8524C86.0372 42.6335 83.6218 43.6357 81.1028 43.637Z" fill="#4D4F51"/>
<path d="M121.474 53.721C121.474 53.721 123.111 54.085 122.988 55.235C122.612 56.9761 122.145 58.6962 121.588 60.388C121.588 60.388 121.346 61.478 120.498 61.541C119.65 61.604 118.921 61.359 119.225 60.268C119.529 59.177 121.474 53.721 121.474 53.721Z" fill="#F6931D"/>
<path d="M120.384 61.541C120.76 58.9576 121.274 56.3963 121.924 53.868C121.778 53.8071 121.628 53.7566 121.475 53.717C121.475 53.717 119.536 59.172 119.232 60.265C118.942 61.306 119.589 61.573 120.384 61.541Z" fill="#F6931D"/>
<path d="M121.732 57.368C121.854 56.686 121.983 55.995 122.062 55.307C122.111 54.9259 122.089 54.5389 121.996 54.166C122.221 54.2395 122.417 54.383 122.555 54.5757C122.693 54.7684 122.766 55 122.763 55.237C122.456 56.6637 122.074 58.0733 121.619 59.46C121.537 59.8001 121.334 60.0986 121.047 60.299C121.323 59.337 121.553 58.356 121.732 57.368Z" fill="#FBC086"/>
<path d="M3.20517 53.721C3.20517 53.721 1.56817 54.085 1.69117 55.235C2.06679 56.9761 2.53411 58.6962 3.09117 60.388C3.09117 60.388 3.33317 61.478 4.18117 61.541C5.02917 61.604 5.75817 61.359 5.45417 60.268C5.15017 59.177 3.20517 53.721 3.20517 53.721Z" fill="#F6931D"/>
<path d="M2.94808 57.368C2.82508 56.686 2.69708 55.995 2.61808 55.307C2.56882 54.9259 2.5912 54.5389 2.68408 54.166C2.4588 54.2395 2.26289 54.383 2.12492 54.5757C1.98695 54.7684 1.91413 55 1.91708 55.237C2.22415 56.6637 2.60601 58.0733 3.06108 59.46C3.14286 59.8001 3.34633 60.0986 3.63308 60.299C3.35508 59.337 3.12908 58.356 2.94808 57.368Z" fill="#FBC086"/>
<path d="M25.0391 80.206H17.1151C16.6998 80.2058 16.2886 80.1239 15.9049 79.9648C15.5213 79.8057 15.1727 79.5726 14.8792 79.2788C14.5856 78.985 14.3529 78.6362 14.1941 78.2524C14.0354 77.8686 13.9538 77.4573 13.9541 77.042V56.995C13.9541 56.1566 14.2871 55.3526 14.8799 54.7598C15.4727 54.167 16.2768 53.834 17.1151 53.834H25.0391C25.8775 53.834 26.6815 54.167 27.2743 54.7598C27.8671 55.3526 28.2001 56.1566 28.2001 56.995V77.041C28.2005 77.4564 28.119 77.8678 27.9604 78.2517C27.8017 78.6356 27.5689 78.9845 27.2754 79.2784C26.9818 79.5724 26.6332 79.8056 26.2495 79.9647C25.8658 80.1239 25.4545 80.2058 25.0391 80.206Z" fill="#4D4F51"/>
<path d="M15.7762 78.877L15.1262 77.938L15.7762 76.999C15.7853 76.985 15.7902 76.9687 15.7902 76.952C15.7902 76.9353 15.7853 76.9189 15.7762 76.905L15.1262 75.966L15.7762 75.027C15.7853 75.013 15.7902 74.9967 15.7902 74.98C15.7902 74.9633 15.7853 74.9469 15.7762 74.933L15.1262 73.994L15.7762 73.055C15.7853 73.041 15.7902 73.0247 15.7902 73.008C15.7902 72.9913 15.7853 72.9749 15.7762 72.961L15.1262 72.022L15.7762 71.083C15.7853 71.069 15.7902 71.0527 15.7902 71.036C15.7902 71.0193 15.7853 71.0029 15.7762 70.989L15.1262 70.05L15.7762 69.111C15.7853 69.097 15.7902 69.0807 15.7902 69.064C15.7902 69.0473 15.7853 69.0309 15.7762 69.017L15.1262 68.078L15.7762 67.139C15.7853 67.125 15.7902 67.1087 15.7902 67.092C15.7902 67.0753 15.7853 67.0589 15.7762 67.045L15.1262 66.109L15.7762 65.173C15.7853 65.159 15.7902 65.1427 15.7902 65.126C15.7902 65.1093 15.7853 65.0929 15.7762 65.079L15.1262 64.143L15.7762 63.207C15.7853 63.193 15.7902 63.1766 15.7902 63.16C15.7902 63.1433 15.7853 63.1269 15.7762 63.113L15.1262 62.174L15.7762 61.235C15.7853 61.221 15.7902 61.2046 15.7902 61.188C15.7902 61.1713 15.7853 61.1549 15.7762 61.141L15.1262 60.202L15.7762 59.266C15.7853 59.252 15.7902 59.2357 15.7902 59.219C15.7902 59.2023 15.7853 59.1859 15.7762 59.172L15.1262 58.236L15.7762 57.303C15.7853 57.289 15.7902 57.2727 15.7902 57.256C15.7902 57.2393 15.7853 57.2229 15.7762 57.209L15.1262 56.276L15.7762 55.343C15.7853 55.329 15.7902 55.3127 15.7902 55.296C15.7902 55.2793 15.7853 55.2629 15.7762 55.249L15.2142 54.438L15.1202 54.523L15.6542 55.296L15.0042 56.229C14.9951 56.2429 14.9902 56.2593 14.9902 56.276C14.9902 56.2927 14.9951 56.309 15.0042 56.323L15.6542 57.256L15.0042 58.189C14.9951 58.2029 14.9902 58.2193 14.9902 58.236C14.9902 58.2527 14.9951 58.269 15.0042 58.283L15.6542 59.219L15.0042 60.155C14.9951 60.1689 14.9902 60.1853 14.9902 60.202C14.9902 60.2187 14.9951 60.235 15.0042 60.249L15.6542 61.188L15.0042 62.127C14.9951 62.1409 14.9902 62.1573 14.9902 62.174C14.9902 62.1907 14.9951 62.207 15.0042 62.221L15.6542 63.16L15.0042 64.096C14.9951 64.1099 14.9902 64.1263 14.9902 64.143C14.9902 64.1597 14.9951 64.176 15.0042 64.19L15.6542 65.126L15.0042 66.062C14.9951 66.0759 14.9902 66.0923 14.9902 66.109C14.9902 66.1257 14.9951 66.142 15.0042 66.156L15.6542 67.092L15.0042 68.031C14.9951 68.0449 14.9902 68.0613 14.9902 68.078C14.9902 68.0946 14.9951 68.111 15.0042 68.125L15.6542 69.064L15.0042 70.003C14.9951 70.0169 14.9902 70.0333 14.9902 70.05C14.9902 70.0666 14.9951 70.083 15.0042 70.097L15.6542 71.036L15.0042 71.975C14.9951 71.9889 14.9902 72.0053 14.9902 72.022C14.9902 72.0386 14.9951 72.055 15.0042 72.069L15.6542 73.008L15.0042 73.947C14.9951 73.9609 14.9902 73.9773 14.9902 73.994C14.9902 74.0106 14.9951 74.027 15.0042 74.041L15.6542 74.98L15.0042 75.919C14.9951 75.9329 14.9902 75.9493 14.9902 75.966C14.9902 75.9826 14.9951 75.999 15.0042 76.013L15.6542 76.952L15.0042 77.891C14.9951 77.9049 14.9902 77.9213 14.9902 77.938C14.9902 77.9546 14.9951 77.971 15.0042 77.985L15.6542 78.924L15.1922 79.59C15.2242 79.618 15.2575 79.6444 15.2922 79.669L15.7762 78.969C15.7849 78.9552 15.7896 78.9392 15.7896 78.923C15.7896 78.9067 15.7849 78.8907 15.7762 78.877Z" fill="#222425"/>
<path d="M20.3985 78.968C20.4076 78.954 20.4125 78.9377 20.4125 78.921C20.4125 78.9043 20.4076 78.888 20.3985 78.874L19.7485 77.935L20.3985 76.996C20.4076 76.982 20.4125 76.9657 20.4125 76.949C20.4125 76.9323 20.4076 76.916 20.3985 76.902L19.7485 75.963L20.3985 75.024C20.4076 75.01 20.4125 74.9937 20.4125 74.977C20.4125 74.9603 20.4076 74.944 20.3985 74.93L19.7485 73.991L20.3985 73.052C20.4076 73.038 20.4125 73.0217 20.4125 73.005C20.4125 72.9883 20.4076 72.972 20.3985 72.958L19.7485 72.019L20.3985 71.08C20.4076 71.066 20.4125 71.0497 20.4125 71.033C20.4125 71.0163 20.4076 71 20.3985 70.986L19.7485 70.047L20.3985 69.108C20.4076 69.094 20.4125 69.0777 20.4125 69.061C20.4125 69.0443 20.4076 69.028 20.3985 69.014L19.7485 68.075L20.3985 67.136C20.4076 67.122 20.4125 67.1057 20.4125 67.089C20.4125 67.0723 20.4076 67.056 20.3985 67.042L19.7485 66.106L20.3985 65.17C20.4076 65.156 20.4125 65.1397 20.4125 65.123C20.4125 65.1063 20.4076 65.09 20.3985 65.076L19.7485 64.14L20.3985 63.204C20.4076 63.19 20.4125 63.1737 20.4125 63.157C20.4125 63.1403 20.4076 63.1239 20.3985 63.11L19.7485 62.171L20.3985 61.232C20.4076 61.218 20.4125 61.2017 20.4125 61.185C20.4125 61.1683 20.4076 61.1519 20.3985 61.138L19.7485 60.199L20.3985 59.263C20.4076 59.249 20.4125 59.2327 20.4125 59.216C20.4125 59.1993 20.4076 59.183 20.3985 59.169L19.7485 58.233L20.3985 57.3C20.4076 57.286 20.4125 57.2697 20.4125 57.253C20.4125 57.2363 20.4076 57.22 20.3985 57.206L19.7485 56.273L20.3985 55.34C20.4076 55.326 20.4125 55.3097 20.4125 55.293C20.4125 55.2763 20.4076 55.2599 20.3985 55.246L19.7485 54.307L20.0755 53.833H19.9165L19.6165 54.26C19.6074 54.274 19.6025 54.2903 19.6025 54.307C19.6025 54.3237 19.6074 54.34 19.6165 54.354L20.2665 55.293L19.6165 56.226C19.6074 56.24 19.6025 56.2563 19.6025 56.273C19.6025 56.2897 19.6074 56.306 19.6165 56.32L20.2665 57.253L19.6165 58.186C19.6074 58.2 19.6025 58.2163 19.6025 58.233C19.6025 58.2497 19.6074 58.266 19.6165 58.28L20.2665 59.216L19.6165 60.152C19.6074 60.166 19.6025 60.1823 19.6025 60.199C19.6025 60.2157 19.6074 60.232 19.6165 60.246L20.2665 61.185L19.6165 62.124C19.6074 62.138 19.6025 62.1543 19.6025 62.171C19.6025 62.1877 19.6074 62.204 19.6165 62.218L20.2665 63.157L19.6165 64.093C19.6074 64.1069 19.6025 64.1233 19.6025 64.14C19.6025 64.1567 19.6074 64.173 19.6165 64.187L20.2665 65.123L19.6165 66.059C19.6074 66.073 19.6025 66.0893 19.6025 66.106C19.6025 66.1227 19.6074 66.139 19.6165 66.153L20.2665 67.089L19.6165 68.028C19.6074 68.0419 19.6025 68.0583 19.6025 68.075C19.6025 68.0917 19.6074 68.108 19.6165 68.122L20.2665 69.061L19.6165 70C19.6074 70.0139 19.6025 70.0303 19.6025 70.047C19.6025 70.0637 19.6074 70.08 19.6165 70.094L20.2665 71.033L19.6165 71.972C19.6074 71.9859 19.6025 72.0023 19.6025 72.019C19.6025 72.0357 19.6074 72.052 19.6165 72.066L20.2665 73.005L19.6165 73.944C19.6074 73.9579 19.6025 73.9743 19.6025 73.991C19.6025 74.0077 19.6074 74.024 19.6165 74.038L20.2665 74.977L19.6165 75.916C19.6074 75.9299 19.6025 75.9463 19.6025 75.963C19.6025 75.9797 19.6074 75.996 19.6165 76.01L20.2665 76.949L19.6165 77.888C19.6074 77.9019 19.6025 77.9183 19.6025 77.935C19.6025 77.9517 19.6074 77.968 19.6165 77.982L20.2665 78.921L19.6165 79.86C19.6074 79.8739 19.6025 79.8903 19.6025 79.907C19.6025 79.9237 19.6074 79.94 19.6165 79.954L19.7895 80.202H19.9435L19.7435 79.902L20.3985 78.968Z" fill="#222425"/>
<path d="M22.5283 79.863L21.8783 78.924L22.5283 77.985C22.5374 77.971 22.5423 77.9547 22.5423 77.938C22.5423 77.9213 22.5374 77.905 22.5283 77.891L21.8783 76.952L22.5283 76.013C22.5374 75.999 22.5423 75.9827 22.5423 75.966C22.5423 75.9493 22.5374 75.933 22.5283 75.919L21.8783 74.98L22.5283 74.041C22.5374 74.027 22.5423 74.0107 22.5423 73.994C22.5423 73.9773 22.5374 73.961 22.5283 73.947L21.8783 73.008L22.5283 72.069C22.5374 72.055 22.5423 72.0387 22.5423 72.022C22.5423 72.0053 22.5374 71.989 22.5283 71.975L21.8783 71.036L22.5283 70.097C22.5374 70.083 22.5423 70.0667 22.5423 70.05C22.5423 70.0333 22.5374 70.017 22.5283 70.003L21.8783 69.064L22.5283 68.125C22.5374 68.111 22.5423 68.0947 22.5423 68.078C22.5423 68.0613 22.5374 68.045 22.5283 68.031L21.8783 67.092L22.5283 66.156C22.5374 66.142 22.5423 66.1257 22.5423 66.109C22.5423 66.0923 22.5374 66.0759 22.5283 66.062L21.8783 65.126L22.5283 64.19C22.5374 64.176 22.5423 64.1597 22.5423 64.143C22.5423 64.1263 22.5374 64.11 22.5283 64.096L21.8783 63.16L22.5283 62.221C22.5374 62.207 22.5423 62.1907 22.5423 62.174C22.5423 62.1573 22.5374 62.1409 22.5283 62.127L21.8783 61.188L22.5283 60.249C22.5374 60.235 22.5423 60.2187 22.5423 60.202C22.5423 60.1853 22.5374 60.1689 22.5283 60.155L21.8783 59.219L22.5283 58.283C22.5374 58.269 22.5423 58.2527 22.5423 58.236C22.5423 58.2193 22.5374 58.203 22.5283 58.189L21.8783 57.256L22.5283 56.323C22.5374 56.309 22.5423 56.2927 22.5423 56.276C22.5423 56.2593 22.5374 56.243 22.5283 56.229L21.8783 55.296L22.5283 54.357C22.5374 54.343 22.5423 54.3267 22.5423 54.31C22.5423 54.2933 22.5374 54.2769 22.5283 54.263L22.2283 53.836H22.0743L22.4013 54.31L21.7513 55.249C21.7422 55.263 21.7373 55.2793 21.7373 55.296C21.7373 55.3127 21.7422 55.329 21.7513 55.343L22.4013 56.276L21.7513 57.209C21.7422 57.2229 21.7373 57.2393 21.7373 57.256C21.7373 57.2727 21.7422 57.289 21.7513 57.303L22.4013 58.236L21.7513 59.172C21.7422 59.1859 21.7373 59.2023 21.7373 59.219C21.7373 59.2357 21.7422 59.252 21.7513 59.266L22.4013 60.202L21.7513 61.141C21.7422 61.155 21.7373 61.1713 21.7373 61.188C21.7373 61.2047 21.7422 61.221 21.7513 61.235L22.4013 62.174L21.7513 63.113C21.7422 63.127 21.7373 63.1433 21.7373 63.16C21.7373 63.1767 21.7422 63.193 21.7513 63.207L22.4013 64.143L21.7513 65.079C21.7422 65.093 21.7373 65.1093 21.7373 65.126C21.7373 65.1427 21.7422 65.159 21.7513 65.173L22.4013 66.109L21.7513 67.045C21.7422 67.0589 21.7373 67.0753 21.7373 67.092C21.7373 67.1087 21.7422 67.125 21.7513 67.139L22.4013 68.078L21.7513 69.017C21.7422 69.0309 21.7373 69.0473 21.7373 69.064C21.7373 69.0807 21.7422 69.097 21.7513 69.111L22.4013 70.05L21.7513 70.989C21.7422 71.0029 21.7373 71.0193 21.7373 71.036C21.7373 71.0527 21.7422 71.069 21.7513 71.083L22.4013 72.022L21.7513 72.961C21.7422 72.9749 21.7373 72.9913 21.7373 73.008C21.7373 73.0247 21.7422 73.041 21.7513 73.055L22.4013 73.994L21.7513 74.933C21.7422 74.9469 21.7373 74.9633 21.7373 74.98C21.7373 74.9967 21.7422 75.013 21.7513 75.027L22.4013 75.966L21.7513 76.905C21.7422 76.9189 21.7373 76.9353 21.7373 76.952C21.7373 76.9687 21.7422 76.985 21.7513 76.999L22.4013 77.938L21.7513 78.877C21.7422 78.8909 21.7373 78.9073 21.7373 78.924C21.7373 78.9407 21.7422 78.957 21.7513 78.971L22.4013 79.91L22.2013 80.21H22.3553L22.5283 79.962C22.5385 79.9475 22.544 79.9302 22.544 79.9125C22.544 79.8948 22.5385 79.8775 22.5283 79.863Z" fill="#222425"/>
<path d="M27.1532 77.981C27.1623 77.967 27.1671 77.9507 27.1671 77.934C27.1671 77.9173 27.1623 77.901 27.1532 77.887L26.5032 76.948L27.1532 76.009C27.1623 75.995 27.1671 75.9787 27.1671 75.962C27.1671 75.9453 27.1623 75.929 27.1532 75.915L26.5032 74.976L27.1532 74.036C27.1623 74.022 27.1671 74.0057 27.1671 73.989C27.1671 73.9723 27.1623 73.956 27.1532 73.942L26.5032 73.003L27.1532 72.064C27.1623 72.05 27.1671 72.0337 27.1671 72.017C27.1671 72.0003 27.1623 71.984 27.1532 71.97L26.5032 71.031L27.1532 70.092C27.1623 70.078 27.1671 70.0617 27.1671 70.045C27.1671 70.0283 27.1623 70.012 27.1532 69.998L26.5032 69.059L27.1532 68.12C27.1623 68.106 27.1671 68.0897 27.1671 68.073C27.1671 68.0563 27.1623 68.04 27.1532 68.026L26.5032 67.087L27.1532 66.151C27.1623 66.137 27.1671 66.1207 27.1671 66.104C27.1671 66.0873 27.1623 66.071 27.1532 66.057L26.5032 65.121L27.1532 64.185C27.1623 64.171 27.1671 64.1547 27.1671 64.138C27.1671 64.1213 27.1623 64.105 27.1532 64.091L26.5032 63.155L27.1532 62.216C27.1623 62.202 27.1671 62.1857 27.1671 62.169C27.1671 62.1523 27.1623 62.136 27.1532 62.122L26.5032 61.183L27.1532 60.244C27.1623 60.23 27.1671 60.2137 27.1671 60.197C27.1671 60.1803 27.1623 60.164 27.1532 60.15L26.5032 59.214L27.1532 58.278C27.1623 58.264 27.1671 58.2477 27.1671 58.231C27.1671 58.2143 27.1623 58.198 27.1532 58.184L26.5032 57.251L27.1532 56.318C27.1623 56.304 27.1671 56.2877 27.1671 56.271C27.1671 56.2543 27.1623 56.238 27.1532 56.224L26.5032 55.291L27.0372 54.518C27.0062 54.49 26.9742 54.458 26.9432 54.433L26.3812 55.244C26.3721 55.258 26.3672 55.2743 26.3672 55.291C26.3672 55.3077 26.3721 55.324 26.3812 55.338L27.0312 56.271L26.3812 57.204C26.3721 57.218 26.3672 57.2343 26.3672 57.251C26.3672 57.2677 26.3721 57.284 26.3812 57.298L27.0312 58.231L26.3812 59.167C26.3721 59.181 26.3672 59.1973 26.3672 59.214C26.3672 59.2307 26.3721 59.247 26.3812 59.261L27.0312 60.197L26.3812 61.136C26.3721 61.15 26.3672 61.1663 26.3672 61.183C26.3672 61.1997 26.3721 61.216 26.3812 61.23L27.0312 62.169L26.3812 63.108C26.3721 63.122 26.3672 63.1383 26.3672 63.155C26.3672 63.1717 26.3721 63.188 26.3812 63.202L27.0312 64.138L26.3812 65.074C26.3721 65.088 26.3672 65.1043 26.3672 65.121C26.3672 65.1377 26.3721 65.154 26.3812 65.168L27.0312 66.104L26.3812 67.04C26.3721 67.054 26.3672 67.0703 26.3672 67.087C26.3672 67.1037 26.3721 67.12 26.3812 67.134L27.0312 68.073L26.3812 69.012C26.3721 69.026 26.3672 69.0423 26.3672 69.059C26.3672 69.0757 26.3721 69.092 26.3812 69.106L27.0312 70.045L26.3812 70.984C26.3721 70.998 26.3672 71.0143 26.3672 71.031C26.3672 71.0477 26.3721 71.064 26.3812 71.078L27.0312 72.017L26.3812 72.956C26.3721 72.97 26.3672 72.9863 26.3672 73.003C26.3672 73.0197 26.3721 73.036 26.3812 73.05L27.0312 73.989L26.3812 74.928C26.3721 74.942 26.3672 74.9583 26.3672 74.975C26.3672 74.9917 26.3721 75.008 26.3812 75.022L27.0312 75.961L26.3812 76.9C26.3721 76.914 26.3672 76.9303 26.3672 76.947C26.3672 76.9637 26.3721 76.98 26.3812 76.994L27.0312 77.933L26.3812 78.872C26.3721 78.886 26.3672 78.9023 26.3672 78.919C26.3672 78.9357 26.3721 78.952 26.3812 78.966L26.8652 79.666C26.8998 79.6414 26.9332 79.615 26.9652 79.587L26.5062 78.921L27.1532 77.981Z" fill="#222425"/>
<path d="M17.356 53.835H17.001V80.206H17.356V53.835Z" fill="#222425"/>
<path d="M18.3999 53.835H18.0449V80.206H18.3999V53.835Z" fill="#222425"/>
<path d="M24.1118 53.835H23.7568V80.206H24.1118V53.835Z" fill="#222425"/>
<path d="M25.1548 53.835H24.7998V80.206H25.1548V53.835Z" fill="#222425"/>
<path d="M14.3751 70.359C16.8135 69.7603 19.3269 69.5244 21.8341 69.659C23.9706 69.6282 26.1046 69.8155 28.2031 70.218V56.995C28.203 56.5797 28.121 56.1684 27.9619 55.7848C27.8028 55.4011 27.5697 55.0526 27.2759 54.759C26.9821 54.4655 26.6333 54.2327 26.2495 54.074C25.8657 53.9153 25.4544 53.8337 25.0391 53.834H17.1151C16.2768 53.834 15.4727 54.167 14.8799 54.7598C14.2871 55.3526 13.9541 56.1566 13.9541 56.995V70.495C14.0921 70.447 14.2341 70.403 14.3751 70.359Z" fill="#4D4F51"/>
<path d="M15.0837 75.923L14.7197 67.873V76.287C14.7197 77.0344 15.0166 77.7511 15.5451 78.2796C16.0736 78.8081 16.7903 79.105 17.5377 79.105H24.6037C24.6962 79.1005 24.7883 79.0911 24.8797 79.077L17.9017 78.741C17.5316 78.7412 17.165 78.6685 16.823 78.527C16.481 78.3855 16.1702 78.1779 15.9085 77.9162C15.6468 77.6545 15.4392 77.3437 15.2977 77.0017C15.1562 76.6597 15.0835 76.2931 15.0837 75.923Z" fill="#4D4F51"/>
<path d="M107.386 80.206H99.4619C98.6228 80.2057 97.8182 79.8723 97.2249 79.279C96.6315 78.6857 96.2981 77.881 96.2979 77.042V56.995C96.298 56.5797 96.3799 56.1684 96.539 55.7848C96.6981 55.4011 96.9312 55.0526 97.225 54.759C97.5189 54.4655 97.8676 54.2327 98.2514 54.074C98.6352 53.9153 99.0465 53.8337 99.4619 53.834H107.386C108.224 53.834 109.028 54.167 109.621 54.7598C110.214 55.3526 110.547 56.1566 110.547 56.995V77.041C110.547 77.4564 110.466 77.8678 110.307 78.2517C110.148 78.6356 109.916 78.9845 109.622 79.2784C109.329 79.5724 108.98 79.8056 108.596 79.9647C108.213 80.1239 107.801 80.2058 107.386 80.206Z" fill="#4D4F51"/>
<path d="M98.1229 78.877L97.4729 77.938L98.1229 76.999C98.1321 76.985 98.1371 76.9687 98.1371 76.952C98.1371 76.9352 98.1321 76.9189 98.1229 76.905L97.4729 75.966L98.1229 75.027C98.1321 75.013 98.1371 74.9967 98.1371 74.98C98.1371 74.9632 98.1321 74.9469 98.1229 74.933L97.4729 73.994L98.1229 73.055C98.132 73.041 98.1369 73.0247 98.1369 73.008C98.1369 72.9913 98.132 72.9749 98.1229 72.961L97.4729 72.022L98.1229 71.083C98.132 71.069 98.1369 71.0527 98.1369 71.036C98.1369 71.0193 98.132 71.0029 98.1229 70.989L97.4729 70.05L98.1229 69.111C98.1321 69.097 98.1371 69.0807 98.1371 69.064C98.1371 69.0472 98.1321 69.0309 98.1229 69.017L97.4729 68.078L98.1229 67.139C98.1321 67.125 98.1371 67.1087 98.1371 67.092C98.1371 67.0752 98.1321 67.0589 98.1229 67.045L97.4729 66.109L98.1229 65.173C98.1321 65.159 98.1371 65.1427 98.1371 65.126C98.1371 65.1092 98.1321 65.0929 98.1229 65.079L97.4729 64.143L98.1229 63.207C98.1321 63.193 98.1371 63.1767 98.1371 63.16C98.1371 63.1432 98.1321 63.1269 98.1229 63.113L97.4729 62.174L98.1229 61.235C98.1321 61.221 98.1371 61.2047 98.1371 61.188C98.1371 61.1712 98.1321 61.1549 98.1229 61.141L97.4729 60.202L98.1229 59.266C98.1321 59.252 98.1371 59.2357 98.1371 59.219C98.1371 59.2022 98.1321 59.1859 98.1229 59.172L97.4729 58.236L98.1229 57.303C98.1321 57.289 98.1371 57.2727 98.1371 57.256C98.1371 57.2392 98.1321 57.2229 98.1229 57.209L97.4729 56.276L98.1229 55.343C98.1321 55.329 98.1371 55.3127 98.1371 55.296C98.1371 55.2792 98.1321 55.2629 98.1229 55.249L97.5609 54.438L97.4669 54.523L98.0009 55.296L97.3509 56.229C97.3418 56.2429 97.3369 56.2593 97.3369 56.276C97.3369 56.2927 97.3418 56.309 97.3509 56.323L98.0009 57.256L97.3509 58.189C97.3418 58.2029 97.3369 58.2193 97.3369 58.236C97.3369 58.2527 97.3418 58.269 97.3509 58.283L98.0009 59.219L97.3509 60.155C97.3418 60.1689 97.3369 60.1853 97.3369 60.202C97.3369 60.2187 97.3418 60.235 97.3509 60.249L98.0009 61.188L97.3509 62.127C97.3418 62.1409 97.3369 62.1573 97.3369 62.174C97.3369 62.1907 97.3418 62.207 97.3509 62.221L98.0009 63.16L97.3509 64.096C97.3418 64.1099 97.3369 64.1263 97.3369 64.143C97.3369 64.1597 97.3418 64.176 97.3509 64.19L98.0009 65.126L97.3509 66.062C97.3418 66.0759 97.3369 66.0923 97.3369 66.109C97.3369 66.1257 97.3418 66.142 97.3509 66.156L98.0009 67.092L97.3509 68.031C97.3418 68.0449 97.3369 68.0613 97.3369 68.078C97.3369 68.0946 97.3418 68.111 97.3509 68.125L98.0009 69.064L97.3509 70.003C97.3418 70.0169 97.3369 70.0333 97.3369 70.05C97.3369 70.0666 97.3418 70.083 97.3509 70.097L98.0009 71.036L97.3509 71.975C97.3418 71.9889 97.3369 72.0053 97.3369 72.022C97.3369 72.0386 97.3418 72.055 97.3509 72.069L98.0009 73.008L97.3509 73.947C97.3418 73.9609 97.3369 73.9773 97.3369 73.994C97.3369 74.0106 97.3418 74.027 97.3509 74.041L98.0009 74.98L97.3509 75.919C97.3418 75.9329 97.3369 75.9493 97.3369 75.966C97.3369 75.9826 97.3418 75.999 97.3509 76.013L98.0009 76.952L97.3509 77.891C97.3418 77.9049 97.3369 77.9213 97.3369 77.938C97.3369 77.9546 97.3418 77.971 97.3509 77.985L98.0009 78.924L97.5389 79.59C97.5708 79.618 97.6042 79.6444 97.6389 79.669L98.1229 78.969C98.1303 78.9547 98.1341 78.939 98.1341 78.923C98.1341 78.9069 98.1303 78.8912 98.1229 78.877Z" fill="#222425"/>
<path d="M102.745 78.968C102.754 78.954 102.759 78.9377 102.759 78.921C102.759 78.9043 102.754 78.888 102.745 78.874L102.095 77.935L102.745 76.996C102.754 76.982 102.759 76.9657 102.759 76.949C102.759 76.9323 102.754 76.916 102.745 76.902L102.095 75.963L102.745 75.024C102.754 75.01 102.759 74.9937 102.759 74.977C102.759 74.9603 102.754 74.944 102.745 74.93L102.095 73.991L102.745 73.052C102.754 73.038 102.759 73.0217 102.759 73.005C102.759 72.9883 102.754 72.972 102.745 72.958L102.095 72.019L102.745 71.08C102.754 71.066 102.759 71.0497 102.759 71.033C102.759 71.0163 102.754 71 102.745 70.986L102.095 70.047L102.745 69.108C102.754 69.094 102.759 69.0777 102.759 69.061C102.759 69.0443 102.754 69.028 102.745 69.014L102.095 68.075L102.745 67.136C102.754 67.122 102.759 67.1057 102.759 67.089C102.759 67.0723 102.754 67.056 102.745 67.042L102.095 66.106L102.745 65.17C102.754 65.156 102.759 65.1397 102.759 65.123C102.759 65.1063 102.754 65.09 102.745 65.076L102.095 64.14L102.745 63.204C102.754 63.19 102.759 63.1737 102.759 63.157C102.759 63.1403 102.754 63.1239 102.745 63.11L102.095 62.171L102.745 61.232C102.754 61.218 102.759 61.2017 102.759 61.185C102.759 61.1683 102.754 61.1519 102.745 61.138L102.095 60.199L102.745 59.263C102.754 59.249 102.759 59.2327 102.759 59.216C102.759 59.1993 102.754 59.183 102.745 59.169L102.095 58.233L102.745 57.3C102.754 57.286 102.759 57.2697 102.759 57.253C102.759 57.2363 102.754 57.22 102.745 57.206L102.095 56.273L102.745 55.34C102.754 55.326 102.759 55.3097 102.759 55.293C102.759 55.2763 102.754 55.2599 102.745 55.246L102.095 54.307L102.422 53.833H102.268L101.968 54.26C101.959 54.2739 101.954 54.2903 101.954 54.307C101.954 54.3237 101.959 54.34 101.968 54.354L102.618 55.293L101.968 56.226C101.959 56.2399 101.954 56.2563 101.954 56.273C101.954 56.2897 101.959 56.306 101.968 56.32L102.618 57.253L101.968 58.186C101.959 58.1999 101.954 58.2163 101.954 58.233C101.954 58.2497 101.959 58.2661 101.968 58.28L102.618 59.216L101.968 60.152C101.959 60.1659 101.954 60.1823 101.954 60.199C101.954 60.2157 101.959 60.232 101.968 60.246L102.618 61.185L101.968 62.124C101.959 62.1379 101.954 62.1543 101.954 62.171C101.954 62.1877 101.959 62.204 101.968 62.218L102.618 63.157L101.968 64.093C101.959 64.1069 101.954 64.1232 101.954 64.14C101.954 64.1567 101.959 64.173 101.968 64.187L102.618 65.123L101.968 66.059C101.959 66.0729 101.954 66.0893 101.954 66.106C101.954 66.1227 101.959 66.139 101.968 66.153L102.618 67.089L101.968 68.028C101.959 68.0419 101.954 68.0583 101.954 68.075C101.954 68.0917 101.959 68.108 101.968 68.122L102.618 69.061L101.968 70C101.959 70.0139 101.954 70.0303 101.954 70.047C101.954 70.0637 101.959 70.08 101.968 70.094L102.618 71.033L101.968 71.972C101.959 71.9859 101.954 72.0023 101.954 72.019C101.954 72.0357 101.959 72.052 101.968 72.066L102.618 73.005L101.968 73.944C101.959 73.9579 101.954 73.9743 101.954 73.991C101.954 74.0077 101.959 74.024 101.968 74.038L102.618 74.977L101.968 75.916C101.959 75.9299 101.954 75.9463 101.954 75.963C101.954 75.9797 101.959 75.996 101.968 76.01L102.618 76.949L101.968 77.888C101.959 77.9019 101.954 77.9183 101.954 77.935C101.954 77.9517 101.959 77.968 101.968 77.982L102.618 78.921L101.968 79.86C101.959 79.8739 101.954 79.8903 101.954 79.907C101.954 79.9237 101.959 79.94 101.968 79.954L102.141 80.202H102.295L102.095 79.902L102.745 78.968Z" fill="#222425"/>
<path d="M104.875 79.863L104.225 78.924L104.875 77.985C104.884 77.971 104.889 77.9547 104.889 77.938C104.889 77.9213 104.884 77.9049 104.875 77.891L104.225 76.952L104.875 76.013C104.884 75.999 104.889 75.9827 104.889 75.966C104.889 75.9493 104.884 75.9329 104.875 75.919L104.225 74.98L104.875 74.041C104.884 74.027 104.889 74.0107 104.889 73.994C104.889 73.9773 104.884 73.9609 104.875 73.947L104.225 73.008L104.875 72.069C104.884 72.055 104.889 72.0387 104.889 72.022C104.889 72.0053 104.884 71.9889 104.875 71.975L104.225 71.036L104.875 70.097C104.884 70.083 104.889 70.0667 104.889 70.05C104.889 70.0333 104.884 70.0169 104.875 70.003L104.225 69.064L104.875 68.125C104.884 68.111 104.889 68.0947 104.889 68.078C104.889 68.0613 104.884 68.0449 104.875 68.031L104.225 67.092L104.875 66.156C104.884 66.142 104.889 66.1257 104.889 66.109C104.889 66.0923 104.884 66.0759 104.875 66.062L104.225 65.126L104.875 64.19C104.884 64.176 104.889 64.1597 104.889 64.143C104.889 64.1263 104.884 64.1099 104.875 64.096L104.225 63.16L104.875 62.221C104.884 62.207 104.889 62.1907 104.889 62.174C104.889 62.1572 104.884 62.1409 104.875 62.127L104.225 61.188L104.875 60.249C104.884 60.235 104.889 60.2187 104.889 60.202C104.889 60.1852 104.884 60.1689 104.875 60.155L104.225 59.219L104.875 58.283C104.884 58.269 104.889 58.2527 104.889 58.236C104.889 58.2193 104.884 58.2029 104.875 58.189L104.225 57.256L104.875 56.323C104.884 56.309 104.889 56.2927 104.889 56.276C104.889 56.2593 104.884 56.2429 104.875 56.229L104.225 55.296L104.875 54.357C104.884 54.343 104.889 54.3267 104.889 54.31C104.889 54.2932 104.884 54.2769 104.875 54.263L104.575 53.836H104.421L104.748 54.31L104.098 55.249C104.089 55.263 104.084 55.2793 104.084 55.296C104.084 55.3127 104.089 55.329 104.098 55.343L104.748 56.276L104.098 57.209C104.089 57.2229 104.084 57.2393 104.084 57.256C104.084 57.2727 104.089 57.289 104.098 57.303L104.748 58.236L104.098 59.172C104.089 59.1859 104.084 59.2023 104.084 59.219C104.084 59.2357 104.089 59.252 104.098 59.266L104.748 60.202L104.098 61.141C104.089 61.155 104.084 61.1713 104.084 61.188C104.084 61.2047 104.089 61.221 104.098 61.235L104.748 62.174L104.098 63.113C104.089 63.127 104.084 63.1433 104.084 63.16C104.084 63.1767 104.089 63.193 104.098 63.207L104.748 64.143L104.098 65.079C104.089 65.093 104.084 65.1093 104.084 65.126C104.084 65.1427 104.089 65.159 104.098 65.173L104.748 66.109L104.098 67.045C104.089 67.0589 104.084 67.0753 104.084 67.092C104.084 67.1087 104.089 67.125 104.098 67.139L104.748 68.078L104.098 69.017C104.089 69.0309 104.084 69.0473 104.084 69.064C104.084 69.0807 104.089 69.097 104.098 69.111L104.748 70.05L104.098 70.989C104.089 71.0029 104.084 71.0193 104.084 71.036C104.084 71.0527 104.089 71.069 104.098 71.083L104.748 72.022L104.098 72.961C104.089 72.9749 104.084 72.9913 104.084 73.008C104.084 73.0247 104.089 73.041 104.098 73.055L104.748 73.994L104.098 74.933C104.089 74.9469 104.084 74.9633 104.084 74.98C104.084 74.9967 104.089 75.013 104.098 75.027L104.748 75.966L104.098 76.905C104.089 76.9189 104.084 76.9353 104.084 76.952C104.084 76.9687 104.089 76.985 104.098 76.999L104.748 77.938L104.098 78.877C104.089 78.8909 104.084 78.9073 104.084 78.924C104.084 78.9407 104.089 78.957 104.098 78.971L104.748 79.91L104.548 80.21H104.702L104.875 79.962C104.885 79.9475 104.891 79.9302 104.891 79.9125C104.891 79.8947 104.885 79.8774 104.875 79.863Z" fill="#222425"/>
<path d="M109.497 77.981C109.506 77.967 109.511 77.9507 109.511 77.934C109.511 77.9173 109.506 77.901 109.497 77.887L108.847 76.948L109.497 76.009C109.506 75.995 109.511 75.9787 109.511 75.962C109.511 75.9453 109.506 75.929 109.497 75.915L108.847 74.976L109.497 74.036C109.506 74.022 109.511 74.0057 109.511 73.989C109.511 73.9723 109.506 73.956 109.497 73.942L108.847 73.003L109.497 72.064C109.506 72.05 109.511 72.0337 109.511 72.017C109.511 72.0003 109.506 71.984 109.497 71.97L108.847 71.031L109.497 70.092C109.506 70.078 109.511 70.0617 109.511 70.045C109.511 70.0283 109.506 70.012 109.497 69.998L108.847 69.059L109.497 68.12C109.506 68.106 109.511 68.0897 109.511 68.073C109.511 68.0563 109.506 68.04 109.497 68.026L108.847 67.087L109.497 66.151C109.506 66.137 109.511 66.1207 109.511 66.104C109.511 66.0873 109.506 66.071 109.497 66.057L108.847 65.121L109.497 64.185C109.506 64.171 109.511 64.1547 109.511 64.138C109.511 64.1213 109.506 64.105 109.497 64.091L108.847 63.155L109.497 62.216C109.506 62.202 109.511 62.1857 109.511 62.169C109.511 62.1523 109.506 62.136 109.497 62.122L108.847 61.183L109.497 60.244C109.506 60.23 109.511 60.2137 109.511 60.197C109.511 60.1803 109.506 60.164 109.497 60.15L108.847 59.214L109.497 58.278C109.506 58.264 109.511 58.2477 109.511 58.231C109.511 58.2143 109.506 58.198 109.497 58.184L108.847 57.251L109.497 56.318C109.506 56.304 109.511 56.2877 109.511 56.271C109.511 56.2543 109.506 56.238 109.497 56.224L108.847 55.291L109.381 54.518C109.35 54.49 109.318 54.458 109.287 54.433L108.725 55.244C108.716 55.2579 108.711 55.2743 108.711 55.291C108.711 55.3077 108.716 55.3241 108.725 55.338L109.375 56.271L108.725 57.204C108.716 57.2179 108.711 57.2343 108.711 57.251C108.711 57.2677 108.716 57.2841 108.725 57.298L109.375 58.231L108.725 59.167C108.716 59.1809 108.711 59.1973 108.711 59.214C108.711 59.2307 108.716 59.2471 108.725 59.261L109.375 60.197L108.725 61.136C108.716 61.1499 108.711 61.1663 108.711 61.183C108.711 61.1997 108.716 61.2161 108.725 61.23L109.375 62.169L108.725 63.108C108.716 63.1219 108.711 63.1383 108.711 63.155C108.711 63.1717 108.716 63.1881 108.725 63.202L109.375 64.138L108.725 65.074C108.716 65.0879 108.711 65.1043 108.711 65.121C108.711 65.1377 108.716 65.1541 108.725 65.168L109.375 66.104L108.725 67.04C108.716 67.0539 108.711 67.0703 108.711 67.087C108.711 67.1037 108.716 67.1201 108.725 67.134L109.375 68.073L108.725 69.012C108.716 69.0259 108.711 69.0423 108.711 69.059C108.711 69.0757 108.716 69.0921 108.725 69.106L109.375 70.045L108.725 70.984C108.716 70.9979 108.711 71.0143 108.711 71.031C108.711 71.0477 108.716 71.0641 108.725 71.078L109.375 72.017L108.725 72.956C108.716 72.9699 108.711 72.9863 108.711 73.003C108.711 73.0197 108.716 73.0361 108.725 73.05L109.375 73.989L108.725 74.928C108.716 74.9419 108.711 74.9583 108.711 74.975C108.711 74.9917 108.716 75.0081 108.725 75.022L109.375 75.961L108.725 76.9C108.716 76.9139 108.711 76.9303 108.711 76.947C108.711 76.9637 108.716 76.9801 108.725 76.994L109.375 77.933L108.725 78.872C108.716 78.8859 108.711 78.9023 108.711 78.919C108.711 78.9357 108.716 78.9521 108.725 78.966L109.209 79.666C109.244 79.6414 109.277 79.615 109.309 79.587L108.85 78.921L109.497 77.981Z" fill="#222425"/>
<path d="M99.7027 53.835H99.3477V80.206H99.7027V53.835Z" fill="#222425"/>
<path d="M100.747 53.835H100.392V80.206H100.747V53.835Z" fill="#222425"/>
<path d="M106.456 53.835H106.101V80.206H106.456V53.835Z" fill="#222425"/>
<path d="M107.501 53.835H107.146V80.206H107.501V53.835Z" fill="#222425"/>
<path d="M96.7218 70.359C99.1602 69.7603 101.674 69.5244 104.181 69.659C106.317 69.6282 108.451 69.8155 110.55 70.218V56.995C110.55 56.5797 110.468 56.1684 110.309 55.7848C110.15 55.4011 109.916 55.0526 109.623 54.759C109.329 54.4655 108.98 54.2327 108.596 54.074C108.212 53.9153 107.801 53.8337 107.386 53.834H99.4618C98.6234 53.834 97.8194 54.167 97.2266 54.7598C96.6338 55.3526 96.3008 56.1566 96.3008 56.995V70.495C96.4388 70.447 96.5808 70.403 96.7218 70.359Z" fill="#4D4F51"/>
<path d="M97.4353 75.923L97.0713 67.873V76.287C97.0713 77.0344 97.3682 77.7511 97.8966 78.2796C98.4251 78.8081 99.1419 79.105 99.8893 79.105H106.951C107.044 79.1005 107.136 79.0911 107.228 79.077L100.25 78.741C99.8804 78.741 99.5141 78.6681 99.1723 78.5264C98.8306 78.3848 98.5201 78.1771 98.2587 77.9154C97.9973 77.6537 97.79 77.343 97.6487 77.0012C97.5074 76.6593 97.4349 76.2929 97.4353 75.923Z" fill="#4D4F51"/>
<path d="M67.5596 6.76399H57.4266C57.0858 6.76399 56.7589 6.6286 56.518 6.38762C56.277 6.14664 56.1416 5.81979 56.1416 5.47899V4.27899C56.1416 3.93818 56.277 3.61134 56.518 3.37036C56.7589 3.12937 57.0858 2.99399 57.4266 2.99399H67.5596C67.9004 2.99399 68.2272 3.12937 68.4682 3.37036C68.7092 3.61134 68.8446 3.93818 68.8446 4.27899V5.47899C68.8446 5.81979 68.7092 6.14664 68.4682 6.38762C68.2272 6.6286 67.9004 6.76399 67.5596 6.76399Z" fill="#989B9C"/>
<path d="M66.4885 6.39H58.0115C57.8703 6.39013 57.7305 6.36241 57.6 6.30843C57.4695 6.25446 57.3509 6.17528 57.2511 6.07543C57.1512 5.97558 57.0721 5.85702 57.0181 5.72654C56.9641 5.59605 56.9364 5.4562 56.9365 5.315V4.30699C56.9364 4.16579 56.9641 4.02594 57.0181 3.89545C57.0721 3.76497 57.1512 3.64641 57.2511 3.54656C57.3509 3.44671 57.4695 3.36753 57.6 3.31356C57.7305 3.25958 57.8703 3.23186 58.0115 3.232H66.4885C66.6297 3.23186 66.7696 3.25958 66.9001 3.31356C67.0305 3.36753 67.1491 3.44671 67.2489 3.54656C67.3488 3.64641 67.428 3.76497 67.482 3.89545C67.5359 4.02594 67.5637 4.16579 67.5635 4.30699V5.31599C67.5635 5.45712 67.5357 5.59686 67.4817 5.72723C67.4276 5.8576 67.3484 5.97604 67.2486 6.07578C67.1488 6.17553 67.0302 6.25461 66.8998 6.30853C66.7694 6.36244 66.6296 6.39013 66.4885 6.39Z" fill="#989B9C"/>
<path d="M62.3881 5.01397C62.4231 5.07697 62.4011 5.01397 62.4191 5.05197C62.4191 5.05197 62.4191 5.05197 62.4351 5.05797C62.513 5.0736 62.5932 5.0736 62.6711 5.05797C62.7544 5.04149 62.8343 5.0107 62.9071 4.96697C63.1116 4.84086 63.2898 4.67653 63.4321 4.48297C63.7196 4.0996 63.9512 3.6774 64.1201 3.22897H62.3701C62.3321 3.48997 62.3041 3.75097 62.2911 4.01497C62.2713 4.26737 62.2787 4.52116 62.3131 4.77197C62.3254 4.85604 62.3507 4.93769 62.3881 5.01397Z" fill="#989B9C"/>
<path d="M62.2496 5.16998C62.0448 5.16919 61.8486 5.0875 61.7038 4.9427C61.559 4.79791 61.4774 4.60175 61.4766 4.39698V1.48798C61.4774 1.28321 61.559 1.08705 61.7038 0.94226C61.8486 0.797466 62.0448 0.715771 62.2496 0.714981C62.4543 0.715771 62.6505 0.797466 62.7953 0.94226C62.9401 1.08705 63.0218 1.28321 63.0226 1.48798V4.39798C63.022 4.60274 62.9404 4.79894 62.7955 4.94364C62.6506 5.08833 62.4543 5.16972 62.2496 5.16998Z" fill="#989B9C"/>
<path d="M26.5623 14.104C26.5623 14.104 28.1273 11.314 28.7393 13.834C29.3513 16.354 27.5883 35.25 27.5883 35.25L26.3633 35.363C26.3633 35.363 28.4023 21.032 27.8633 18.154C27.3243 15.276 26.3633 15.364 26.3633 15.364L26.5623 14.104Z" fill="#989B9C"/>
<path d="M97.4464 14.104C97.4464 14.104 95.8814 11.314 95.2694 13.834C94.6574 16.354 96.4254 35.25 96.4254 35.25L97.6504 35.363C97.6504 35.363 95.6114 21.032 96.1504 18.154C96.6894 15.276 97.6504 15.364 97.6504 15.364L97.4464 14.104Z" fill="#989B9C"/>
<path d="M20.3939 28.9569C22.2087 27.1421 22.2087 24.1998 20.3939 22.3851C18.5791 20.5703 15.6368 20.5703 13.8221 22.3851C12.0073 24.1998 12.0073 27.1421 13.8221 28.9569C15.6368 30.7717 18.5791 30.7717 20.3939 28.9569Z" fill="#6E7172"/>
<path d="M18.6915 29.4829C20.8044 28.6077 21.8078 26.1853 20.9326 24.0724C20.0573 21.9595 17.635 20.9561 15.5221 21.8313C13.4092 22.7065 12.4058 25.1288 13.281 27.2418C14.1562 29.3547 16.5785 30.3581 18.6915 29.4829Z" fill="#989B9C"/>
<path opacity="0.58" d="M19.7292 25.794C19.0439 25.61 18.347 25.4723 17.6432 25.382C17.5017 25.3502 17.355 25.3497 17.2133 25.3806C17.0717 25.4115 16.9385 25.4731 16.8232 25.561C16.5904 25.8339 16.4076 26.1456 16.2832 26.482C16.1422 26.799 16.0322 27.136 15.8712 27.443C15.6452 27.873 15.3842 28.288 15.1512 28.716C15.0692 28.864 14.9912 29.016 14.9092 29.162C15.4956 29.5316 16.1655 29.7477 16.8573 29.7905C17.5491 29.8333 18.2406 29.7014 18.8681 29.4069C19.4955 29.1124 20.0388 28.6648 20.4479 28.1052C20.8571 27.5457 21.1188 26.8922 21.2092 26.205C20.7192 26.055 20.2282 25.904 19.7292 25.794Z" fill="#989B9C"/>
<path d="M17.127 25.411C18.176 26.379 19.1979 27.381 20.209 28.393C20.5141 28.0409 20.7585 27.6405 20.9319 27.208C19.6589 26.611 18.384 26.031 17.127 25.411Z" fill="#989B9C"/>
<path d="M16.9542 25.748C16.6772 24.375 16.4452 22.992 16.2252 21.61C15.7262 21.7194 15.2516 21.9197 14.8252 22.201C15.4972 23.407 16.1852 24.604 16.9542 25.748Z" fill="#989B9C"/>
<path d="M16.7285 25.562C16.7285 25.562 18.4565 29.882 19.9145 30.856C21.6572 31.8347 23.4609 32.7005 25.3145 33.448L25.6385 32.908C23.7389 32.1431 21.8813 31.2779 20.0735 30.316C18.952 28.7689 17.9412 27.1445 17.0485 25.455L16.7285 25.562Z" fill="#535657"/>
<path d="M108.296 30.2576C110.829 29.8464 112.549 27.4595 112.138 24.9262C111.727 22.3928 109.34 20.6725 106.807 21.0836C104.273 21.4947 102.553 23.8817 102.964 26.415C103.375 28.9483 105.762 30.6687 108.296 30.2576Z" fill="#6E7172"/>
<path d="M108.497 29.6797C110.723 29.1541 112.101 26.9236 111.575 24.6978C111.05 22.472 108.819 21.0938 106.594 21.6193C104.368 22.1449 102.99 24.3754 103.515 26.6012C104.041 28.8269 106.271 30.2052 108.497 29.6797Z" fill="#989B9C"/>
<path opacity="0.58" d="M104.928 25.795C105.614 25.611 106.31 25.4733 107.014 25.383C107.156 25.3512 107.302 25.3507 107.444 25.3816C107.586 25.4125 107.719 25.4741 107.834 25.562C108.067 25.8349 108.25 26.1466 108.374 26.483C108.515 26.8 108.625 27.137 108.786 27.444C109.012 27.874 109.273 28.289 109.506 28.717C109.588 28.865 109.666 29.017 109.748 29.163C109.162 29.5326 108.492 29.7487 107.8 29.7915C107.108 29.8343 106.417 29.7024 105.789 29.4079C105.162 29.1134 104.619 28.6658 104.209 28.1062C103.8 27.5467 103.539 26.8932 103.448 26.206C103.935 26.056 104.428 25.905 104.928 25.795Z" fill="#989B9C"/>
<path d="M107.533 25.412C106.484 26.38 105.462 27.382 104.451 28.394C104.145 28.0419 103.901 27.6414 103.728 27.209C104.996 26.612 106.271 26.032 107.533 25.412Z" fill="#989B9C"/>
<path d="M107.7 25.748C107.977 24.375 108.209 22.992 108.429 21.61C108.928 21.7193 109.403 21.9197 109.829 22.201C109.158 23.407 108.47 24.604 107.7 25.748Z" fill="#989B9C"/>
<path d="M107.927 25.563C107.927 25.563 106.199 29.883 104.741 30.857C102.998 31.8357 101.194 32.7015 99.3406 33.449L99.0166 32.909C100.916 32.1441 102.774 31.2789 104.582 30.317C105.702 28.7691 106.712 27.1448 107.606 25.456L107.927 25.563Z" fill="#535657"/>
<path d="M94.8642 4.77798C91.0242 0.824985 67.1072 0.353985 62.6142 0.296985V0.290985H61.8852V0.296985C57.3922 0.349985 33.4752 0.824985 29.6352 4.77798C25.3902 9.14198 20.7842 32.786 20.7842 32.786C20.7842 32.786 24.0582 35.331 31.5742 35.576C37.7862 35.776 56.0742 35.645 62.2502 35.595C68.4212 35.645 86.7142 35.777 92.9262 35.576C100.442 35.334 103.716 32.786 103.716 32.786C103.716 32.786 99.1092 9.14198 94.8642 4.77798ZM91.4642 35.108C85.5482 35.3 68.1252 35.174 62.2492 35.127C56.3702 35.177 38.9492 35.3 33.0342 35.108C25.8742 34.879 22.7542 32.453 22.7542 32.453C22.7542 32.453 27.1432 9.93398 31.1842 5.77699C34.8452 2.01299 57.6242 1.56099 61.9042 1.50999V1.50399H62.5982V1.50999C66.8772 1.55999 89.6542 2.00999 93.3152 5.77699C97.3562 9.93398 101.745 32.453 101.745 32.453C101.745 32.453 98.6252 34.879 91.4642 35.108Z" fill="#989B9C"/>
<path d="M94.8642 4.77798C91.0242 0.824985 67.1072 0.353985 62.6142 0.296985V0.290985H61.8852V0.296985C57.3922 0.349985 33.4752 0.824985 29.6352 4.77798C25.3902 9.14198 20.7842 32.786 20.7842 32.786C20.7842 32.786 24.0582 35.331 31.5742 35.576C37.7862 35.776 56.0742 35.645 62.2502 35.595C68.4212 35.645 86.7142 35.777 92.9262 35.576C100.442 35.334 103.716 32.786 103.716 32.786C103.716 32.786 99.1092 9.14198 94.8642 4.77798ZM91.4642 35.108C85.5482 35.3 68.1252 35.174 62.2492 35.127C56.3702 35.177 38.9492 35.3 33.0342 35.108C25.8742 34.879 22.7542 32.453 22.7542 32.453C22.7542 32.453 27.1432 9.93398 31.1842 5.77699C34.8452 2.01299 57.6242 1.56099 61.9042 1.50999V1.50399H62.5982V1.50999C66.8772 1.55999 89.6542 2.00999 93.3152 5.77699C97.3562 9.93398 101.745 32.453 101.745 32.453C101.745 32.453 98.6252 34.879 91.4642 35.108Z" fill="#A2A5A7"/>
<path d="M94.399 5.22098C90.613 1.32098 67.038 0.856982 62.608 0.802982V0.796982H61.892V0.802982C57.465 0.855982 33.892 1.32098 30.101 5.21798C25.919 9.51798 21.376 32.827 21.376 32.827C21.376 32.827 24.603 35.337 32.012 35.576C38.133 35.776 56.165 35.645 62.248 35.595C68.331 35.645 86.363 35.774 92.484 35.576C99.893 35.337 103.12 32.827 103.12 32.827C103.12 32.827 98.581 9.52198 94.399 5.22098ZM91.05 35.121C85.218 35.31 68.044 35.187 62.25 35.137C56.456 35.184 39.282 35.307 33.45 35.121C26.393 34.895 23.32 32.504 23.32 32.504C23.32 32.504 27.647 10.304 31.631 6.21098C35.238 2.49998 57.691 2.05698 61.908 2.01098V1.99698H62.59V2.00298C66.807 2.05298 89.26 2.50298 92.867 6.20298C96.851 10.303 101.178 32.496 101.178 32.496C101.178 32.496 98.107 34.888 91.05 35.118V35.121Z" fill="#A2A5A7"/>
<path d="M43.6426 35.683C50.7126 35.683 58.6176 35.626 62.2496 35.595C65.8816 35.626 73.7876 35.683 80.8566 35.683C73.7496 35.683 65.8906 35.623 62.2496 35.595C58.6116 35.623 50.7526 35.68 43.6426 35.683Z" fill="#4C5051"/>
<path d="M101.742 32.453C101.742 32.453 97.3529 9.934 93.3119 5.777C89.6539 2.014 66.8749 1.564 62.5949 1.514V1.504H61.9009V1.514C57.6219 1.564 34.8449 2.014 31.1839 5.781C27.1429 9.934 22.7539 32.453 22.7539 32.453C22.7539 32.453 25.8709 34.879 33.0319 35.108C33.5159 35.124 34.0849 35.136 34.7129 35.149C34.2829 35.14 33.8869 35.13 33.5349 35.118C26.4969 34.892 23.4349 32.507 23.4349 32.507C23.4349 32.507 27.7489 10.374 31.7209 6.29C35.3209 2.59 57.7059 2.149 61.9099 2.095V2.088H62.5919V2.094C66.7919 2.144 89.1859 2.587 92.7809 6.289C96.7529 10.374 101.067 32.506 101.067 32.506C101.067 32.506 98.0029 34.891 90.9669 35.117C90.6149 35.13 90.2189 35.139 89.7889 35.148C90.4139 35.135 90.9829 35.123 91.4699 35.107C98.6249 34.879 101.742 32.453 101.742 32.453Z" fill="#4C5051"/>
<path d="M94.8642 4.77798C91.0242 0.824985 67.1072 0.353985 62.6142 0.296985V0.290985H61.8852V0.296985C57.3922 0.349985 33.4752 0.824985 29.6352 4.77798C25.3902 9.14198 20.7842 32.786 20.7842 32.786C20.7842 32.786 24.0582 35.331 31.5742 35.576C34.1222 35.658 38.7002 35.686 43.6432 35.683C38.9082 35.683 34.5502 35.655 32.0992 35.576C24.7122 35.337 21.4912 32.836 21.4912 32.836C21.4912 32.836 26.0222 9.59698 30.1912 5.30898C33.9682 1.42198 57.4732 0.956985 61.8912 0.903985V0.896985H62.6072V0.902985C67.0222 0.955985 90.5302 1.42099 94.3072 5.30299C98.4762 9.59199 103.007 32.83 103.007 32.83C103.007 32.83 99.7902 35.33 92.3992 35.57C89.9512 35.649 85.5902 35.677 80.8552 35.677C85.7972 35.677 90.3752 35.652 92.9242 35.57C100.44 35.328 103.714 32.78 103.714 32.78C103.714 32.78 99.1092 9.14198 94.8642 4.77798Z" fill="#A2A5A7"/>
<path d="M62.2528 35.127C56.8578 35.171 41.7388 35.281 34.7158 35.149C41.3868 35.29 56.8268 35.18 62.2528 35.136C67.6788 35.18 83.1158 35.293 89.7898 35.149C82.7668 35.278 67.6448 35.171 62.2528 35.127Z" fill="#A2A5A7"/>
<path d="M103.004 32.837C103.004 32.837 98.4761 9.59799 94.3041 5.30999C90.5311 1.42199 67.0221 0.956988 62.6041 0.902988V0.896988H61.8881V0.902988C57.4731 0.955988 33.9681 1.42099 30.1881 5.30799C26.0251 9.59699 21.4941 32.837 21.4941 32.837C21.4941 32.837 24.7111 35.337 32.1021 35.577C34.5501 35.656 38.9111 35.684 43.6461 35.684C50.7531 35.684 58.6121 35.624 62.2531 35.596C65.8951 35.627 73.7531 35.684 80.8601 35.684C85.5951 35.684 89.9601 35.656 92.4041 35.577C99.7871 35.337 103.004 32.837 103.004 32.837ZM62.2491 35.137C56.8231 35.181 41.3861 35.294 34.7121 35.15C34.0871 35.137 33.5181 35.125 33.0311 35.109C25.8701 34.88 22.7531 32.454 22.7531 32.454C22.7531 32.454 27.1431 9.93699 31.1841 5.77699C34.8441 2.01299 57.6241 1.56399 61.9041 1.50999V1.50299H62.5981V1.50899C66.8771 1.55899 89.6541 2.00899 93.3151 5.77599C97.3561 9.93299 101.745 32.452 101.745 32.452C101.745 32.452 98.6282 34.878 91.4671 35.107C90.9831 35.123 90.4141 35.135 89.7861 35.148C83.1131 35.29 67.6761 35.18 62.2491 35.137Z" fill="#A2A5A7"/>
<path opacity="0.52" d="M95.411 9.35599C95.6573 10.4387 95.8472 11.5335 95.98 12.636C96.417 16.378 96.011 20.582 93.649 23.671C91.626 26.317 88.449 27.639 85.294 28.378C83.638 28.764 81.957 28.984 80.273 29.223C78.0203 29.5437 75.7613 29.8103 73.496 30.023C68.808 30.4723 64.108 30.7057 59.396 30.723C54.6547 30.7495 49.9152 30.5336 45.196 30.076C42.918 29.8527 40.6463 29.5637 38.381 29.209C36.4963 28.9744 34.6485 28.504 32.881 27.809C31.6706 27.3419 30.5785 26.613 29.6828 25.6744C28.7871 24.7359 28.11 23.6109 27.7 22.38C27.0613 19.7694 27.0442 17.0454 27.65 14.427C27.823 13.427 28.03 12.444 28.25 11.458C25.271 19.533 22.75 32.447 22.75 32.447C22.75 32.447 25.867 34.873 33.028 35.102C38.944 35.294 56.367 35.168 62.243 35.121C68.122 35.171 85.543 35.294 91.458 35.102C98.619 34.873 101.736 32.447 101.736 32.447C101.736 32.447 98.739 17.029 95.411 9.35599Z" fill="#A3A5A8"/>
<path d="M120.233 59.339C121.446 54.733 124.962 42.972 123.749 39.456C122.536 35.94 109.805 31.456 103.866 31.211C101.516 30.9084 99.1283 31.2438 96.9529 32.182C96.9529 32.182 94.6529 32.666 92.7079 32.911C91.1209 33.111 70.8739 32.983 63.5589 32.93V32.911L62.2519 32.92L60.9449 32.911V32.93C53.6299 32.983 33.3829 33.109 31.7959 32.911C29.8569 32.669 27.5509 32.182 27.5509 32.182C25.3758 31.244 22.9883 30.9086 20.6389 31.211C14.6969 31.453 1.9659 35.94 0.755904 39.456C-0.454096 42.972 3.0559 54.733 4.2719 59.339C5.4879 63.945 3.1819 65.281 3.1819 65.281H121.328C121.328 65.281 119.02 63.946 120.233 59.339Z" fill="#F3B755"/>
<path d="M123.721 44.641C123.338 45.8 121.198 51.953 117.478 56.329C113.356 61.18 104.378 61.784 102.808 61.422C101.238 61.06 105.353 50.874 104.021 48.571C102.689 46.268 97.1081 43.842 68.6211 43.842C40.1341 43.842 27.1591 45.778 22.9141 46.99C18.6691 48.202 20.1241 51.477 20.1241 51.477C20.1241 51.477 21.8241 58.267 21.7611 60.077C21.6981 61.887 14.0611 60.448 8.60508 59.722C5.56708 59.317 3.47108 55.153 2.20508 51.543C2.96508 54.622 3.79508 57.532 4.26908 59.343C5.48208 63.949 3.17908 65.285 3.17908 65.285H121.323C121.323 65.285 119.023 63.953 120.233 59.343C121.649 54.5058 122.813 49.5986 123.721 44.641Z" fill="#363739"/>
<path d="M7.17285 35.91C7.17285 35.91 12.7529 35.326 15.9359 38.688C19.1189 42.05 17.6169 47.197 19.8759 46.933C23.5139 46.509 26.2669 41.092 34.4519 41.001C42.6369 40.91 89.3749 41.001 89.3749 41.001C89.3749 41.001 95.6499 41.639 95.5589 39.728L89.3749 33.636C89.3749 33.636 92.7399 38.091 89.7389 39.003C86.7379 39.915 37.2699 39.003 37.2699 39.003C37.2699 39.003 31.1779 39.459 33.1789 37.366C35.1799 35.273 36.3619 33.093 34.6339 34.183C32.9059 35.273 29.1789 37.457 28.9059 35.364C28.6329 33.271 24.4509 31.364 19.6309 32.09C14.8109 32.816 7.17285 35.91 7.17285 35.91Z" fill="#CE9840"/>
<path d="M99.5925 43.092C99.5925 43.092 104.446 46.992 107.083 39.992C108.246 36.907 114.504 35.335 118.383 36.545C122.262 37.755 107.232 31.078 102.261 31.445C97.2905 31.812 95.8295 34.606 93.1615 34.122C90.4935 33.638 96.9195 36.667 98.2545 39.093C99.0022 40.3053 99.4601 41.6738 99.5925 43.092Z" fill="#CE9840"/>
<path d="M28.5367 59.232C28.5024 59.2318 28.4695 59.2188 28.4445 59.1954C28.4195 59.1721 28.4042 59.1401 28.4017 59.106C28.3487 58.559 27.1287 45.706 27.3117 43.622C27.5224 42.157 28.1312 40.7779 29.0717 39.635L35.2647 33.803C35.2777 33.7903 35.2932 33.7804 35.3102 33.7739C35.3271 33.7673 35.3452 33.7642 35.3634 33.7648C35.3816 33.7653 35.3995 33.7695 35.416 33.7771C35.4325 33.7847 35.4474 33.7956 35.4597 33.809C35.4724 33.8217 35.4823 33.8369 35.4889 33.8537C35.4955 33.8704 35.4987 33.8883 35.4981 33.9063C35.4975 33.9243 35.4933 33.9419 35.4857 33.9582C35.478 33.9745 35.4671 33.9891 35.4537 34.001L29.2697 39.82C28.3791 40.9227 27.7979 42.2425 27.5857 43.644C27.4067 45.699 28.6637 58.944 28.6757 59.078C28.6788 59.1142 28.6677 59.1502 28.6447 59.1784C28.6218 59.2066 28.5887 59.2247 28.5527 59.229C28.5476 59.2313 28.5422 59.2323 28.5367 59.232Z" fill="#222532"/>
<path d="M97.5432 59.233H97.5302C97.4939 59.2292 97.4606 59.2112 97.4376 59.1829C97.4145 59.1546 97.4036 59.1183 97.4073 59.082C97.4203 58.947 98.6763 45.703 98.4973 43.648C98.2829 42.2415 97.6959 40.918 96.7972 39.815L90.6233 34.005C90.6102 33.9928 90.5996 33.9782 90.5922 33.9619C90.5848 33.9457 90.5807 33.9281 90.5801 33.9102C90.5796 33.8924 90.5826 33.8746 90.5889 33.8579C90.5953 33.8412 90.6049 33.8259 90.6173 33.813C90.6423 33.7864 90.6769 33.7708 90.7135 33.7696C90.7501 33.7685 90.7856 33.7819 90.8123 33.807L96.9963 39.626C97.9425 40.7713 98.5546 42.1554 98.7653 43.626C98.9443 45.706 97.7252 58.563 97.6752 59.11C97.6721 59.1431 97.6569 59.1739 97.6326 59.1965C97.6083 59.2192 97.5765 59.2322 97.5432 59.233Z" fill="#222532"/>
<path opacity="0.4" d="M35.7882 43.83C40.1332 43.685 92.6532 43.83 92.6532 43.83C92.6532 43.83 97.3632 43.685 96.2762 42.818C95.1892 41.951 30.9092 42.988 30.9092 42.988C30.9092 42.988 31.4422 43.974 35.7882 43.83Z" fill="white"/>
<path d="M30.4107 32.752C31.3231 33.4384 32.2997 34.0352 33.3267 34.534C34.4413 35.0295 35.6325 35.3302 36.8487 35.423C39.4567 35.662 49.8487 35.115 52.4297 35.223C52.5927 35.229 77.9557 35.836 81.0757 35.679C82.6311 35.6003 84.1844 35.4913 85.7357 35.352C87.2683 35.2816 88.7917 35.0775 90.2887 34.742C91.6678 34.3113 92.9989 33.7396 94.2607 33.036C94.6187 32.854 94.9807 32.678 95.3387 32.499C94.5567 32.64 93.5977 32.799 92.7117 32.914C91.1247 33.114 70.8777 32.986 63.5627 32.933V32.914L62.2557 32.923L60.9487 32.914V32.933C53.6337 32.986 33.3867 33.112 31.7997 32.914C31.3217 32.854 30.8257 32.779 30.3447 32.703L30.4107 32.752Z" fill="#363739"/>
<path d="M103.084 50.033C102.6 47.378 97.9339 46.976 97.9339 46.976C86.2019 44.968 64.0339 45.034 62.2499 45.044C60.4679 45.035 38.2979 44.969 26.5659 46.976C26.5659 46.976 21.8999 47.376 21.4159 50.033C20.9319 52.69 22.7829 60.571 26.2419 61.376C28.9939 62.017 52.6849 61.945 62.2419 61.888C71.8059 61.945 95.4939 62.017 98.2419 61.376C101.714 60.575 103.565 52.689 103.084 50.033Z" fill="#A2A5A7"/>
<path d="M98.1539 50.491C97.7299 48.537 93.6259 48.241 93.6259 48.241C83.3109 46.764 63.8169 46.811 62.2499 46.818C60.6829 46.825 41.1919 46.761 30.8739 48.241C30.8739 48.241 26.7739 48.541 26.3459 50.491C25.9179 52.441 27.5459 58.252 30.5909 58.843C33.0099 59.314 53.8389 59.261 62.2499 59.22C70.6579 59.261 91.4869 59.314 93.9089 58.843C96.9509 58.252 98.5779 52.446 98.1539 50.491Z" fill="#101113"/>
<path d="M22.8077 50.075C22.8077 50.075 21.7837 50.075 22.0847 51.583C22.3857 53.091 23.3507 57.858 24.9847 57.858C26.6187 57.858 26.9847 57.198 26.4327 55.385C25.6467 52.785 25.3177 50.474 24.8647 50.075C24.3757 49.654 22.8077 50.075 22.8077 50.075Z" fill="#828486"/>
<path d="M25.3278 56.651C23.8858 56.651 23.0278 52.428 22.7638 51.093C22.7104 50.9227 22.6917 50.7435 22.7089 50.5658C22.7261 50.3882 22.7788 50.2159 22.8638 50.059L22.8038 50.075C22.8038 50.075 21.7798 50.075 22.0808 51.583C22.3818 53.091 23.3468 57.858 24.9808 57.858C26.3198 57.858 26.8028 57.409 26.6308 56.246C26.4572 56.4059 26.2503 56.5252 26.0249 56.5953C25.7995 56.6653 25.5614 56.6843 25.3278 56.651Z" fill="#545758"/>
<path d="M22.7633 51.095C23.0303 52.43 23.8853 56.653 25.3273 56.653C25.5605 56.6867 25.7983 56.6678 26.0232 56.5977C26.2481 56.5276 26.4546 56.4082 26.6273 56.248C26.5828 55.9563 26.516 55.6685 26.4273 55.387C25.6413 52.787 25.3123 50.476 24.8593 50.077C24.4323 49.703 23.1593 49.989 22.8673 50.061C22.7826 50.2179 22.7297 50.3901 22.7119 50.5676C22.694 50.7451 22.7115 50.9243 22.7633 51.095Z" fill="#232526"/>
<path d="M101.674 50.075C101.674 50.075 102.698 50.075 102.397 51.583C102.096 53.091 101.131 57.858 99.4968 57.858C97.8628 57.858 97.4968 57.198 98.0488 55.385C98.8348 52.785 99.1638 50.474 99.6168 50.075C100.103 49.654 101.674 50.075 101.674 50.075Z" fill="#828486"/>
<path d="M99.1499 56.651C100.592 56.651 101.45 52.428 101.714 51.093C101.767 50.9227 101.786 50.7435 101.769 50.5658C101.752 50.3882 101.699 50.2159 101.614 50.059L101.674 50.075C101.674 50.075 102.698 50.075 102.397 51.583C102.096 53.091 101.131 57.858 99.4969 57.858C98.1579 57.858 97.6749 57.409 97.8469 56.246C98.0205 56.4059 98.2274 56.5252 98.4528 56.5953C98.6782 56.6653 98.9163 56.6843 99.1499 56.651Z" fill="#545758"/>
<path d="M101.715 51.095C101.448 52.43 100.593 56.653 99.1506 56.653C98.9174 56.6867 98.6796 56.6678 98.4547 56.5977C98.2298 56.5276 98.0234 56.4082 97.8506 56.248C97.8964 55.9565 97.9633 55.6688 98.0506 55.387C98.8356 52.787 99.1656 50.476 99.6186 50.077C100.046 49.703 101.319 49.989 101.611 50.061C101.697 50.2173 101.751 50.3896 101.769 50.5673C101.787 50.7451 101.768 50.9246 101.715 51.095Z" fill="#232526"/>
<mask id="mask0_332_4676" style="mask-type:luminance" maskUnits="userSpaceOnUse" x="26" y="46" width="73" height="14">
<path d="M98.1539 50.491C97.7299 48.537 93.6259 48.241 93.6259 48.241C83.3109 46.764 63.8169 46.811 62.2499 46.818C60.6829 46.825 41.1919 46.761 30.8739 48.241C30.8739 48.241 26.7739 48.541 26.3459 50.491C25.9179 52.441 27.5459 58.252 30.5909 58.843C33.0099 59.314 53.8389 59.261 62.2499 59.22C70.6579 59.261 91.4869 59.314 93.9089 58.843C96.9509 58.252 98.5779 52.446 98.1539 50.491Z" fill="white"/>
</mask>
<g mask="url(#mask0_332_4676)">
<path d="M99.4683 47.079V46.715H94.4883V45.769H94.1243V46.715H92.3683V45.851H91.9993V46.715H90.2433V45.851H89.8793V46.715H88.1233V45.769H87.7593V46.715H85.9993V45.769H85.6353V46.715H83.8793V45.851H83.5153V46.715H81.7593V45.851H81.3993V46.715H79.6433V45.769H79.2793V46.715H77.5233V45.769H77.1593V46.715H75.3993V45.851H75.0353V46.715H73.2793V45.851H72.9153V46.715H71.1593V45.769H70.7953V46.715H69.0393V45.769H68.6753V46.715H66.9193V45.851H66.5553V46.715H64.7993V45.851H64.4353V46.715H62.6793V45.769H62.3153V46.715H60.5593V45.769H60.1953V46.715H58.4393V45.851H58.0753V46.715H56.3193V45.851H55.9553V46.715H54.1993V45.769H53.8353V46.715H52.0793V45.769H51.7153V46.715H49.9493V45.851H49.5853V46.715H47.8293V45.851H47.4653V46.715H45.7093V45.769H45.3453V46.715H43.5893V45.769H43.2253V46.715H41.4693V45.851H41.0993V46.715H39.3453V45.851H38.9813V46.715H37.2243V45.769H36.8593V46.715H35.0993V45.769H34.7353V46.715H32.9823V45.851H32.6183V46.715H30.8613V45.851H30.4993V46.715H25.5293V47.079H30.5093V47.692H25.5293V48.056H30.5093V48.669H25.5293V49.033H30.5093V49.646H25.5293V50.01H30.5093V50.623H25.5293V50.987H30.5093V51.6H25.5293V51.964H30.5093V52.577H25.5293V52.941H30.5093V53.554H25.5293V53.919H30.5093V54.519H25.5293V54.883H30.5093V55.496H25.5293V55.86H30.5093V56.473H25.5293V56.837H30.5093V57.45H25.5293V57.808H30.5093V58.421H25.5293V58.785H30.5093V61.453H30.8733V58.785H32.6293V61.453H32.9993V58.785H34.7553V61.374H35.1193V58.785H36.8753V61.374H37.2393V58.785H38.9953V61.453H39.3593V58.785H41.1153V61.453H41.4793V58.785H43.2353V61.374H43.5993V58.785H45.3553V61.374H45.7193V58.785H47.4753V61.453H47.8393V58.785H49.5993V61.453H49.9633V58.785H51.7193V61.374H52.0833V58.785H53.8393V61.374H54.2033V58.785H55.9593V61.453H56.3233V58.785H58.0793V61.453H58.4433V58.785H60.1993V61.374H60.5633V58.785H62.3193V61.374H62.6833V58.785H64.4393V61.453H64.8033V58.785H66.5593V61.453H66.9233V58.785H68.6793V61.374H69.0433V58.785H70.7993V61.374H71.1633V58.785H72.9193V61.453H73.2833V58.785H75.0393V61.453H75.4033V58.785H77.1593V61.374H77.5233V58.785H79.2793V61.374H79.6433V58.785H81.3993V61.453H81.7633V58.785H83.5193V61.453H83.8833V58.785H85.6393V61.374H86.0033V58.785H87.7593V61.374H88.1233V58.785H89.8793V61.453H90.2433V58.785H91.9993V61.453H92.3633V58.785H94.1193V61.374H94.4833V58.785H99.4633V58.421H94.4703V57.808H99.4503V57.444H94.4703V56.831H99.4503V56.467H94.4703V55.854H99.4503V55.49H94.4703V54.877H99.4503V54.513H94.4703V53.913H99.4503V53.549H94.4703V52.936H99.4503V52.572H94.4703V51.959H99.4503V51.599H94.4703V50.986H99.4503V50.622H94.4703V50.009H99.4503V49.645H94.4703V49.032H99.4503V48.668H94.4703V48.055H99.4503V47.691H94.4703V47.078H99.4503L99.4683 47.079ZM92.0033 47.079V47.692H90.2473V47.079H92.0033ZM79.2813 52.579H77.5253V51.966H79.2813V52.579ZM79.6453 51.963H81.3993V52.576H79.6433L79.6453 51.963ZM77.1603 52.579H75.3993V51.966H77.1553L77.1603 52.579ZM75.0393 52.579H73.2833V51.966H75.0393V52.579ZM72.9183 52.579H71.1623V51.966H72.9183V52.579ZM70.8003 52.579H69.0443V51.966H70.7993L70.8003 52.579ZM68.6793 52.579H66.9233V51.966H68.6793V52.579ZM66.5583 52.579H64.7993V51.966H66.5553L66.5583 52.579ZM64.4373 52.579H62.6813V51.966H64.4373V52.579ZM62.3163 52.579H60.5603V51.966H62.3163V52.579ZM60.1953 52.579H58.4393V51.966H60.1993L60.1953 52.579ZM58.0773 52.579H56.3213V51.966H58.0773V52.579ZM55.9563 52.579H54.1993V51.966H55.9553L55.9563 52.579ZM53.8353 52.579H52.0793V51.966H53.8353V52.579ZM51.7143 52.579H49.9583V51.966H51.7143V52.579ZM49.5933 52.579H47.8373V51.966H49.5933V52.579ZM47.4753 52.579H45.7193V51.966H47.4753V52.579ZM45.3543 52.579H43.5993V51.966H45.3553L45.3543 52.579ZM43.2333 52.579H41.4773V51.966H43.2333V52.579ZM43.2333 52.94V53.553H41.4773V52.94H43.2333ZM43.5973 52.94H45.3533V53.553H43.5993L43.5973 52.94ZM45.7153 52.94H47.4713V53.553H45.7153V52.94ZM47.8363 52.94H49.5923V53.553H47.8363V52.94ZM49.9573 52.94H51.7133V53.553H49.9573V52.94ZM52.0783 52.94H53.8343V53.553H52.0793L52.0783 52.94ZM54.1993 52.94H55.9553V53.553H54.1993V52.94ZM56.3203 52.94H58.0763V53.553H56.3203V52.94ZM58.4383 52.94H60.1993V53.553H58.4393L58.4383 52.94ZM60.5593 52.94H62.3153V53.553H60.5593V52.94ZM62.6803 52.94H64.4363V53.553H62.6803V52.94ZM64.8013 52.94H66.5573V53.553H64.7993L64.8013 52.94ZM66.9223 52.94H68.6783V53.553H66.9223V52.94ZM69.0433 52.94H70.7993V53.553H69.0433V52.94ZM71.1613 52.94H72.9173V53.553H71.1613V52.94ZM73.2823 52.94H75.0383V53.553H73.2823V52.94ZM75.4033 52.94H77.1593V53.553H75.3993L75.4033 52.94ZM77.5243 52.94H79.2803V53.553H77.5243V52.94ZM79.6453 52.94H81.3993V53.553H79.6433L79.6453 52.94ZM81.7663 52.94H83.5223V53.553H81.7663V52.94ZM81.7663 52.579V51.966H83.5223V52.579H81.7663ZM81.7663 51.602V50.989H83.5223V51.602H81.7663ZM81.4023 51.602H79.6463V50.989H81.3993L81.4023 51.602ZM79.2813 51.602H77.5253V50.989H79.2813V51.602ZM77.1603 51.602H75.3993V50.989H77.1553L77.1603 51.602ZM75.0393 51.602H73.2833V50.989H75.0393V51.602ZM72.9183 51.602H71.1623V50.989H72.9183V51.602ZM70.8003 51.602H69.0443V50.989H70.7993L70.8003 51.602ZM68.6793 51.602H66.9233V50.989H68.6793V51.602ZM66.5583 51.602H64.7993V50.989H66.5553L66.5583 51.602ZM64.4373 51.602H62.6813V50.989H64.4373V51.602ZM62.3163 51.602H60.5603V50.989H62.3163V51.602ZM60.1953 51.602H58.4393V50.989H60.1993L60.1953 51.602ZM58.0773 51.602H56.3213V50.989H58.0773V51.602ZM55.9563 51.602H54.1993V50.989H55.9553L55.9563 51.602ZM53.8353 51.602H52.0793V50.989H53.8353V51.602ZM51.7143 51.602H49.9583V50.989H51.7143V51.602ZM49.5933 51.602H47.8373V50.989H49.5933V51.602ZM47.4753 51.602H45.7193V50.989H47.4753V51.602ZM45.3543 51.602H43.5993V50.989H45.3553L45.3543 51.602ZM43.2333 51.602H41.4773V50.989H43.2333V51.602ZM41.1123 51.602H39.3573V50.989H41.1133L41.1123 51.602ZM41.1123 51.963V52.576H39.3573V51.963H41.1123ZM41.1123 52.94V53.553H39.3573V52.94H41.1123ZM41.1123 53.917V54.517H39.3573V53.917H41.1123ZM41.4763 53.917H43.2323V54.517H41.4763V53.917ZM43.5973 53.917H45.3533V54.517H43.5993L43.5973 53.917ZM45.7153 53.917H47.4713V54.517H45.7153V53.917ZM47.8363 53.917H49.5923V54.517H47.8363V53.917ZM49.9573 53.917H51.7133V54.517H49.9573V53.917ZM52.0783 53.917H53.8343V54.517H52.0793L52.0783 53.917ZM54.1993 53.917H55.9553V54.517H54.1993V53.917ZM56.3203 53.917H58.0763V54.517H56.3203V53.917ZM58.4383 53.917H60.1993V54.517H58.4393L58.4383 53.917ZM60.5593 53.917H62.3153V54.517H60.5593V53.917ZM62.6803 53.917H64.4363V54.517H62.6803V53.917ZM64.8013 53.917H66.5573V54.517H64.7993L64.8013 53.917ZM66.9223 53.917H68.6783V54.517H66.9223V53.917ZM69.0433 53.917H70.7993V54.517H69.0433V53.917ZM71.1613 53.917H72.9173V54.517H71.1613V53.917ZM73.2823 53.917H75.0383V54.517H73.2823V53.917ZM75.4033 53.917H77.1593V54.517H75.3993L75.4033 53.917ZM77.5243 53.917H79.2803V54.517H77.5243V53.917ZM79.6453 53.917H81.3993V54.517H79.6433L79.6453 53.917ZM81.7663 53.917H83.5223V54.517H81.7663V53.917ZM83.8843 53.917H85.6403V54.517H83.8843V53.917ZM83.8843 53.553V52.94H85.6403V53.553H83.8843ZM83.8843 52.579V51.966H85.6403V52.579H83.8843ZM83.8843 51.602V50.989H85.6403V51.602H83.8843ZM83.8843 50.625V50.012H85.6403V50.625H83.8843ZM83.5233 50.625H81.7673V50.012H83.5233V50.625ZM81.4023 50.625H79.6463V50.012H81.3993L81.4023 50.625ZM79.2813 50.625H77.5253V50.012H79.2813V50.625ZM77.1603 50.625H75.3993V50.012H77.1553L77.1603 50.625ZM75.0393 50.625H73.2833V50.012H75.0393V50.625ZM72.9183 50.625H71.1623V50.012H72.9183V50.625ZM70.8003 50.625H69.0443V50.012H70.7993L70.8003 50.625ZM68.6793 50.625H66.9233V50.012H68.6793V50.625ZM66.5583 50.625H64.7993V50.012H66.5553L66.5583 50.625ZM64.4373 50.625H62.6813V50.012H64.4373V50.625ZM62.3163 50.625H60.5603V50.012H62.3163V50.625ZM60.1953 50.625H58.4393V50.012H60.1993L60.1953 50.625ZM58.0773 50.625H56.3213V50.012H58.0773V50.625ZM55.9563 50.625H54.1993V50.012H55.9553L55.9563 50.625ZM53.8353 50.625H52.0793V50.012H53.8353V50.625ZM51.7143 50.625H49.9583V50.012H51.7143V50.625ZM49.5933 50.625H47.8373V50.012H49.5933V50.625ZM47.4753 50.625H45.7193V50.012H47.4753V50.625ZM45.3543 50.625H43.5993V50.012H45.3553L45.3543 50.625ZM43.2333 50.625H41.4773V50.012H43.2333V50.625ZM41.1123 50.625H39.3573V50.012H41.1133L41.1123 50.625ZM38.9913 50.625H37.2363V50.012H38.9923L38.9913 50.625ZM38.9913 50.986V51.599H37.2363V50.986H38.9913ZM38.9913 51.963V52.576H37.2363V51.963H38.9913ZM38.9913 52.94V53.553H37.2363V52.94H38.9913ZM38.9913 53.917V54.517H37.2363V53.917H38.9913ZM38.9913 54.882V55.495H37.2363V54.882H38.9913ZM39.3553 54.882H41.1113V55.495H39.3573L39.3553 54.882ZM41.4763 54.882H43.2323V55.495H41.4763V54.882ZM43.5973 54.882H45.3533V55.495H43.5993L43.5973 54.882ZM45.7153 54.882H47.4713V55.495H45.7153V54.882ZM47.8363 54.882H49.5923V55.495H47.8363V54.882ZM49.9573 54.882H51.7133V55.495H49.9573V54.882ZM52.0783 54.882H53.8343V55.495H52.0793L52.0783 54.882ZM54.1993 54.882H55.9553V55.495H54.1993V54.882ZM56.3203 54.882H58.0763V55.495H56.3203V54.882ZM58.4383 54.882H60.1993V55.495H58.4393L58.4383 54.882ZM60.5593 54.882H62.3153V55.495H60.5593V54.882ZM62.6803 54.882H64.4363V55.495H62.6803V54.882ZM64.8013 54.882H66.5573V55.495H64.7993L64.8013 54.882ZM66.9223 54.882H68.6783V55.495H66.9223V54.882ZM69.0433 54.882H70.7993V55.495H69.0433V54.882ZM71.1613 54.882H72.9173V55.495H71.1613V54.882ZM73.2823 54.882H75.0383V55.495H73.2823V54.882ZM75.4033 54.882H77.1593V55.495H75.3993L75.4033 54.882ZM77.5243 54.882H79.2803V55.495H77.5243V54.882ZM79.6453 54.882H81.3993V55.495H79.6433L79.6453 54.882ZM81.7663 54.882H83.5223V55.495H81.7663V54.882ZM83.8843 54.882H85.6403V55.495H83.8843V54.882ZM86.0053 54.882H87.7613V55.495H85.9993L86.0053 54.882ZM86.0053 54.521V53.921H87.7613V54.521H86.0053ZM86.0053 53.553V52.94H87.7613V53.553H86.0053ZM86.0053 52.579V51.966H87.7613V52.579H86.0053ZM86.0053 51.602V50.989H87.7613V51.602H86.0053ZM86.0053 50.625V50.012H87.7613V50.625H86.0053ZM86.0053 49.648V49.035H87.7613V49.648H86.0053ZM85.6413 49.648H83.8853V49.035H85.6413V49.648ZM83.5233 49.648H81.7673V49.035H83.5233V49.648ZM81.4023 49.648H79.6463V49.035H81.3993L81.4023 49.648ZM79.2813 49.648H77.5253V49.035H79.2813V49.648ZM77.1603 49.648H75.3993V49.035H77.1553L77.1603 49.648ZM75.0393 49.648H73.2833V49.035H75.0393V49.648ZM72.9183 49.648H71.1623V49.035H72.9183V49.648ZM70.8003 49.648H69.0443V49.035H70.7993L70.8003 49.648ZM68.6793 49.648H66.9233V49.035H68.6793V49.648ZM66.5583 49.648H64.7993V49.035H66.5553L66.5583 49.648ZM64.4373 49.648H62.6813V49.035H64.4373V49.648ZM62.3163 49.648H60.5603V49.035H62.3163V49.648ZM60.1953 49.648H58.4393V49.035H60.1993L60.1953 49.648ZM58.0773 49.648H56.3213V49.035H58.0773V49.648ZM55.9563 49.648H54.1993V49.035H55.9553L55.9563 49.648ZM53.8353 49.648H52.0793V49.035H53.8353V49.648ZM51.7143 49.648H49.9583V49.035H51.7143V49.648ZM49.5933 49.648H47.8373V49.035H49.5933V49.648ZM47.4753 49.648H45.7193V49.035H47.4753V49.648ZM45.3543 49.648H43.5993V49.035H45.3553L45.3543 49.648ZM43.2333 49.648H41.4773V49.035H43.2333V49.648ZM41.1123 49.648H39.3573V49.035H41.1133L41.1123 49.648ZM38.9913 49.648H37.2363V49.035H38.9923L38.9913 49.648ZM36.8703 49.648H35.1153V49.035H36.8713L36.8703 49.648ZM36.8703 50.009V50.622H35.1153V50.009H36.8703ZM36.8703 50.986V51.599H35.1153V50.986H36.8703ZM36.8703 51.963V52.576H35.1153V51.963H36.8703ZM36.8703 52.94V53.553H35.1153V52.94H36.8703ZM36.8703 53.917V54.517H35.1153V53.917H36.8703ZM36.8703 54.882V55.495H35.1153V54.882H36.8703ZM36.8703 55.859V56.472H35.1153V55.859H36.8703ZM37.2343 55.859H38.9903V56.472H37.2363V55.859H37.2343ZM39.3553 55.859H41.1113V56.472H39.3573L39.3553 55.859ZM41.4763 55.859H43.2323V56.472H41.4763V55.859ZM43.5973 55.859H45.3533V56.472H43.5993L43.5973 55.859ZM45.7153 55.859H47.4713V56.472H45.7153V55.859ZM47.8363 55.859H49.5923V56.472H47.8363V55.859ZM49.9573 55.859H51.7133V56.472H49.9573V55.859ZM52.0783 55.859H53.8343V56.472H52.0793L52.0783 55.859ZM54.1993 55.859H55.9553V56.472H54.1993V55.859ZM56.3203 55.859H58.0763V56.472H56.3203V55.859ZM58.4383 55.859H60.1993V56.472H58.4393L58.4383 55.859ZM60.5593 55.859H62.3153V56.472H60.5593V55.859ZM62.6803 55.859H64.4363V56.472H62.6803V55.859ZM64.8013 55.859H66.5573V56.472H64.7993L64.8013 55.859ZM66.9223 55.859H68.6783V56.472H66.9223V55.859ZM69.0433 55.859H70.7993V56.472H69.0433V55.859ZM71.1613 55.859H72.9173V56.472H71.1613V55.859ZM73.2823 55.859H75.0383V56.472H73.2823V55.859ZM75.4033 55.859H77.1593V56.472H75.3993L75.4033 55.859ZM77.5243 55.859H79.2803V56.472H77.5243V55.859ZM79.6453 55.859H81.3993V56.472H79.6433L79.6453 55.859ZM81.7663 55.859H83.5223V56.472H81.7663V55.859ZM83.8843 55.859H85.6403V56.472H83.8843V55.859ZM86.0053 55.859H87.7613V56.472H85.9993L86.0053 55.859ZM88.1263 55.859H89.8823V56.472H88.1263V55.859ZM88.1263 55.498V54.885H89.8823V55.498H88.1263ZM88.1263 54.521V53.921H89.8823V54.521H88.1263ZM88.1263 53.553V52.94H89.8823V53.553H88.1263ZM88.1263 52.579V51.966H89.8823V52.579H88.1263ZM88.1263 51.602V50.989H89.8823V51.602H88.1263ZM88.1263 50.625V50.012H89.8823V50.625H88.1263ZM88.1263 49.648V49.035H89.8823V49.648H88.1263ZM88.1263 48.671V48.058H89.8823V48.671H88.1263ZM87.7623 48.671H85.9993V48.058H87.7553L87.7623 48.671ZM85.6413 48.671H83.8853V48.058H85.6413V48.671ZM83.5233 48.671H81.7673V48.058H83.5233V48.671ZM81.4023 48.671H79.6463V48.058H81.3993L81.4023 48.671ZM79.2813 48.671H77.5253V48.058H79.2813V48.671ZM77.1603 48.671H75.3993V48.058H77.1553L77.1603 48.671ZM75.0393 48.671H73.2833V48.058H75.0393V48.671ZM72.9183 48.671H71.1623V48.058H72.9183V48.671ZM70.8003 48.671H69.0443V48.058H70.7993L70.8003 48.671ZM68.6793 48.671H66.9233V48.058H68.6793V48.671ZM66.5583 48.671H64.7993V48.058H66.5553L66.5583 48.671ZM64.4373 48.671H62.6813V48.058H64.4373V48.671ZM62.3163 48.671H60.5603V48.058H62.3163V48.671ZM60.1953 48.671H58.4393V48.058H60.1993L60.1953 48.671ZM58.0773 48.671H56.3213V48.058H58.0773V48.671ZM55.9563 48.671H54.1993V48.058H55.9553L55.9563 48.671ZM53.8353 48.671H52.0793V48.058H53.8353V48.671ZM51.7143 48.671H49.9583V48.058H51.7143V48.671ZM49.5933 48.671H47.8373V48.058H49.5933V48.671ZM47.4753 48.671H45.7193V48.058H47.4753V48.671ZM45.3543 48.671H43.5993V48.058H45.3553L45.3543 48.671ZM43.2333 48.671H41.4773V48.058H43.2333V48.671ZM41.1123 48.671H39.3573V48.058H41.1133L41.1123 48.671ZM38.9913 48.671H37.2363V48.058H38.9923L38.9913 48.671ZM36.8703 48.671H35.1153V48.058H36.8713L36.8703 48.671ZM34.7523 48.671H32.9993V48.058H34.7553L34.7523 48.671ZM34.7523 49.035V49.648H32.9993V49.035H34.7523ZM34.7523 50.009V50.622H32.9993V50.009H34.7523ZM34.7523 50.986V51.599H32.9993V50.986H34.7523ZM34.7523 51.963V52.576H32.9993V51.963H34.7523ZM34.7523 52.94V53.553H32.9993V52.94H34.7523ZM34.7523 53.917V54.517H32.9993V53.917H34.7523ZM34.7523 54.882V55.495H32.9993V54.882H34.7523ZM34.7523 55.859V56.472H32.9993V55.859H34.7523ZM34.7523 56.836V57.449H32.9993V56.836H34.7523ZM35.1133 56.836H36.8693V57.449H35.1153L35.1133 56.836ZM37.2343 56.836H38.9903V57.449H37.2363V56.836H37.2343ZM39.3553 56.836H41.1113V57.449H39.3573L39.3553 56.836ZM41.4763 56.836H43.2323V57.449H41.4763V56.836ZM43.5973 56.836H45.3533V57.449H43.5993L43.5973 56.836ZM45.7153 56.836H47.4713V57.449H45.7153V56.836ZM47.8363 56.836H49.5923V57.449H47.8363V56.836ZM49.9573 56.836H51.7133V57.449H49.9573V56.836ZM52.0783 56.836H53.8343V57.449H52.0793L52.0783 56.836ZM54.1993 56.836H55.9553V57.449H54.1993V56.836ZM56.3203 56.836H58.0763V57.449H56.3203V56.836ZM58.4383 56.836H60.1993V57.449H58.4393L58.4383 56.836ZM60.5593 56.836H62.3153V57.449H60.5593V56.836ZM62.6803 56.836H64.4363V57.449H62.6803V56.836ZM64.8013 56.836H66.5573V57.449H64.7993L64.8013 56.836ZM66.9223 56.836H68.6783V57.449H66.9223V56.836ZM69.0433 56.836H70.7993V57.449H69.0433V56.836ZM71.1613 56.836H72.9173V57.449H71.1613V56.836ZM73.2823 56.836H75.0383V57.449H73.2823V56.836ZM75.4033 56.836H77.1593V57.449H75.3993L75.4033 56.836ZM77.5243 56.836H79.2803V57.449H77.5243V56.836ZM79.6453 56.836H81.3993V57.449H79.6433L79.6453 56.836ZM81.7663 56.836H83.5223V57.449H81.7663V56.836ZM83.8843 56.836H85.6403V57.449H83.8843V56.836ZM86.0053 56.836H87.7613V57.449H85.9993L86.0053 56.836ZM88.1263 56.836H89.8823V57.449H88.1263V56.836ZM90.2473 56.836H91.9993V57.449H90.2433L90.2473 56.836ZM90.2473 56.472V55.859H91.9993V56.472H90.2473ZM90.2473 55.498V54.885H91.9993V55.498H90.2473ZM90.2473 54.521V53.921H91.9993V54.521H90.2473ZM90.2473 53.553V52.94H91.9993V53.553H90.2473ZM90.2473 52.579V51.966H91.9993V52.579H90.2473ZM90.2473 51.602V50.989H91.9993V51.602H90.2473ZM90.2473 50.625V50.012H91.9993V50.625H90.2473ZM90.2473 49.648V49.035H91.9993V49.648H90.2473ZM90.2473 48.671V48.058H91.9993V48.671H90.2473ZM89.8833 47.081V47.694H88.1273V47.081H89.8833ZM87.7623 47.081V47.694H85.9993V47.081H87.7623ZM85.6413 47.081V47.694H83.8853V47.081H85.6413ZM83.5233 47.081V47.694H81.7673V47.081H83.5233ZM81.4023 47.081V47.694H79.6463V47.081H81.4023ZM79.2813 47.081V47.694H77.5253V47.081H79.2813ZM77.1603 47.081V47.694H75.3993V47.081H77.1603ZM75.0393 47.081V47.694H73.2833V47.081H75.0393ZM72.9183 47.081V47.694H71.1623V47.081H72.9183ZM70.8003 47.081V47.694H69.0443V47.081H70.8003ZM68.6793 47.081V47.694H66.9233V47.081H68.6793ZM66.5583 47.081V47.694H64.7993V47.081H66.5583ZM64.4373 47.081V47.694H62.6813V47.081H64.4373ZM62.3163 47.081V47.694H60.5603V47.081H62.3163ZM60.1953 47.081V47.694H58.4393V47.081H60.1953ZM58.0773 47.081V47.694H56.3213V47.081H58.0773ZM55.9563 47.081V47.694H54.1993V47.081H55.9563ZM53.8353 47.081V47.694H52.0793V47.081H53.8353ZM51.7143 47.081V47.694H49.9583V47.081H51.7143ZM49.5933 47.081V47.694H47.8373V47.081H49.5933ZM47.4753 47.081V47.694H45.7193V47.081H47.4753ZM45.3543 47.081V47.694H43.5993V47.081H45.3543ZM43.2333 47.081V47.694H41.4773V47.081H43.2333ZM41.1123 47.081V47.694H39.3573V47.081H41.1123ZM38.9913 47.081V47.694H37.2363V47.081H38.9913ZM36.8703 47.081V47.694H35.1153V47.081H36.8703ZM34.7523 47.081V47.694H32.9993V47.081H34.7523ZM30.8753 47.081H32.6313V47.694H30.8773L30.8753 47.081ZM30.8753 48.058H32.6313V48.671H30.8773L30.8753 48.058ZM30.8753 49.035H32.6313V49.648H30.8773L30.8753 49.035ZM30.8753 50.009H32.6313V50.622H30.8773L30.8753 50.009ZM30.8753 50.986H32.6313V51.599H30.8773L30.8753 50.986ZM30.8753 51.963H32.6313V52.576H30.8773L30.8753 51.963ZM30.8753 52.94H32.6313V53.553H30.8773L30.8753 52.94ZM30.8753 53.917H32.6313V54.517H30.8773L30.8753 53.917ZM30.8753 54.882H32.6313V55.495H30.8773L30.8753 54.882ZM30.8753 55.859H32.6313V56.472H30.8773L30.8753 55.859ZM30.8753 56.836H32.6313V57.449H30.8773L30.8753 56.836ZM30.8753 58.426V57.813H32.6313V58.426H30.8753ZM32.9933 58.426V57.813H34.7493V58.426H32.9933ZM35.1143 58.426V57.813H36.8703V58.426H35.1143ZM37.2353 58.426V57.813H38.9913V58.426H37.2353ZM39.3563 58.426V57.813H41.1123V58.426H39.3563ZM41.4773 58.426V57.813H43.2333V58.426H41.4773ZM43.5983 58.426V57.813H45.3543V58.426H43.5983ZM45.7163 58.426V57.813H47.4723V58.426H45.7163ZM47.8373 58.426V57.813H49.5933V58.426H47.8373ZM49.9583 58.426V57.813H51.7143V58.426H49.9583ZM52.0793 58.426V57.813H53.8353V58.426H52.0793ZM54.2003 58.426V57.813H55.9563V58.426H54.2003ZM56.3213 58.426V57.813H58.0773V58.426H56.3213ZM58.4393 58.426V57.813H60.1993V58.426H58.4393ZM60.5603 58.426V57.813H62.3163V58.426H60.5603ZM62.6813 58.426V57.813H64.4373V58.426H62.6813ZM64.8023 58.426V57.813H66.5583V58.426H64.8023ZM66.9233 58.426V57.813H68.6793V58.426H66.9233ZM69.0443 58.426V57.813H70.7993V58.426H69.0443ZM71.1623 58.426V57.813H72.9183V58.426H71.1623ZM73.2833 58.426V57.813H75.0393V58.426H73.2833ZM75.4043 58.426V57.813H77.1603V58.426H75.4043ZM77.5253 58.426V57.813H79.2813V58.426H77.5253ZM79.6463 58.426V57.813H81.3993V58.426H79.6463ZM81.7673 58.426V57.813H83.5233V58.426H81.7673ZM83.8853 58.426V57.813H85.6413V58.426H83.8853ZM86.0063 58.426V57.813H87.7623V58.426H86.0063ZM88.1273 58.426V57.813H89.8833V58.426H88.1273ZM90.2483 58.426V57.813H91.9993V58.426H90.2483ZM94.1253 58.426H92.3693V57.813H94.1253V58.426ZM94.1253 57.449H92.3693V56.836H94.1253V57.449ZM94.1253 56.472H92.3693V55.859H94.1253V56.472ZM94.1253 55.498H92.3693V54.885H94.1253V55.498ZM94.1253 54.521H92.3693V53.921H94.1253V54.521ZM94.1253 53.553H92.3693V52.94H94.1253V53.553ZM94.1253 52.579H92.3693V51.966H94.1253V52.579ZM94.1253 51.602H92.3693V50.989H94.1253V51.602ZM94.1253 50.625H92.3693V50.012H94.1253V50.625ZM94.1253 49.648H92.3693V49.035H94.1253V49.648ZM94.1253 48.671H92.3693V48.058H94.1253V48.671ZM94.1253 47.694H92.3693V47.081H94.1253V47.694Z" fill="#CFD1D2"/>
</g>
<path d="M98.1539 50.491C97.9119 49.379 96.4789 48.804 95.2879 48.515C95.4986 48.7228 95.6457 48.9865 95.7119 49.275C96.1119 51.097 94.5899 56.508 91.7559 57.061C89.4999 57.501 70.0849 57.451 62.2489 57.413C54.4129 57.451 34.9979 57.501 32.7419 57.061C29.9079 56.508 28.3899 51.097 28.7859 49.275C28.8533 48.987 29.0002 48.7237 29.2099 48.515C28.0189 48.804 26.5859 49.379 26.3439 50.491C25.9199 52.445 27.5439 58.252 30.5889 58.843C33.0079 59.314 53.8369 59.261 62.2479 59.22C70.6559 59.261 91.4849 59.314 93.9069 58.843C96.9509 58.252 98.5779 52.446 98.1539 50.491Z" fill="#55585A"/>
<path d="M95.7651 48.644C95.6051 48.597 95.4411 48.553 95.2871 48.515C95.4979 48.7228 95.645 48.9865 95.7111 49.275C95.7241 49.338 95.7361 49.404 95.7461 49.475C95.7737 49.1989 95.7801 48.9211 95.7651 48.644Z" fill="#616365"/>
<path d="M28.7545 49.476C28.7624 49.4087 28.7741 49.3419 28.7895 49.276C28.857 48.988 29.0039 48.7247 29.2135 48.516C29.0565 48.554 28.8965 48.598 28.7355 48.645C28.719 48.922 28.7253 49.2 28.7545 49.476Z" fill="#616365"/>
<path d="M33.7492 57.168C33.4125 57.151 33.077 57.1153 32.7442 57.061C31.9018 56.8458 31.1653 56.3337 30.6702 55.619C29.9509 56.235 29.2385 56.8623 28.5332 57.501C29.0456 58.1704 29.7719 58.6441 30.5912 58.843C31.3778 58.9485 32.1697 59.0103 32.9632 59.028C33.2332 58.412 33.4882 57.787 33.7492 57.168Z" fill="#555657"/>
<path d="M31.0119 58.902C31.4119 58.226 31.8229 57.56 32.2439 56.902C31.9769 56.7895 31.7264 56.6415 31.4989 56.462C30.9083 57.15 30.3123 57.833 29.7109 58.511C29.9845 58.6686 30.2816 58.781 30.5909 58.844C30.6979 58.861 30.8389 58.884 31.0119 58.902Z" fill="#555657"/>
<path d="M94.0924 55.258C93.5809 56.1416 92.7421 56.7882 91.7574 57.058C90.9477 57.163 90.1328 57.2238 89.3164 57.24C89.529 57.8651 89.7744 58.4786 90.0514 59.078C91.3398 59.0694 92.6268 58.9896 93.9064 58.839C94.9497 58.5534 95.8403 57.8716 96.3884 56.939C95.6284 56.3717 94.8631 55.8113 94.0924 55.258Z" fill="#555657"/>
<path d="M93.9349 56.926C93.7349 56.678 93.5199 56.433 93.3029 56.194C92.9787 56.5138 92.5943 56.766 92.1719 56.936C92.5719 57.583 92.9349 58.249 93.2939 58.922C93.5549 58.897 93.7619 58.872 93.9039 58.843C94.3158 58.7577 94.7055 58.5874 95.0479 58.343C94.6849 57.866 94.3209 57.391 93.9349 56.926Z" fill="#555657"/>
<path d="M94.0275 58.322C91.6085 58.793 70.5755 58.765 62.1675 58.722C53.7595 58.763 33.2105 58.873 30.7915 58.402C28.2685 57.912 26.5215 53.236 26.3075 50.742C26.0525 52.897 27.6715 58.273 30.5905 58.842C33.0095 59.313 53.8385 59.26 62.2495 59.219C70.6575 59.26 91.4865 59.313 93.9085 58.842C96.8305 58.273 98.4455 52.897 98.1915 50.742C97.9775 53.235 96.5475 57.828 94.0275 58.322Z" fill="#7D7F81"/>
<path opacity="0.91" d="M24.0742 58.34C24.2754 59.0339 24.6629 59.6593 25.1946 60.1484C25.7263 60.6375 26.382 60.9714 27.0902 61.114C29.5032 61.535 55.4502 61.475 57.5022 61.535C59.5542 61.595 57.5622 61.051 53.2792 60.812C48.9962 60.573 30.0472 61.173 27.9952 60.268C25.9432 59.363 27.8132 58.034 27.3322 56.89C26.8512 55.746 27.6932 58.156 25.8842 58.398C24.0752 58.64 24.0742 58.34 24.0742 58.34Z" fill="white"/>
<path opacity="0.91" d="M99.9892 58.34C99.7881 59.0339 99.4006 59.6593 98.8688 60.1484C98.3371 60.6375 97.6815 60.9714 96.9732 61.114C94.5602 61.535 68.6132 61.475 66.5612 61.535C64.5092 61.595 66.5012 61.051 70.7842 60.812C75.0672 60.573 94.0162 61.173 96.0682 60.268C98.1202 59.363 96.2502 58.034 96.7312 56.89C97.2122 55.746 96.3702 58.156 98.1792 58.398C99.9882 58.64 99.9892 58.34 99.9892 58.34Z" fill="white"/>
<path opacity="0.91" d="M21.8213 49.872C21.8213 49.872 21.8623 48.304 24.3943 47.701C26.9263 47.098 36.0203 46.212 39.3943 45.932C42.7683 45.652 62.0423 45.008 66.9943 45.288C66.9943 45.288 67.9993 45.571 66.6743 45.649C65.3493 45.727 47.1243 45.649 35.9013 46.815C24.6783 47.981 25.9473 49.395 25.3633 49.15C24.7691 48.8982 24.1126 48.8324 23.4802 48.9613C22.8479 49.0902 22.2695 49.4077 21.8213 49.872Z" fill="white"/>
<path d="M8.42059 37.11C7.19807 37.3272 6.04649 37.8377 5.06467 38.5978C4.08285 39.3579 3.3001 40.3449 2.78359 41.474C2.26428 42.9104 2.13861 44.4596 2.41958 45.961C2.90358 48.387 6.66459 60.631 6.66459 60.631C6.66459 60.631 7.02859 62.208 8.06459 62.268C9.10058 62.328 13.8236 62.268 13.8236 62.268C13.8236 62.268 16.0666 62.086 16.3686 60.868C16.6706 59.65 17.1576 44.379 17.1576 44.379C17.1576 44.379 16.9756 39.71 13.5816 38.073C10.1876 36.436 8.42059 37.11 8.42059 37.11Z" fill="#989B9C"/>
<path d="M8.46413 37.575C7.28473 37.7837 6.17373 38.276 5.22677 39.0094C4.27982 39.7428 3.52529 40.6953 3.02813 41.785C2.5279 43.1703 2.40638 44.664 2.67613 46.112C3.14413 48.45 6.76713 60.257 6.76713 60.257C6.76713 60.257 7.11913 61.778 8.11213 61.834C9.10513 61.89 13.6641 61.834 13.6641 61.834C13.6641 61.834 15.8261 61.658 16.1181 60.489C16.4101 59.32 16.8781 44.589 16.8781 44.589C16.8781 44.589 16.7021 40.089 13.4281 38.509C10.1541 36.929 8.46413 37.575 8.46413 37.575Z" fill="#989B9C"/>
<path d="M9.79301 51.617C13.6369 51.617 16.753 48.5009 16.753 44.657C16.753 40.8131 13.6369 37.697 9.79301 37.697C5.94911 37.697 2.83301 40.8131 2.83301 44.657C2.83301 48.5009 5.94911 51.617 9.79301 51.617Z" fill="#3E4041"/>
<path d="M9.79311 50.949C13.3172 50.949 16.1741 48.0921 16.1741 44.568C16.1741 41.0439 13.3172 38.187 9.79311 38.187C6.26898 38.187 3.41211 41.0439 3.41211 44.568C3.41211 48.0921 6.26898 50.949 9.79311 50.949Z" fill="#121314"/>
<path d="M9.88847 51.971C9.81349 51.9707 9.74166 51.9408 9.68865 51.8878C9.63563 51.8348 9.60573 51.763 9.60547 51.688V37.455C9.60573 37.38 9.63563 37.3082 9.68865 37.2552C9.74166 37.2022 9.81349 37.1723 9.88847 37.172C9.96344 37.1723 10.0353 37.2022 10.0883 37.2552C10.1413 37.3082 10.1712 37.38 10.1715 37.455V51.688C10.1712 51.763 10.1413 51.8348 10.0883 51.8878C10.0353 51.9408 9.96344 51.9707 9.88847 51.971Z" fill="#989B9C"/>
<path d="M2.44727 45.2V45.169C2.44779 45.0917 2.47872 45.0177 2.53337 44.9631C2.58802 44.9084 2.66198 44.8775 2.73927 44.877H16.6493C16.7265 44.8775 16.8005 44.9084 16.8552 44.9631C16.9098 45.0177 16.9407 45.0917 16.9413 45.169V45.2C16.9407 45.2773 16.9098 45.3512 16.8552 45.4059C16.8005 45.4605 16.7265 45.4915 16.6493 45.492H2.73927C2.66182 45.492 2.58755 45.4612 2.53279 45.4065C2.47803 45.3517 2.44727 45.2774 2.44727 45.2Z" fill="#989B9C"/>
<path d="M15.5837 45.5971C16.1026 42.3992 13.931 39.3862 10.7331 38.8672C7.53522 38.3482 4.52213 40.5199 4.00316 43.7177C3.48419 46.9156 5.65586 49.9287 8.85372 50.4477C12.0516 50.9666 15.0647 48.795 15.5837 45.5971Z" fill="#FFFCE1"/>
<path d="M9.79374 38.793C8.63355 38.793 7.49942 39.137 6.53476 39.7816C5.5701 40.4262 4.81824 41.3423 4.37426 42.4142C3.93028 43.4861 3.81411 44.6655 4.04045 45.8034C4.26679 46.9413 4.82547 47.9865 5.64585 48.8069C6.46622 49.6273 7.51144 50.1859 8.64934 50.4123C9.78723 50.6386 10.9667 50.5225 12.0386 50.0785C13.1104 49.6345 14.0266 48.8826 14.6711 47.918C15.3157 46.9533 15.6597 45.8192 15.6597 44.659C15.6595 43.1033 15.0414 41.6114 13.9413 40.5114C12.8413 39.4114 11.3494 38.7933 9.79374 38.793ZM9.12474 48.42C8.23848 48.42 7.37212 48.1572 6.63523 47.6648C5.89833 47.1724 5.32399 46.4726 4.98483 45.6538C4.64568 44.835 4.55694 43.934 4.72984 43.0648C4.90274 42.1956 5.32951 41.3971 5.95619 40.7704C6.58287 40.1438 7.38131 39.717 8.25054 39.5441C9.11977 39.3712 10.0207 39.4599 10.8395 39.7991C11.6583 40.1383 12.3582 40.7126 12.8506 41.4495C13.3429 42.1864 13.6057 43.0527 13.6057 43.939C13.6061 44.5277 13.4905 45.1107 13.2655 45.6547C13.0405 46.1987 12.7105 46.6931 12.2943 47.1095C11.8782 47.5259 11.3841 47.8562 10.8402 48.0816C10.2964 48.307 9.71344 48.423 9.12474 48.423V48.42Z" fill="#CDCFD0"/>
<path d="M14.9478 41.86C15.0794 42.2679 15.1751 42.6865 15.2338 43.111C15.3524 43.8934 15.3075 44.6919 15.102 45.4561C14.8965 46.2203 14.5348 46.9336 14.0398 47.551C13.419 48.2864 12.6388 48.8706 11.7584 49.2593C10.8779 49.648 9.9205 49.8308 8.95881 49.794C7.99432 49.752 7.06664 49.4117 6.30381 48.82C5.55084 48.2651 4.93929 47.5405 4.5188 46.705C4.10309 45.8252 3.91828 44.854 3.98181 43.883C3.9454 44.1391 3.92636 44.3973 3.9248 44.656C3.92487 45.5491 4.12886 46.4304 4.52123 47.2327C4.9136 48.035 5.48399 48.7371 6.1889 49.2855C6.89382 49.8339 7.71464 50.2141 8.5888 50.3971C9.46296 50.5801 10.3674 50.5611 11.2331 50.3415C12.0987 50.1219 12.9029 49.7076 13.5841 49.13C14.2654 48.5525 14.8057 47.827 15.164 47.009C15.5223 46.1909 15.6891 45.3018 15.6516 44.4095C15.6142 43.5171 15.3734 42.6451 14.9478 41.86Z" fill="#CDCFD0"/>
<path opacity="0.74" d="M5.86029 43.761C6.0681 42.845 6.54455 42.0118 7.22864 41.3682C7.91272 40.7245 8.77333 40.2997 9.70029 40.148C9.47729 40.007 9.25729 39.865 9.04329 39.714C8.07033 39.8527 7.16484 40.2914 6.4529 40.9689C5.74096 41.6464 5.25801 42.5291 5.07129 43.494C5.33529 43.585 5.59929 43.673 5.86029 43.761Z" fill="white"/>
<path opacity="0.74" d="M5.79319 44.134C5.53519 44.049 5.27519 43.961 5.02019 43.873C5.00137 44.041 4.99203 44.2099 4.99219 44.379C4.99223 44.6496 5.01633 44.9196 5.06419 45.186C5.33119 45.434 5.60119 45.679 5.88119 45.912C5.79134 45.5471 5.74601 45.1727 5.74619 44.797C5.74273 44.575 5.75846 44.3532 5.79319 44.134Z" fill="white"/>
<path d="M14.5721 52.647L6.78905 52.964C6.78905 52.964 5.56005 52.964 5.72405 53.677C5.88805 54.39 7.03405 59.942 7.03405 59.942C7.03405 59.942 7.30705 61.133 8.18105 61.29C9.05505 61.447 13.9151 61.29 13.9151 61.29C14.3427 61.3104 14.7611 61.1606 15.0786 60.8733C15.3961 60.586 15.5868 60.1846 15.609 59.757C15.719 58.17 15.3891 53.257 15.3891 53.257C15.3891 53.257 15.446 52.515 14.5721 52.647Z" fill="#F6931D"/>
<path d="M14.8046 51.83L6.61056 52.185C6.61056 52.185 5.31557 52.185 5.48857 52.985C5.66157 53.785 6.86756 60.001 6.86756 60.001C6.86756 60.001 7.15656 61.333 8.07456 61.509C8.99256 61.685 14.1136 61.509 14.1136 61.509C14.3441 61.5165 14.5737 61.4777 14.789 61.3949C15.0042 61.3122 15.2007 61.1871 15.3668 61.0272C15.5329 60.8672 15.6653 60.6756 15.7561 60.4636C15.8469 60.2516 15.8943 60.0236 15.8956 59.793C16.0116 58.018 15.6666 52.513 15.6666 52.513C15.6666 52.513 15.7256 51.682 14.8046 51.83Z" fill="#F6931D"/>
<path d="M15.028 58.887C14.177 59.987 8.24402 60.822 7.32102 59.346C6.73508 57.9775 6.26509 56.5621 5.91602 55.115C6.32402 57.198 6.86802 59.995 6.86802 59.995C6.86802 59.995 7.15702 61.327 8.07502 61.503C8.99302 61.679 14.114 61.503 14.114 61.503C14.3445 61.5105 14.5742 61.4717 14.7894 61.3889C15.0047 61.3062 15.2012 61.1811 15.3673 61.0212C15.5334 60.8612 15.6658 60.6696 15.7566 60.4576C15.8474 60.2456 15.8948 60.0176 15.896 59.787C15.959 58.794 15.88 56.632 15.796 54.923C15.593 55.968 15.669 58.058 15.028 58.887Z" fill="#F6931D"/>
<path d="M7.75077 52.624C7.75077 52.624 6.09177 52.824 6.21777 53.915C6.34377 55.006 7.43077 59.822 7.43077 58.6C7.43077 57.378 6.98477 54.933 8.00577 54.933H13.0488C13.4059 54.9092 13.761 55.0024 14.0604 55.1985C14.3597 55.3947 14.587 55.6831 14.7078 56.02C15.0278 57.173 15.5378 56.768 15.3458 54.798C15.1538 52.828 14.7078 52.353 13.4948 52.353C12.2818 52.353 7.75077 52.624 7.75077 52.624Z" fill="#FBC086"/>
<path d="M116.261 37.11C117.484 37.3272 118.636 37.8377 119.617 38.5978C120.599 39.3579 121.382 40.3449 121.898 41.474C122.418 42.9104 122.543 44.4596 122.262 45.961C121.778 48.387 118.017 60.631 118.017 60.631C118.017 60.631 117.653 62.208 116.617 62.268C115.581 62.328 110.858 62.268 110.858 62.268C110.858 62.268 108.615 62.086 108.313 60.868C108.011 59.65 107.524 44.379 107.524 44.379C107.524 44.379 107.706 39.71 111.1 38.073C114.494 36.436 116.261 37.11 116.261 37.11Z" fill="#989B9C"/>
<path d="M116.214 37.575C117.393 37.7837 118.504 38.276 119.451 39.0094C120.398 39.7428 121.153 40.6953 121.65 41.785C122.15 43.1703 122.272 44.664 122.002 46.112C121.534 48.45 117.911 60.257 117.911 60.257C117.911 60.257 117.559 61.778 116.566 61.834C115.573 61.89 111.014 61.834 111.014 61.834C111.014 61.834 108.852 61.658 108.56 60.489C108.268 59.32 107.8 44.589 107.8 44.589C107.8 44.589 107.976 40.089 111.25 38.509C114.524 36.929 116.214 37.575 116.214 37.575Z" fill="#989B9C"/>
<path d="M114.886 51.617C118.73 51.617 121.846 48.5009 121.846 44.657C121.846 40.8131 118.73 37.697 114.886 37.697C111.042 37.697 107.926 40.8131 107.926 44.657C107.926 48.5009 111.042 51.617 114.886 51.617Z" fill="#3E4041"/>
<path d="M114.886 50.949C118.41 50.949 121.267 48.0921 121.267 44.568C121.267 41.0439 118.41 38.187 114.886 38.187C111.362 38.187 108.505 41.0439 108.505 44.568C108.505 48.0921 111.362 50.949 114.886 50.949Z" fill="#121314"/>
<path d="M114.795 51.971C114.87 51.9707 114.942 51.9408 114.995 51.8878C115.048 51.8348 115.077 51.763 115.078 51.688V37.455C115.077 37.38 115.048 37.3082 114.995 37.2552C114.942 37.2022 114.87 37.1723 114.795 37.172C114.72 37.1723 114.648 37.2022 114.595 37.2552C114.542 37.3082 114.512 37.38 114.512 37.455V51.688C114.512 51.7252 114.519 51.7621 114.533 51.7964C114.547 51.8308 114.568 51.8621 114.594 51.8884C114.621 51.9147 114.652 51.9355 114.686 51.9497C114.721 51.9639 114.758 51.9711 114.795 51.971Z" fill="#989B9C"/>
<path d="M122.235 45.2V45.169C122.235 45.0917 122.204 45.0177 122.149 44.9631C122.094 44.9084 122.02 44.8775 121.943 44.877H108.033C107.956 44.8775 107.882 44.9084 107.827 44.9631C107.773 45.0177 107.742 45.0917 107.741 45.169V45.2C107.742 45.2773 107.773 45.3512 107.827 45.4059C107.882 45.4605 107.956 45.4915 108.033 45.492H121.943C122.02 45.4915 122.094 45.4605 122.149 45.4059C122.204 45.3512 122.235 45.2773 122.235 45.2Z" fill="#989B9C"/>
<path d="M115.828 50.4458C119.026 49.9268 121.197 46.9137 120.678 43.7159C120.159 40.518 117.146 38.3463 113.948 38.8653C110.751 39.3843 108.579 42.3974 109.098 45.5952C109.617 48.7931 112.63 50.9648 115.828 50.4458Z" fill="#FFFCE1"/>
<path d="M109.023 44.656C109.023 45.8162 109.367 46.9503 110.012 47.915C110.657 48.8796 111.573 49.6315 112.645 50.0755C113.716 50.5194 114.896 50.6356 116.034 50.4093C117.172 50.1829 118.217 49.6242 119.037 48.8039C119.858 47.9835 120.416 46.9383 120.643 45.8004C120.869 44.6625 120.753 43.483 120.309 42.4112C119.865 41.3393 119.113 40.4231 118.148 39.7786C117.184 39.134 116.05 38.79 114.889 38.79C113.334 38.7902 111.842 39.4084 110.742 40.5084C109.642 41.6084 109.024 43.1003 109.023 44.656ZM111.078 43.94C111.078 43.0538 111.341 42.1876 111.833 41.4506C112.325 40.7137 113.024 40.1392 113.843 39.7997C114.662 39.4603 115.562 39.3712 116.432 39.5437C117.301 39.7161 118.099 40.1424 118.726 40.7687C119.353 41.3949 119.78 42.193 119.954 43.062C120.127 43.931 120.039 44.8319 119.701 45.6508C119.362 46.4697 118.788 47.1699 118.052 47.6628C117.316 48.1557 116.45 48.4192 115.563 48.42C114.975 48.4205 114.392 48.305 113.848 48.0801C113.304 47.8552 112.809 47.5253 112.393 47.1093C111.976 46.6932 111.646 46.1992 111.42 45.6554C111.195 45.1116 111.079 44.5287 111.078 43.94Z" fill="#CDCFD0"/>
<path d="M109.73 41.86C109.599 42.2679 109.503 42.6865 109.444 43.111C109.326 43.8934 109.371 44.6919 109.576 45.4561C109.782 46.2203 110.143 46.9336 110.638 47.551C111.259 48.2864 112.04 48.8706 112.92 49.2593C113.8 49.648 114.758 49.8308 115.719 49.794C116.684 49.752 117.612 49.4117 118.374 48.82C119.127 48.2651 119.739 47.5405 120.159 46.705C120.575 45.8252 120.76 44.854 120.696 43.883C120.733 44.1391 120.752 44.3973 120.753 44.656C120.753 45.5491 120.549 46.4303 120.156 47.2325C119.763 48.0346 119.193 48.7365 118.488 49.2847C117.783 49.8328 116.962 50.2127 116.087 50.3954C115.213 50.5781 114.309 50.5587 113.443 50.3388C112.578 50.1189 111.774 49.7043 111.093 49.1265C110.412 48.5487 109.871 47.8231 109.513 47.0049C109.155 46.1867 108.989 45.2975 109.027 44.4052C109.065 43.5129 109.306 42.641 109.731 41.856L109.73 41.86Z" fill="#CDCFD0"/>
<path opacity="0.74" d="M118.82 43.761C118.613 42.845 118.136 42.0118 117.452 41.3682C116.768 40.7245 115.907 40.2997 114.98 40.148C115.203 40.007 115.423 39.865 115.637 39.714C116.61 39.8527 117.516 40.2914 118.228 40.9689C118.94 41.6464 119.423 42.5291 119.609 43.494C119.344 43.585 119.083 43.673 118.82 43.761Z" fill="white"/>
<path opacity="0.74" d="M118.889 44.134C119.147 44.049 119.407 43.961 119.662 43.873C119.681 44.041 119.69 44.2099 119.69 44.379C119.69 44.6496 119.666 44.9196 119.618 45.186C119.351 45.434 119.081 45.679 118.801 45.912C118.891 45.5471 118.936 45.1727 118.936 44.797C118.938 44.5751 118.922 44.3534 118.889 44.134Z" fill="white"/>
<path d="M110.109 52.647L117.892 52.964C117.892 52.964 119.121 52.964 118.957 53.677C118.793 54.39 117.647 59.942 117.647 59.942C117.647 59.942 117.374 61.133 116.5 61.29C115.626 61.447 110.766 61.29 110.766 61.29C110.339 61.3104 109.92 61.1606 109.603 60.8733C109.285 60.586 109.095 60.1846 109.072 59.757C108.962 58.17 109.292 53.257 109.292 53.257C109.292 53.257 109.233 52.515 110.109 52.647Z" fill="#F6931D"/>
<path d="M109.874 51.83L118.068 52.185C118.068 52.185 119.363 52.185 119.19 52.985C119.017 53.785 117.811 60.001 117.811 60.001C117.811 60.001 117.522 61.333 116.604 61.509C115.686 61.685 110.565 61.509 110.565 61.509C110.334 61.5165 110.104 61.4777 109.889 61.3949C109.674 61.3122 109.477 61.1871 109.311 61.0272C109.145 60.8672 109.013 60.6756 108.922 60.4636C108.831 60.2516 108.784 60.0236 108.783 59.793C108.667 58.018 109.012 52.513 109.012 52.513C109.012 52.513 108.957 51.682 109.874 51.83Z" fill="#F6931D"/>
<path d="M109.654 58.887C110.506 59.987 116.438 60.822 117.361 59.346C117.945 57.9779 118.413 56.5633 118.761 55.117C118.353 57.2 117.809 59.997 117.809 59.997C117.809 59.997 117.52 61.329 116.602 61.505C115.684 61.681 110.563 61.505 110.563 61.505C110.332 61.5124 110.102 61.4737 109.887 61.3909C109.672 61.3082 109.475 61.1831 109.309 61.0231C109.143 60.8632 109.011 60.6716 108.92 60.4596C108.829 60.2476 108.782 60.0196 108.781 59.789C108.718 58.796 108.797 56.634 108.881 54.925C109.089 55.968 109.01 58.058 109.654 58.887Z" fill="#F6931D"/>
<path d="M116.931 52.624C116.931 52.624 118.59 52.824 118.464 53.915C118.338 55.006 117.251 59.822 117.251 58.6C117.251 57.378 117.697 54.933 116.676 54.933H111.633C111.276 54.9092 110.92 55.0024 110.621 55.1985C110.322 55.3947 110.094 55.6831 109.974 56.02C109.654 57.173 109.145 56.768 109.336 54.798C109.527 52.828 109.974 52.353 111.187 52.353C112.4 52.353 116.931 52.624 116.931 52.624Z" fill="#FBC086"/>
<path d="M122.093 64.178C121.883 63.7046 121.563 63.2883 121.16 62.9641C120.756 62.64 120.281 62.4174 119.774 62.315C117.835 63.452 114.074 63.239 114.074 63.239H10.2986C10.2986 63.239 6.54061 63.453 4.59861 62.315C4.09123 62.4174 3.61581 62.64 3.21228 62.9641C2.80876 63.2883 2.48892 63.7046 2.27961 64.178C1.46261 65.859 2.87061 67.725 4.82461 67.908C4.82461 67.908 33.1346 69.492 67.3106 68.851C101.116 69.489 119.544 67.908 119.544 67.908C121.502 67.726 122.91 65.859 122.093 64.178Z" fill="#A2A5A7"/>
<path d="M6.80623 64.301H117.567C119.043 64.366 120.521 64.2467 121.967 63.946C121.745 63.5291 121.433 63.1666 121.054 62.8846C120.674 62.6026 120.238 62.408 119.774 62.315C117.835 63.452 114.074 63.239 114.074 63.239H10.3002C10.3002 63.239 6.54223 63.453 4.60023 62.315C4.13694 62.408 3.70002 62.6026 3.32085 62.8846C2.94167 63.1666 2.62966 63.5291 2.40723 63.946C3.85311 64.2467 5.33084 64.3659 6.80623 64.301Z" fill="#A2A5A7"/>
<path d="M119.545 66.544C119.545 66.544 101.117 68.124 67.3123 67.487C33.1363 68.131 4.82632 66.544 4.82632 66.544C4.23081 66.5005 3.66095 66.2841 3.18666 65.9213C2.71237 65.5586 2.35428 65.0653 2.15632 64.502C2.06746 64.9062 2.06903 65.325 2.16093 65.7285C2.25284 66.132 2.43279 66.5102 2.68792 66.836C2.94304 67.1619 3.26704 67.4273 3.63672 67.6133C4.0064 67.7993 4.41262 67.9013 4.82632 67.912C4.82632 67.912 33.1363 69.496 67.3123 68.855C101.117 69.493 119.545 67.912 119.545 67.912C119.959 67.9032 120.366 67.8026 120.737 67.6175C121.108 67.4325 121.432 67.1675 121.688 66.8417C121.944 66.5159 122.124 66.1374 122.216 65.7335C122.308 65.3296 122.309 64.9104 122.219 64.506C122.019 65.0685 121.66 65.5608 121.185 65.9227C120.711 66.2845 120.141 66.5004 119.545 66.544Z" fill="#A2A5A7"/>
<path d="M119.649 62.815C120.378 64.908 115.649 64.725 115.649 64.725L72.8919 64.483V64.36H72.4359L61.9889 64.42L51.0889 64.357L8.33188 64.721C8.33188 64.721 3.60288 64.903 4.33188 62.811C4.33188 62.811 2.12288 64.193 3.18188 65.278C3.97388 66.086 42.5819 65.686 61.9919 65.432C81.4039 65.687 120.01 66.086 120.802 65.278C121.858 64.195 119.649 62.815 119.649 62.815Z" fill="white"/>
<path opacity="0.4" d="M11.9372 35.354C11.9372 35.354 15.8172 35.112 17.7562 39.841C17.7562 39.841 18.4852 41.541 18.6042 40.63C18.7232 39.719 17.2722 37.416 19.0282 36.33C20.7842 35.244 24.8472 33.116 24.8472 33.116C24.8472 33.116 25.4532 32.692 23.8162 32.569C22.1792 32.446 17.2682 34.932 16.1782 34.69C15.0882 34.448 9.26921 34.989 11.9372 35.354Z" fill="#FEF5F9"/>
<path opacity="0.4" d="M111.684 35.354C111.684 35.354 107.804 35.112 105.865 39.841C105.865 39.841 105.136 41.541 105.017 40.63C104.898 39.719 106.349 37.416 104.593 36.33C102.837 35.244 98.7737 33.116 98.7737 33.116C98.7737 33.116 98.1677 32.692 99.8047 32.569C101.442 32.446 106.353 34.932 107.443 34.69C108.533 34.448 114.352 34.989 111.684 35.354Z" fill="#FEF5F9"/>
</svg>
