<svg id="Iconly_Light-outline_Arrow_-_Down_2" data-name="Iconly/Light-outline/Arrow - Down 2" xmlns="http://www.w3.org/2000/svg" width="11.333" height="6.375" viewBox="0 0 11.333 6.375">
  <path id="Arrow_-_Down_2" data-name="Arrow - Down 2" d="M5.254,6.2.17,1.011a.6.6,0,0,1,0-.838A.576.576,0,0,1,1,.175L6.079,5.364a.6.6,0,0,1,0,.838.576.576,0,0,1-.824,0Zm1.71-1.741a.6.6,0,0,1,0-.838L10.337.175a.577.577,0,0,1,.825,0,.6.6,0,0,1,0,.838L7.788,4.457a.575.575,0,0,1-.824,0Z" transform="translate(0 0)" fill="#200e32"/>
</svg>
