<svg xmlns="http://www.w3.org/2000/svg" width="15.009" height="13.509" viewBox="0 0 15.009 13.509">
  <g id="Group_5454" data-name="Group 5454" transform="translate(0)">
    <path id="Fill_1" data-name="Fill 1" d="M15.009,5.361a3.787,3.787,0,0,1-3.775,3.8H3.79A3.787,3.787,0,0,1,0,5.376V5.368S0,2.047.011.376A.374.374,0,0,1,.617.082C2.4,1.5,5.589,4.076,5.628,4.11a3.052,3.052,0,0,0,1.9.668,3.012,3.012,0,0,0,1.9-.676c.04-.026,3.157-2.528,4.967-3.966A.375.375,0,0,1,15,.428c.008,1.658.008,4.933.008,4.933" transform="translate(0 4.351)" fill="#4e9c0b" opacity="0.4"/>
    <path id="Fill_4" data-name="Fill 4" d="M14.238,2.007A3.779,3.779,0,0,0,10.9,0H3.412A3.779,3.779,0,0,0,.076,2.007a.648.648,0,0,0,.166.809L5.814,7.273a2.121,2.121,0,0,0,1.336.472h.015A2.121,2.121,0,0,0,8.5,7.273l5.572-4.457a.648.648,0,0,0,.166-.809" transform="translate(0.378)" fill="#4e9c0b"/>
  </g>
</svg>
