<svg xmlns="http://www.w3.org/2000/svg" width="53.774" height="54" viewBox="0 0 53.774 54">
  <g id="Group_5453" data-name="Group 5453" style="isolation: isolate">
    <g id="Path_2377" data-name="Path 2377" fill="none">
      <path d="M26.887,0A26.887,26.887,0,0,1,53.774,26.887v.226A26.887,26.887,0,0,1,0,27.113v-.226A26.887,26.887,0,0,1,26.887,0Z" stroke="none"/>
      <path d="M 26.8870849609375 1 C 23.39190483093262 1 20.00181579589844 1.684310913085938 16.81096649169922 3.033931732177734 C 13.72847366333008 4.337711334228516 10.95989608764648 6.204399108886719 8.582145690917969 8.582149505615234 C 6.204395294189453 10.95989990234375 4.337703704833984 13.72846984863281 3.033924102783203 16.81097030639648 C 1.684303283691406 20.00180816650391 0.9999961853027344 23.39191055297852 0.9999961853027344 26.8870792388916 L 0.9999961853027344 27.1129207611084 C 0.9999961853027344 30.60808944702148 1.684303283691406 33.99819183349609 3.033924102783203 37.18902969360352 C 4.337703704833984 40.27153015136719 6.204395294189453 43.04010009765625 8.582145690917969 45.41785049438477 C 10.95989608764648 47.79560089111328 13.72847366333008 49.66228866577148 16.81096649169922 50.96606826782227 C 20.00181579589844 52.31568908691406 23.39190483093262 53 26.8870849609375 53 C 30.38226509094238 53 33.77235412597656 52.31568908691406 36.96320343017578 50.96606826782227 C 40.04569625854492 49.66228866577148 42.81426620483398 47.79560089111328 45.1920166015625 45.41785049438477 C 47.56976318359375 43.04010009765625 49.43645477294922 40.27153015136719 50.7402458190918 37.18902969360352 C 52.0898551940918 33.99819183349609 52.77416610717773 30.60808944702148 52.77416610717773 27.1129207611084 L 52.77416610717773 26.8870792388916 C 52.77416610717773 23.39191055297852 52.0898551940918 20.00180816650391 50.7402458190918 16.81097030639648 C 49.43645477294922 13.72846984863281 47.56976318359375 10.95989990234375 45.1920166015625 8.582149505615234 C 42.81426620483398 6.204399108886719 40.04569625854492 4.337711334228516 36.96320343017578 3.033931732177734 C 33.77235412597656 1.684310913085938 30.38226509094238 1 26.8870849609375 1 M 26.8870849609375 0 C 41.73641586303711 0 53.77416610717773 12.03776168823242 53.77416610717773 26.8870792388916 L 53.77416610717773 27.1129207611084 C 53.77416610717773 41.96224212646484 41.73641586303711 54 26.8870849609375 54 C 12.03775405883789 54 -3.814697265625e-06 41.96224212646484 -3.814697265625e-06 27.1129207611084 L -3.814697265625e-06 26.8870792388916 C -3.814697265625e-06 12.03776168823242 12.03775405883789 0 26.8870849609375 0 Z" stroke="none" fill="#e1e1e1"/>
    </g>
    <g id="Group_122" data-name="Group 122" transform="translate(-1005 20)" style="isolation: isolate">
      <path id="google" d="M13.774,15.164A6.5,6.5,0,0,1,7,22,7,7,0,0,1,7,8a6.732,6.732,0,0,1,4.694,1.832L9.789,11.664C7.3,9.259,2.662,11.065,2.662,15A4.385,4.385,0,0,0,7,19.42,3.785,3.785,0,0,0,10.974,16.4H7V14h6.664A6.137,6.137,0,0,1,13.774,15.164Z" transform="translate(1025 -8)" fill="#4e9c0b"/>
    </g>
  </g>
</svg>
