<svg width="40" height="40" viewBox="0 0 40 40" fill="none" xmlns="http://www.w3.org/2000/svg">
<path d="M13.4429 27.9635H14.1789V33.5635H13.4429V31.0435H10.7229V33.5635H9.97891V27.9635H10.7229V30.3395H13.4429V27.9635ZM18.6813 33.0595C18.2707 33.4648 17.772 33.6675 17.1853 33.6675C16.5987 33.6675 16.1 33.4648 15.6893 33.0595C15.284 32.6541 15.0813 32.1555 15.0813 31.5635C15.0813 30.9715 15.284 30.4728 15.6893 30.0675C16.1 29.6621 16.5987 29.4595 17.1853 29.4595C17.772 29.4595 18.2707 29.6621 18.6813 30.0675C19.092 30.4728 19.2973 30.9715 19.2973 31.5635C19.2973 32.1555 19.092 32.6541 18.6813 33.0595ZM17.1853 32.9875C17.5853 32.9875 17.9213 32.8515 18.1933 32.5795C18.4653 32.3075 18.6013 31.9688 18.6013 31.5635C18.6013 31.1581 18.4653 30.8195 18.1933 30.5475C17.9213 30.2755 17.5853 30.1395 17.1853 30.1395C16.7907 30.1395 16.4573 30.2755 16.1853 30.5475C15.9133 30.8195 15.7773 31.1581 15.7773 31.5635C15.7773 31.9688 15.9133 32.3075 16.1853 32.5795C16.4573 32.8515 16.7907 32.9875 17.1853 32.9875ZM24.4378 29.4595C24.8858 29.4595 25.2485 29.6061 25.5258 29.8995C25.8032 30.1875 25.9418 30.5795 25.9418 31.0755V33.5635H25.2458V31.0995C25.2458 30.7901 25.1658 30.5501 25.0058 30.3795C24.8458 30.2088 24.6325 30.1235 24.3658 30.1235C24.0672 30.1235 23.8272 30.2248 23.6458 30.4275C23.4698 30.6248 23.3818 30.9288 23.3818 31.3395V33.5635H22.6858V31.0995C22.6858 30.7901 22.6085 30.5501 22.4538 30.3795C22.3045 30.2088 22.0992 30.1235 21.8378 30.1235C21.5445 30.1235 21.2992 30.2248 21.1018 30.4275C20.9098 30.6301 20.8138 30.9341 20.8138 31.3395V33.5635H20.1178V29.5635H20.8138V30.0995C21.0858 29.6728 21.4832 29.4595 22.0058 29.4595C22.5445 29.4595 22.9365 29.6861 23.1818 30.1395C23.4592 29.6861 23.8778 29.4595 24.4378 29.4595ZM27.3949 31.8835C27.4642 32.2408 27.6269 32.5181 27.8829 32.7155C28.1442 32.9128 28.4642 33.0115 28.8429 33.0115C29.3709 33.0115 29.7549 32.8168 29.9949 32.4275L30.5869 32.7635C30.1976 33.3661 29.6109 33.6675 28.8269 33.6675C28.1922 33.6675 27.6749 33.4701 27.2749 33.0755C26.8802 32.6755 26.6829 32.1715 26.6829 31.5635C26.6829 30.9608 26.8776 30.4595 27.2669 30.0595C27.6562 29.6595 28.1602 29.4595 28.7789 29.4595C29.3656 29.4595 29.8429 29.6675 30.2109 30.0835C30.5842 30.4941 30.7709 30.9901 30.7709 31.5715C30.7709 31.6728 30.7629 31.7768 30.7469 31.8835H27.3949ZM28.7789 30.1155C28.4056 30.1155 28.0962 30.2221 27.8509 30.4355C27.6056 30.6435 27.4536 30.9235 27.3949 31.2755H30.0669C30.0082 30.8968 29.8589 30.6088 29.6189 30.4115C29.3789 30.2141 29.0989 30.1155 28.7789 30.1155Z" fill="#4E9C0B"/>
<path d="M40 20C40 23.9556 38.827 27.8224 36.6294 31.1114C34.4318 34.4004 31.3082 36.9638 27.6537 38.4776C23.9991 39.9913 19.9778 40.3874 16.0982 39.6157C12.2186 38.844 8.65492 36.9392 5.85787 34.1421C3.06082 31.3451 1.15601 27.7814 0.384303 23.9018C-0.387401 20.0222 0.00866568 16.0008 1.52242 12.3463C3.03617 8.69181 5.59962 5.56823 8.8886 3.37061C12.1776 1.17298 16.0444 0 20 0C25.3025 0.00582319 30.3862 2.11483 34.1357 5.86429C37.8852 9.61376 39.9942 14.6975 40 20Z" fill="#4E9C0B"/>
<path d="M27.2627 27.7202C27.2627 27.9578 27.169 28.1857 27.0022 28.3538C26.8354 28.5218 26.6091 28.6162 26.3732 28.6162H13.9078C13.6719 28.6162 13.4456 28.5218 13.2788 28.3538C13.112 28.1857 13.0182 27.9578 13.0182 27.7202V19.6513H10.3477L19.5375 11.2317C19.7011 11.0825 19.9139 10.9999 20.1345 10.9999C20.3552 10.9999 20.568 11.0825 20.7315 11.2317L29.9214 19.6513H27.2627V27.7202ZM17.1137 22.1692L16.2321 22.6824L17.1216 24.236L17.9953 23.7288C18.3495 24.0666 18.7776 24.3159 19.245 24.4565V25.4829H21.026V24.4485C21.4934 24.3105 21.9221 24.064 22.2778 23.7288L23.1613 24.242L24.0509 22.6884L23.1693 22.1752C23.2811 21.698 23.2811 21.2011 23.1693 20.7238L24.0509 20.2106L23.1613 18.657L22.2778 19.1702C21.9235 18.8324 21.4954 18.5831 21.028 18.4425V17.4101H19.245V18.4365C18.7776 18.5771 18.3495 18.8264 17.9953 19.1642L17.1137 18.649L16.2242 20.2026L17.1057 20.7158C16.9936 21.1937 16.9936 21.6913 17.1057 22.1692H17.1137ZM20.1465 22.7866C19.8828 22.7862 19.6253 22.7071 19.4063 22.5593C19.1873 22.4115 19.0167 22.2016 18.9161 21.9561C18.8155 21.7106 18.7893 21.4407 18.841 21.1802C18.8927 20.9198 19.0198 20.6807 19.2064 20.4931C19.3929 20.3054 19.6305 20.1777 19.8891 20.126C20.1477 20.0744 20.4156 20.1011 20.6591 20.2028C20.9027 20.3045 21.1108 20.4767 21.2572 20.6975C21.4036 20.9183 21.4818 21.1779 21.4818 21.4435C21.4815 21.6208 21.4464 21.7963 21.3786 21.96C21.3108 22.1236 21.2115 22.2721 21.0864 22.3969C20.9614 22.5218 20.8131 22.6204 20.6501 22.6873C20.4871 22.7542 20.3125 22.788 20.1365 22.7866H20.1465Z" fill="white"/>
</svg>
