<svg id="Lock" xmlns="http://www.w3.org/2000/svg" width="14.124" height="16.616" viewBox="0 0 14.124 16.616">
  <path id="Fill_1" data-name="Fill 1" d="M10.578,11.038H3.547A3.512,3.512,0,0,1,0,7.57v-4.1A3.512,3.512,0,0,1,3.547,0h7.031a3.512,3.512,0,0,1,3.547,3.469v4.1A3.512,3.512,0,0,1,10.578,11.038ZM7.058,3.88a.727.727,0,0,0-.734.719V6.431a.738.738,0,0,0,1.477,0V4.6A.732.732,0,0,0,7.058,3.88Z" transform="translate(0 5.578)" fill="#4e9c0b"/>
  <path id="Fill_4" data-name="Fill 4" d="M9.177,4.483V5.705a3.45,3.45,0,0,0-.929-.124H7.7v-1.1A3.076,3.076,0,0,0,4.593,1.445,3.08,3.08,0,0,0,1.477,4.467V5.581H.937A3.171,3.171,0,0,0,0,5.713V4.483A4.542,4.542,0,0,1,4.576,0a4.537,4.537,0,0,1,4.6,4.483" transform="translate(2.474 0)" fill="#4e9c0b" opacity="0.4"/>
</svg>
