<svg xmlns="http://www.w3.org/2000/svg" width="12.442" height="14.637" viewBox="0 0 12.442 14.637">
  <g id="Iconly_Bold_Notification" data-name="Iconly/Bold/Notification" transform="translate(0)">
    <g id="Notification" transform="translate(0)">
      <path id="Notification-2" data-name="Notification" d="M5.842,14.613a2.649,2.649,0,0,1-1.254-.536,1.135,1.135,0,0,1-.509-.858c0-.369.338-.537.651-.61a19,19,0,0,1,2.961,0c.313.072.651.241.651.61a1.137,1.137,0,0,1-.508.859,2.66,2.66,0,0,1-1.253.536,2.924,2.924,0,0,1-.374.024A2.683,2.683,0,0,1,5.842,14.613ZM2.755,11.525A3.319,3.319,0,0,1,.632,10.491,2.645,2.645,0,0,1,0,8.75,2.465,2.465,0,0,1,.535,7.059a2.779,2.779,0,0,0,.778-2.085V4.662a4.117,4.117,0,0,1,.939-2.824A5.176,5.176,0,0,1,6.188,0h.066a5.153,5.153,0,0,1,4,1.921,4.059,4.059,0,0,1,.875,2.741v.312a2.846,2.846,0,0,0,.777,2.085,2.462,2.462,0,0,1,.535,1.691,2.645,2.645,0,0,1-.632,1.741,3.322,3.322,0,0,1-2.122,1.034c-1.15.1-2.3.18-3.467.18A30.51,30.51,0,0,1,2.755,11.525Z" fill="#f3b755"/>
    </g>
  </g>
</svg>
