<svg xmlns="http://www.w3.org/2000/svg" width="157.183" height="90.467" viewBox="0 0 157.183 90.467">
  <g id="_3339153" data-name="3339153" transform="translate(-32.774 -52.33)">
    <g id="Background_Complete" transform="translate(39.219 54.549)">
      <g id="Group_14404" data-name="Group 14404" transform="translate(134.406 26.608)">
        <g id="Group_14390" data-name="Group 14390" transform="translate(4.997)">
          <g id="Group_14389" data-name="Group 14389">
            <path id="Path_23061" data-name="Path 23061" d="M672.96,178.209a3.111,3.111,0,0,1,.8,2.3,5.472,5.472,0,0,1-.743,2.371,9.7,9.7,0,0,1-3.636,3.382,6.557,6.557,0,0,1,.009-4.638c.5-1.6,2.368-4.177,3.572-3.416" transform="translate(-668.945 -178.072)" fill="#ebebeb"/>
          </g>
        </g>
        <g id="Group_14392" data-name="Group 14392" transform="translate(5.879 9.063)">
          <g id="Group_14391" data-name="Group 14391">
            <path id="Path_23062" data-name="Path 23062" d="M672.79,219.782a2.656,2.656,0,0,1,1.754-2.008,3.536,3.536,0,0,1,2.714.236,1.49,1.49,0,0,1,.862.908,1.133,1.133,0,0,1-.422,1.071,2.31,2.31,0,0,1-1.107.452,4.562,4.562,0,0,1-3.8-.658" transform="translate(-672.79 -217.603)" fill="#ebebeb"/>
          </g>
        </g>
        <g id="Group_14395" data-name="Group 14395" transform="translate(2.403 10.527)">
          <g id="Group_14394" data-name="Group 14394">
            <g id="Group_14393" data-name="Group 14393">
              <path id="Path_23063" data-name="Path 23063" d="M657.628,228.6a1.94,1.94,0,0,1,.17-.287l.491-.763a9.3,9.3,0,0,1,1.935-2.286,5.723,5.723,0,0,1,2.717-1.233,3.831,3.831,0,0,1,.91-.025c.108.007.19.028.245.034a.315.315,0,0,1,.085.021,6.1,6.1,0,0,0-1.229.05,5.88,5.88,0,0,0-2.657,1.243,10.078,10.078,0,0,0-1.94,2.24c-.218.314-.394.569-.52.743A1.622,1.622,0,0,1,657.628,228.6Z" transform="translate(-657.628 -223.989)" fill="#e0e0e0"/>
            </g>
          </g>
        </g>
        <g id="Group_14398" data-name="Group 14398" transform="translate(2.302 2.23)">
          <g id="Group_14397" data-name="Group 14397">
            <g id="Group_14396" data-name="Group 14396">
              <path id="Path_23064" data-name="Path 23064" d="M662.648,187.8a.551.551,0,0,1-.039.14c-.034.1-.08.232-.135.392-.119.339-.3.83-.523,1.433-.452,1.206-1.1,2.863-1.85,4.677s-1.476,3.441-2.013,4.61c-.268.585-.491,1.057-.646,1.38-.076.154-.135.275-.183.371a.607.607,0,0,1-.071.126.589.589,0,0,1,.05-.135c.041-.1.1-.225.163-.381.151-.344.36-.816.614-1.4.518-1.178,1.227-2.808,1.981-4.622s1.412-3.464,1.882-4.663c.232-.589.42-1.071.557-1.419.064-.158.115-.284.156-.385A.546.546,0,0,1,662.648,187.8Z" transform="translate(-657.187 -187.8)" fill="#e0e0e0"/>
            </g>
          </g>
        </g>
        <g id="Group_14400" data-name="Group 14400" transform="translate(0 5.16)">
          <g id="Group_14399" data-name="Group 14399">
            <path id="Path_23065" data-name="Path 23065" d="M650.49,206.678a6.211,6.211,0,0,0-1.408-5.5c-.335-.371-.828-.727-1.3-.557s-.626.761-.635,1.263a5.3,5.3,0,0,0,3.26,4.9" transform="translate(-647.146 -200.58)" fill="#ebebeb"/>
          </g>
        </g>
        <g id="Group_14403" data-name="Group 14403" transform="translate(1.559 7.253)">
          <g id="Group_14402" data-name="Group 14402">
            <g id="Group_14401" data-name="Group 14401">
              <path id="Path_23066" data-name="Path 23066" d="M653.947,209.709a1.72,1.72,0,0,1,.218.225,3.133,3.133,0,0,1,.234.282c.083.117.19.241.284.4s.206.319.3.509a6.138,6.138,0,0,1,.291.614,6.987,6.987,0,0,1,.417,1.5,6.753,6.753,0,0,1,.041,1.554,6.178,6.178,0,0,1-.1.672,5.206,5.206,0,0,1-.147.573,4.527,4.527,0,0,1-.165.459,2.681,2.681,0,0,1-.149.335,1.412,1.412,0,0,1-.151.275c-.023-.011.188-.406.385-1.094a5.248,5.248,0,0,0,.131-.569,6.081,6.081,0,0,0,.092-.663,6.94,6.94,0,0,0-.05-1.527,7.086,7.086,0,0,0-.4-1.474,6.319,6.319,0,0,0-.277-.61,5.673,5.673,0,0,0-.287-.509C654.233,210.051,653.926,209.725,653.947,209.709Z" transform="translate(-653.946 -209.709)" fill="#e0e0e0"/>
            </g>
          </g>
        </g>
      </g>
      <g id="Group_14428" data-name="Group 14428" transform="translate(0 12.324)">
        <g id="Group_14406" data-name="Group 14406">
          <g id="Group_14405" data-name="Group 14405">
            <path id="Path_23067" data-name="Path 23067" d="M61.844,115.9s-2.109.681-.064,5.2a57.258,57.258,0,0,0,3.5,6.782s.351,1.043-.518,1.162-2.756-.273-3.191.763c-.449,1.078.3,2.148,1.868,3.129s4.934,3.26,5.236,3.469.582.695,0,.871-4.876.422-4.638,2.453,5.064,4.049,5.587,4.28.64.463.582.752-1.509.236-2.728.358-2.611.472-2.375,1.632,3.031,3.707,10.058,4.73l3.288.261,1.924-2.7c3.762-6.025,3.627-9.8,2.893-10.732s-1.9-.1-2.781.757-1.777,1.995-2.036,1.85-.36-.383-.2-.931,1.742-5.534.346-7.029-4.361,1.623-4.869,1.953-.7-.206-.663-.564.475-4.4.741-6.236-.069-3.1-1.181-3.448c-1.073-.339-1.992,1.353-2.646,1.94s-1.222-.355-1.222-.355a57.479,57.479,0,0,0-2.909-7.059c-2.128-4.484-4.051-3.276-4.051-3.276" transform="translate(-60.887 -115.764)" fill="#ebebeb"/>
          </g>
        </g>
        <g id="Group_14409" data-name="Group 14409" transform="translate(2.782 4.188)">
          <g id="Group_14408" data-name="Group 14408">
            <g id="Group_14407" data-name="Group 14407">
              <path id="Path_23068" data-name="Path 23068" d="M87.94,166.606c-1.55-3.3-4.2-9.212-6.511-14.274s-4.4-9.643-5.931-12.949c-.766-1.651-1.387-2.987-1.82-3.916-.213-.459-.378-.818-.493-1.064-.055-.119-.1-.211-.126-.277s-.039-.1-.039-.1.018.03.048.092.078.156.135.273c.119.245.291.6.511,1.057.442.917,1.075,2.251,1.848,3.9,1.55,3.3,3.652,7.875,5.958,12.937S86.473,163.27,88,166.576" transform="translate(-73.02 -134.03)" fill="#e0e0e0"/>
            </g>
          </g>
        </g>
        <g id="Group_14412" data-name="Group 14412" transform="translate(3.304 14.698)">
          <g id="Group_14411" data-name="Group 14411">
            <g id="Group_14410" data-name="Group 14410">
              <path id="Path_23069" data-name="Path 23069" d="M75.3,179.876a1.065,1.065,0,0,1,.227.076c.144.053.348.138.6.243.5.213,1.194.525,1.951.883l1.93.922c.232.11.429.2.587.275a.977.977,0,0,1,.211.11,1.123,1.123,0,0,1-.227-.073c-.144-.055-.348-.138-.6-.248-.5-.218-1.19-.539-1.944-.9s-1.419-.667-1.935-.908l-.589-.273A.973.973,0,0,1,75.3,179.876Z" transform="translate(-75.3 -179.875)" fill="#e0e0e0"/>
            </g>
          </g>
        </g>
        <g id="Group_14415" data-name="Group 14415" transform="translate(9.044 10.566)">
          <g id="Group_14414" data-name="Group 14414">
            <g id="Group_14413" data-name="Group 14413">
              <path id="Path_23070" data-name="Path 23070" d="M100.337,168.292c-.025-.011.553-1.463,1.3-3.242s1.364-3.212,1.389-3.2-.553,1.463-1.3,3.242S100.365,168.3,100.337,168.292Z" transform="translate(-100.337 -161.85)" fill="#e0e0e0"/>
            </g>
          </g>
        </g>
        <g id="Group_14418" data-name="Group 14418" transform="translate(12.236 19.977)">
          <g id="Group_14417" data-name="Group 14417">
            <g id="Group_14416" data-name="Group 14416">
              <path id="Path_23071" data-name="Path 23071" d="M114.259,207.863a1.14,1.14,0,0,1,.142-.2c.112-.138.25-.312.415-.516.351-.436.83-1.039,1.337-1.724s.945-1.321,1.259-1.784c.147-.218.273-.4.371-.548a1.09,1.09,0,0,1,.147-.195,1.029,1.029,0,0,1-.112.215c-.078.135-.195.33-.344.566-.3.475-.727,1.117-1.238,1.8s-1,1.286-1.364,1.71c-.183.211-.332.381-.44.5A1.037,1.037,0,0,1,114.259,207.863Z" transform="translate(-114.259 -202.899)" fill="#e0e0e0"/>
            </g>
          </g>
        </g>
        <g id="Group_14421" data-name="Group 14421" transform="translate(6.583 23.995)">
          <g id="Group_14420" data-name="Group 14420">
            <g id="Group_14419" data-name="Group 14419">
              <path id="Path_23072" data-name="Path 23072" d="M89.6,220.43a.923.923,0,0,1,.225.014c.165.021.367.046.608.078.511.069,1.217.172,2,.291s1.483.234,1.992.321l.6.11a.113.113,0,1,1-.007.039c-.165-.021-.367-.046-.608-.078-.511-.069-1.217-.172-2-.291s-1.483-.234-1.992-.321l-.6-.11A1.017,1.017,0,0,1,89.6,220.43Z" transform="translate(-89.6 -220.426)" fill="#e0e0e0"/>
            </g>
          </g>
        </g>
        <g id="Group_14424" data-name="Group 14424" transform="translate(8.511 31.357)">
          <g id="Group_14423" data-name="Group 14423">
            <g id="Group_14422" data-name="Group 14422">
              <path id="Path_23073" data-name="Path 23073" d="M98.01,252.541a1.485,1.485,0,0,1,.287.021l.779.1c.656.085,1.564.211,2.563.355s1.905.28,2.559.383c.312.053.573.094.775.128a1.61,1.61,0,0,1,.282.06,1.485,1.485,0,0,1-.287-.021l-.779-.1c-.656-.085-1.564-.211-2.563-.355s-1.905-.28-2.559-.383c-.312-.053-.573-.094-.773-.128A1.545,1.545,0,0,1,98.01,252.541Z" transform="translate(-98.01 -252.539)" fill="#e0e0e0"/>
            </g>
          </g>
        </g>
        <g id="Group_14427" data-name="Group 14427" transform="translate(15.586 25.908)">
          <g id="Group_14426" data-name="Group 14426">
            <g id="Group_14425" data-name="Group 14425">
              <path id="Path_23074" data-name="Path 23074" d="M128.869,235.191a2.011,2.011,0,0,1,.174-.255l.5-.672c.424-.569,1.006-1.355,1.625-2.242s1.16-1.7,1.548-2.3c.186-.284.339-.523.459-.7a1.753,1.753,0,0,1,.179-.252,1.647,1.647,0,0,1-.144.273c-.1.172-.245.42-.431.722-.371.605-.9,1.428-1.525,2.318s-1.213,1.669-1.651,2.228c-.22.277-.4.5-.53.653A1.613,1.613,0,0,1,128.869,235.191Z" transform="translate(-128.869 -228.769)" fill="#e0e0e0"/>
            </g>
          </g>
        </g>
      </g>
      <g id="Group_14458" data-name="Group 14458" transform="translate(60.163 0)">
        <g id="Group_14432" data-name="Group 14432">
          <g id="Group_14431" data-name="Group 14431">
            <g id="Group_14430" data-name="Group 14430">
              <g id="Group_14429" data-name="Group 14429">
                <path id="Path_23075" data-name="Path 23075" d="M332.287,101.59c-5.874-2.955-8.084-9.7-8.772-15.947a6.831,6.831,0,0,1-.025-3.1,2.135,2.135,0,0,1,2.416-1.467c.823.252,1.288,1.1,1.827,1.779a6.147,6.147,0,0,0,2.772,1.974,2.338,2.338,0,0,0,2.16-.115c.823-.624.75-1.875.6-2.907q-.437-2.885-.871-5.768a9.668,9.668,0,0,1-.131-3.111,3.23,3.23,0,0,1,1.7-2.455,1.964,1.964,0,0,1,2.593.954,9.9,9.9,0,0,1,.216,1.282,1.1,1.1,0,0,0,.784.931c.429.062.8-.291,1.066-.637a13.844,13.844,0,0,0,1.926-4.076,19.2,19.2,0,0,1,1.745-4.173,5.645,5.645,0,0,1,3.476-2.669,3.377,3.377,0,0,1,3.758,1.786c.585,1.4-.05,3-.8,4.312a23.346,23.346,0,0,1-4.138,5.268,1.914,1.914,0,0,0-.679.979c-.124.72.626,1.309,1.339,1.437a12.016,12.016,0,0,0,2.448-.078,2.348,2.348,0,0,1,2.157.924c.575.995-.147,2.228-.91,3.077A20.019,20.019,0,0,1,343.578,84a6.709,6.709,0,0,0-2.017,1.369,1.932,1.932,0,0,0-.3,2.277,1.965,1.965,0,0,0,2.233.507,13.925,13.925,0,0,0,2.141-1.192c1.341-.741,3.187-.908,4.273.188a3.3,3.3,0,0,1,.766,2.838,7.6,7.6,0,0,1-1.2,2.779,20.057,20.057,0,0,1-7.616,7.183,13.816,13.816,0,0,1-9.578,1.639" transform="translate(-323.309 -62.01)" fill="#f5f5f5"/>
              </g>
            </g>
          </g>
        </g>
        <g id="Group_14437" data-name="Group 14437" transform="translate(10.019 0.651)">
          <g id="Group_14436" data-name="Group 14436">
            <g id="Group_14435" data-name="Group 14435">
              <g id="Group_14434" data-name="Group 14434">
                <g id="Group_14433" data-name="Group 14433">
                  <path id="Path_23076" data-name="Path 23076" d="M367.01,99.647a93.251,93.251,0,0,1,2.233-10.491q.368-1.379.727-2.719c.241-.892.479-1.777.766-2.627a46.543,46.543,0,0,1,1.928-4.8c.688-1.495,1.394-2.891,2.063-4.189s1.323-2.5,1.962-3.563a37.079,37.079,0,0,1,3.386-4.8c.442-.534.8-.938,1.045-1.206.119-.128.211-.229.282-.3a.66.66,0,0,1,.1-.1.764.764,0,0,1-.087.112c-.066.078-.156.183-.266.319-.236.277-.585.688-1.018,1.229a39.194,39.194,0,0,0-3.329,4.826c-.63,1.068-1.272,2.267-1.937,3.565s-1.364,2.7-2.045,4.191a47.4,47.4,0,0,0-1.91,4.78c-.284.846-.52,1.724-.759,2.618s-.479,1.8-.724,2.719a95.551,95.551,0,0,0-2.242,10.468" transform="translate(-367.01 -64.849)" fill="#e0e0e0"/>
                </g>
              </g>
            </g>
          </g>
        </g>
        <g id="Group_14442" data-name="Group 14442" transform="translate(10.647 8.453)">
          <g id="Group_14441" data-name="Group 14441">
            <g id="Group_14440" data-name="Group 14440">
              <g id="Group_14439" data-name="Group 14439">
                <g id="Group_14438" data-name="Group 14438">
                  <path id="Path_23077" data-name="Path 23077" d="M372.9,110.022a2.168,2.168,0,0,1-.165-.426c-.1-.277-.22-.683-.367-1.188-.3-1.006-.653-2.412-1.043-3.962s-.768-2.946-1.078-3.946c-.154-.5-.282-.9-.374-1.181a2.011,2.011,0,0,1-.122-.44,2.124,2.124,0,0,1,.193.415c.115.271.261.669.431,1.165.344.993.745,2.389,1.135,3.939.381,1.531.727,2.914.99,3.973q.182.715.307,1.2A2.027,2.027,0,0,1,372.9,110.022Z" transform="translate(-369.749 -98.88)" fill="#e0e0e0"/>
                </g>
              </g>
            </g>
          </g>
        </g>
        <g id="Group_14447" data-name="Group 14447" transform="translate(13.795 15.192)">
          <g id="Group_14446" data-name="Group 14446">
            <g id="Group_14445" data-name="Group 14445">
              <g id="Group_14444" data-name="Group 14444">
                <g id="Group_14443" data-name="Group 14443">
                  <path id="Path_23078" data-name="Path 23078" d="M396.4,128.278a2.867,2.867,0,0,1-.52.14c-.337.08-.823.193-1.421.351-1.2.307-2.836.789-4.62,1.4s-3.375,1.238-4.512,1.724c-.571.238-1.027.445-1.343.585a2.816,2.816,0,0,1-.5.2,2.846,2.846,0,0,1,.468-.271c.307-.16.757-.385,1.321-.642,1.126-.518,2.714-1.165,4.5-1.781a47.257,47.257,0,0,1,4.649-1.348c.6-.142,1.1-.234,1.438-.291A2.774,2.774,0,0,1,396.4,128.278Z" transform="translate(-383.479 -128.274)" fill="#e0e0e0"/>
                </g>
              </g>
            </g>
          </g>
        </g>
        <g id="Group_14452" data-name="Group 14452" transform="translate(1.013 19.194)">
          <g id="Group_14451" data-name="Group 14451">
            <g id="Group_14450" data-name="Group 14450">
              <g id="Group_14449" data-name="Group 14449">
                <g id="Group_14448" data-name="Group 14448">
                  <path id="Path_23079" data-name="Path 23079" d="M336.862,161.716a.672.672,0,0,1-.115-.149c-.08-.121-.179-.268-.3-.447-.257-.39-.61-.963-1.041-1.678-.86-1.428-1.985-3.439-3.2-5.672s-2.32-4.253-3.148-5.7c-.406-.7-.738-1.279-.988-1.708-.105-.186-.195-.339-.266-.465a.727.727,0,0,1-.083-.17.756.756,0,0,1,.115.149c.08.121.179.268.3.447.254.39.61.963,1.041,1.678.86,1.428,1.985,3.439,3.2,5.674s2.318,4.253,3.148,5.7c.406.7.738,1.279.988,1.708.105.186.195.339.266.465A.708.708,0,0,1,336.862,161.716Z" transform="translate(-327.728 -145.73)" fill="#e0e0e0"/>
                </g>
              </g>
            </g>
          </g>
        </g>
        <g id="Group_14457" data-name="Group 14457" transform="translate(10.147 26.946)">
          <g id="Group_14456" data-name="Group 14456">
            <g id="Group_14455" data-name="Group 14455">
              <g id="Group_14454" data-name="Group 14454">
                <g id="Group_14453" data-name="Group 14453">
                  <path id="Path_23080" data-name="Path 23080" d="M384.386,179.546a.771.771,0,0,1-.165.1l-.488.245-1.8.885c-1.52.747-3.609,1.8-5.913,2.976s-4.4,2.21-5.94,2.928c-.768.358-1.392.642-1.827.83l-.5.213a.727.727,0,0,1-.181.062.77.77,0,0,1,.165-.1l.488-.245,1.8-.885c1.52-.747,3.609-1.8,5.913-2.976s4.4-2.21,5.94-2.925c.768-.358,1.392-.642,1.827-.83l.5-.213A.6.6,0,0,1,384.386,179.546Z" transform="translate(-367.57 -179.544)" fill="#e0e0e0"/>
                </g>
              </g>
            </g>
          </g>
        </g>
      </g>
    </g>
    <g id="Floor" transform="translate(34.438 142.083)">
      <g id="Group_14461" data-name="Group 14461">
        <g id="Group_14460" data-name="Group 14460">
          <path id="Path_23082" data-name="Path 23082" d="M193.618,443.88c0,.032-34.384.06-76.791.06s-76.8-.028-76.8-.06,34.378-.06,76.8-.06S193.618,443.847,193.618,443.88Z" transform="translate(-40.03 -443.82)" fill="#263238"/>
        </g>
      </g>
    </g>
    <g id="Device" transform="translate(62.497 52.33)">
      <g id="Group_14493" data-name="Group 14493">
        <g id="Group_14469" data-name="Group 14469">
          <g id="Group_14468" data-name="Group 14468">
            <g id="Group_14467" data-name="Group 14467">
              <g id="Group_14466" data-name="Group 14466">
                <g id="Group_14463" data-name="Group 14463">
                  <g id="Group_14462" data-name="Group 14462">
                    <path id="Path_23083" data-name="Path 23083" d="M199.5,142.142,169.027,142a6.637,6.637,0,0,1-6.607-6.667l.323-76.4a6.636,6.636,0,0,1,6.669-6.61l30.473.14a6.637,6.637,0,0,1,6.607,6.667l-.323,76.4A6.636,6.636,0,0,1,199.5,142.142Z" transform="translate(-162.42 -52.33)" fill="#455a64"/>
                  </g>
                </g>
                <g id="Group_14465" data-name="Group 14465" transform="translate(2.027 2.637)">
                  <g id="Group_14464" data-name="Group 14464">
                    <path id="Path_23084" data-name="Path 23084" d="M206.655,63.97l-5.908-.028a1.464,1.464,0,0,0-1.44,1.492l0,1.071A1.466,1.466,0,0,1,197.863,68l-11.516-.053a1.469,1.469,0,0,1-1.428-1.506l0-1.071a1.469,1.469,0,0,0-1.428-1.506l-2.077-.009-5.172-.023a4.65,4.65,0,0,0-4.67,4.629l-.316,74.569a4.647,4.647,0,0,0,4.626,4.668l30.414.14a4.65,4.65,0,0,0,4.67-4.629l.316-74.569A4.654,4.654,0,0,0,206.655,63.97Z" transform="translate(-171.26 -63.83)" fill="#fafafa"/>
                  </g>
                </g>
              </g>
            </g>
          </g>
        </g>
        <g id="Group_14479" data-name="Group 14479" transform="translate(17.197 67.797)">
          <path id="Path_23094" data-name="Path 23094" d="M237.43,359.678l11.22-11.628,10.672,10.878Z" transform="translate(-237.43 -348.05)" fill="#ebebeb"/>
        </g>
        <g id="Group_14480" data-name="Group 14480" transform="translate(30.166 54.722)">
          <path id="Path_23095" data-name="Path 23095" d="M294,302.593l11.683-11.573c0,.514-.1,24.006-.1,24.006Z" transform="translate(-294 -291.02)" fill="#ebebeb"/>
        </g>
        <g id="Group_14481" data-name="Group 14481" transform="translate(7.66 59.794)">
          <path id="Path_23096" data-name="Path 23096" d="M208.334,313.14l6.628,6.628-13.086,13.5-6.046-7.251Z" transform="translate(-195.83 -313.14)" fill="#ebebeb"/>
        </g>
        <g id="Group_14483" data-name="Group 14483" transform="translate(2.024 73.613)">
          <path id="Path_23098" data-name="Path 23098" d="M171.25,376.841l3.858-3.421,5.344,6.312h-9.2v-2.414" transform="translate(-171.25 -373.42)" fill="#ebebeb"/>
        </g>
        <g id="Group_14490" data-name="Group 14490" transform="translate(5.874 9.591)">
          <g id="Group_14485" data-name="Group 14485">
            <g id="Group_14484" data-name="Group 14484">
              <path id="Path_23099" data-name="Path 23099" d="M189.184,96.244a9.856,9.856,0,0,1-1.144-.995h0v-.087h0l0,0,0,0,.007-.007.014-.014.028-.028.057-.053.11-.1c.071-.066.142-.131.211-.193l.36-.321a1.589,1.589,0,0,1,.353-.273,1.68,1.68,0,0,1-.3.335c-.11.108-.222.22-.342.339l-.2.2-.11.1-.055.053-.028.028-.014.014-.007.007,0,0,0,0h0V95.16h0A10.054,10.054,0,0,1,189.184,96.244Z" transform="translate(-188.04 -94.166)" fill="#263238"/>
            </g>
          </g>
          <g id="Group_14489" data-name="Group 14489" transform="translate(32.337 0.081)">
            <g id="Group_14486" data-name="Group 14486">
              <path id="Path_23100" data-name="Path 23100" d="M329.585,94.768a.248.248,0,1,1-.248-.248A.248.248,0,0,1,329.585,94.768Z" transform="translate(-329.09 -94.52)" fill="#263238"/>
            </g>
            <g id="Group_14487" data-name="Group 14487" transform="translate(0.001 0.856)">
              <path id="Path_23101" data-name="Path 23101" d="M329.518,98.327a.248.248,0,1,1-.351,0A.249.249,0,0,1,329.518,98.327Z" transform="translate(-329.095 -98.255)" fill="#263238"/>
            </g>
            <g id="Group_14488" data-name="Group 14488" transform="translate(0 1.713)">
              <path id="Path_23102" data-name="Path 23102" d="M329.585,102.238a.248.248,0,1,1-.248-.248A.248.248,0,0,1,329.585,102.238Z" transform="translate(-329.09 -101.99)" fill="#263238"/>
            </g>
          </g>
        </g>
        <g id="Group_14491" data-name="Group 14491" transform="translate(17.238 10.936)">
          <rect id="Rectangle_2817" data-name="Rectangle 2817" width="10.725" height="0.894" fill="#263238"/>
        </g>
      </g>
    </g>
    <g id="Car" transform="translate(45.319 86.15)">
      <g id="Group_14653" data-name="Group 14653">
        <g id="Group_14649" data-name="Group 14649">
          <g id="Group_14498" data-name="Group 14498" transform="translate(7.968 25.051)">
            <g id="Group_14495" data-name="Group 14495">
              <g id="Group_14494" data-name="Group 14494">
                <rect id="Rectangle_2818" data-name="Rectangle 2818" width="127.198" height="18.664" fill="#e8505b"/>
              </g>
            </g>
            <g id="Group_14497" data-name="Group 14497">
              <g id="Group_14496" data-name="Group 14496">
                <rect id="Rectangle_2819" data-name="Rectangle 2819" width="127.198" height="18.664" fill="#a4762c"/>
              </g>
            </g>
          </g>
          <g id="Group_14529" data-name="Group 14529" transform="translate(11.995 30.526)">
            <g id="Group_14504" data-name="Group 14504" transform="translate(0 0)">
              <g id="Group_14503" data-name="Group 14503">
                <g id="Group_14502" data-name="Group 14502">
                  <g id="Group_14501" data-name="Group 14501">
                    <g id="Group_14500" data-name="Group 14500">
                      <g id="Group_14499" data-name="Group 14499">
                        <circle id="Ellipse_884" data-name="Ellipse 884" cx="12.265" cy="12.265" r="12.265" transform="translate(0 1.646) rotate(-3.848)" fill="#263238"/>
                      </g>
                    </g>
                  </g>
                </g>
              </g>
            </g>
            <g id="Group_14510" data-name="Group 14510" transform="translate(0.8 12.854)">
              <g id="Group_14509" data-name="Group 14509">
                <g id="Group_14508" data-name="Group 14508">
                  <g id="Group_14507" data-name="Group 14507">
                    <g id="Group_14506" data-name="Group 14506">
                      <g id="Group_14505" data-name="Group 14505">
                        <path id="Path_23104" data-name="Path 23104" d="M143.308,389.07c0,.011,0,.021,0,.032a12.266,12.266,0,0,0,24.529.353c0-.011,0-.021,0-.032Z" transform="translate(-143.304 -389.07)" fill="#263238"/>
                      </g>
                    </g>
                  </g>
                </g>
              </g>
            </g>
            <g id="Group_14516" data-name="Group 14516" transform="translate(4.455 4.453)">
              <g id="Group_14515" data-name="Group 14515">
                <g id="Group_14514" data-name="Group 14514">
                  <g id="Group_14513" data-name="Group 14513">
                    <g id="Group_14512" data-name="Group 14512">
                      <g id="Group_14511" data-name="Group 14511">
                        <path id="Path_23105" data-name="Path 23105" d="M159.247,360.912a8.611,8.611,0,1,0,8.735-8.485A8.611,8.611,0,0,0,159.247,360.912Z" transform="translate(-159.246 -352.426)" fill="#fafafa"/>
                      </g>
                    </g>
                  </g>
                </g>
              </g>
            </g>
            <g id="Group_14522" data-name="Group 14522" transform="translate(4.454 4.453)">
              <g id="Group_14521" data-name="Group 14521">
                <g id="Group_14520" data-name="Group 14520">
                  <g id="Group_14519" data-name="Group 14519">
                    <g id="Group_14518" data-name="Group 14518">
                      <g id="Group_14517" data-name="Group 14517">
                        <path id="Path_23106" data-name="Path 23106" d="M167.975,352.427a8.611,8.611,0,0,0-8.735,8.485l17.22.248A8.606,8.606,0,0,0,167.975,352.427Z" transform="translate(-159.24 -352.426)" fill="#e0e0e0"/>
                      </g>
                    </g>
                  </g>
                </g>
              </g>
            </g>
            <g id="Group_14528" data-name="Group 14528" transform="translate(7.821 7.817)">
              <g id="Group_14527" data-name="Group 14527">
                <g id="Group_14526" data-name="Group 14526">
                  <g id="Group_14525" data-name="Group 14525">
                    <g id="Group_14524" data-name="Group 14524">
                      <g id="Group_14523" data-name="Group 14523">
                        <path id="Path_23107" data-name="Path 23107" d="M173.928,372.268a5.246,5.246,0,1,0,5.321-5.17A5.248,5.248,0,0,0,173.928,372.268Z" transform="translate(-173.928 -367.098)" fill="#263238"/>
                      </g>
                    </g>
                  </g>
                </g>
              </g>
            </g>
          </g>
          <g id="Group_14560" data-name="Group 14560" transform="translate(105.89 30.637)">
            <g id="Group_14535" data-name="Group 14535" transform="translate(0 0)">
              <g id="Group_14534" data-name="Group 14534">
                <g id="Group_14533" data-name="Group 14533">
                  <g id="Group_14532" data-name="Group 14532">
                    <g id="Group_14531" data-name="Group 14531">
                      <g id="Group_14530" data-name="Group 14530">
                        <circle id="Ellipse_885" data-name="Ellipse 885" cx="12.265" cy="12.265" r="12.265" transform="translate(0 1.418) rotate(-3.314)" fill="#263238"/>
                      </g>
                    </g>
                  </g>
                </g>
              </g>
            </g>
            <g id="Group_14541" data-name="Group 14541" transform="translate(0.695 12.743)">
              <g id="Group_14540" data-name="Group 14540">
                <g id="Group_14539" data-name="Group 14539">
                  <g id="Group_14538" data-name="Group 14538">
                    <g id="Group_14537" data-name="Group 14537">
                      <g id="Group_14536" data-name="Group 14536">
                        <path id="Path_23108" data-name="Path 23108" d="M552.408,389.07c0,.011,0,.021,0,.032a12.266,12.266,0,0,0,24.529.353c0-.011,0-.021,0-.032Z" transform="translate(-552.404 -389.07)" fill="#263238"/>
                      </g>
                    </g>
                  </g>
                </g>
              </g>
            </g>
            <g id="Group_14547" data-name="Group 14547" transform="translate(4.35 4.342)">
              <g id="Group_14546" data-name="Group 14546">
                <g id="Group_14545" data-name="Group 14545">
                  <g id="Group_14544" data-name="Group 14544">
                    <g id="Group_14543" data-name="Group 14543">
                      <g id="Group_14542" data-name="Group 14542">
                        <path id="Path_23109" data-name="Path 23109" d="M568.347,360.912a8.611,8.611,0,1,0,8.735-8.485A8.611,8.611,0,0,0,568.347,360.912Z" transform="translate(-568.346 -352.426)" fill="#fafafa"/>
                      </g>
                    </g>
                  </g>
                </g>
              </g>
            </g>
            <g id="Group_14553" data-name="Group 14553" transform="translate(4.349 4.342)">
              <g id="Group_14552" data-name="Group 14552">
                <g id="Group_14551" data-name="Group 14551">
                  <g id="Group_14550" data-name="Group 14550">
                    <g id="Group_14549" data-name="Group 14549">
                      <g id="Group_14548" data-name="Group 14548">
                        <path id="Path_23110" data-name="Path 23110" d="M577.075,352.427a8.611,8.611,0,0,0-8.735,8.485l17.22.248A8.606,8.606,0,0,0,577.075,352.427Z" transform="translate(-568.34 -352.426)" fill="#e0e0e0"/>
                      </g>
                    </g>
                  </g>
                </g>
              </g>
            </g>
            <g id="Group_14559" data-name="Group 14559" transform="translate(7.716 7.706)">
              <g id="Group_14558" data-name="Group 14558">
                <g id="Group_14557" data-name="Group 14557">
                  <g id="Group_14556" data-name="Group 14556">
                    <g id="Group_14555" data-name="Group 14555">
                      <g id="Group_14554" data-name="Group 14554">
                        <path id="Path_23111" data-name="Path 23111" d="M583.028,372.268a5.246,5.246,0,1,0,5.321-5.17A5.248,5.248,0,0,0,583.028,372.268Z" transform="translate(-583.028 -367.098)" fill="#263238"/>
                      </g>
                    </g>
                  </g>
                </g>
              </g>
            </g>
          </g>
          <g id="Group_14562" data-name="Group 14562">
            <g id="Group_14561" data-name="Group 14561">
              <path id="Path_23112" data-name="Path 23112" d="M128.631,214.4s-18.061,1.332-24.756,2.834c-4.718,1.059-13.815,2.884-13.705,8.609l.722,4.1a6.176,6.176,0,0,0-3.375,5.475c0,3.932-.823,10.035,7.052,10.278,1.3.041,3.764,0,3.764,0s-1.513-16.775,13.9-17.268c15.679-.5,14.638,17.114,14.638,17.114H192.31s-2.685-17.16,14.193-17.183,14.306,17.3,14.306,17.3,6.208.536,9.1-4.681,2.137-8.932,2.137-8.932l-.1-3.3a2.136,2.136,0,0,0-2.052-2.073h0s1.128-8.306-.6-9.744-11.215-10.108-11.215-10.108l.452-.284a1.064,1.064,0,0,0-.22-1.907c-3.6-1.238-10.723-3.689-12.4-4.273a3.107,3.107,0,0,0-.777-.163c-1-.076-3.826-.257-9.019-.312-6.325-.066-31.439,0-31.439,0s-8.643.711-13.458,2.831C146.158,204.94,128.631,214.4,128.631,214.4Z" transform="translate(-87.493 -199.851)" fill="#f3b755"/>
            </g>
          </g>
          <g id="Group_14565" data-name="Group 14565" transform="translate(1.851 35.032)" opacity="0.4">
            <g id="Group_14564" data-name="Group 14564">
              <g id="Group_14563" data-name="Group 14563">
                <path id="Path_23113" data-name="Path 23113" d="M98.318,352.736a2.778,2.778,0,0,0-2.16.3,2.055,2.055,0,0,0-.525,1.355,5.768,5.768,0,0,0,.046,2.034,2.483,2.483,0,0,0,1.146,1.621,1.6,1.6,0,0,0,1.887-.225,2.454,2.454,0,0,0,.463-1.761,14.239,14.239,0,0,0-.108-2.5,1.256,1.256,0,0,0-.225-.5.7.7,0,0,0-.525-.314" transform="translate(-95.566 -352.655)"/>
              </g>
            </g>
          </g>
          <g id="Group_14567" data-name="Group 14567" transform="translate(2.677 25.466)">
            <g id="Group_14566" data-name="Group 14566">
              <path id="Path_23114" data-name="Path 23114" d="M99.892,315.559c1.917,0,3.776-.105,5.69-.234a.7.7,0,0,0,.782-.876,3.615,3.615,0,0,0-.821-2.866,3.1,3.1,0,0,0-1.754-.6,11.366,11.366,0,0,0-4.62.465Z" transform="translate(-99.17 -310.93)" fill="#fafafa"/>
            </g>
          </g>
          <g id="Group_14570" data-name="Group 14570" transform="translate(6.487 24.041)">
            <g id="Group_14569" data-name="Group 14569">
              <g id="Group_14568" data-name="Group 14568">
                <path id="Path_23115" data-name="Path 23115" d="M152.511,325.841s-.007-.055-.016-.163-.018-.273-.032-.481c-.023-.426-.057-1.05-.1-1.85s-.1-1.786-.213-2.923a23.108,23.108,0,0,0-.676-3.813,17.381,17.381,0,0,0-1.846-4.3,13.489,13.489,0,0,0-3.567-3.98,20.755,20.755,0,0,0-11.644-3.5,18.863,18.863,0,0,0-11.562,3.641A16.926,16.926,0,0,0,119.1,312.3a18.035,18.035,0,0,0-2.2,4.134,16.866,16.866,0,0,0-.929,3.753,15.753,15.753,0,0,0-.112,2.921,14.5,14.5,0,0,0,.225,1.834c.037.206.066.365.085.475s.025.163.025.163-.014-.053-.037-.16-.055-.268-.1-.472a14.1,14.1,0,0,1-.248-1.836,15.647,15.647,0,0,1,.092-2.93,16.838,16.838,0,0,1,.915-3.774,18.147,18.147,0,0,1,2.2-4.161,16.974,16.974,0,0,1,3.769-3.861,18.953,18.953,0,0,1,11.63-3.673,20.831,20.831,0,0,1,11.708,3.528,13.586,13.586,0,0,1,3.588,4.017,17.311,17.311,0,0,1,1.843,4.328,22.763,22.763,0,0,1,.66,3.829c.11,1.139.156,2.123.193,2.928s.06,1.424.078,1.852q.014.313.021.481C152.513,325.784,152.511,325.841,152.511,325.841Z" transform="translate(-115.787 -304.714)" fill="#fff"/>
              </g>
            </g>
          </g>
          <g id="Group_14573" data-name="Group 14573" transform="translate(43.324 2.211)">
            <g id="Group_14572" data-name="Group 14572">
              <g id="Group_14571" data-name="Group 14571">
                <path id="Path_23116" data-name="Path 23116" d="M277.047,252.737s0-.046-.007-.138-.009-.229-.014-.406c-.011-.36-.028-.892-.048-1.584-.039-1.389-.1-3.425-.172-6.011s-.156-5.731-.254-9.331q-.038-1.352-.076-2.786a9.446,9.446,0,0,1,.062-1.456c.034-.245.069-.491.105-.738s.1-.491.151-.741a15,15,0,0,1,1.02-2.937,14.677,14.677,0,0,1,1.68-2.79l0-.007.007,0,11.332-7.139q1.51-.953,3.061-1.928a24.049,24.049,0,0,1,3.239-1.809,33.45,33.45,0,0,1,3.517-1.405c.6-.211,1.22-.385,1.836-.569.624-.158,1.245-.335,1.882-.463a42.959,42.959,0,0,1,7.3-.922,69.155,69.155,0,0,1,7.07.023l.066,0-.014.066c-1.084,4.851-2.107,9.427-3.045,13.62l0,.009,0,.009a14.888,14.888,0,0,0-1.366,2.925,8,8,0,0,0-.463,3.029c.078,1.006.105,1.992.131,2.946s.037,1.885.055,2.783c.053,3.6.066,6.738.076,9.326s0,4.617.007,6.007c0,.692,0,1.222-.007,1.584,0,.179,0,.312,0,.406s0,.138,0,.138,0-.046,0-.138,0-.229,0-.406c0-.36,0-.892-.009-1.584-.009-1.389-.021-3.423-.034-6.007s-.041-5.727-.1-9.324q-.028-1.348-.06-2.783c-.028-.956-.057-1.937-.135-2.941a8.08,8.08,0,0,1,.463-3.068,14.919,14.919,0,0,1,1.373-2.951l-.007.016c.933-4.2,1.953-8.771,3.033-13.623l.053.071a68.9,68.9,0,0,0-7.057-.021,42.918,42.918,0,0,0-7.284.919c-.635.126-1.254.3-1.875.461-.614.183-1.229.355-1.829.566a33.221,33.221,0,0,0-3.505,1.4,23.918,23.918,0,0,0-3.223,1.8q-1.551.977-3.063,1.926c-4.03,2.533-7.838,4.929-11.342,7.13l.011-.011a14.586,14.586,0,0,0-1.669,2.767,14.805,14.805,0,0,0-1.018,2.916,21.254,21.254,0,0,0-.252,5.7c.089,3.6.167,6.743.232,9.331s.11,4.622.142,6.011c.014.692.025,1.224.034,1.584q0,.268.007.406C277.049,252.691,277.047,252.737,277.047,252.737Z" transform="translate(-276.466 -209.495)" fill="#263238"/>
              </g>
            </g>
          </g>
          <g id="Group_14576" data-name="Group 14576" transform="translate(85.527 2.306)">
            <g id="Group_14575" data-name="Group 14575">
              <g id="Group_14574" data-name="Group 14574">
                <path id="Path_23117" data-name="Path 23117" d="M460.55,210.307s.037,0,.108-.007l.316-.011,1.217-.03c1.064-.021,2.6-.05,4.514-.089,3.836-.066,9.177-.156,15.218-.259h.028l.018.023c.683.837,1.4,1.717,2.132,2.611l6.089,7.467.692.851a4.724,4.724,0,0,1,1.025,2.907,4.743,4.743,0,0,1-.369,1.875q-.361.842-.695,1.616l-2.1,4.869c-.25.571-.442,1.016-.578,1.321-.066.147-.117.261-.154.342s-.055.115-.055.115.014-.041.044-.119.08-.2.142-.346c.128-.309.316-.757.557-1.33.491-1.158,1.2-2.824,2.07-4.883a8.635,8.635,0,0,0,1.041-3.457,4.681,4.681,0,0,0-.452-1.951,4.791,4.791,0,0,0-.559-.892l-.695-.848-6.1-7.46c-.729-.894-1.449-1.774-2.132-2.611l.046.021-15.221.22-4.514.053-1.217.009h-.316Z" transform="translate(-460.55 -209.91)" fill="#263238"/>
              </g>
            </g>
          </g>
          <g id="Group_14579" data-name="Group 14579" transform="translate(71.459 20.28)">
            <g id="Group_14578" data-name="Group 14578">
              <g id="Group_14577" data-name="Group 14577">
                <path id="Path_23118" data-name="Path 23118" d="M405.572,290.972c0-.007.064-.007.183-.028a1.252,1.252,0,0,0,.481-.193,1.236,1.236,0,0,0,.491-.637,1.369,1.369,0,0,0,.062-.5,1.264,1.264,0,0,0-.142-.546,1.209,1.209,0,0,0-1.057-.642l-1.545,0-3.542,0a1.2,1.2,0,0,0-1.19,1.064,1.33,1.33,0,0,0,.147.809,1.219,1.219,0,0,0,.587.52,1.861,1.861,0,0,0,.763.094l.75,0,1.348.007,1.951.018.53.011a.972.972,0,0,1,.183.014.9.9,0,0,1-.186.011l-.53.011-1.951.018-1.348.007-.75,0c-.131,0-.257,0-.4,0a1.273,1.273,0,0,1-.408-.094,1.331,1.331,0,0,1-.644-.566,1.45,1.45,0,0,1-.163-.878,1.318,1.318,0,0,1,1.307-1.172l3.542,0,1.547.007a1.294,1.294,0,0,1,1.27,1.286,1.408,1.408,0,0,1-.076.527,1.27,1.27,0,0,1-.527.656,1.215,1.215,0,0,1-.5.177A.8.8,0,0,1,405.572,290.972Z" transform="translate(-399.187 -288.31)" fill="#263238"/>
              </g>
            </g>
          </g>
          <g id="Group_14582" data-name="Group 14582" transform="translate(105.374 20.28)">
            <g id="Group_14581" data-name="Group 14581">
              <g id="Group_14580" data-name="Group 14580">
                <path id="Path_23119" data-name="Path 23119" d="M553.5,290.972c0-.007.064-.007.183-.028a1.252,1.252,0,0,0,.481-.193,1.237,1.237,0,0,0,.491-.637,1.322,1.322,0,0,0,.062-.5,1.263,1.263,0,0,0-.142-.546,1.209,1.209,0,0,0-1.057-.642l-1.545,0-3.542,0a1.2,1.2,0,0,0-1.19,1.064,1.33,1.33,0,0,0,.147.809,1.219,1.219,0,0,0,.587.52,1.861,1.861,0,0,0,.763.094l.75,0,1.348.007,1.951.018.53.011a.97.97,0,0,1,.183.014.9.9,0,0,1-.186.011l-.53.011-1.951.018-1.348.007-.75,0c-.131,0-.257,0-.4,0a1.273,1.273,0,0,1-.408-.094,1.331,1.331,0,0,1-.644-.566,1.45,1.45,0,0,1-.163-.878,1.318,1.318,0,0,1,1.307-1.172l3.542,0,1.548.007a1.294,1.294,0,0,1,1.27,1.286,1.408,1.408,0,0,1-.076.527,1.27,1.27,0,0,1-.527.656,1.215,1.215,0,0,1-.5.177A.8.8,0,0,1,553.5,290.972Z" transform="translate(-547.117 -288.31)" fill="#263238"/>
              </g>
            </g>
          </g>
          <g id="Group_14584" data-name="Group 14584" transform="translate(132.208 17.407)">
            <g id="Group_14583" data-name="Group 14583">
              <path id="Path_23120" data-name="Path 23120" d="M673.456,275.78h-6.786a2.505,2.505,0,0,0-2.217,1.339h0a2.507,2.507,0,0,0-.076,2.176l2.662,6.046,6.8-.066S675.28,277.607,673.456,275.78Z" transform="translate(-664.165 -275.78)" fill="#fafafa"/>
            </g>
          </g>
          <g id="Group_14586" data-name="Group 14586" transform="translate(47.252 2.032)">
            <g id="Group_14585" data-name="Group 14585">
              <path id="Path_23121" data-name="Path 23121" d="M293.6,223.235l35.015-.644,22.789-.417,7.515-4.338a1.169,1.169,0,0,0,.346-1.717l-4.677-6.146a2.6,2.6,0,0,0-2.05-1.027l-25.489-.206s-9.6-.557-17.16,3.677A161.2,161.2,0,0,0,293.6,223.235Z" transform="translate(-293.6 -208.715)" fill="#263238"/>
            </g>
          </g>
          <g id="Group_14588" data-name="Group 14588" transform="translate(40.95 2.689)">
            <g id="Group_14587" data-name="Group 14587" transform="translate(0)">
              <path id="Path_23122" data-name="Path 23122" d="M288.458,211.58s1.756.8.612,1.543-18.882,11.926-18.882,11.926L266.11,223.2C273.336,219.178,280.631,215.269,288.458,211.58Z" transform="translate(-266.11 -211.58)" fill="#455a64"/>
            </g>
          </g>
          <g id="Group_14591" data-name="Group 14591" transform="translate(3.014 16.435)">
            <g id="Group_14590" data-name="Group 14590">
              <g id="Group_14589" data-name="Group 14589">
                <path id="Path_23123" data-name="Path 23123" d="M143.23,271.54s-.037.011-.11.027-.186.041-.323.071l-1.245.257c-1.082.216-2.65.518-4.594.851-3.888.669-9.29,1.449-15.289,1.969-1.5.131-2.967.238-4.383.33s-2.783.179-4.081.3a35.358,35.358,0,0,0-6.811,1.167A19.245,19.245,0,0,0,102.1,278.3c-.488.257-.835.509-1.082.66-.119.076-.211.135-.28.177l-.1.057s.03-.025.089-.066l.273-.188c.243-.158.587-.417,1.073-.681a18.731,18.731,0,0,1,4.294-1.832,34.675,34.675,0,0,1,6.825-1.194c1.3-.122,2.666-.211,4.083-.3s2.882-.2,4.381-.332c6-.518,11.4-1.284,15.287-1.933,1.946-.323,3.515-.612,4.6-.814l1.249-.236c.14-.025.248-.044.326-.06Z" transform="translate(-100.64 -271.54)" fill="#263238"/>
              </g>
            </g>
          </g>
          <g id="Group_14594" data-name="Group 14594" transform="translate(133.787 32.055)">
            <g id="Group_14593" data-name="Group 14593">
              <g id="Group_14592" data-name="Group 14592">
                <path id="Path_23124" data-name="Path 23124" d="M681.474,339.73c0,.032-2.334.06-5.211.06s-5.213-.028-5.213-.06,2.334-.06,5.213-.06S681.474,339.7,681.474,339.73Z" transform="translate(-671.05 -339.67)" fill="#263238"/>
              </g>
            </g>
          </g>
          <g id="Group_14597" data-name="Group 14597" transform="translate(42.672 38.011)">
            <g id="Group_14596" data-name="Group 14596">
              <g id="Group_14595" data-name="Group 14595">
                <path id="Path_23125" data-name="Path 23125" d="M332.464,365.71c0,.032-13.173.06-29.421.06s-29.423-.028-29.423-.06,13.171-.06,29.423-.06S332.464,365.678,332.464,365.71Z" transform="translate(-273.62 -365.65)" fill="#263238"/>
              </g>
            </g>
          </g>
          <g id="Group_14600" data-name="Group 14600" transform="translate(0.953 32.252)">
            <g id="Group_14599" data-name="Group 14599">
              <g id="Group_14598" data-name="Group 14598">
                <path id="Path_23126" data-name="Path 23126" d="M99.972,340.59c0,.032-1.864.06-4.161.06s-4.161-.027-4.161-.06,1.862-.06,4.161-.06S99.972,340.557,99.972,340.59Z" transform="translate(-91.65 -340.53)" fill="#263238"/>
              </g>
            </g>
          </g>
          <g id="Group_14602" data-name="Group 14602" transform="translate(129.306 6.731)">
            <g id="Group_14601" data-name="Group 14601">
              <path id="Path_23127" data-name="Path 23127" d="M652.6,229.21s-1.564,1.752-.949,3.035,6.965,5.78,6.965,5.78l4.61.864Z" transform="translate(-651.506 -229.21)" fill="#455a64"/>
            </g>
          </g>
          <g id="Group_14604" data-name="Group 14604" transform="translate(85.527 3.597)">
            <g id="Group_14603" data-name="Group 14603">
              <path id="Path_23128" data-name="Path 23128" d="M461.586,215.54l-1.036,11.2,18.552-.53,7.476-4.347-4.84-6.321Z" transform="translate(-460.55 -215.54)" fill="#455a64"/>
            </g>
          </g>
          <g id="Group_14606" data-name="Group 14606" transform="translate(51.645 3.578)">
            <g id="Group_14605" data-name="Group 14605">
              <path id="Path_23129" data-name="Path 23129" d="M312.76,227.247s11.192-8.084,15.608-9.689a28.181,28.181,0,0,1,10.486-2.052c3.826-.108,6.158,0,6.158,0l-2.957,11.383Z" transform="translate(-312.76 -215.458)" fill="#455a64"/>
            </g>
          </g>
          <g id="Group_14612" data-name="Group 14612" transform="translate(50.004 11.564)">
            <g id="Group_14608" data-name="Group 14608" transform="translate(0.004 0.057)">
              <g id="Group_14607" data-name="Group 14607">
                <path id="Path_23130" data-name="Path 23130" d="M305.62,254.323h0a1.966,1.966,0,0,1,1-1.71l2.57-1.444a4.891,4.891,0,0,1,2.4-.628h0a4.893,4.893,0,0,1,1.527.243,2.79,2.79,0,0,1,1.875,2.559h0a2.834,2.834,0,0,1-2.831,2.941H307.58A1.961,1.961,0,0,1,305.62,254.323Z" transform="translate(-305.62 -250.54)" fill="#f3b755"/>
              </g>
            </g>
            <g id="Group_14611" data-name="Group 14611">
              <g id="Group_14610" data-name="Group 14610">
                <g id="Group_14609" data-name="Group 14609">
                  <path id="Path_23131" data-name="Path 23131" d="M305.607,254.13c.007,0,.007.087.03.248a1.935,1.935,0,0,0,1.674,1.655,7.4,7.4,0,0,0,.791.014c1.119,0,2.449-.007,3.923-.014a2.988,2.988,0,0,0,1.091-.179,2.794,2.794,0,0,0,.97-.617,2.756,2.756,0,0,0,.653-.993,2.854,2.854,0,0,0,.172-1.213,2.775,2.775,0,0,0-1.158-2.052,2.958,2.958,0,0,0-1.064-.447,4.745,4.745,0,0,0-1.11-.131,4.895,4.895,0,0,0-2.013.431c-.3.133-.566.3-.835.445l-.766.426q-.733.406-1.318.731a1.97,1.97,0,0,0-1.013,1.449c-.023.158-.021.245-.028.245a1.238,1.238,0,0,1,0-.252,1.9,1.9,0,0,1,.211-.69,2,2,0,0,1,.8-.814l1.309-.745c.243-.138.5-.282.761-.433s.536-.316.839-.454a4.937,4.937,0,0,1,3.191-.321,3.038,3.038,0,0,1,1.1.463,2.887,2.887,0,0,1,1.208,2.139,2.951,2.951,0,0,1-.179,1.266,2.9,2.9,0,0,1-1.694,1.674,3.093,3.093,0,0,1-1.133.181l-3.923-.014a7.583,7.583,0,0,1-.8-.023,1.983,1.983,0,0,1-.683-.225,2.046,2.046,0,0,1-.8-.812,1.929,1.929,0,0,1-.209-.69A1.477,1.477,0,0,1,305.607,254.13Z" transform="translate(-305.603 -250.29)" fill="#f3b755"/>
                </g>
              </g>
            </g>
          </g>
          <g id="Group_14615" data-name="Group 14615" transform="translate(100.689 24.996)">
            <g id="Group_14614" data-name="Group 14614">
              <g id="Group_14613" data-name="Group 14613">
                <path id="Path_23132" data-name="Path 23132" d="M562.232,329.155s0-.055.007-.158.018-.264.032-.465.037-.456.05-.757.023-.647.034-1.034,0-.823-.007-1.3c-.03-.472-.032-.988-.1-1.536a19.87,19.87,0,0,0-.662-3.689,16.385,16.385,0,0,0-.731-2.052,13.782,13.782,0,0,0-1.107-2.084,14.226,14.226,0,0,0-3.583-3.742,16.886,16.886,0,0,0-5.142-2.533,21.393,21.393,0,0,0-6.112-.814,20.064,20.064,0,0,0-6.1.887A17.039,17.039,0,0,0,536.1,311a15.693,15.693,0,0,0-2.357,1.541,19.753,19.753,0,0,0-3.631,3.723,14.332,14.332,0,0,0-1.206,2.027,19.707,19.707,0,0,0-.835,2.015,23.976,23.976,0,0,0-1.323,6.433c-.037.777-.032,1.382-.014,1.79.011.2.021.358.027.465s0,.158,0,.158-.007-.053-.018-.158-.023-.264-.039-.465a17.709,17.709,0,0,1-.009-1.8,23.624,23.624,0,0,1,1.291-6.458,20.037,20.037,0,0,1,.832-2.027,14.576,14.576,0,0,1,1.211-2.045,19.667,19.667,0,0,1,3.643-3.751,15.777,15.777,0,0,1,2.371-1.554,17.279,17.279,0,0,1,2.733-1.13,20.1,20.1,0,0,1,6.135-.894,21.478,21.478,0,0,1,6.144.821,16.969,16.969,0,0,1,5.172,2.559,15.561,15.561,0,0,1,2.027,1.779,12.393,12.393,0,0,1,1.575,2,13.526,13.526,0,0,1,1.107,2.1,16.512,16.512,0,0,1,.727,2.066,19.783,19.783,0,0,1,.649,3.7c.062.55.06,1.068.087,1.541,0,.475,0,.908,0,1.3s-.032.734-.046,1.036-.046.552-.062.757-.032.355-.044.465S562.232,329.155,562.232,329.155Z" transform="translate(-526.683 -308.879)" fill="#fff"/>
              </g>
            </g>
          </g>
          <g id="Group_14618" data-name="Group 14618" transform="translate(30.922 24.943)">
            <g id="Group_14617" data-name="Group 14617">
              <g id="Group_14616" data-name="Group 14616">
                <path id="Path_23133" data-name="Path 23133" d="M222.37,308.65" transform="translate(-222.37 -308.65)" fill="none" stroke="#4e585d" stroke-miterlimit="10" stroke-width="0.05"/>
              </g>
            </g>
          </g>
          <g id="Group_14621" data-name="Group 14621" transform="translate(59.926 16.529)">
            <g id="Group_14620" data-name="Group 14620">
              <g id="Group_14619" data-name="Group 14619">
                <path id="Path_23134" data-name="Path 23134" d="M369.4,271.97a.164.164,0,0,1-.053.007l-.156.007q-.22,0-.6.014l-2.2.039c-1.857.034-4.42.1-7.254.181s-5.4.133-7.256.144c-.928.007-1.68.007-2.2,0l-.6-.009c-.062,0-.112,0-.156,0a.027.027,0,1,1,0-.014l.156-.007q.22,0,.6-.014l2.2-.039c1.857-.034,4.422-.1,7.256-.181s5.4-.133,7.256-.144c.929-.007,1.68-.007,2.2,0l.6.009c.062,0,.112,0,.156,0A.157.157,0,0,1,369.4,271.97Z" transform="translate(-348.88 -271.946)" fill="#fff"/>
              </g>
            </g>
          </g>
          <g id="Group_14624" data-name="Group 14624" transform="translate(73.393 19.939)">
            <g id="Group_14623" data-name="Group 14623">
              <g id="Group_14622" data-name="Group 14622">
                <path id="Path_23135" data-name="Path 23135" d="M411.637,286.88a33.849,33.849,0,0,1-4.017,0,33.866,33.866,0,0,1,4.017,0Z" transform="translate(-407.62 -286.82)" fill="#fff"/>
              </g>
            </g>
          </g>
          <g id="Group_14627" data-name="Group 14627" transform="translate(66.964 7.73)">
            <g id="Group_14626" data-name="Group 14626">
              <g id="Group_14625" data-name="Group 14625">
                <path id="Path_23136" data-name="Path 23136" d="M390.763,233.568c.011.03-2.481,1.068-5.569,2.318s-5.6,2.238-5.615,2.208,2.481-1.068,5.569-2.318S390.749,233.538,390.763,233.568Z" transform="translate(-379.58 -233.567)" fill="#fff"/>
              </g>
            </g>
          </g>
          <g id="Group_14630" data-name="Group 14630" transform="translate(62.443 8.512)">
            <g id="Group_14629" data-name="Group 14629">
              <g id="Group_14628" data-name="Group 14628">
                <path id="Path_23137" data-name="Path 23137" d="M370.511,236.978c.014.03-2.361,1.075-5.3,2.336s-5.337,2.256-5.349,2.226,2.361-1.075,5.3-2.336S370.5,236.948,370.511,236.978Z" transform="translate(-359.86 -236.977)" fill="#fff"/>
              </g>
            </g>
          </g>
          <g id="Group_14633" data-name="Group 14633" transform="translate(93.953 7.296)">
            <g id="Group_14632" data-name="Group 14632">
              <g id="Group_14631" data-name="Group 14631">
                <path id="Path_23138" data-name="Path 23138" d="M508.483,231.677c.011.03-2.481,1.068-5.569,2.318s-5.6,2.238-5.615,2.208,2.481-1.068,5.569-2.318S508.472,231.645,508.483,231.677Z" transform="translate(-497.3 -231.677)" fill="#fff"/>
              </g>
            </g>
          </g>
          <g id="Group_14636" data-name="Group 14636" transform="translate(89.432 8.078)">
            <g id="Group_14635" data-name="Group 14635">
              <g id="Group_14634" data-name="Group 14634">
                <path id="Path_23139" data-name="Path 23139" d="M488.231,235.088c.014.03-2.361,1.075-5.3,2.336s-5.337,2.256-5.349,2.226,2.361-1.075,5.3-2.336S488.22,235.058,488.231,235.088Z" transform="translate(-477.58 -235.087)" fill="#fff"/>
              </g>
            </g>
          </g>
          <g id="Group_14639" data-name="Group 14639" transform="translate(83.473 16.527)">
            <g id="Group_14638" data-name="Group 14638">
              <g id="Group_14637" data-name="Group 14637">
                <path id="Path_23140" data-name="Path 23140" d="M473.741,271.961c0,.032-4.959.089-11.076.126s-11.076.039-11.076.007,4.957-.089,11.076-.126S473.741,271.927,473.741,271.961Z" transform="translate(-451.59 -271.938)" fill="#fff"/>
              </g>
            </g>
          </g>
          <g id="Group_14642" data-name="Group 14642" transform="translate(104.902 19.77)">
            <g id="Group_14641" data-name="Group 14641">
              <g id="Group_14640" data-name="Group 14640">
                <path id="Path_23141" data-name="Path 23141" d="M551.273,286.122c0,.032-1.389.073-3.107.089s-3.106,0-3.106-.03,1.389-.073,3.106-.089S551.273,286.088,551.273,286.122Z" transform="translate(-545.06 -286.084)" fill="#fff"/>
              </g>
            </g>
          </g>
          <g id="Group_14645" data-name="Group 14645" transform="translate(3.812 18.11)">
            <g id="Group_14644" data-name="Group 14644">
              <g id="Group_14643" data-name="Group 14643">
                <path id="Path_23142" data-name="Path 23142" d="M116.474,278.845a.5.5,0,0,1-.135.025l-.39.05c-.17.018-.376.046-.614.085s-.511.073-.809.133c-.6.1-1.3.261-2.082.468s-1.616.484-2.478.818-1.662.715-2.375,1.084-1.334.741-1.846,1.073c-.259.158-.484.319-.683.454s-.371.254-.507.355-.236.167-.319.227a.717.717,0,0,1-.117.073.661.661,0,0,1,.1-.092l.307-.245c.133-.108.3-.234.5-.374s.42-.3.676-.47c.507-.342,1.13-.715,1.839-1.1a24.039,24.039,0,0,1,2.384-1.1,24.307,24.307,0,0,1,2.494-.814c.782-.2,1.492-.351,2.1-.445.3-.055.575-.085.814-.115s.447-.053.617-.064.289-.021.392-.03A.9.9,0,0,1,116.474,278.845Z" transform="translate(-104.12 -278.843)" fill="#fff"/>
              </g>
            </g>
          </g>
          <g id="Group_14648" data-name="Group 14648" transform="translate(50.264 12.079)">
            <g id="Group_14647" data-name="Group 14647">
              <g id="Group_14646" data-name="Group 14646">
                <path id="Path_23143" data-name="Path 23143" d="M313.58,253.162c-.009.007-.069-.089-.22-.213a1.527,1.527,0,0,0-.757-.3,3.309,3.309,0,0,0-1.222.133,9.391,9.391,0,0,0-3.792,1.951c-.546.458-.832.8-.851.779a1.476,1.476,0,0,1,.193-.243,7.32,7.32,0,0,1,.6-.6,8.72,8.72,0,0,1,2.357-1.506,8.921,8.921,0,0,1,1.465-.488,3.291,3.291,0,0,1,1.261-.11,1.481,1.481,0,0,1,.777.355.991.991,0,0,1,.154.177C313.57,253.135,313.584,253.16,313.58,253.162Z" transform="translate(-306.738 -252.538)" fill="#fff"/>
              </g>
            </g>
          </g>
        </g>
        <g id="Group_14652" data-name="Group 14652" transform="translate(106.61 2.214)">
          <g id="Group_14651" data-name="Group 14651">
            <g id="Group_14650" data-name="Group 14650">
              <path id="Path_23144" data-name="Path 23144" d="M576.818,213.944a3.606,3.606,0,0,1-.977.1,6,6,0,0,1-1.144-.142,10.311,10.311,0,0,1-1.458-.449c-.53-.2-1.094-.454-1.7-.713l-.951-.385c-.328-.131-.674-.243-1.023-.371a39.836,39.836,0,0,0-4.672-1.272,53.721,53.721,0,0,0-8.733-1.087c-.564-.03-1.073-.03-1.52-.044h-1.149l-.727.016c-.078,0-.14,0-.188,0a.194.194,0,0,1-.064,0,.268.268,0,0,1,.064-.009c.048,0,.112-.007.188-.014l.727-.039c.319,0,.7-.011,1.151-.021.449.007.961,0,1.525.025a51.06,51.06,0,0,1,8.753,1.055,38.565,38.565,0,0,1,4.684,1.286c.351.128.7.243,1.025.376l.954.392c.61.266,1.169.523,1.694.724a10.446,10.446,0,0,0,1.442.463,6.272,6.272,0,0,0,1.13.16,4.788,4.788,0,0,0,.722-.028l.188-.023C576.8,213.944,576.818,213.942,576.818,213.944Z" transform="translate(-552.51 -209.51)" fill="#263238"/>
            </g>
          </g>
        </g>
      </g>
    </g>
    <g id="Character" transform="translate(39.897 71.924)">
      <g id="Group_14825" data-name="Group 14825" transform="translate(0 0)">
        <g id="Group_14684" data-name="Group 14684" transform="translate(8.969 9.255)">
          <g id="Group_14654" data-name="Group 14654" transform="translate(0.391)">
            <path id="Path_23145" data-name="Path 23145" d="M121.346,190.1a37.539,37.539,0,0,0-2.052-7.513c-.511-1.706-1.341-2.847-2.366-3.242-.692-.266-4.14-1.511-5.344-1.1a14.975,14.975,0,0,0-3.331,1.674,4.461,4.461,0,0,0-1.738,2.224l-1.846,5.174,3.228,3.221,1.619-3.439,1.756,4.118-.259,4.161,10.074,2.71C122,196.621,121.867,192.949,121.346,190.1Z" transform="translate(-104.67 -178.168)" fill="#4e9c0b"/>
          </g>
          <g id="Group_14657" data-name="Group 14657" transform="translate(7.65 6.463)">
            <g id="Group_14656" data-name="Group 14656" opacity="0.2">
              <g id="Group_14655" data-name="Group 14655">
                <path id="Path_23146" data-name="Path 23146" d="M143.129,206.36c-.445,2.611-.516,2.971-.961,5.582a6.332,6.332,0,0,1-1.238,2.941,3.429,3.429,0,0,1-1.593,1.1,3.825,3.825,0,0,1-2.114-.092,1.875,1.875,0,0,1-.828-1.951c.853.183,1.119.468,1.855,0a6.425,6.425,0,0,0,1.9-1.988c1.472-2.843,1.878-2.944,2.976-5.592" transform="translate(-136.335 -206.36)"/>
              </g>
            </g>
          </g>
          <g id="Group_14659" data-name="Group 14659" transform="translate(4.18 6.757)">
            <g id="Group_14658" data-name="Group 14658">
              <path id="Path_23147" data-name="Path 23147" d="M124.171,212.405a6.075,6.075,0,0,1-.445-.695c-.282-.461-.642-1.045-1.039-1.692s-.775-1.22-1.064-1.676a6.418,6.418,0,0,1-.426-.7.79.79,0,0,1,.144.17c.087.112.206.28.353.488.293.417.683,1,1.094,1.66s.763,1.268,1.009,1.713c.124.222.22.406.284.532A.7.7,0,0,1,124.171,212.405Z" transform="translate(-121.197 -207.639)" fill="#263238"/>
            </g>
          </g>
          <g id="Group_14661" data-name="Group 14661" transform="translate(8.115 15.099)">
            <g id="Group_14660" data-name="Group 14660">
              <path id="Path_23148" data-name="Path 23148" d="M144.428,245.134a1.138,1.138,0,0,1-.236.089,2.967,2.967,0,0,1-.287.08c-.112.025-.241.06-.385.08a6.37,6.37,0,0,1-1.02.092,6.632,6.632,0,0,1-2.458-.449,6.31,6.31,0,0,1-.922-.447,3.872,3.872,0,0,1-.332-.211,2.61,2.61,0,0,1-.238-.174.962.962,0,0,1-.19-.167c.014-.018.3.2.8.479a7.231,7.231,0,0,0,.919.417,7.714,7.714,0,0,0,1.19.326,7.962,7.962,0,0,0,1.229.115,6.784,6.784,0,0,0,1.006-.066C144.077,245.219,144.421,245.111,144.428,245.134Z" transform="translate(-138.359 -244.025)" fill="#263238"/>
            </g>
          </g>
          <g id="Group_14681" data-name="Group 14681" transform="translate(0 1.454)">
            <g id="Group_14673" data-name="Group 14673" transform="translate(0 3.236)">
              <g id="Group_14662" data-name="Group 14662">
                <path id="Path_23149" data-name="Path 23149" d="M113.106,202.326c-.018.089-1.1,2.244-1.1,2.244l-5.108-2.692-.52-2.2a1.369,1.369,0,0,0-1.653-1.016l-1.506.617a.4.4,0,0,0-.248.291c-.021.112.007.22.2.2.374-.03,1.153-.112,1.153-.112l-.355,1.254a1.333,1.333,0,0,0,.1.984l.227.433.5.8-.009.007s4.966,5.1,7.754,5.431c1.676.2,3.574-4.5,3.574-4.5Z" transform="translate(-102.965 -198.625)" fill="#b78876"/>
              </g>
              <g id="Group_14672" data-name="Group 14672" transform="translate(1.214 0.895)">
                <g id="Group_14671" data-name="Group 14671">
                  <g id="Group_14666" data-name="Group 14666" transform="translate(0.099)">
                    <g id="Group_14665" data-name="Group 14665">
                      <g id="Group_14664" data-name="Group 14664">
                        <g id="Group_14663" data-name="Group 14663">
                          <path id="Path_23150" data-name="Path 23150" d="M108.689,202.758c0-.007.039-.053.124-.11a.664.664,0,0,1,.387-.119.4.4,0,0,1,.342.22c.046.1.016.172.009.17s0-.066-.055-.144a.394.394,0,0,0-.3-.17.741.741,0,0,0-.358.092C108.751,202.737,108.7,202.767,108.689,202.758Z" transform="translate(-108.689 -202.528)" fill="#aa6550"/>
                        </g>
                      </g>
                    </g>
                  </g>
                  <g id="Group_14670" data-name="Group 14670" transform="translate(0 0.626)">
                    <g id="Group_14669" data-name="Group 14669">
                      <g id="Group_14668" data-name="Group 14668">
                        <g id="Group_14667" data-name="Group 14667">
                          <path id="Path_23151" data-name="Path 23151" d="M109,205.645c-.011,0-.032-.041-.083-.1a.58.58,0,0,0-.236-.177.572.572,0,0,0-.293-.032c-.078.011-.124.028-.131.018s.037-.044.119-.071a.524.524,0,0,1,.332.014.505.505,0,0,1,.252.218C109,205.588,109.009,205.643,109,205.645Z" transform="translate(-108.258 -205.26)" fill="#aa6550"/>
                        </g>
                      </g>
                    </g>
                  </g>
                </g>
              </g>
            </g>
            <g id="Group_14674" data-name="Group 14674" transform="translate(9.818 0.132)">
              <path id="Path_23152" data-name="Path 23152" d="M147.172,185.087l-1.382,6.555,3.666,2.2,1.408-4.028S150.281,184.924,147.172,185.087Z" transform="translate(-145.79 -185.083)" fill="#4e9c0b"/>
            </g>
            <g id="Group_14676" data-name="Group 14676" transform="translate(2.832 0.25)">
              <g id="Group_14675" data-name="Group 14675">
                <path id="Path_23153" data-name="Path 23153" d="M125.664,185.6s-.03.023-.094.06-.156.085-.28.147c-.243.124-.6.3-1.045.5a15.365,15.365,0,0,1-3.645,1.149,9.087,9.087,0,0,1-3.81-.128,6.506,6.506,0,0,1-1.094-.392c-.126-.055-.218-.11-.282-.142a.422.422,0,0,1-.094-.057,3.851,3.851,0,0,1,.394.158,7.668,7.668,0,0,0,1.1.353,9.455,9.455,0,0,0,3.769.092,16.7,16.7,0,0,0,3.631-1.107c.449-.188.812-.351,1.059-.461A3.109,3.109,0,0,1,125.664,185.6Z" transform="translate(-115.319 -185.598)" fill="#ebebeb"/>
              </g>
            </g>
            <g id="Group_14678" data-name="Group 14678" transform="translate(2.241 0.974)">
              <g id="Group_14677" data-name="Group 14677">
                <path id="Path_23154" data-name="Path 23154" d="M124.641,188.758s-.032.03-.1.076-.181.117-.3.195a5.588,5.588,0,0,1-.5.287c-.2.1-.417.232-.676.344l-.4.183c-.14.064-.291.117-.445.177-.3.128-.644.232-1,.346a13.827,13.827,0,0,1-4.782.566c-.371-.03-.724-.05-1.05-.1-.163-.025-.323-.041-.472-.069l-.433-.085c-.277-.048-.52-.121-.736-.177a5.461,5.461,0,0,1-.548-.165l-.342-.119a.645.645,0,0,1-.117-.048.625.625,0,0,1,.124.025l.346.1c.149.046.332.1.55.144s.461.117.736.158l.431.078c.149.025.307.039.47.062.326.048.676.066,1.043.092a15.674,15.674,0,0,0,2.4-.083,16,16,0,0,0,2.348-.479c.351-.112.688-.211.993-.332.154-.06.3-.11.442-.17l.4-.177c.259-.105.479-.229.679-.326s.367-.19.5-.268l.314-.174A.678.678,0,0,1,124.641,188.758Z" transform="translate(-112.74 -188.757)" fill="#ebebeb"/>
              </g>
            </g>
            <g id="Group_14680" data-name="Group 14680" transform="translate(9.584)">
              <g id="Group_14679" data-name="Group 14679">
                <path id="Path_23155" data-name="Path 23155" d="M148.67,193.4a2.037,2.037,0,0,1-.3-.151c-.2-.115-.475-.266-.807-.454l-2.758-1.589-.037-.021.007-.039c.1-.491.2-1.016.314-1.557.167-.816.326-1.591.47-2.3.076-.353.138-.69.206-1a3.69,3.69,0,0,1,.293-.853,1.712,1.712,0,0,1,.947-.869,1.068,1.068,0,0,1,.351-.057.36.36,0,0,1,.124.014,1.713,1.713,0,0,0-.459.089,1.69,1.69,0,0,0-.887.862,3.6,3.6,0,0,0-.273.834c-.062.316-.126.651-.195,1-.142.708-.3,1.486-.461,2.3-.11.541-.218,1.066-.316,1.557l-.027-.06c1.094.649,2.043,1.213,2.735,1.625.326.2.591.36.791.481A1.923,1.923,0,0,1,148.67,193.4Z" transform="translate(-144.77 -184.509)" fill="#263238"/>
              </g>
            </g>
          </g>
          <g id="Group_14683" data-name="Group 14683" transform="translate(13.551 6.124)">
            <g id="Group_14682" data-name="Group 14682">
              <path id="Path_23156" data-name="Path 23156" d="M163.126,204.88a2.518,2.518,0,0,1-.018.612,9.481,9.481,0,0,1-.75,2.845,2.431,2.431,0,0,1-.284.541,4.111,4.111,0,0,1,.206-.573,13.45,13.45,0,0,0,.745-2.824A4.8,4.8,0,0,1,163.126,204.88Z" transform="translate(-162.072 -204.88)" fill="#263238"/>
            </g>
          </g>
        </g>
        <g id="Group_14718" data-name="Group 14718" transform="translate(0 21.862)">
          <g id="Group_14703" data-name="Group 14703" transform="translate(0 29.976)">
            <g id="Group_14697" data-name="Group 14697">
              <g id="Group_14685" data-name="Group 14685" transform="translate(0.004)">
                <path id="Path_23157" data-name="Path 23157" d="M67.542,363.91l-.041,3.5s-3.572,1.135-3.641,1.781l6.784.323.287-5.452Z" transform="translate(-63.86 -363.91)" fill="#455a64"/>
              </g>
              <g id="Group_14687" data-name="Group 14687" transform="translate(5.413 3.289)">
                <g id="Group_14686" data-name="Group 14686">
                  <path id="Path_23158" data-name="Path 23158" d="M87.8,378.272a.276.276,0,0,1,.177.326.268.268,0,0,1-.321.179.294.294,0,0,1-.186-.346.279.279,0,0,1,.355-.149" transform="translate(-87.454 -378.257)" fill="#e0e0e0"/>
                </g>
              </g>
              <g id="Group_14688" data-name="Group 14688" transform="translate(0 4.947)">
                <path id="Path_23159" data-name="Path 23159" d="M70.63,386.143l.007-.55-6.506-.1s-.307.117-.284.332Z" transform="translate(-63.845 -385.49)" fill="#e0e0e0"/>
              </g>
              <g id="Group_14690" data-name="Group 14690" transform="translate(3.536 3.433)">
                <g id="Group_14689" data-name="Group 14689">
                  <path id="Path_23160" data-name="Path 23160" d="M79.269,378.909c0,.032.165.055.323.17s.238.257.268.245-.009-.206-.2-.339S79.263,378.877,79.269,378.909Z" transform="translate(-79.269 -378.882)" fill="#263238"/>
                </g>
              </g>
              <g id="Group_14692" data-name="Group 14692" transform="translate(2.809 3.708)">
                <g id="Group_14691" data-name="Group 14691">
                  <path id="Path_23161" data-name="Path 23161" d="M76.1,380.093c-.009.032.131.094.238.241s.131.3.165.3.062-.186-.071-.365S76.1,380.063,76.1,380.093Z" transform="translate(-76.098 -380.082)" fill="#263238"/>
                </g>
              </g>
              <g id="Group_14694" data-name="Group 14694" transform="translate(2.126 3.97)">
                <g id="Group_14693" data-name="Group 14693">
                  <path id="Path_23162" data-name="Path 23162" d="M73.357,381.81c.03.009.085-.156.007-.339s-.227-.266-.243-.238.076.128.135.282S73.324,381.8,73.357,381.81Z" transform="translate(-73.118 -381.227)" fill="#263238"/>
                </g>
              </g>
              <g id="Group_14696" data-name="Group 14696" transform="translate(3.632 2.557)">
                <g id="Group_14695" data-name="Group 14695">
                  <path id="Path_23163" data-name="Path 23163" d="M79.687,375.169c.011.03.167-.007.353.014s.33.087.348.06-.117-.151-.337-.174S79.673,375.144,79.687,375.169Z" transform="translate(-79.686 -375.065)" fill="#263238"/>
                </g>
              </g>
            </g>
            <g id="Group_14698" data-name="Group 14698" transform="translate(3.669 0.692)" opacity="0.3">
              <path id="Path_23164" data-name="Path 23164" d="M79.859,366.93l-.009.624,3.336.128.03-.562Z" transform="translate(-79.85 -366.93)"/>
            </g>
            <g id="Group_14700" data-name="Group 14700" transform="translate(3.656 1.448)">
              <g id="Group_14699" data-name="Group 14699">
                <path id="Path_23165" data-name="Path 23165" d="M79.79,370.733a.622.622,0,0,0,.339.014,1.553,1.553,0,0,0,.559-.186.365.365,0,0,0,.105-.076.143.143,0,0,0,.023-.177.18.18,0,0,0-.142-.083.439.439,0,0,0-.128.011,1.241,1.241,0,0,0-.215.062,1.191,1.191,0,0,0-.323.19c-.165.138-.225.259-.213.266s.1-.089.261-.2a1.409,1.409,0,0,1,.312-.156,1.307,1.307,0,0,1,.2-.05c.073-.016.133-.014.151.021.007.011.007.018-.009.037a.327.327,0,0,1-.078.055,2,2,0,0,1-.183.094,1.953,1.953,0,0,1-.335.11A3.209,3.209,0,0,0,79.79,370.733Z" transform="translate(-79.79 -370.225)" fill="#263238"/>
              </g>
            </g>
            <g id="Group_14702" data-name="Group 14702" transform="translate(3.285 0.917)">
              <g id="Group_14701" data-name="Group 14701">
                <path id="Path_23166" data-name="Path 23166" d="M78.586,369a.55.55,0,0,0,.105-.323,1.034,1.034,0,0,0-.03-.374,1.376,1.376,0,0,0-.076-.211.279.279,0,0,0-.209-.181.161.161,0,0,0-.147.087.521.521,0,0,0-.041.124.779.779,0,0,0-.011.229.787.787,0,0,0,.128.358c.124.181.261.229.264.218s-.1-.085-.195-.259a.778.778,0,0,1-.092-.323.624.624,0,0,1,.016-.195c.014-.071.044-.128.071-.119s.089.057.115.117a1.075,1.075,0,0,1,.076.188,1.22,1.22,0,0,1,.05.342C78.609,368.87,78.567,368.991,78.586,369Z" transform="translate(-78.174 -367.909)" fill="#263238"/>
              </g>
            </g>
          </g>
          <g id="Group_14709" data-name="Group 14709" transform="translate(0.269)">
            <g id="Group_14704" data-name="Group 14704">
              <path id="Path_23167" data-name="Path 23167" d="M82.259,237.8s-10.594-4.443-13.875-4.633c-2.056-.119-3.613,1.2-3.333,3.331.14,1.066,3.067,13.529,3.067,13.529l4.466-2.04-2.146-8.618,8.7,4.23Z" transform="translate(-65.018 -233.158)" fill="#263238"/>
            </g>
            <g id="Group_14706" data-name="Group 14706" transform="translate(4.081 4.027)">
              <g id="Group_14705" data-name="Group 14705">
                <path id="Path_23168" data-name="Path 23168" d="M82.822,250.726a12.658,12.658,0,0,0,.685,1.08c.371.6.619,1.114.66,1.1a4.857,4.857,0,0,0-1.346-2.176Z" transform="translate(-82.82 -250.724)" fill="#455a64"/>
              </g>
            </g>
            <g id="Group_14708" data-name="Group 14708" transform="translate(3.216 4.521)">
              <g id="Group_14707" data-name="Group 14707">
                <path id="Path_23169" data-name="Path 23169" d="M79.048,252.879a12.592,12.592,0,0,0,1.139.841,12.687,12.687,0,0,0,1.142.837,4.462,4.462,0,0,0-1.05-.963A4.395,4.395,0,0,0,79.048,252.879Z" transform="translate(-79.047 -252.876)" fill="#455a64"/>
              </g>
            </g>
          </g>
          <g id="Group_14713" data-name="Group 14713" transform="translate(2.856 4.641)">
            <g id="Group_14710" data-name="Group 14710">
              <path id="Path_23170" data-name="Path 23170" d="M99.219,256.073a7.846,7.846,0,0,1-2.6,2.187c-1.6.589-13.4,6.16-13.4,6.16s-2.141,15.906-1.972,15.243l-4.941-.119.536-14.652a6.818,6.818,0,0,1,3.182-4.989l10.931-6.5Z" transform="translate(-76.3 -253.4)" fill="#263238"/>
            </g>
            <g id="Group_14712" data-name="Group 14712" transform="translate(0.436 0.765)">
              <g id="Group_14711" data-name="Group 14711">
                <path id="Path_23171" data-name="Path 23171" d="M78.209,270.146a1.165,1.165,0,0,0,.021-.2c.007-.147.018-.339.03-.575a19.075,19.075,0,0,1,.195-2.107,7.275,7.275,0,0,1,1.068-2.9,5.537,5.537,0,0,1,1.27-1.311,15.262,15.262,0,0,1,1.676-1.061c2.377-1.362,4.429-2.751,5.947-3.7.757-.481,1.371-.864,1.8-1.126l.491-.3a1.053,1.053,0,0,0,.167-.115,1,1,0,0,0-.181.087c-.117.062-.289.154-.507.277-.438.245-1.061.614-1.825,1.084-1.534.929-3.595,2.3-5.965,3.661a14.754,14.754,0,0,0-1.692,1.075,5.652,5.652,0,0,0-1.3,1.353,7.255,7.255,0,0,0-1.057,2.969,16.5,16.5,0,0,0-.147,2.121v.578A.973.973,0,0,0,78.209,270.146Z" transform="translate(-78.2 -256.738)" fill="#455a64"/>
              </g>
            </g>
          </g>
          <g id="Group_14715" data-name="Group 14715" transform="translate(20.44 5.8)">
            <g id="Group_14714" data-name="Group 14714">
              <path id="Path_23172" data-name="Path 23172" d="M153.974,261.648c.018-.021-.126-.154-.3-.408a3.017,3.017,0,0,1-.468-1.1,2.984,2.984,0,0,1,0-1.192,4.613,4.613,0,0,0,.122-.493,1.085,1.085,0,0,0-.227.465,2.637,2.637,0,0,0,.481,2.384C153.793,261.556,153.965,261.662,153.974,261.648Z" transform="translate(-153 -258.458)" fill="#455a64"/>
            </g>
          </g>
          <g id="Group_14717" data-name="Group 14717" transform="translate(4.671 5.205)">
            <g id="Group_14716" data-name="Group 14716">
              <path id="Path_23173" data-name="Path 23173" d="M84.22,281.438a.474.474,0,0,0,.016-.08c.007-.062.018-.142.03-.241.023-.222.057-.534.1-.926.08-.816.195-1.979.335-3.409.069-.722.144-1.509.225-2.355s.167-1.752.234-2.705.165-1.951.337-2.971a12.179,12.179,0,0,1,.908-3.058,10.183,10.183,0,0,1,1.8-2.63,16.17,16.17,0,0,1,2.238-1.972,45.259,45.259,0,0,1,4.3-2.685c1.254-.72,2.254-1.334,2.918-1.8.335-.229.587-.415.757-.546l.19-.149c.041-.034.064-.053.062-.055a.269.269,0,0,0-.071.044l-.2.138c-.174.121-.433.3-.77.52-.674.447-1.678,1.043-2.939,1.752a43.07,43.07,0,0,0-4.331,2.664,16.114,16.114,0,0,0-2.265,1.983,10.33,10.33,0,0,0-1.823,2.669,12.309,12.309,0,0,0-.917,3.1c-.172,1.029-.261,2.034-.33,2.987s-.142,1.859-.218,2.705-.142,1.635-.2,2.357c-.119,1.433-.218,2.6-.287,3.414q-.045.592-.069.929c-.007.1-.011.179-.014.243S84.216,281.438,84.22,281.438Z" transform="translate(-84.218 -255.859)" fill="#455a64"/>
            </g>
          </g>
        </g>
        <g id="Group_14792" data-name="Group 14792" transform="translate(9.822)">
          <g id="Group_14719" data-name="Group 14719">
            <path id="Path_23174" data-name="Path 23174" d="M113.171,139.069a1.929,1.929,0,0,0-2.208-1.188,2.416,2.416,0,0,1-.614.133,4.386,4.386,0,0,1-.747-.2,1.121,1.121,0,0,0-1.266.821,1.533,1.533,0,0,0-1.261.25.988.988,0,0,0-.293,1.188c.089.167.236.3.319.472a6.7,6.7,0,0,1,.167.919,1.24,1.24,0,0,0,1.068.768,3.641,3.641,0,0,0,1.369-.2" transform="translate(-106.687 -137.798)" fill="#263238"/>
          </g>
          <g id="Group_14787" data-name="Group 14787" transform="translate(1.202 0.956)">
            <g id="Group_14786" data-name="Group 14786">
              <g id="Group_14773" data-name="Group 14773">
                <g id="Group_14760" data-name="Group 14760" transform="translate(0.365 0.672)">
                  <g id="Group_14759" data-name="Group 14759">
                    <g id="Group_14758" data-name="Group 14758">
                      <g id="Group_14723" data-name="Group 14723">
                        <g id="Group_14722" data-name="Group 14722">
                          <g id="Group_14721" data-name="Group 14721">
                            <g id="Group_14720" data-name="Group 14720">
                              <path id="Path_23175" data-name="Path 23175" d="M116.31,153.61c-.057-.442-.1-.754-.1-.754a2.365,2.365,0,0,1-2.073-1.841,20.327,20.327,0,0,1-.612-3.712,2.008,2.008,0,0,1,1.894-2.2l3.925-.206.085.608,1.034,7.547a2.1,2.1,0,0,1-1.8,2.361h0A2.1,2.1,0,0,1,116.31,153.61Z" transform="translate(-113.52 -144.9)" fill="#b78876"/>
                            </g>
                          </g>
                        </g>
                      </g>
                      <g id="Group_14733" data-name="Group 14733" transform="translate(0.461 2.809)">
                        <g id="Group_14727" data-name="Group 14727" transform="translate(0.101 0.418)">
                          <g id="Group_14726" data-name="Group 14726">
                            <g id="Group_14725" data-name="Group 14725">
                              <g id="Group_14724" data-name="Group 14724">
                                <path id="Path_23176" data-name="Path 23176" d="M115.974,159.232a.244.244,0,0,0,.271.206.233.233,0,0,0,.213-.257.244.244,0,0,0-.271-.206A.233.233,0,0,0,115.974,159.232Z" transform="translate(-115.972 -158.974)" fill="#263238"/>
                              </g>
                            </g>
                          </g>
                        </g>
                        <g id="Group_14732" data-name="Group 14732">
                          <g id="Group_14731" data-name="Group 14731">
                            <g id="Group_14730" data-name="Group 14730">
                              <g id="Group_14729" data-name="Group 14729">
                                <g id="Group_14728" data-name="Group 14728">
                                  <path id="Path_23177" data-name="Path 23177" d="M115.538,157.489c.034.027.195-.138.454-.179s.47.06.493.023c.011-.016-.028-.069-.119-.115a.67.67,0,0,0-.4-.057.65.65,0,0,0-.355.181C115.538,157.416,115.519,157.478,115.538,157.489Z" transform="translate(-115.531 -157.153)" fill="#263238"/>
                                </g>
                              </g>
                            </g>
                          </g>
                        </g>
                      </g>
                      <g id="Group_14743" data-name="Group 14743" transform="translate(3.016 2.451)">
                        <g id="Group_14737" data-name="Group 14737" transform="translate(0.009 0.358)">
                          <g id="Group_14736" data-name="Group 14736">
                            <g id="Group_14735" data-name="Group 14735">
                              <g id="Group_14734" data-name="Group 14734">
                                <path id="Path_23178" data-name="Path 23178" d="M126.714,157.412a.244.244,0,0,0,.271.206.233.233,0,0,0,.213-.257.244.244,0,0,0-.271-.206A.233.233,0,0,0,126.714,157.412Z" transform="translate(-126.712 -157.154)" fill="#263238"/>
                              </g>
                            </g>
                          </g>
                        </g>
                        <g id="Group_14742" data-name="Group 14742">
                          <g id="Group_14741" data-name="Group 14741">
                            <g id="Group_14740" data-name="Group 14740">
                              <g id="Group_14739" data-name="Group 14739">
                                <g id="Group_14738" data-name="Group 14738">
                                  <path id="Path_23179" data-name="Path 23179" d="M126.681,155.929c.034.028.2-.138.456-.179s.47.06.493.023c.011-.016-.028-.069-.119-.115a.67.67,0,0,0-.4-.057.65.65,0,0,0-.355.181C126.681,155.856,126.665,155.918,126.681,155.929Z" transform="translate(-126.675 -155.593)" fill="#263238"/>
                                </g>
                              </g>
                            </g>
                          </g>
                        </g>
                      </g>
                      <g id="Group_14748" data-name="Group 14748" transform="translate(1.689 2.682)">
                        <g id="Group_14747" data-name="Group 14747">
                          <g id="Group_14746" data-name="Group 14746">
                            <g id="Group_14745" data-name="Group 14745">
                              <g id="Group_14744" data-name="Group 14744">
                                <path id="Path_23180" data-name="Path 23180" d="M121.585,158.778a1.749,1.749,0,0,0-.433-.009c-.066,0-.133,0-.151-.044a.341.341,0,0,1,.014-.2c.037-.17.076-.348.115-.534a8.495,8.495,0,0,0,.229-1.387,8.9,8.9,0,0,0-.342,1.366c-.037.188-.073.367-.108.536a.381.381,0,0,0,.007.266.171.171,0,0,0,.124.08.465.465,0,0,0,.115,0A1.87,1.87,0,0,0,121.585,158.778Z" transform="translate(-120.887 -156.6)" fill="#263238"/>
                              </g>
                            </g>
                          </g>
                        </g>
                      </g>
                      <g id="Group_14752" data-name="Group 14752" transform="translate(2.696 6.882)">
                        <g id="Group_14751" data-name="Group 14751">
                          <g id="Group_14750" data-name="Group 14750">
                            <g id="Group_14749" data-name="Group 14749">
                              <path id="Path_23181" data-name="Path 23181" d="M125.28,175.991a4.828,4.828,0,0,0,2.407-1.071,2.413,2.413,0,0,1-2.311,1.511Z" transform="translate(-125.28 -174.92)" fill="#aa6550"/>
                            </g>
                          </g>
                        </g>
                      </g>
                      <g id="Group_14757" data-name="Group 14757" transform="translate(2.462 4.917)">
                        <g id="Group_14756" data-name="Group 14756">
                          <g id="Group_14755" data-name="Group 14755">
                            <g id="Group_14754" data-name="Group 14754">
                              <g id="Group_14753" data-name="Group 14753">
                                <path id="Path_23182" data-name="Path 23182" d="M124.975,166.349c-.044,0,0,.287-.206.523s-.514.254-.509.293c0,.018.076.044.2.028a.724.724,0,0,0,.429-.229.612.612,0,0,0,.156-.436C125.037,166.409,124.993,166.345,124.975,166.349Z" transform="translate(-124.26 -166.349)" fill="#263238"/>
                              </g>
                            </g>
                          </g>
                        </g>
                      </g>
                    </g>
                  </g>
                </g>
                <g id="Group_14764" data-name="Group 14764" transform="translate(3.154 2.17)">
                  <g id="Group_14763" data-name="Group 14763">
                    <g id="Group_14762" data-name="Group 14762">
                      <g id="Group_14761" data-name="Group 14761">
                        <path id="Path_23183" data-name="Path 23183" d="M125.69,151.72c.037.066.291-.009.6-.021s.569.032.6-.037c.014-.032-.039-.092-.149-.144a.988.988,0,0,0-.461-.083,1.008,1.008,0,0,0-.452.126C125.722,151.623,125.674,151.688,125.69,151.72Z" transform="translate(-125.687 -151.434)" fill="#263238"/>
                      </g>
                    </g>
                  </g>
                </g>
                <g id="Group_14768" data-name="Group 14768" transform="translate(0.796 2.701)">
                  <g id="Group_14767" data-name="Group 14767">
                    <g id="Group_14766" data-name="Group 14766">
                      <g id="Group_14765" data-name="Group 14765">
                        <path id="Path_23184" data-name="Path 23184" d="M115.412,154.1c.055.05.225-.039.438-.076s.4-.023.436-.092c.014-.032-.025-.087-.112-.131a.642.642,0,0,0-.7.135C115.4,154.014,115.387,154.078,115.412,154.1Z" transform="translate(-115.401 -153.753)" fill="#263238"/>
                      </g>
                    </g>
                  </g>
                </g>
                <g id="Group_14772" data-name="Group 14772">
                  <g id="Group_14771" data-name="Group 14771">
                    <g id="Group_14770" data-name="Group 14770">
                      <g id="Group_14769" data-name="Group 14769">
                        <path id="Path_23185" data-name="Path 23185" d="M112.109,144.219a2.7,2.7,0,0,0,2.231-.447c.782-.523,1.731-.851,1.967-.708s.39,1,1.249,1.142c0,0,.151,1.651.8,1.509.461-.1.193-1.921,0-2.96a.907.907,0,0,0-.857-.738l-1.208-.046-1.509.422-1.619.44-1.231.511Z" transform="translate(-111.93 -141.97)" fill="#263238"/>
                      </g>
                    </g>
                  </g>
                </g>
              </g>
              <g id="Group_14785" data-name="Group 14785" transform="translate(6.282 2.935)">
                <g id="Group_14778" data-name="Group 14778">
                  <g id="Group_14777" data-name="Group 14777">
                    <g id="Group_14776" data-name="Group 14776">
                      <g id="Group_14775" data-name="Group 14775">
                        <g id="Group_14774" data-name="Group 14774">
                          <path id="Path_23186" data-name="Path 23186" d="M139.33,154.913c.025-.018,1.027-.543,1.213.55a.833.833,0,0,1-.958,1.023C139.575,156.454,139.33,154.913,139.33,154.913Z" transform="translate(-139.33 -154.771)" fill="#b78876"/>
                        </g>
                      </g>
                    </g>
                  </g>
                </g>
                <g id="Group_14784" data-name="Group 14784" transform="translate(0.461 0.338)">
                  <g id="Group_14783" data-name="Group 14783">
                    <g id="Group_14782" data-name="Group 14782">
                      <g id="Group_14781" data-name="Group 14781">
                        <g id="Group_14780" data-name="Group 14780">
                          <g id="Group_14779" data-name="Group 14779">
                            <path id="Path_23187" data-name="Path 23187" d="M141.395,157.15s.021.009.055.018a.2.2,0,0,0,.142-.021.481.481,0,0,0,.147-.461.638.638,0,0,0-.1-.264.222.222,0,0,0-.167-.122.1.1,0,0,0-.1.071c-.009.032,0,.053,0,.057s-.027-.014-.025-.062a.114.114,0,0,1,.032-.076.149.149,0,0,1,.1-.046.272.272,0,0,1,.227.135.671.671,0,0,1,.117.293.5.5,0,0,1-.2.518.208.208,0,0,1-.179,0C141.4,157.178,141.392,157.155,141.395,157.15Z" transform="translate(-141.339 -156.246)" fill="#aa6550"/>
                          </g>
                        </g>
                      </g>
                    </g>
                  </g>
                </g>
              </g>
            </g>
          </g>
          <g id="Group_14789" data-name="Group 14789" transform="translate(1.904 0.428)">
            <g id="Group_14788" data-name="Group 14788">
              <path id="Path_23188" data-name="Path 23188" d="M114.995,139.671c.009,0,.039.057.115.147a.949.949,0,0,0,.413.266,1.367,1.367,0,0,0,.729.032,6.773,6.773,0,0,0,.883-.28,2.418,2.418,0,0,1,.938-.167,1.026,1.026,0,0,1,.711.321.748.748,0,0,1,.218.479.321.321,0,0,1-.032.19c-.011,0,0-.069-.014-.186a.765.765,0,0,0-.232-.424.955.955,0,0,0-.658-.268,2.44,2.44,0,0,0-.892.17,5.731,5.731,0,0,1-.9.275,1.391,1.391,0,0,1-.777-.062.888.888,0,0,1-.42-.316C115,139.744,114.988,139.673,114.995,139.671Z" transform="translate(-114.993 -139.666)" fill="#455a64"/>
            </g>
          </g>
          <g id="Group_14791" data-name="Group 14791" transform="translate(0.472 1.093)">
            <g id="Group_14790" data-name="Group 14790">
              <path id="Path_23189" data-name="Path 23189" d="M113.874,142.954c-.009.007-.055-.057-.17-.138a1.01,1.01,0,0,0-.55-.163,1.781,1.781,0,0,0-.835.2,8.646,8.646,0,0,1-.995.465,2.473,2.473,0,0,1-1.958-.213,2.131,2.131,0,0,1-.481-.369c-.1-.105-.144-.17-.138-.174a3.985,3.985,0,0,0,.66.47,2.486,2.486,0,0,0,1.882.174,10.1,10.1,0,0,0,.986-.452,1.791,1.791,0,0,1,.885-.188.989.989,0,0,1,.573.211A.412.412,0,0,1,113.874,142.954Z" transform="translate(-108.747 -142.566)" fill="#455a64"/>
            </g>
          </g>
        </g>
        <g id="Group_14793" data-name="Group 14793" transform="translate(7.292 14.902)">
          <path id="Path_23190" data-name="Path 23190" d="M95.65,202.8" transform="translate(-95.65 -202.8)" fill="#e8505b"/>
        </g>
        <g id="Group_14824" data-name="Group 14824" transform="translate(3.483 10.576)">
          <g id="Group_14797" data-name="Group 14797" transform="translate(1.463 4.998)">
            <g id="Group_14796" data-name="Group 14796">
              <g id="Group_14795" data-name="Group 14795">
                <g id="Group_14794" data-name="Group 14794">
                  <path id="Path_23191" data-name="Path 23191" d="M92.5,210.267l-5.323-4.537-1.756.4a28.93,28.93,0,0,0,3.189,5.257,3.146,3.146,0,0,0,3.505,1.006C94.295,211.622,92.5,210.267,92.5,210.267Z" transform="translate(-85.42 -205.73)" fill="#b78876"/>
                </g>
              </g>
            </g>
          </g>
          <g id="Group_14804" data-name="Group 14804">
            <g id="Group_14800" data-name="Group 14800">
              <g id="Group_14799" data-name="Group 14799">
                <g id="Group_14798" data-name="Group 14798">
                  <path id="Path_23192" data-name="Path 23192" d="M81.854,183.93H79.591a.574.574,0,0,0-.525.722l2.277,4.432a.515.515,0,0,0,.459.28l2.758-.007a.4.4,0,0,0,.3-.585l-2.2-4.34A.9.9,0,0,0,81.854,183.93Z" transform="translate(-79.038 -183.93)" fill="#455a64"/>
                </g>
              </g>
            </g>
            <g id="Group_14803" data-name="Group 14803" transform="translate(0.022 0.268)">
              <g id="Group_14802" data-name="Group 14802">
                <g id="Group_14801" data-name="Group 14801">
                  <path id="Path_23193" data-name="Path 23193" d="M81.775,185.1H79.513a.377.377,0,0,0-.337.55l2.219,4.335a.515.515,0,0,0,.459.28h2.728a.222.222,0,0,0,.2-.323l-2.2-4.34A.9.9,0,0,0,81.775,185.1Z" transform="translate(-79.133 -185.1)" fill="#263238"/>
                </g>
              </g>
            </g>
          </g>
          <g id="Group_14820" data-name="Group 14820" transform="translate(0.798 2.084)">
            <g id="Group_14807" data-name="Group 14807">
              <g id="Group_14806" data-name="Group 14806">
                <g id="Group_14805" data-name="Group 14805">
                  <path id="Path_23194" data-name="Path 23194" d="M84.194,193.02l-1.378.55-.3,1.11.663,1.651,2.435.353-.713-.729.092-.635s.679-.213.695-.316-.085-.452-.188-.47a5.323,5.323,0,0,0-.816.248s.844-.667.818-.775-.115-.381-.282-.413a10.046,10.046,0,0,0-1.529.61l-.22.5-.193-.8S84.492,193.568,84.194,193.02Z" transform="translate(-82.52 -193.02)" fill="#b78876"/>
                </g>
              </g>
            </g>
            <g id="Group_14811" data-name="Group 14811" transform="translate(1.796 1.748)">
              <g id="Group_14810" data-name="Group 14810">
                <g id="Group_14809" data-name="Group 14809">
                  <g id="Group_14808" data-name="Group 14808">
                    <path id="Path_23195" data-name="Path 23195" d="M90.4,201.5c-.009,0-.034-.048-.046-.138a.728.728,0,0,1,.041-.348.749.749,0,0,1,.195-.291c.069-.06.119-.08.124-.073a1.525,1.525,0,0,0-.252.39A1.5,1.5,0,0,0,90.4,201.5Z" transform="translate(-90.353 -200.644)" fill="#aa6550"/>
                  </g>
                </g>
              </g>
            </g>
            <g id="Group_14815" data-name="Group 14815" transform="translate(1.191 0.858)">
              <g id="Group_14814" data-name="Group 14814">
                <g id="Group_14813" data-name="Group 14813">
                  <g id="Group_14812" data-name="Group 14812">
                    <path id="Path_23196" data-name="Path 23196" d="M87.716,198.265a3.309,3.309,0,0,0,.055-.36,1.566,1.566,0,0,1,.069-.4.639.639,0,0,1,.126-.213.657.657,0,0,1,.225-.142c.33-.119.626-.216.844-.287a2.036,2.036,0,0,1,.355-.1,1.886,1.886,0,0,1-.339.144c-.211.083-.509.188-.832.3a.612.612,0,0,0-.2.124.533.533,0,0,0-.115.188,1.635,1.635,0,0,0-.08.383A.735.735,0,0,1,87.716,198.265Z" transform="translate(-87.715 -196.764)" fill="#aa6550"/>
                  </g>
                </g>
              </g>
            </g>
            <g id="Group_14819" data-name="Group 14819" transform="translate(0.864 1.582)">
              <g id="Group_14818" data-name="Group 14818">
                <g id="Group_14817" data-name="Group 14817">
                  <g id="Group_14816" data-name="Group 14816">
                    <path id="Path_23197" data-name="Path 23197" d="M86.3,200.449a.539.539,0,0,1,.009-.271c.025-.147.06-.264.078-.259a.539.539,0,0,1-.009.271C86.355,200.337,86.32,200.451,86.3,200.449Z" transform="translate(-86.288 -199.919)" fill="#aa6550"/>
                  </g>
                </g>
              </g>
            </g>
          </g>
          <g id="Group_14823" data-name="Group 14823" transform="translate(1.637 0.816)">
            <g id="Group_14822" data-name="Group 14822">
              <g id="Group_14821" data-name="Group 14821">
                <path id="Path_23198" data-name="Path 23198" d="M86.18,187.779a.289.289,0,1,0,.289-.289A.289.289,0,0,0,86.18,187.779Z" transform="translate(-86.18 -187.49)" fill="#fafafa"/>
              </g>
            </g>
          </g>
        </g>
      </g>
    </g>
    <g id="Plant" transform="translate(32.774 127.304)">
      <g id="Group_14841" data-name="Group 14841">
        <g id="Group_14827" data-name="Group 14827" transform="translate(2.979)">
          <g id="Group_14826" data-name="Group 14826">
            <path id="Path_23199" data-name="Path 23199" d="M47.106,379.359a2.792,2.792,0,0,1,1.669,1.415,4.954,4.954,0,0,1,.511,2.171,8.7,8.7,0,0,1-1.263,4.278,5.893,5.893,0,0,1-2.116-3.588c-.344-1.463-.08-4.315,1.2-4.276" transform="translate(-45.769 -379.358)" fill="#4e9c0b"/>
          </g>
        </g>
        <g id="Group_14829" data-name="Group 14829" transform="translate(6.828 6.597)">
          <g id="Group_14828" data-name="Group 14828">
            <path id="Path_23200" data-name="Path 23200" d="M62.7,411.552a2.385,2.385,0,0,1,.436-2.354,3.169,3.169,0,0,1,2.205-1.059,1.329,1.329,0,0,1,1.08.307,1.021,1.021,0,0,1,.165,1.02,2.064,2.064,0,0,1-.649.855,4.077,4.077,0,0,1-3.237,1.231" transform="translate(-62.559 -408.132)" fill="#4e9c0b"/>
          </g>
        </g>
        <g id="Group_14832" data-name="Group 14832" transform="translate(6.065 8.113)">
          <g id="Group_14831" data-name="Group 14831">
            <g id="Group_14830" data-name="Group 14830">
              <path id="Path_23201" data-name="Path 23201" d="M59.233,421.25a1.685,1.685,0,0,1,0-.3c.007-.211.018-.486.03-.814a8.4,8.4,0,0,1,.449-2.653,5.126,5.126,0,0,1,1.536-2.2,3.538,3.538,0,0,1,.692-.436,1.922,1.922,0,0,1,.206-.085q.072-.027.076-.021a5.517,5.517,0,0,0-.926.6,5.291,5.291,0,0,0-1.486,2.176,9,9,0,0,0-.475,2.618c-.025.342-.044.621-.064.812A1.708,1.708,0,0,1,59.233,421.25Z" transform="translate(-59.228 -414.744)" fill="#263238"/>
            </g>
          </g>
        </g>
        <g id="Group_14835" data-name="Group 14835" transform="translate(4.305 2.19)">
          <g id="Group_14834" data-name="Group 14834">
            <g id="Group_14833" data-name="Group 14833">
              <path id="Path_23202" data-name="Path 23202" d="M51.554,388.91a.523.523,0,0,1,.034.126q.028.141.076.365c.064.316.149.777.252,1.346.2,1.139.463,2.714.708,4.461s.433,3.336.553,4.484c.06.575.105,1.041.131,1.364q.017.227.028.371a.567.567,0,0,1,0,.131.533.533,0,0,1-.023-.128c-.011-.1-.028-.218-.048-.369-.041-.335-.1-.8-.165-1.359-.138-1.149-.337-2.733-.582-4.48s-.493-3.324-.679-4.464c-.092-.562-.165-1.02-.218-1.35-.023-.151-.041-.273-.055-.369A.451.451,0,0,1,51.554,388.91Z" transform="translate(-51.553 -388.91)" fill="#263238"/>
            </g>
          </g>
        </g>
        <g id="Group_14837" data-name="Group 14837" transform="translate(0 7.481)">
          <g id="Group_14836" data-name="Group 14836">
            <path id="Path_23203" data-name="Path 23203" d="M37.794,415.7a5.584,5.584,0,0,0-3.6-3.606,1.179,1.179,0,0,0-1.259.163,1.155,1.155,0,0,0,.087,1.266,4.766,4.766,0,0,0,4.764,2.3" transform="translate(-32.774 -411.99)" fill="#4e9c0b"/>
          </g>
        </g>
        <g id="Group_14840" data-name="Group 14840" transform="translate(1.81 8.908)">
          <g id="Group_14839" data-name="Group 14839">
            <g id="Group_14838" data-name="Group 14838">
              <path id="Path_23204" data-name="Path 23204" d="M40.669,418.216a1.541,1.541,0,0,1,.271.073,2.661,2.661,0,0,1,.309.112c.117.053.257.1.4.177a6.156,6.156,0,0,1,.972.6,5.7,5.7,0,0,1,1.752,2.15,5.5,5.5,0,0,1,.227.566,5.127,5.127,0,0,1,.149.511,3.754,3.754,0,0,1,.083.429,2.6,2.6,0,0,1,.039.328,1.388,1.388,0,0,1,.009.282c-.023,0-.041-.4-.2-1.02a4.736,4.736,0,0,0-.158-.5,5.993,5.993,0,0,0-.232-.555,5.9,5.9,0,0,0-1.724-2.114,5.869,5.869,0,0,0-.493-.344c-.156-.105-.312-.186-.454-.264C41.048,418.349,40.66,418.237,40.669,418.216Z" transform="translate(-40.669 -418.215)" fill="#263238"/>
            </g>
          </g>
        </g>
      </g>
    </g>
  </g>
</svg>
