<svg width="20" height="20" viewBox="0 0 20 20" fill="none" xmlns="http://www.w3.org/2000/svg">
<path d="M18.6168 8.86914L18.6105 8.86641L1.92773 1.94687C1.78741 1.88814 1.63472 1.86511 1.48332 1.87983C1.33192 1.89456 1.18653 1.94658 1.06016 2.03125C0.926639 2.11874 0.816966 2.23805 0.741006 2.37844C0.665046 2.51884 0.625182 2.67592 0.625 2.83555V7.26094C0.625074 7.47916 0.701273 7.69052 0.840463 7.85859C0.979653 8.02666 1.17311 8.1409 1.3875 8.18164L10.4863 9.86406C10.5221 9.87084 10.5543 9.88988 10.5776 9.91791C10.6008 9.94594 10.6135 9.98119 10.6135 10.0176C10.6135 10.054 10.6008 10.0892 10.5776 10.1172C10.5543 10.1453 10.5221 10.1643 10.4863 10.1711L1.38789 11.8535C1.17356 11.8941 0.980115 12.0082 0.840862 12.1762C0.70161 12.3441 0.625273 12.5553 0.625 12.7734V17.1996C0.624896 17.352 0.662638 17.5021 0.734839 17.6363C0.80704 17.7706 0.91144 17.8848 1.03867 17.9688C1.19172 18.0704 1.37133 18.1248 1.55508 18.125C1.68282 18.1249 1.80925 18.0993 1.92695 18.0496L18.6094 11.1695L18.6168 11.166C18.8414 11.0695 19.0327 10.9093 19.1671 10.7052C19.3016 10.5011 19.3732 10.262 19.3732 10.0176C19.3732 9.77316 19.3016 9.5341 19.1671 9.32999C19.0327 9.12587 18.8414 8.96565 18.6168 8.86914Z" fill="#4E9C0B"/>
</svg>
