<svg id="Component_11_1" data-name="Component 11 – 1" xmlns="http://www.w3.org/2000/svg" width="20" height="20" viewBox="0 0 20 20">
  <g id="Group_12340" data-name="Group 12340" transform="translate(-150.432 -856.717)">
    <g id="Iconly_Bulk_Arrow_-_Down_Circle" data-name="Iconly/Bulk/Arrow - Down Circle" transform="translate(150.432 856.717)">
      <g id="Arrow_-_Down_Circle" data-name="Arrow - Down Circle" transform="translate(0 0)">
        <path id="Fill_1" data-name="Fill 1" d="M20,10A10,10,0,1,1,10,0,10.011,10.011,0,0,1,20,10" transform="translate(0 0)" fill="#76777a" opacity="0.4"/>
      </g>
    </g>
  </g>
  <g id="Setting" transform="translate(5.646 5.545)" style="isolation: isolate">
    <g id="Setting-2" data-name="Setting">
      <path id="Path" d="M1.33,2.59A1.308,1.308,0,0,1,0,1.3,1.311,1.311,0,0,1,1.33,0a1.295,1.295,0,1,1,0,2.59" transform="translate(3.029 3.291)" fill="#36373c" stroke="#36373c" stroke-width="1"/>
      <path id="Path-2" data-name="Path" d="M8.585,5.67a1.055,1.055,0,0,0-.379-.362.709.709,0,0,1-.29-.293.835.835,0,0,1,.3-1.146.929.929,0,0,0,.347-1.3L8.247,2.03a.968.968,0,0,0-1.316-.348.9.9,0,0,1-1.18-.316.708.708,0,0,1-.108-.4A.815.815,0,0,0,5.517.477.986.986,0,0,0,4.683,0h-.66a1.006,1.006,0,0,0-.829.477.818.818,0,0,0-.131.486.708.708,0,0,1-.108.4.9.9,0,0,1-1.176.316A.974.974,0,0,0,.458,2.03l-.314.541a.937.937,0,0,0,.347,1.3A.841.841,0,0,1,.8,5.014a.749.749,0,0,1-.3.293.971.971,0,0,0-.375.362.914.914,0,0,0,.009.94l.323.55a.978.978,0,0,0,.834.477.99.99,0,0,0,.5-.137A.727.727,0,0,1,2.2,7.393a.867.867,0,0,1,.862.834.949.949,0,0,0,.974.94h.637a.948.948,0,0,0,.97-.94.875.875,0,0,1,.867-.834.747.747,0,0,1,.412.105.961.961,0,0,0,1.326-.339l.328-.55a.925.925,0,0,0,.009-.94" fill="#36373c" stroke="#36373c" stroke-width="1" opacity="0.4"/>
    </g>
  </g>
</svg>
