<svg width="40" height="40" viewBox="0 0 40 40" fill="none" xmlns="http://www.w3.org/2000/svg">
<path d="M40 20C40 23.9556 38.827 27.8224 36.6294 31.1114C34.4318 34.4004 31.3082 36.9638 27.6537 38.4776C23.9991 39.9913 19.9778 40.3874 16.0982 39.6157C12.2186 38.844 8.65492 36.9392 5.85787 34.1421C3.06082 31.3451 1.15601 27.7814 0.384303 23.9018C-0.387401 20.0222 0.00866568 16.0008 1.52242 12.3463C3.03617 8.69181 5.59962 5.56823 8.8886 3.37061C12.1776 1.17298 16.0444 0 20 0C25.3025 0.00582319 30.3862 2.11483 34.1357 5.86429C37.8852 9.61376 39.9942 14.6975 40 20Z" fill="#4E9C0B"/>
<path opacity="0.4" d="M28.4604 22.4281C28.2726 22.1269 28.0119 21.8779 27.7024 21.7041C27.4553 21.5706 27.2534 21.3666 27.1224 21.1181C27.0106 20.9284 26.9374 20.7185 26.907 20.5004C26.8767 20.2823 26.8898 20.0603 26.9455 19.8473C27.0013 19.6343 27.0986 19.4344 27.232 19.2591C27.3653 19.0839 27.5319 18.9367 27.7224 18.8261C27.9432 18.7055 28.1372 18.5412 28.2926 18.3433C28.448 18.1454 28.5616 17.918 28.6265 17.6749C28.6914 17.4317 28.7063 17.178 28.6701 16.9289C28.634 16.6799 28.5477 16.4408 28.4164 16.2261L27.7844 15.1481C27.5256 14.709 27.1041 14.3897 26.6114 14.2594C26.1186 14.1291 25.5944 14.1983 25.1524 14.4521C24.7516 14.663 24.2861 14.715 23.8487 14.5978C23.4113 14.4807 23.0341 14.203 22.7924 13.8201C22.6422 13.581 22.567 13.3024 22.5764 13.0201C22.598 12.6757 22.5098 12.3332 22.3244 12.0421C22.1508 11.7541 21.9064 11.5152 21.6144 11.3482C21.3225 11.1812 20.9927 11.0917 20.6564 11.0881H19.3364C19.0025 11.0971 18.6762 11.1889 18.3867 11.3555C18.0973 11.522 17.8538 11.758 17.6784 12.0421C17.491 12.3305 17.3994 12.6707 17.4164 13.0141C17.4257 13.2964 17.3505 13.575 17.2004 13.8141C16.9588 14.195 16.583 14.4713 16.1475 14.5883C15.7119 14.7053 15.2483 14.6546 14.8484 14.4461C14.404 14.1929 13.8779 14.1245 13.3835 14.2559C12.8892 14.3872 12.4664 14.7077 12.2064 15.1481L11.5784 16.2301C11.4493 16.4454 11.3648 16.6844 11.3299 16.9329C11.2949 17.1815 11.3103 17.4345 11.375 17.677C11.4398 17.9195 11.5525 18.1466 11.7067 18.3446C11.8608 18.5427 12.0532 18.7078 12.2724 18.8301C12.6559 19.0527 12.9361 19.4178 13.0518 19.8459C13.1676 20.2741 13.1095 20.7306 12.8904 21.1161C12.7502 21.3646 12.5421 21.5679 12.2904 21.7021C11.9791 21.8706 11.7197 22.121 11.5404 22.4261C11.3728 22.7117 11.286 23.0375 11.2891 23.3686C11.2923 23.6997 11.3854 24.0238 11.5584 24.3061L12.2044 25.4061C12.3768 25.6952 12.6209 25.9349 12.9131 26.1021C13.2053 26.2692 13.5357 26.3581 13.8724 26.3601C14.2241 26.3592 14.5693 26.2647 14.8724 26.0861C15.118 25.936 15.4027 25.8623 15.6904 25.8741C16.1373 25.8764 16.5661 26.0511 16.8873 26.3619C17.2085 26.6727 17.3974 27.0955 17.4144 27.5421C17.4167 27.7941 17.4691 28.0431 17.5687 28.2746C17.6682 28.5061 17.8129 28.7155 17.9942 28.8905C18.1756 29.0655 18.3899 29.2026 18.6248 29.2939C18.8597 29.3852 19.1104 29.4288 19.3624 29.4221H20.6364C20.8877 29.428 21.1377 29.3838 21.3717 29.2921C21.6058 29.2005 21.8193 29.0632 21.9999 28.8882C22.1804 28.7133 22.3243 28.5042 22.4233 28.2731C22.5223 28.042 22.5743 27.7935 22.5764 27.5421C22.5973 27.0951 22.7887 26.6731 23.1112 26.3629C23.4338 26.0526 23.8629 25.8777 24.3104 25.8741C24.5996 25.8628 24.8858 25.9358 25.1344 26.0841C25.3525 26.2156 25.5946 26.3023 25.8466 26.3393C26.0986 26.3764 26.3554 26.363 26.6022 26.2999C26.8489 26.2368 27.0807 26.1253 27.284 25.9719C27.4873 25.8184 27.658 25.6261 27.7864 25.4061L28.4424 24.3061C28.6131 24.023 28.7048 23.6992 28.708 23.3686C28.7111 23.038 28.6256 22.7145 28.4604 22.4281Z" fill="white" stroke="white"/>
<path d="M20.0077 22.8504C19.6634 22.8563 19.3215 22.7941 19.0013 22.6675C18.6812 22.5409 18.3892 22.3523 18.1421 22.1126C17.895 21.8729 17.6976 21.5868 17.5613 21.2707C17.4249 20.9546 17.3523 20.6147 17.3477 20.2704C17.3505 19.9248 17.4217 19.583 17.5572 19.265C17.6926 18.9469 17.8896 18.6587 18.1368 18.4171C18.384 18.1755 18.6766 17.9851 18.9977 17.8569C19.3187 17.7288 19.662 17.6654 20.0077 17.6704C20.6946 17.6704 21.3533 17.9433 21.8391 18.429C22.3248 18.9148 22.5977 19.5735 22.5977 20.2604C22.5977 20.9474 22.3248 21.6061 21.8391 22.0918C21.3533 22.5776 20.6946 22.8504 20.0077 22.8504Z" fill="white" stroke="white"/>
</svg>
