<svg width="174" height="137" viewBox="0 0 174 137" fill="none" xmlns="http://www.w3.org/2000/svg">
<g filter="url(#filter0_d_332_537)">
<path d="M48.7215 34.3107C51.4277 21.2181 59.7545 13.926 72.7427 11.7231C82.3441 10.095 91.949 10.0744 101.534 11.7688C114.908 14.1327 122.947 21.8501 125.508 35.1407C127.487 45.412 127.518 55.7929 125.477 66.0545C122.739 79.0564 114.198 87.0822 101.257 89.277C91.656 90.9049 82.0511 90.9256 72.4658 89.2313C59.0925 86.8672 51.0173 78.7645 48.4563 65.4742C46.3767 55.1351 46.5768 44.6886 48.7215 34.3106V34.3107Z" fill="white"/>
</g>
<path d="M110.374 48.1594C109.573 47.0952 106.594 46.3623 105.334 44.4472C104.074 42.532 103.043 38.3845 99.836 36.7909C96.6291 35.1973 90.4997 34.75 86.9997 34.75C83.4997 34.75 77.3747 35.1875 74.1635 36.7877C70.9522 38.3878 69.9252 42.532 68.6652 44.4439C67.4052 46.3558 64.4269 47.0952 63.6252 48.1594C62.8235 49.2236 62.2591 55.9513 62.6025 59.25C62.946 62.5487 63.5869 64.5 63.5869 64.5H72.9932C74.5332 64.5 75.0341 63.9214 78.1841 63.625C81.6404 63.2969 85.031 63.1875 86.9997 63.1875C88.9685 63.1875 92.4685 63.2969 95.9225 63.625C99.0725 63.9236 99.5899 64.5 101.113 64.5H110.41C110.41 64.5 111.051 62.5487 111.395 59.25C111.738 55.9513 111.172 49.2236 110.374 48.1594ZM102.75 64.5H108.875V66.25H102.75V64.5ZM65.1247 64.5H71.2497V66.25H65.1247V64.5Z" stroke="#F3B755" stroke-width="3" stroke-linecap="round" stroke-linejoin="round"/>
<path d="M98.8642 56.3144C98.2178 55.5674 96.1112 54.9439 93.3222 54.5261C90.5331 54.1083 89.5159 54 87.0222 54C84.5284 54 83.3942 54.1794 80.7211 54.5261C78.0479 54.8728 76.0409 55.4897 75.1801 56.3144C73.8884 57.5656 75.7806 58.97 77.2659 59.1406C78.7053 59.3047 81.5829 59.2446 87.0342 59.2446C92.4854 59.2446 95.3631 59.3047 96.8025 59.1406C98.2856 58.9602 100.042 57.6531 98.8642 56.3144ZM106.203 49.0836C106.197 48.9968 106.159 48.9152 106.097 48.8547C106.034 48.7941 105.951 48.7588 105.864 48.7555C104.572 48.7096 103.261 48.8014 100.935 49.4872C99.7478 49.8337 98.6332 50.3917 97.6447 51.1344C97.3953 51.3291 97.4839 51.8552 97.7967 51.911C99.7142 52.1359 101.643 52.2491 103.574 52.25C104.732 52.25 105.928 51.9219 106.15 50.8894C106.263 50.2941 106.281 49.6846 106.203 49.0836ZM67.7973 49.0836C67.8034 48.9968 67.8415 48.9152 67.904 48.8547C67.9666 48.7941 68.0494 48.7588 68.1364 48.7555C69.4281 48.7096 70.7395 48.8014 73.0659 49.4872C74.2528 49.8337 75.3674 50.3917 76.3559 51.1344C76.6053 51.3291 76.5167 51.8552 76.2039 51.911C74.2863 52.1359 72.3574 52.2491 70.4267 52.25C69.2684 52.25 68.0729 51.9219 67.8509 50.8894C67.7377 50.2941 67.7196 49.6846 67.7973 49.0836Z" fill="#55AC0A"/>
<path d="M106.25 43.5H108M66 43.5H67.75M67.5312 45.5781C67.5312 45.5781 72.6008 44.2656 87 44.2656C101.399 44.2656 106.469 45.5781 106.469 45.5781" stroke="#F3B755" stroke-width="3" stroke-linecap="round" stroke-linejoin="round"/>
<path d="M10.4316 129.828C4.58008 129.828 1.02539 126 1.02539 119.629C1.02539 113.271 4.64844 109.43 10.3223 109.43C14.0137 109.43 16.8711 111.07 18.2246 113.914C18.498 114.434 18.6348 114.967 18.6348 115.459C18.6348 116.539 17.9102 117.236 16.8164 117.236C15.8867 117.236 15.2988 116.826 14.8477 115.869C13.9453 113.859 12.332 112.848 10.3633 112.848C7.24609 112.848 5.23633 115.459 5.23633 119.615C5.23633 123.826 7.21875 126.424 10.377 126.424C12.4551 126.424 14.0137 125.48 14.9023 123.498C15.3262 122.568 15.8457 122.199 16.7207 122.199C17.8828 122.199 18.6484 122.938 18.6484 124.031C18.6484 124.496 18.5391 124.934 18.334 125.412C17.1035 128.146 14.1641 129.828 10.4316 129.828ZM22.2305 129.76C20.9453 129.76 20.1387 129.008 20.1387 127.818C20.1387 127.477 20.2344 127.012 20.4121 126.506L25.7988 111.836C26.373 110.236 27.3438 109.498 28.9023 109.498C30.5156 109.498 31.4727 110.209 32.0605 111.822L37.4746 126.506C37.666 127.039 37.7344 127.408 37.7344 127.818C37.7344 128.953 36.873 129.76 35.6699 129.76C34.5078 129.76 33.8926 129.227 33.5234 127.941L32.4844 124.824H25.3613L24.3223 127.9C23.9395 129.213 23.3242 129.76 22.2305 129.76ZM26.2637 121.625H31.5273L28.916 113.545H28.8203L26.2637 121.625ZM42.3145 129.787C41.0293 129.787 40.25 128.994 40.25 127.641V111.918C40.25 110.564 41.0156 109.771 42.3145 109.771H48.3301C52.8691 109.771 55.4668 112.164 55.4668 116.061C55.4668 118.521 54.25 120.627 52.0762 121.557L54.9199 126.479C55.2617 127.066 55.3574 127.422 55.3574 127.9C55.3574 128.994 54.4824 129.787 53.2793 129.787C52.2949 129.787 51.8438 129.432 51.1738 128.229L47.8926 122.281H44.3789V127.641C44.3789 128.994 43.6133 129.787 42.3145 129.787ZM44.3789 119.287H47.9336C50.0117 119.287 51.2285 118.098 51.2285 116.143C51.2285 114.229 49.9434 112.998 47.8926 112.998H44.3789V119.287Z" fill="white"/>
<path d="M72.5293 129.828C66.6777 129.828 63.123 126 63.123 119.629C63.123 113.271 66.7461 109.43 72.4199 109.43C76.1113 109.43 78.9688 111.07 80.3223 113.914C80.5957 114.434 80.7324 114.967 80.7324 115.459C80.7324 116.539 80.0078 117.236 78.9141 117.236C77.9844 117.236 77.3965 116.826 76.9453 115.869C76.043 113.859 74.4297 112.848 72.4609 112.848C69.3438 112.848 67.334 115.459 67.334 119.615C67.334 123.826 69.3164 126.424 72.4746 126.424C74.5527 126.424 76.1113 125.48 77 123.498C77.4238 122.568 77.9434 122.199 78.8184 122.199C79.9805 122.199 80.7461 122.938 80.7461 124.031C80.7461 124.496 80.6367 124.934 80.4316 125.412C79.2012 128.146 76.2617 129.828 72.5293 129.828ZM85.7637 129.76C84.4648 129.76 83.6992 128.967 83.6992 127.613V111.658C83.6992 110.291 84.4648 109.498 85.7637 109.498C87.0625 109.498 87.8281 110.291 87.8281 111.658V117.783H96.7148V111.658C96.7148 110.291 97.4805 109.498 98.7793 109.498C100.078 109.498 100.844 110.291 100.844 111.658V127.613C100.844 128.967 100.078 129.76 98.7793 129.76C97.4805 129.76 96.7148 128.967 96.7148 127.613V121.188H87.8281V127.613C87.8281 128.967 87.0625 129.76 85.7637 129.76ZM105.438 129.76C104.152 129.76 103.346 129.008 103.346 127.818C103.346 127.477 103.441 127.012 103.619 126.506L109.006 111.836C109.58 110.236 110.551 109.498 112.109 109.498C113.723 109.498 114.68 110.209 115.268 111.822L120.682 126.506C120.873 127.039 120.941 127.408 120.941 127.818C120.941 128.953 120.08 129.76 118.877 129.76C117.715 129.76 117.1 129.227 116.73 127.941L115.691 124.824H108.568L107.529 127.9C107.146 129.213 106.531 129.76 105.438 129.76ZM109.471 121.625H114.734L112.123 113.545H112.027L109.471 121.625ZM130.266 129.828C126.191 129.828 123.58 128.201 122.787 126.041C122.65 125.686 122.568 125.303 122.568 124.934C122.568 123.84 123.32 123.115 124.387 123.115C125.234 123.115 125.795 123.443 126.287 124.318C126.93 125.822 128.475 126.506 130.361 126.506C132.576 126.506 134.08 125.439 134.08 123.99C134.08 122.691 133.15 121.953 130.676 121.447L128.584 121.037C124.646 120.258 122.719 118.371 122.719 115.432C122.719 111.822 125.863 109.43 130.252 109.43C133.861 109.43 136.582 110.947 137.457 113.518C137.553 113.791 137.607 114.078 137.607 114.434C137.607 115.418 136.896 116.088 135.844 116.088C134.914 116.088 134.34 115.719 133.875 114.871C133.219 113.381 131.947 112.766 130.252 112.766C128.215 112.766 126.861 113.723 126.861 115.172C126.861 116.389 127.805 117.141 130.143 117.605L132.221 118.029C136.404 118.863 138.209 120.545 138.209 123.539C138.209 127.395 135.188 129.828 130.266 129.828ZM142.803 129.5C141.504 129.5 140.738 128.707 140.738 127.34V111.918C140.738 110.564 141.504 109.771 142.803 109.771H152.182C153.316 109.771 154.055 110.414 154.055 111.48C154.055 112.547 153.303 113.189 152.182 113.189H144.867V117.934H151.826C152.852 117.934 153.549 118.535 153.549 119.52C153.549 120.504 152.865 121.105 151.826 121.105H144.867V126.082H152.182C153.303 126.082 154.055 126.725 154.055 127.791C154.055 128.857 153.316 129.5 152.182 129.5H142.803ZM158.854 129.787C157.568 129.787 156.789 128.994 156.789 127.641V111.918C156.789 110.564 157.555 109.771 158.854 109.771H164.869C169.408 109.771 172.006 112.164 172.006 116.061C172.006 118.521 170.789 120.627 168.615 121.557L171.459 126.479C171.801 127.066 171.896 127.422 171.896 127.9C171.896 128.994 171.021 129.787 169.818 129.787C168.834 129.787 168.383 129.432 167.713 128.229L164.432 122.281H160.918V127.641C160.918 128.994 160.152 129.787 158.854 129.787ZM160.918 119.287H164.473C166.551 119.287 167.768 118.098 167.768 116.143C167.768 114.229 166.482 112.998 164.432 112.998H160.918V119.287Z" fill="#4E9C0B"/>
<defs>
<filter id="filter0_d_332_537" x="35" y="0.5" width="104" height="104" filterUnits="userSpaceOnUse" color-interpolation-filters="sRGB">
<feFlood flood-opacity="0" result="BackgroundImageFix"/>
<feColorMatrix in="SourceAlpha" type="matrix" values="0 0 0 0 0 0 0 0 0 0 0 0 0 0 0 0 0 0 127 0" result="hardAlpha"/>
<feOffset dy="2"/>
<feGaussianBlur stdDeviation="6"/>
<feComposite in2="hardAlpha" operator="out"/>
<feColorMatrix type="matrix" values="0 0 0 0 0 0 0 0 0 0 0 0 0 0 0 0 0 0 0.12 0"/>
<feBlend mode="normal" in2="BackgroundImageFix" result="effect1_dropShadow_332_537"/>
<feBlend mode="normal" in="SourceGraphic" in2="effect1_dropShadow_332_537" result="shape"/>
</filter>
</defs>
</svg>
